<svg width="128" height="40" viewBox="0 0 128 40" fill="none" xmlns="http://www.w3.org/2000/svg">
<mask id="mask0" mask-type="alpha" maskUnits="userSpaceOnUse" x="0" y="0" width="128" height="40">
<path d="M96.3235 21.1787L99.2983 24.1534L93.0891 30.3657L99.3226 36.5992L96.3463 39.5754L90.1128 33.3404L90.1006 33.3541L87.1244 30.3793L96.3235 21.1787ZM112.752 21.1787L115.727 24.1534L111.193 28.6877H115.463V32.03H111.184L115.75 36.5976L112.775 39.5724L106.542 33.3374L106.526 33.3526L103.552 30.3778L112.752 21.1787ZM19.4595 22.3525L21.3628 24.1524L24.1562 26.7911V30.349L24.1547 30.3505L18.8658 35.2431L16.7899 33.2205V37.8231L12.3407 39.4767V22.3525H19.4595ZM38.3574 22.3525L44.3373 37.8261L40.2646 39.4479L39.1364 36.5916H33.2142L32.1224 39.4479L27.9252 37.8261L33.9066 22.3525H38.3574ZM118.465 36.9955C118.71 37.2311 118.846 37.5578 118.84 37.8975C118.841 38.5068 118.411 39.0319 117.814 39.1517C117.217 39.2715 116.618 38.9525 116.384 38.3899C116.15 37.8273 116.346 37.1777 116.852 36.8386C117.358 36.4994 118.034 36.5651 118.465 36.9955ZM117.143 36.8826C116.733 37.0527 116.467 37.4536 116.468 37.8975C116.463 38.191 116.577 38.474 116.785 38.681C116.99 38.8911 117.272 39.0076 117.564 39.003C117.856 39.008 118.137 38.8913 118.339 38.681C118.547 38.4741 118.662 38.1912 118.658 37.8975C118.662 37.6061 118.547 37.3255 118.339 37.1215C118.026 36.8069 117.554 36.7125 117.143 36.8826ZM77.5076 22.3525L83.489 37.2474L79.4149 38.8103L78.2851 36.0617H72.3629L71.2817 38.8147L67.077 37.2518L73.0584 22.3525H77.5076ZM54.9091 22.3525V34.8164H62.3331V38.64H54.9091V38.6583H50.4083V22.3525H54.9091ZM117.549 37.1959C117.678 37.189 117.808 37.2065 117.93 37.2476C118.074 37.3044 118.162 37.4493 118.148 37.6029C118.155 37.7125 118.103 37.8176 118.011 37.8778C117.949 37.9151 117.879 37.939 117.807 37.9476C117.903 37.9537 117.992 38.0028 118.047 38.0812C118.079 38.123 118.102 38.1706 118.115 38.221L118.126 38.2984V38.5095L118.129 38.5451L118.14 38.5793V38.5975H117.911V38.5687L117.9 38.5216V38.4138C117.916 38.2876 117.863 38.1626 117.76 38.0873C117.702 38.0635 117.641 38.0488 117.579 38.0437L117.293 38.0433V38.596H117.054L117.062 37.1959H117.549ZM117.501 37.363H117.293V37.8686H117.519C117.572 37.8717 117.625 37.8679 117.677 37.8574L117.754 37.8368C117.843 37.8057 117.902 37.7162 117.894 37.6196C117.905 37.5399 117.87 37.4609 117.804 37.4146C117.709 37.3732 117.605 37.3555 117.501 37.363ZM75.2845 28.9686L73.7205 33.0686H76.8942L75.2845 28.9686ZM36.1312 28.9322L34.5687 33.0322H37.7424L36.1312 28.9322ZM16.7899 26.2961V30.9427L19.3608 28.6209L16.7899 26.2961ZM64.6033 0.0015177L67.6145 3.01273L64.7248 5.90397L70.4086 11.5878L70.4071 11.5908L70.5058 11.6849L63.5525 18.6382L60.4578 15.5404L64.2283 11.7685L58.5308 6.07253L61.7106 2.89125V2.89276L64.6033 0.0015177ZM121.813 0L124.826 3.01121L121.935 5.90245L127.62 11.5878H127.619L127.716 11.6849L120.762 18.6367L117.666 15.5404L121.44 11.7685L115.741 6.07101L118.92 2.88973L118.922 2.89125L121.813 0ZM9.70153 0.151851L12.6763 3.12661L6.4671 9.33581L12.7021 15.5693L9.72583 18.5456L3.49234 12.3106L3.47867 12.3258L0.503906 9.35099L9.70153 0.151851ZM48.6529 0.151851L51.6276 3.12661L47.0949 7.65937H51.3634V11.0031H47.0843L51.6519 15.5693L48.6772 18.5456L42.4422 12.3106L42.4285 12.3258L39.4537 9.35099L48.6529 0.151851ZM104.185 1.32262L108.892 5.70808V9.20066L106.381 11.7214L109.7 15.3324L106.121 18.4772L101.913 14.0417V16.7158L97.4821 18.4818V1.32262H104.185ZM29.5227 1.32566L35.5026 16.7978L31.4269 18.4226L30.2986 15.5617H24.3764L23.2877 18.4226L19.0905 16.7978L25.0734 1.32566H29.5227ZM85.3735 1.32566L91.3549 16.7978L87.2808 18.4226L86.1525 15.5617H80.2303L79.14 18.4226L74.9413 16.7978L80.9243 1.32566H85.3735ZM27.2965 7.90233L25.734 12.0023H28.9077L27.2965 7.90233ZM83.1489 7.90233L81.5848 12.0023H84.76L83.1489 7.90233ZM101.934 5.27986V9.92651L104.504 7.60319L101.934 5.27986Z" fill="black"/>
</mask>
<g mask="url(#mask0)">
<path d="M96.3235 21.1787L99.2983 24.1534L93.0891 30.3657L99.3226 36.5992L96.3463 39.5754L90.1128 33.3404L90.1006 33.3541L87.1244 30.3793L96.3235 21.1787ZM112.752 21.1787L115.727 24.1534L111.193 28.6877H115.463V32.03H111.184L115.75 36.5976L112.775 39.5724L106.542 33.3374L106.526 33.3526L103.552 30.3778L112.752 21.1787ZM19.4595 22.3525L21.3628 24.1524L24.1562 26.7911V30.349L24.1547 30.3505L18.8658 35.2431L16.7899 33.2205V37.8231L12.3407 39.4767V22.3525H19.4595ZM38.3574 22.3525L44.3373 37.8261L40.2646 39.4479L39.1364 36.5916H33.2142L32.1224 39.4479L27.9252 37.8261L33.9066 22.3525H38.3574ZM118.465 36.9955C118.71 37.2311 118.846 37.5578 118.84 37.8975C118.841 38.5068 118.411 39.0319 117.814 39.1517C117.217 39.2715 116.618 38.9525 116.384 38.3899C116.15 37.8273 116.346 37.1777 116.852 36.8386C117.358 36.4994 118.034 36.5651 118.465 36.9955ZM117.143 36.8826C116.733 37.0527 116.467 37.4536 116.468 37.8975C116.463 38.191 116.577 38.474 116.785 38.681C116.99 38.8911 117.272 39.0076 117.564 39.003C117.856 39.008 118.137 38.8913 118.339 38.681C118.547 38.4741 118.662 38.1912 118.658 37.8975C118.662 37.6061 118.547 37.3255 118.339 37.1215C118.026 36.8069 117.554 36.7125 117.143 36.8826ZM77.5076 22.3525L83.489 37.2474L79.4149 38.8103L78.2851 36.0617H72.3629L71.2817 38.8147L67.077 37.2518L73.0584 22.3525H77.5076ZM54.9091 22.3525V34.8164H62.3331V38.64H54.9091V38.6583H50.4083V22.3525H54.9091ZM117.549 37.1959C117.678 37.189 117.808 37.2065 117.93 37.2476C118.074 37.3044 118.162 37.4493 118.148 37.6029C118.155 37.7125 118.103 37.8176 118.011 37.8778C117.949 37.9151 117.879 37.939 117.807 37.9476C117.903 37.9537 117.992 38.0028 118.047 38.0812C118.079 38.123 118.102 38.1706 118.115 38.221L118.126 38.2984V38.5095L118.129 38.5451L118.14 38.5793V38.5975H117.911V38.5687L117.9 38.5216V38.4138C117.916 38.2876 117.863 38.1626 117.76 38.0873C117.702 38.0635 117.641 38.0488 117.579 38.0437L117.293 38.0433V38.596H117.054L117.062 37.1959H117.549ZM117.501 37.363H117.293V37.8686H117.519C117.572 37.8717 117.625 37.8679 117.677 37.8574L117.754 37.8368C117.843 37.8057 117.902 37.7162 117.894 37.6196C117.905 37.5399 117.87 37.4609 117.804 37.4146C117.709 37.3732 117.605 37.3555 117.501 37.363ZM75.2845 28.9686L73.7205 33.0686H76.8942L75.2845 28.9686ZM36.1312 28.9322L34.5687 33.0322H37.7424L36.1312 28.9322ZM16.7899 26.2961V30.9427L19.3608 28.6209L16.7899 26.2961ZM64.6033 0.0015177L67.6145 3.01273L64.7248 5.90397L70.4086 11.5878L70.4071 11.5908L70.5058 11.6849L63.5525 18.6382L60.4578 15.5404L64.2283 11.7685L58.5308 6.07253L61.7106 2.89125V2.89276L64.6033 0.0015177ZM121.813 0L124.826 3.01121L121.935 5.90245L127.62 11.5878H127.619L127.716 11.6849L120.762 18.6367L117.666 15.5404L121.44 11.7685L115.741 6.07101L118.92 2.88973L118.922 2.89125L121.813 0ZM9.70153 0.151851L12.6763 3.12661L6.4671 9.33581L12.7021 15.5693L9.72583 18.5456L3.49234 12.3106L3.47867 12.3258L0.503906 9.35099L9.70153 0.151851ZM48.6529 0.151851L51.6276 3.12661L47.0949 7.65937H51.3634V11.0031H47.0843L51.6519 15.5693L48.6772 18.5456L42.4422 12.3106L42.4285 12.3258L39.4537 9.35099L48.6529 0.151851ZM104.185 1.32262L108.892 5.70808V9.20066L106.381 11.7214L109.7 15.3324L106.121 18.4772L101.913 14.0417V16.7158L97.4821 18.4818V1.32262H104.185ZM29.5227 1.32566L35.5026 16.7978L31.4269 18.4226L30.2986 15.5617H24.3764L23.2877 18.4226L19.0905 16.7978L25.0734 1.32566H29.5227ZM85.3735 1.32566L91.3549 16.7978L87.2808 18.4226L86.1525 15.5617H80.2303L79.14 18.4226L74.9413 16.7978L80.9243 1.32566H85.3735ZM27.2965 7.90233L25.734 12.0023H28.9077L27.2965 7.90233ZM83.1489 7.90233L81.5848 12.0023H84.76L83.1489 7.90233ZM101.934 5.27986V9.92651L104.504 7.60319L101.934 5.27986Z" fill="#666666"/>
</g>
</svg>
