<svg width="32" height="30" viewBox="0 0 32 30" fill="none" xmlns="http://www.w3.org/2000/svg">
<path d="M26.6682 4.39179C20.5662 -1.46517 10.6743 -1.46376 4.57416 4.39502C-1.52601 10.2538 -1.52455 19.7512 4.57752 25.6082C10.6796 31.4652 20.5714 31.4638 26.6716 25.605C29.6012 22.7913 31.2466 18.9753 31.2457 14.9968C31.2449 11.0189 29.5983 7.20417 26.6682 4.39179ZM23.6603 20.8948C23.6596 20.8955 23.6589 20.8962 23.6582 20.8968V20.8918L22.8666 21.6468C21.8429 22.6421 20.352 23.0516 18.9349 22.7268C17.5071 22.3599 16.1499 21.7758 14.9146 20.9968C13.7669 20.2926 12.7034 19.4693 11.7432 18.5418C10.8597 17.6998 10.066 16.7752 9.37367 15.7818C8.61645 14.7129 8.01711 13.5486 7.59267 12.3218C7.1061 10.8806 7.50931 9.29925 8.63421 8.23683L9.56115 7.34685C9.81887 7.09829 10.2376 7.09741 10.4964 7.34486C10.4971 7.3455 10.4978 7.34614 10.4985 7.34685L13.4252 10.1568C13.6841 10.4043 13.685 10.8063 13.4273 11.0548C13.4266 11.0555 13.4259 11.0561 13.4252 11.0568L11.7067 12.7068C11.2136 13.1751 11.1516 13.9192 11.5609 14.4568C12.1824 15.2759 12.8703 16.0465 13.6179 16.7619C14.4515 17.5656 15.3577 18.2968 16.3258 18.9469C16.8853 19.3215 17.6437 19.2584 18.1277 18.7969L19.7889 17.1769C20.0466 16.9283 20.4654 16.9274 20.7242 17.1749C20.7248 17.1755 20.7255 17.1762 20.7262 17.1769L23.6581 19.9969C23.9171 20.2443 23.918 20.6463 23.6603 20.8948Z" fill="white"/>
</svg>
