<svg xmlns="http://www.w3.org/2000/svg" width="127" height="40" fill="none" viewBox="0 0 127 40"><path fill="#666" d="M106.917 27.4439C104.602 30.1265 101.693 31.9433 100.462 31.114C97.7197 29.2656 106.95 19.1277 109.342 21.3223C110.633 22.5054 108.958 25.0806 106.917 27.4439H106.917ZM80.7676 26.8696C78.8264 29.0498 74.5112 32.2012 73.2073 31.2962C70.5122 29.4256 79.984 19.6224 82.6262 21.2581C84.0212 22.1219 82.9127 24.4584 80.7676 26.8696H80.7676ZM53.4673 24.3472C51.6006 23.3654 49.282 26.0815 51.1309 27.2598C48.9185 29.8398 45.3446 31.8388 44.3058 31.2424C41.2722 29.4985 49.6194 20.9724 52.8467 21.0538C54.8956 21.1047 54.0048 23.4431 53.4673 24.3472ZM36.9157 18.4739C39.106 15.5506 47.2724 4.90951 48.8671 5.56434C49.4728 5.81164 46.4778 12.0118 36.9157 18.4739ZM15.9955 16.7299C25.6196 5.58633 36.6614 1.44744 37.9286 2.2777C40.3627 3.87208 27.2719 14.8412 15.9955 16.7299ZM123.987 4.35913C123.987 4.35913 110.763 22.6358 110.644 22.7623C110.719 22.0336 110.588 21.142 109.837 20.6109C106.006 17.9024 100.317 24.558 98.9831 26.3318C97.4178 28.1006 92.8902 31.5694 91.672 31.1064C90.4393 30.6385 94.8718 24.9214 95.7929 23.6328C97.7957 20.8324 97.0101 20.3761 94.0497 20.3761C94.5189 19.2696 94.5834 17.5304 93.4247 17.5304C91.2786 17.5304 90.2932 20.771 91.7172 21.2456C90.3451 25.0221 82.6704 31.9634 81.2993 31.2645C80.6244 30.9203 81.5685 29.184 82.7079 27.6606C85.1626 24.3798 88.1875 20.376 88.1875 20.376H85.7577C85.7577 20.376 84.3079 22.3961 84.104 22.6914C84.1498 22.2944 84.0956 21.8922 83.9464 21.5212C83.7972 21.1502 83.5576 20.8222 83.2492 20.5668C80.5147 18.4546 74.7592 22.1238 71.2536 27.0547C70.4363 28.164 65.4961 31.4726 64.7173 31.0239C64.2481 30.7535 64.8501 29.7085 65.5596 28.6961C66.4462 27.4305 67.6095 26.0077 68.5249 24.6856C69.3258 23.5274 70.3728 22.0692 70.3728 21.1987C70.3728 20.5745 69.9709 19.9781 68.7825 19.9781C67.1614 19.9781 63.6515 22.4527 63.1544 22.8956C63.6582 22.2925 69.8844 14.0895 69.8844 14.0895H67.498C62.0328 21.5936 55.2028 25.5782 53.7606 26.1688C54.4664 25.2714 55.7168 22.8908 54.8366 21.3079C54.3808 20.4882 53.4664 19.9685 52.328 19.9685C50.1857 19.9685 47.0114 21.1603 42.6813 26.28C41.9664 27.2052 37.4258 31.3623 36.4008 31.0066C35.8205 30.8063 36.1239 30.0172 36.9609 28.8907C37.97 27.5321 39.1723 26.0719 40.017 24.9531C41.8059 22.5859 41.8564 21.4287 41.4553 20.7413C41.167 20.2457 40.5299 19.9782 39.5492 19.9782C37.7296 19.9782 34.9119 21.3731 34.0552 22.1143C34.0552 22.1143 35.1119 20.8477 35.1628 20.7777C35.7013 20.4709 41.8977 16.5066 45.0124 13.566C49.0622 9.74635 50.7684 5.46942 49.2661 4.87692C46.7513 3.88455 39.7814 11.3206 31.6145 21.9435C29.9044 22.9991 28.1636 24.0701 26.3272 24.9751C27.0878 23.9704 29.3059 19.3147 25.9652 17.7951C22.835 16.3704 16.3911 20.446 13.8787 25.512H14.5114C17.0291 20.9263 23.949 16.9629 25.8402 18.9331C27.0925 20.237 25.2571 24.5677 21.9433 27.4659C18.1838 30.7554 13.8018 31.6126 11.7783 30.6902C8.22802 29.0709 11.8442 22.1066 15.3426 17.8104C32.1116 15.4442 42.253 4.45024 38.8069 1.50781C36.696 -0.295596 22.9562 2.93636 12.4855 17.1786C8.5285 17.5698 1.86679 15.9131 2.17398 10.0177C2.58927 2.04571 16.7762 -0.106696 24.0657 0.740857L24.4725 0.262445C13.6441 -1.08365 0.714844 2.79735 0.714844 10.778C0.714844 15.6695 5.6565 18.0597 11.8788 18.0597C7.41357 24.8534 7.99585 29.9022 11.0735 31.5953C14.7368 33.6097 20.8236 31.5905 25.4138 26.186C26.92 25.5657 28.4295 24.6482 30.2463 23.6165C26.6594 27.953 23.472 31.8273 23.472 31.8273H26.7498C26.7498 31.8273 29.8698 27.0154 33.5264 23.6952C35.2889 22.0931 37.1993 21.0548 38.7094 20.8957C39.6102 20.8017 39.5906 21.7326 38.7252 22.8707C37.3012 24.746 35.8542 26.6405 34.7768 28.0958C33.4697 29.8638 33.3298 31.4784 34.5288 32.0335C36.3051 32.8579 39.4165 30.555 41.8414 28.4275C41.6491 29.5493 41.9871 31.5531 44.0211 32.0431C46.4677 32.6317 49.5031 31.0517 52.7245 27.5081C55.262 26.9281 59.9237 23.3922 60.0738 23.259C60.0334 23.3596 56.1148 28.3442 47.4426 39.7533C47.4416 39.7581 49.9089 39.7533 49.9089 39.7533C49.9089 39.7533 58.6104 28.6146 58.6166 28.6222C61.8353 24.4804 66.6884 21.3079 67.5383 21.2868C68.1893 21.2695 67.4134 22.5456 66.3249 24.0058C65.1192 25.6233 63.8741 27.2512 63.1516 28.3116C62.1237 29.8187 61.58 31.5253 63.1938 32.114C65.2134 32.8513 70.2864 29.0574 70.77 28.6587C70.7353 28.9549 70.3401 31.2865 72.3958 32.0133C75.2111 33.0085 78.8898 29.7766 78.8898 29.7766C78.8898 29.7766 78.6359 31.6595 80.1608 32.0948C83.3435 33.0027 89.624 27.139 93.6123 21.2331C94.9708 21.2418 94.4439 21.9676 94.1968 22.4028C93.9507 22.84 92.4026 24.861 90.7479 27.139C89.0932 29.4161 88.3567 31.5033 90.4268 32.1139C92.8411 32.8253 98.0437 28.7017 98.0437 28.7017C97.7303 30.4717 98.3976 31.4726 99.4831 31.9673C101.721 32.9864 105.308 30.3739 105.806 29.9664C105.692 30.3451 105.604 31.8311 106.687 32.1159C110.561 33.1341 117.408 24.4766 117.408 24.4766L116.644 24.4152C115.766 25.4963 114.821 26.5204 113.812 27.4813C111.744 29.4784 109.094 31.5339 108.288 31.0756C107.66 30.718 109.439 27.9233 110.467 26.4823C111.329 25.2742 126.306 4.35913 126.306 4.35913L123.987 4.35913Z"/></svg>