<svg width="512" height="512" viewBox="0 0 512 512" fill="none" xmlns="http://www.w3.org/2000/svg">
<g clip-path="url(#clip0)">
<path d="M369.699 326.621H371.73L505.732 371.994C509.484 373.041 512.059 376.486 512 380.381V415.691C512.041 419.421 509.696 422.761 506.174 423.989L271.537 509.263C261.528 512.958 250.518 512.895 240.552 509.087L5.64967 423.018C2.21425 421.759 -0.0510676 418.467 9.79533e-06 414.808V379.498C-0.0622691 375.583 2.50557 372.11 6.2676 371.023L140.359 326.179H142.477L369.699 326.621Z" fill="#D43742" fill-opacity="0.8"/>
<path d="M379.586 370.759C379.586 390.268 324.237 406.069 256 406.069C187.763 406.069 132.414 390.268 132.414 370.759L142.477 326.179L151.04 287.956L169.401 206.477L190.941 110.521L211.862 17.6552C211.862 7.94483 221.837 0 256 0C290.163 0 300.138 7.94483 300.138 17.6552L321.059 110.521L342.599 206.477L360.96 287.956L369.699 326.621L379.586 370.759Z" fill="#D43742"/>
<path d="M379.586 370.759C379.586 390.268 324.237 406.069 256 406.069C187.763 406.069 132.414 390.268 132.414 370.759L142.477 326.179L151.04 287.956C168.872 299.52 209.126 307.553 256 307.553C302.875 307.553 343.128 299.52 360.96 287.956L369.699 326.621L379.586 370.759Z" fill="#E6E7E8"/>
<path d="M342.599 206.477C325.12 215.04 292.811 220.69 256 220.69C219.189 220.69 186.88 215.04 169.401 206.477L190.941 110.521C211.874 117.614 233.908 120.903 256 120.232C278.092 120.903 300.126 117.614 321.059 110.521L342.599 206.477Z" fill="#E6E7E8"/>
<path d="M512 380.381V415.691C512.041 419.421 509.696 422.761 506.174 423.989L271.537 509.263C261.528 512.958 250.518 512.895 240.552 509.087L5.64967 423.018C2.21426 421.759 -0.0510604 418.467 1.70124e-05 414.808L-0.000829236 379.498C-0.0510604 383.157 2.21426 386.448 5.64967 387.708L240.552 473.777C250.518 477.585 261.528 477.648 271.537 473.953L477.308 399.183H477.396L506.174 388.679C509.696 387.451 512.041 384.111 512 380.381Z" fill="#D43742"/>
<path d="M256 35.3103C280.377 35.3103 300.138 27.4059 300.138 17.6552C300.138 7.90449 280.377 0 256 0C231.623 0 211.862 7.90449 211.862 17.6552C211.862 27.4059 231.623 35.3103 256 35.3103Z" fill="#D43742" fill-opacity="0.8"/>
</g>
<defs>
<clipPath id="clip0">
<rect width="512" height="512" fill="white"/>
</clipPath>
</defs>
</svg>
