<svg xmlns="http://www.w3.org/2000/svg" width="157" height="30" fill="none" viewBox="0 0 157 30"><path fill="#666" d="M148.318 25.05C148.318 22.7323 150.207 20.9297 152.439 20.9297C154.756 20.9297 156.559 22.8182 156.559 25.05C156.559 27.2818 154.67 29.1703 152.439 29.1703C150.207 29.1703 148.318 27.3676 148.318 25.05Z"/><path fill="#666" d="M24.5394 13.9785C24.5394 18.7855 23.3376 22.3907 20.7624 24.9659C18.1872 27.5411 14.582 28.8287 9.94664 28.8287H0.847656V0.244141H10.4617C15.0112 0.244141 18.4448 1.36005 20.8483 3.76356C23.3376 6.08123 24.5394 9.51481 24.5394 13.9785ZM16.6421 14.236C16.6421 11.575 16.1271 9.68649 15.097 8.39889C14.1528 7.19714 12.5218 6.51043 10.4617 6.51043H8.40153V22.4766H10.1183C12.436 22.4766 14.0669 21.7899 15.1829 20.4164C16.1271 19.043 16.6421 16.9828 16.6421 14.236Z"/><path fill="#666" d="M56.6403 0.156738H49.5156V28.8271H56.6403V0.156738Z"/><path fill="#666" d="M80.1617 18.0973C80.1617 21.5309 79.3033 24.2778 77.4149 26.2521C75.5264 28.2264 72.9512 29.1706 69.6893 29.1706C66.5133 29.1706 64.0239 28.2264 62.1354 26.1662C60.247 24.1061 59.3027 21.4451 59.3027 18.0973C59.3027 14.6637 60.1611 11.9169 62.0496 10.0284C63.9381 8.0541 66.5133 7.10986 69.7752 7.10986C71.8353 7.10986 73.6379 7.53906 75.183 8.39746C76.814 9.25585 77.9299 10.5434 78.7883 12.1744C79.8184 13.977 80.1617 15.8655 80.1617 18.0973ZM66.6849 18.0973C66.6849 19.9858 66.9425 21.2734 67.3716 22.2176C67.8008 23.1619 68.5734 23.591 69.7752 23.591C70.9769 23.591 71.6636 23.1619 72.1787 22.2176C72.6079 21.2734 72.8654 19.8141 72.8654 18.0973C72.8654 16.2089 72.6079 14.9213 72.1787 13.977C71.7495 13.1186 70.9769 12.6036 69.7752 12.6036C68.7451 12.6036 67.8867 13.0328 67.3716 13.977C66.9425 14.9213 66.6849 16.2089 66.6849 18.0973Z"/><path fill="#666" d="M90.2087 7.45312H83.084V28.7413H90.2087V7.45312Z"/><path fill="#666" d="M90.2087 0.156738H83.084V4.96375H90.2087V0.156738Z"/><path fill="#666" d="M104.713 23.3338C105.657 23.3338 106.859 23.0763 108.147 22.6471V28.055C107.202 28.4842 106.258 28.7417 105.4 28.9134C104.541 29.085 103.511 29.1709 102.31 29.1709C99.9061 29.1709 98.1893 28.57 97.0734 27.2824C96.0433 26.0807 95.4425 24.1922 95.4425 21.7028V12.9472H92.9531V7.45349H95.4425V2.13144L102.653 0.929688V7.62517H107.288V13.0331H102.653V21.2737C102.825 22.7329 103.426 23.3338 104.713 23.3338Z"/><path fill="#666" d="M121.364 23.3338C122.308 23.3338 123.51 23.0763 124.797 22.6471V28.055C123.853 28.4842 122.909 28.7417 122.05 28.9134C121.192 29.085 120.162 29.1709 118.96 29.1709C116.557 29.1709 114.84 28.57 113.724 27.2824C112.694 26.0807 112.093 24.1922 112.093 21.7028V12.9472H109.604V7.45349H112.093V2.0456L119.303 0.929688V7.62517H123.939V13.0331H119.303V21.2737C119.389 22.7329 120.076 23.3338 121.364 23.3338Z"/><path fill="#666" d="M144.029 9.59921C142.312 7.88242 139.909 7.10986 136.818 7.10986C133.556 7.10986 130.981 8.0541 129.179 10.0284C127.376 12.0027 126.518 14.7496 126.518 18.3548C126.518 21.7884 127.462 24.5353 129.35 26.4238C131.325 28.3122 133.986 29.2565 137.419 29.2565C139.136 29.2565 140.509 29.1706 141.711 28.9131C142.827 28.6556 144.115 28.3122 145.145 27.7113L144.115 22.9043C143.342 23.2477 142.484 23.5052 141.797 23.6769C140.767 23.9344 139.565 24.0202 138.363 24.0202C136.99 24.0202 135.874 23.6769 135.102 23.076C134.329 22.3893 133.9 21.4451 133.9 20.2433H146.69V16.8956C146.604 13.7195 145.66 11.316 144.029 9.59921ZM133.9 15.5221C133.986 14.4062 134.329 13.462 134.844 12.9469C135.359 12.4319 136.046 12.1744 136.99 12.1744C137.848 12.1744 138.707 12.4319 139.222 13.0328C139.737 13.6337 139.994 14.4062 140.08 15.5221H133.9Z"/><path fill="#666" d="M44.1968 9.59921C42.3942 7.88242 40.0765 7.10986 36.9863 7.10986C33.7244 7.10986 31.1492 8.0541 29.3466 10.0284C27.5439 12.0027 26.6855 14.7496 26.6855 18.3548C26.6855 21.7884 27.6298 24.5353 29.5183 26.4238C31.4926 28.3122 34.1536 29.2565 37.5872 29.2565C39.304 29.2565 40.6774 29.1706 41.8791 28.9131C42.9951 28.6556 44.2826 28.3122 45.3127 27.7113L44.2826 22.8185C43.5101 23.1619 42.6517 23.4194 41.965 23.591C40.9349 23.8486 39.7332 23.9344 38.5314 23.9344C37.158 23.9344 36.0421 23.591 35.2695 22.9902C34.4969 22.3035 34.0677 21.3592 34.0677 20.1575H46.8578V16.8956C46.772 13.7195 45.8278 11.316 44.1968 9.59921ZM33.9819 15.5221C34.0677 14.4062 34.4111 13.462 34.9261 12.9469C35.4412 12.4319 36.1279 12.1744 37.0721 12.1744C38.0164 12.1744 38.7889 12.4319 39.304 13.0328C39.819 13.6337 40.0765 14.4062 40.1623 15.5221H33.9819Z"/></svg>