<svg xmlns="http://www.w3.org/2000/svg" width="32" height="30" fill="none" viewBox="0 0 32 30"><path fill="#fff" d="M21.9262 9.64258H9.31982L15.623 14.8299L21.9262 9.64258Z"/><path fill="#fff" d="M15.6221 16.0711C15.4889 16.0711 15.36 16.0254 15.259 15.9419L8.36865 10.2715V20.3568H22.8756V10.2715L15.9853 15.9419C15.8842 16.0254 15.7554 16.0711 15.6221 16.0711Z"/><path fill="#fff" d="M15.6229 0C6.99466 0 0 6.71579 0 15C0 23.2842 6.99466 30 15.6229 30C24.2511 30 31.2458 23.2842 31.2458 15C31.236 6.71971 24.247 0.00941685 15.6229 0ZM23.9923 20.8929C23.9923 21.1887 23.7425 21.4286 23.4343 21.4286H7.81144C7.50331 21.4286 7.25348 21.1887 7.25348 20.8929V9.10714C7.25348 8.8113 7.50331 8.57143 7.81144 8.57143H23.4343C23.7425 8.57143 23.9923 8.8113 23.9923 9.10714V20.8929Z"/></svg>