<svg xmlns="http://www.w3.org/2000/svg" xmlns:xlink="http://www.w3.org/1999/xlink" viewBox="0 0 79.75 68.71"><defs><style>.cls-1{isolation:isolate;}.cls-2{fill:url(#linear-gradient);}.cls-3{fill:url(#linear-gradient-2);}.cls-4{fill:url(#linear-gradient-3);}.cls-5{fill:#5f5c5a;}.cls-6{fill:url(#linear-gradient-4);}.cls-7{fill:url(#linear-gradient-5);}.cls-18,.cls-8{opacity:0.15;}.cls-13,.cls-14,.cls-15,.cls-16,.cls-17,.cls-18,.cls-19,.cls-20,.cls-8{mix-blend-mode:overlay;}.cls-8{fill:url(#radial-gradient);}.cls-9{opacity:0.75;}.cls-10,.cls-12,.cls-22,.cls-23{fill:none;stroke:#fff;stroke-miterlimit:10;}.cls-10,.cls-12{stroke-width:0.03px;}.cls-11{opacity:0.65;}.cls-12{opacity:0.1;}.cls-13{opacity:0.7;fill:url(#radial-gradient-2);}.cls-14{fill:url(#radial-gradient-3);}.cls-15{fill:url(#radial-gradient-4);}.cls-16,.cls-17{opacity:0.6;}.cls-16{fill:url(#radial-gradient-5);}.cls-17{fill:url(#radial-gradient-6);}.cls-18{fill:url(#radial-gradient-7);}.cls-19{fill:url(#linear-gradient-6);}.cls-20{fill:url(#linear-gradient-7);}.cls-21{opacity:0.06;}.cls-22{stroke-width:0.03px;}.cls-23{stroke-width:0.02px;}</style><linearGradient id="linear-gradient" x1="50.02" y1="37.68" x2="67.12" y2="50.11" gradientTransform="translate(-0.25 -2.25) rotate(-0.21)" gradientUnits="userSpaceOnUse"><stop offset="0.01" stop-color="#9f9c9a"/><stop offset="0.68" stop-color="#e3e2e2"/><stop offset="1" stop-color="#fff"/></linearGradient><linearGradient id="linear-gradient-2" x1="25.86" y1="40.07" x2="41.08" y2="54.15" xlink:href="#linear-gradient"/><linearGradient id="linear-gradient-3" x1="64.6" y1="70.57" x2="64.6" y2="5.19" gradientTransform="translate(-0.25 -2.25) rotate(-0.21)" gradientUnits="userSpaceOnUse"><stop offset="0" stop-color="#551e2e"/><stop offset="0.93" stop-color="#d31036"/></linearGradient><linearGradient id="linear-gradient-4" x1="40.06" y1="71.36" x2="40.06" y2="11.27" gradientTransform="translate(-0.25 -2.25) rotate(-0.21)" gradientUnits="userSpaceOnUse"><stop offset="0" stop-color="#772838"/><stop offset="0.61" stop-color="#b11b2e"/><stop offset="0.96" stop-color="#ce1429"/></linearGradient><linearGradient id="linear-gradient-5" x1="15.86" y1="69.82" x2="15.86" y2="17.25" gradientTransform="translate(-0.25 -2.25) rotate(-0.21)" gradientUnits="userSpaceOnUse"><stop offset="0" stop-color="#8d1c35"/><stop offset="0.53" stop-color="#b71b30"/><stop offset="0.95" stop-color="#d41a2c"/></linearGradient><radialGradient id="radial-gradient" cx="13.09" cy="70.92" r="10.23" gradientTransform="translate(-0.25 -2.25) rotate(-0.21)" gradientUnits="userSpaceOnUse"><stop offset="0" stop-color="#6b6866"/><stop offset="0.3" stop-color="#9b9998"/><stop offset="0.78" stop-color="#e3e2e2"/><stop offset="1" stop-color="#fff"/></radialGradient><radialGradient id="radial-gradient-2" cx="37.53" cy="69.37" r="46.86" gradientUnits="userSpaceOnUse"><stop offset="0" stop-color="#fff"/><stop offset="1" stop-color="#fff" stop-opacity="0"/></radialGradient><radialGradient id="radial-gradient-3" cx="12.57" cy="15.13" r="30.1" gradientUnits="userSpaceOnUse"><stop offset="0" stop-color="#fff" stop-opacity="0"/><stop offset="1" stop-color="#fff"/></radialGradient><radialGradient id="radial-gradient-4" cx="79.96" cy="69.38" r="42.87" gradientTransform="matrix(0.73, -0.69, 0.49, 0.52, -12.16, 85.86)" gradientUnits="userSpaceOnUse"><stop offset="0" stop-color="#78170e"/><stop offset="1" stop-color="#fff" stop-opacity="0"/></radialGradient><radialGradient id="radial-gradient-5" cx="93.3" cy="6.23" r="28.59" gradientTransform="translate(31.72 -64.68) rotate(42.47) scale(1 1.72)" xlink:href="#radial-gradient-2"/><radialGradient id="radial-gradient-6" cx="83.07" cy="56.54" r="40.48" gradientTransform="matrix(0.81, 0.58, -1, 1.4, 72.04, -71.01)" gradientUnits="userSpaceOnUse"><stop offset="0" stop-color="#fff"/><stop offset="1" stop-color="#fff" stop-opacity="0"/></radialGradient><radialGradient id="radial-gradient-7" cx="40.75" cy="72.55" r="14.99" xlink:href="#radial-gradient"/><linearGradient id="linear-gradient-6" x1="18.14" y1="-32.36" x2="34.19" y2="75.92" gradientTransform="translate(-0.25 -2.25) rotate(-0.21)" xlink:href="#radial-gradient-2"/><linearGradient id="linear-gradient-7" x1="91.6" y1="-54.43" x2="33.02" y2="60.75" gradientTransform="translate(-0.25 -2.25) rotate(-0.21)" xlink:href="#radial-gradient-2"/></defs><g class="cls-1"><g id="Layer_2" data-name="Layer 2"><g id="Laag_1" data-name="Laag 1"><polygon class="cls-2" points="62.74 68.47 49.23 68.52 49.2 68.04 46.9 46.37 46.9 46.37 46.9 46.37 46.04 38.22 46.04 38.2 43.41 13.31 42.87 8.27 55.47 5.5 56.4 13.5 56.4 13.5 57.34 22.38 58.66 33.73 58.66 33.76 59.4 40.21 61.93 62.11 62.74 68.47 62.74 68.47"/><polygon class="cls-3" points="37.29 68.56 24.44 68.61 22.4 48.1 22.4 48.1 22.4 48.1 21.72 41.24 19.07 13.71 31.52 10.92 31.52 10.92 32.19 17.72 32.35 18.64 32.35 18.64 32.35 18.64 37.29 68.56"/><polygon class="cls-4" points="79.74 0.01 79.74 0.01 79.74 0.01 79.74 0.01 62.74 68.47 49.23 68.52 49.23 68.52 67 2.89 79.74 0.01 79.74 0.01"/><polygon class="cls-5" points="32.35 18.64 22.4 48.1 22.4 48.1 21.7 41.17 31.52 10.92 31.52 10.92 32.25 17.69 32.35 18.64 32.35 18.64"/><polygon class="cls-5" points="56.4 13.5 46.9 46.37 46.9 46.37 46.9 46.37 46.02 38.22 55.47 5.5 56.4 13.5 56.4 13.5"/><path class="cls-6" d="M55.47,5.5,40.7,56.74,37.29,68.56h-1c-2.31,0-8,0-11.83,0L33.2,40,42.87,8.27l9.18-2Z"/><polygon class="cls-7" points="31.52 10.92 12.86 68.65 0.01 68.7 1.57 64.19 14.48 26.76 15.47 23.89 19.07 13.71 19.07 13.71 26.38 12.09 31.52 10.92"/><path class="cls-8" d="M0,68.7l12.85,0,3.24-10s-.19,1.85-6.76,6.22C3.55,68.68,0,68.7,0,68.7Z"/><g class="cls-9"><line class="cls-10" x1="56.4" y1="13.5" x2="58.66" y2="33.81"/><line class="cls-10" x1="32.35" y1="18.64" x2="34.11" y2="36.9"/></g><g class="cls-11"><polyline class="cls-10" points="49.23 68.52 49.2 68.04 46.9 46.37 56.4 13.5"/><polyline class="cls-10" points="32.35 18.64 22.4 48.1 24.44 68.61"/></g><line class="cls-12" x1="55.47" y1="5.5" x2="56.4" y2="13.5"/><line class="cls-12" x1="31.52" y1="10.92" x2="32.35" y2="18.64"/><path class="cls-13" d="M15.48,51.12c-4,6-9,10.41-13.6,12.56a.52.52,0,0,1-.13.06L15.81,23.49h0l.11,0a6.67,6.67,0,0,1,2.59,1C24.15,28.34,22.8,40.23,15.48,51.12Z"/><path class="cls-14" d="M26.38,12.09c.77,3-7.28,13.38-11.87,14.58l1-2.88,3.56-10.08h0Z"/><path class="cls-15" d="M70.89,35.74,65.22,58.46h0l-2.48,10h-5.1l-8.41,0h0a83.9,83.9,0,0,1,13-23A95,95,0,0,1,70.89,35.74Z"/><path class="cls-16" d="M58.66,33.8,67,2.89,71.16,2C74.28,13.82,67.32,28.61,58.66,33.8Z"/><path class="cls-17" d="M54.79,48.18l2.68-9.78L67,2.89C75.06,7.37,73.57,32.88,54.79,48.18Z"/><path class="cls-18" d="M24.44,68.61l12.85,0,2.89-10s-.65,2.35-6.43,6.21S24.44,68.61,24.44,68.61Z"/><path class="cls-19" d="M40.7,56.74,37.29,68.56s-8,0-12.85,0L33.2,40a91.17,91.17,0,0,1,6.49,13.92C40,54.83,40.38,55.79,40.7,56.74Z"/><path class="cls-20" d="M55.47,5.5,40.7,56.74,37.29,68.56h-1C31.68,62,32.4,46.27,38.65,29.66,42.27,20,47.11,11.81,52.06,6.25Z"/><g class="cls-21"><polyline class="cls-10" points="79.74 0.01 62.74 68.47 49.23 68.52 49.23 68.52"/><polyline class="cls-10" points="55.47 5.5 37.29 68.56 24.44 68.61"/><polyline class="cls-10" points="31.52 10.92 12.86 68.65 0.01 68.7"/></g><g class="cls-11"><polyline class="cls-22" points="24.44 68.61 42.87 8.27 55.47 5.5"/><path class="cls-22" d="M49.23,68.52l1.65-6,0,0,7.76-28.67L67,2.89,79.74,0h0"/><polyline class="cls-23" points="0.01 68.7 19.07 13.71 31.52 10.92 31.52 10.92"/></g></g></g></g></svg>