<svg xmlns="http://www.w3.org/2000/svg" width="64" height="63" fill="none" viewBox="0 0 64 63"><path fill="#FDD069" d="M59.524 39.6094C59.356 39.6094 59.1879 39.6216 59.0219 39.6409C59.3498 38.6435 59.5579 37.6127 59.6398 36.5625H60.7303C62.4254 36.5625 63.8049 35.1955 63.8049 33.5156C63.8049 31.8358 62.4254 30.4688 60.7303 30.4688H57.9488C59.0567 29.6309 59.7054 28.5858 59.7054 27.4219V11.1719C59.7054 8.27633 55.7403 6.09375 50.4817 6.09375C45.2232 6.09375 41.258 8.27633 41.258 11.1719V16.0316C39.5936 14.9104 37.0438 14.2188 34.084 14.2188C30.4693 14.2188 27.4655 15.2506 25.9405 16.836C25.6822 16.2581 25.3788 15.6975 25.0201 15.1653L20.9556 9.12234L26.7101 0H22.8105C21.4475 0 20.7239 0.820625 20.2443 1.36297C19.7975 1.86773 19.6191 2.03125 19.2205 2.03125C18.8208 2.03125 18.6435 1.86773 18.1956 1.36195C17.716 0.819609 16.9924 0 15.6304 0C14.2694 0 13.5458 0.820625 13.0662 1.36297C12.6214 1.86773 12.4431 2.03125 12.0454 2.03125C11.6478 2.03125 11.4705 1.86773 11.0257 1.36297C10.5471 0.820625 9.82355 0 8.46254 0H4.56295L10.3175 9.12234L6.25294 15.1643C5.01696 17.0016 4.3631 19.1415 4.3631 21.3495C4.3631 25.1174 6.26422 28.4487 9.17071 30.4688H3.33825C1.64313 30.4688 0.263672 31.8358 0.263672 33.5156C0.263672 35.1955 1.64313 36.5625 3.33825 36.5625H4.40922C4.82429 42.0113 8.5476 46.5786 13.7621 48.1569L12.4144 49.4924L10.214 48.5235L0.263672 60.5749V62.9688H26.3094L29.9846 59.3267V57.2315L28.725 56.677C30.3422 55.4927 32.2843 54.8438 34.332 54.8438H46.4848C48.6175 54.8438 50.7062 54.2577 52.5243 53.1497L61.7685 47.513C63.0239 46.7472 63.8049 45.3629 63.8049 43.8516C63.8049 41.5127 61.8843 39.6094 59.524 39.6094ZM43.3077 18.4996C43.8888 18.8906 44.5806 19.2278 45.3574 19.503V21.3606C44.0753 20.7787 43.3077 20.0159 43.3077 19.2969V18.4996ZM49.4569 16.2205V18.2437C48.7272 18.1949 48.0395 18.0964 47.4071 17.9573V15.9768C48.0569 16.0956 48.7405 16.1809 49.4569 16.2205ZM53.5563 30.1448C52.924 30.2839 52.2363 30.3824 51.5066 30.4312V28.408C52.2229 28.3684 52.9065 28.2831 53.5563 28.1643V30.1448ZM55.606 27.628C56.3828 27.3528 57.0746 27.0156 57.6557 26.6246V27.4219C57.6557 28.1409 56.8881 28.9037 55.606 29.4856V27.628ZM26.91 26.6246C27.4911 27.0156 28.1829 27.3528 28.9597 27.628V29.4856C27.6776 28.9037 26.91 28.1409 26.91 27.4219V26.6246ZM35.1088 28.408C35.8252 28.3684 36.5088 28.2831 37.1586 28.1643V30.1448C36.5262 30.2839 35.8385 30.3824 35.1088 30.4312V28.408ZM31.0094 28.1643C31.6592 28.2831 32.3428 28.3674 33.0591 28.408V30.4312C32.3294 30.3824 31.6417 30.2839 31.0094 30.1448V28.1643ZM39.2083 29.4856V27.628C39.9851 27.3528 40.6769 27.0156 41.258 26.6246V27.4219C41.258 28.1409 40.4904 28.9037 39.2083 29.4856ZM43.3077 22.5621C43.8888 22.9531 44.5806 23.2903 45.3574 23.5655V25.4231C44.0753 24.8412 43.3077 24.0784 43.3077 23.3594V22.5621ZM49.4569 26.3687C48.7272 26.3199 48.0395 26.2214 47.4071 26.0823V24.1018C48.0569 24.2206 48.7405 24.3049 49.4569 24.3455V26.3687ZM49.4569 28.408V30.4312C48.7272 30.3824 48.0395 30.2839 47.4071 30.1448V28.1643C48.0569 28.2831 48.7405 28.3684 49.4569 28.408ZM43.3077 26.6246C43.8888 27.0156 44.5806 27.3528 45.3574 27.628V29.4856C44.0753 28.9037 43.3077 28.1409 43.3077 27.4219V26.6246ZM51.5066 26.3687V24.3455C52.2229 24.3059 52.9065 24.2206 53.5563 24.1018V26.0823C52.924 26.2204 52.2363 26.3189 51.5066 26.3687ZM51.5066 22.3062V20.283C52.2229 20.2434 52.9065 20.1581 53.5563 20.0393V22.0198C52.924 22.1579 52.2363 22.2564 51.5066 22.3062ZM51.5066 18.2437V16.2205C52.2229 16.1809 52.9065 16.0956 53.5563 15.9768V17.9573C52.924 18.0954 52.2363 18.1939 51.5066 18.2437ZM49.4569 20.283V22.3062C48.7272 22.2574 48.0395 22.1589 47.4071 22.0198V20.0393C48.0569 20.1581 48.7405 20.2434 49.4569 20.283ZM41.258 23.3594C41.258 24.0784 40.4904 24.8412 39.2083 25.4231V23.5655C39.9851 23.2903 40.6769 22.9531 41.258 22.5621V23.3594ZM37.1586 26.0823C36.5262 26.2214 35.8385 26.3199 35.1088 26.3687V24.3455C35.8252 24.3059 36.5088 24.2206 37.1586 24.1018V26.0823ZM33.0591 26.3687C32.3294 26.3199 31.6417 26.2214 31.0094 26.0823V24.1018C31.6592 24.2206 32.3428 24.3049 33.0591 24.3455V26.3687ZM28.9597 25.4231C27.6776 24.8412 26.91 24.0784 26.91 23.3594V22.5621C27.4911 22.9531 28.1829 23.2903 28.9597 23.5655V25.4231ZM24.8849 27.7134C24.9832 28.7605 25.6033 29.702 26.6169 30.4688H22.1126C23.1908 29.7172 24.1306 28.7848 24.8849 27.7134ZM42.2828 29.8177C42.496 30.0473 42.743 30.2636 43.0146 30.4688H41.5501C41.8227 30.2636 42.0697 30.0473 42.2828 29.8177ZM55.606 25.4231V23.5655C56.3828 23.2903 57.0746 22.9531 57.6557 22.5621V23.3594C57.6557 24.0784 56.8881 24.8412 55.606 25.4231ZM55.606 21.3606V19.503C56.3828 19.2278 57.0746 18.8906 57.6557 18.4996V19.2969C57.6557 20.0159 56.8881 20.7787 55.606 21.3606ZM55.606 17.2981V15.4405C56.3828 15.1653 57.0746 14.8281 57.6557 14.4371V15.2344C57.6557 15.9534 56.8881 16.7162 55.606 17.2981ZM50.4817 8.125C54.5883 8.125 57.6557 9.73375 57.6557 11.1719C57.6557 12.61 54.5883 14.2188 50.4817 14.2188C46.3751 14.2188 43.3077 12.61 43.3077 11.1719C43.3077 9.73375 46.3751 8.125 50.4817 8.125ZM43.3077 14.4371C43.8888 14.8281 44.5806 15.1653 45.3574 15.4405V17.2981C44.0753 16.7162 43.3077 15.9534 43.3077 15.2344V14.4371ZM34.084 16.25C38.1906 16.25 41.258 17.8587 41.258 19.2969C41.258 20.735 38.1906 22.3438 34.084 22.3438C29.9774 22.3438 26.91 20.735 26.91 19.2969C26.91 17.8587 29.9774 16.25 34.084 16.25ZM8.46254 2.03125C8.86018 2.03125 9.03748 2.19477 9.48227 2.69953C9.96088 3.24187 10.6844 4.0625 12.0454 4.0625C13.4065 4.0625 14.13 3.24187 14.6096 2.69953C15.0554 2.19477 15.2327 2.03125 15.6304 2.03125C16.0291 2.03125 16.2064 2.19477 16.6542 2.69953C17.1339 3.24187 17.8574 4.0625 19.2205 4.0625C20.5825 4.0625 21.3061 3.24289 21.7857 2.70055C22.2336 2.19477 22.4109 2.03125 22.8105 2.03125H23.0104L19.1682 8.125H12.1049L8.26269 2.03125H8.46254ZM6.41282 21.3495C6.41282 19.5427 6.94677 17.7938 7.95831 16.2916L12.0854 10.1562H19.1877L23.3148 16.2916C24.3263 17.7948 24.8603 19.5427 24.8603 21.3495C24.8603 26.3788 20.7332 30.4688 15.615 30.4688C10.5399 30.4688 6.41282 26.3788 6.41282 21.3495ZM2.31339 33.5156C2.31339 32.955 2.77252 32.5 3.33825 32.5H60.7303C61.296 32.5 61.7551 32.955 61.7551 33.5156C61.7551 34.0762 61.296 34.5312 60.7303 34.5312H3.33825C2.77252 34.5312 2.31339 34.0762 2.31339 33.5156ZM6.45894 36.5625H57.5912C57.4559 38.027 57.0377 39.4509 56.347 40.7479L50.7502 43.8283C50.0011 44.2416 49.176 44.5088 48.3285 44.6225C48.018 43.4941 46.9849 42.6562 45.7489 42.6562H24.8326C23.3599 42.6562 21.921 42.9315 20.5538 43.4728L19.3055 43.9664C17.8513 44.5433 16.5528 45.3923 15.4459 46.4882C10.5266 45.5071 6.90065 41.473 6.45894 36.5625ZM25.4608 60.9375H2.61265L10.8105 51.0088L27.8897 58.5305L25.4608 60.9375ZM60.6934 45.7834L51.4492 51.4201C49.9549 52.3301 48.2393 52.8125 46.4858 52.8125H34.332C31.4573 52.8125 28.7516 53.8606 26.6322 55.7548L14.42 50.376L16.8869 47.9314C17.799 47.0275 18.8689 46.3288 20.067 45.8534L21.3143 45.3598C22.4385 44.914 23.6222 44.6875 24.8326 44.6875H45.7489C46.0984 44.6875 46.3823 44.9688 46.3823 45.3152C46.3823 45.4127 46.3597 45.5091 46.3157 45.5955C45.3339 47.5424 43.361 48.75 41.1658 48.75H26.91V50.7812H41.1658C44.0733 50.7812 46.6846 49.2101 48.0456 46.6781C49.341 46.5857 50.6108 46.2302 51.7464 45.6036L58.4408 41.9179C58.7708 41.7371 59.1459 41.6406 59.524 41.6406C60.7539 41.6406 61.7551 42.6329 61.7551 43.9004C61.7551 44.6631 61.3493 45.3842 60.6934 45.7834Z"/><path fill="#FDD069" d="M16.6614 18.2812C17.2271 18.2812 17.6863 18.7362 17.6863 19.2969H19.736C19.736 17.617 18.3565 16.25 16.6614 16.25V14.2188H14.6117V16.25H11.5371V19.2969C11.5371 20.9767 12.9166 22.3438 14.6117 22.3438H16.6614C17.2271 22.3438 17.6863 22.7987 17.6863 23.3594V24.375H14.6117C14.046 24.375 13.5868 23.92 13.5868 23.3594H11.5371C11.5371 25.0392 12.9166 26.4062 14.6117 26.4062V28.4375H16.6614V26.4062H19.736V23.3594C19.736 21.6795 18.3565 20.3125 16.6614 20.3125H14.6117C14.046 20.3125 13.5868 19.8575 13.5868 19.2969V18.2812H16.6614Z"/><path fill="#FDD069" d="M13.5859 38.5938H15.6357V40.625H13.5859V38.5938Z"/><path fill="#FDD069" d="M9.48633 38.5938H11.536V40.625H9.48633V38.5938Z"/><path fill="#FDD069" d="M17.6855 38.5938H19.7353V40.625H17.6855V38.5938Z"/></svg>