<svg xmlns="http://www.w3.org/2000/svg" width="63" height="62" fill="none" viewBox="0 0 63 62"><path fill="#FDD069" d="M60.9509 4.39404H45.5956V2.10889C45.5956 1.90687 45.5154 1.71312 45.3725 1.57027C45.2297 1.42742 45.0359 1.34717 44.8339 1.34717C44.6319 1.34717 44.4381 1.42742 44.2953 1.57027C44.1524 1.71312 44.0722 1.90687 44.0722 2.10889V4.39404H33.8542C33.3842 4.39445 32.9335 4.58127 32.601 4.91353C32.2685 5.2458 32.0813 5.69637 32.0806 6.16643V8.81658H31.3281C30.8569 8.81712 30.4051 9.00455 30.0719 9.33775C29.7387 9.67095 29.5513 10.1227 29.5508 10.5939V24.3176C29.5513 24.7888 29.7387 25.2405 30.0719 25.5737C30.4051 25.9069 30.8569 26.0944 31.3281 26.0949H58.4174C58.8886 26.0944 59.3404 25.907 59.6736 25.5738C60.0068 25.2406 60.1942 24.7888 60.1947 24.3176V21.6724H60.9509C61.421 21.672 61.8718 21.4851 62.2043 21.1527C62.5368 20.8204 62.7239 20.3697 62.7245 19.8996V6.16643C62.7238 5.69637 62.5366 5.2458 62.2041 4.91353C61.8716 4.58127 61.4209 4.39445 60.9509 4.39404ZM58.6713 24.3176C58.6713 24.3849 58.6445 24.4495 58.5969 24.4971C58.5493 24.5447 58.4847 24.5715 58.4174 24.5715H31.3281C31.2608 24.5715 31.1962 24.5447 31.1486 24.4971C31.101 24.4495 31.0742 24.3849 31.0742 24.3176V10.5939C31.0742 10.5266 31.101 10.462 31.1486 10.4144C31.1962 10.3668 31.2608 10.34 31.3281 10.34H58.4174C58.4847 10.34 58.5493 10.3668 58.5969 10.4144C58.6445 10.462 58.6713 10.5266 58.6713 10.5939V24.3176ZM38.5991 8.81658C38.6559 8.52425 38.6932 8.22848 38.711 7.93121H56.2118C56.2475 8.20987 56.2964 8.51926 56.3538 8.81658H38.5991ZM61.2011 19.8996C61.2009 19.9658 61.1744 20.0292 61.1275 20.0759C61.0806 20.1227 61.0171 20.1489 60.9509 20.1488H60.1947V10.5939C60.1942 10.1227 60.0068 9.67092 59.6736 9.33771C59.3404 9.0045 58.8886 8.81709 58.4174 8.81658H57.9088C57.7948 8.30291 57.7164 7.78196 57.6743 7.25747C57.6536 7.0191 57.542 6.79785 57.3625 6.63964C57.183 6.48142 56.9495 6.39839 56.7104 6.40777H38.1826C37.9442 6.39921 37.7117 6.48259 37.533 6.64067C37.3544 6.79875 37.2434 7.01944 37.2229 7.25709C37.2194 7.31727 37.216 7.38404 37.2123 7.45463C37.1775 8.13713 37.115 8.59327 37.0263 8.81658H33.604V6.16643C33.6042 6.10025 33.6307 6.03686 33.6776 5.99016C33.7245 5.94347 33.7881 5.91729 33.8542 5.91735H60.9509C61.0171 5.91729 61.0806 5.94347 61.1275 5.99016C61.1744 6.03686 61.2009 6.10025 61.2011 6.16643V19.8996Z"/><path fill="#FDD069" d="M57.1607 13.841C55.3474 13.841 55.2374 13.2171 55.1447 11.6802C55.124 11.4419 55.0123 11.2207 54.8328 11.0624C54.6533 10.9042 54.4198 10.8212 54.1807 10.8305H35.6529C35.4145 10.822 35.182 10.9054 35.0034 11.0635C34.8248 11.2216 34.7138 11.4423 34.6933 11.68C34.6006 13.2173 34.4902 13.8411 32.6756 13.8411C32.556 13.8364 32.4367 13.8556 32.3246 13.8975C32.2125 13.9395 32.1099 14.0034 32.0228 14.0855C31.9357 14.1676 31.8658 14.2663 31.8173 14.3757C31.7688 14.4851 31.7426 14.6031 31.7402 14.7228V19.9823C31.7414 20.1228 31.7765 20.2608 31.8427 20.3846C31.9089 20.5084 32.0042 20.6144 32.1203 20.6933C32.2841 20.8054 32.4782 20.8647 32.6766 20.8633C34.2477 20.8633 34.5682 21.4889 34.6845 23.2514C34.6977 23.4786 34.7964 23.6923 34.9609 23.8496C35.1253 24.0069 35.3433 24.096 35.5708 24.0991H54.2668C54.4944 24.0962 54.7124 24.0071 54.8769 23.8497C55.0413 23.6924 55.14 23.4785 55.1529 23.2513C55.2691 21.4889 55.59 20.8633 57.162 20.8633C57.36 20.8645 57.5536 20.8052 57.717 20.6933C57.8333 20.6144 57.9287 20.5086 57.995 20.3847C58.0613 20.2609 58.0966 20.1228 58.0979 19.9823V14.7227C58.0954 14.6029 58.0691 14.4847 58.0205 14.3752C57.9718 14.2657 57.9018 14.167 57.8146 14.0849C57.7273 14.0028 57.6245 13.9389 57.5122 13.897C57.3999 13.8552 57.2804 13.8361 57.1607 13.841ZM36.1586 22.5761C36.0287 21.3532 35.5773 19.6195 33.2641 19.3704V15.3406C35.4984 15.1487 36.0085 13.8298 36.1672 12.3539H41.0422C40.2516 12.9509 39.6102 13.7232 39.1686 14.6101C38.7269 15.497 38.4971 16.4742 38.4971 17.465C38.4971 18.4557 38.7269 19.433 39.1686 20.3199C39.6102 21.2068 40.2516 21.9791 41.0422 22.5761H36.1586ZM44.919 22.3581C43.9515 22.357 43.006 22.0691 42.2021 21.5307C41.3981 20.9924 40.7719 20.2278 40.4024 19.3336C40.0329 18.4394 39.9368 17.4557 40.1263 16.5069C40.3157 15.5581 40.7822 14.6867 41.4667 14.003C42.1513 13.3192 43.0232 12.8538 43.9722 12.6654C44.9212 12.4771 45.9048 12.5743 46.7985 12.9449C47.6923 13.3154 48.4562 13.9425 48.9936 14.7471C49.531 15.5516 49.8179 16.4975 49.8179 17.465C49.8156 18.763 49.2985 20.0071 48.3801 20.9244C47.4617 21.8417 46.217 22.3572 44.919 22.3579V22.3581ZM56.5744 19.3703C54.2608 19.6184 53.8094 21.3522 53.6793 22.5761H48.7961C49.5868 21.9791 50.2281 21.2068 50.6698 20.3199C51.1114 19.433 51.3413 18.4557 51.3413 17.465C51.3413 16.4742 51.1114 15.497 50.6698 14.6101C50.2281 13.7232 49.5868 12.9509 48.7961 12.3539H53.6711C53.8298 13.8289 54.3399 15.1482 56.5744 15.3404V19.3703Z"/><path fill="#FDD069" d="M44.9994 16.6941C44.859 16.691 44.7254 16.6331 44.6272 16.5328C44.529 16.4324 44.474 16.2976 44.474 16.1572C44.474 16.0168 44.529 15.882 44.6272 15.7816C44.7254 15.6813 44.859 15.6234 44.9994 15.6203C45.0807 15.6203 45.1609 15.6392 45.2337 15.6757C45.3064 15.7121 45.3696 15.765 45.4183 15.8302C45.5409 15.9897 45.7216 16.0943 45.921 16.1211C46.1204 16.1479 46.3223 16.0947 46.4826 15.9731C46.6429 15.8516 46.7486 15.6715 46.7767 15.4723C46.8047 15.2731 46.7528 15.0708 46.6322 14.9098C46.3935 14.5926 46.0674 14.3519 45.694 14.2171C45.6839 14.02 45.5977 13.8345 45.4536 13.6997C45.3094 13.5649 45.1185 13.4913 44.9212 13.4945C44.7239 13.4976 44.5354 13.5772 44.3956 13.7166C44.2558 13.8559 44.1756 14.044 44.1718 14.2413V14.2732C43.7408 14.4646 43.3885 14.798 43.1736 15.2177C42.9588 15.6375 42.8944 16.1183 42.9912 16.5798C43.088 17.0413 43.3401 17.4556 43.7055 17.7537C44.071 18.0517 44.5276 18.2155 44.9991 18.2175C45.1395 18.2206 45.2731 18.2785 45.3713 18.3788C45.4695 18.4792 45.5244 18.614 45.5244 18.7544C45.5244 18.8948 45.4695 19.0296 45.3713 19.13C45.2731 19.2303 45.1395 19.2882 44.9991 19.2913C44.9178 19.2913 44.8375 19.2724 44.7648 19.2359C44.6921 19.1995 44.6288 19.1466 44.5802 19.0814C44.4576 18.9219 44.2769 18.8173 44.0775 18.7905C43.8781 18.7637 43.6762 18.8169 43.5159 18.9385C43.3556 19.06 43.2498 19.2401 43.2218 19.4393C43.1938 19.6385 43.2457 19.8408 43.3662 20.0018C43.591 20.2991 43.893 20.5292 44.2393 20.667C44.2473 20.8632 44.3309 21.0487 44.4726 21.1847C44.6142 21.3206 44.803 21.3966 44.9994 21.3966C45.1957 21.3966 45.3845 21.3206 45.5262 21.1847C45.6678 21.0487 45.7514 20.8632 45.7594 20.667C46.2027 20.4886 46.5702 20.1618 46.7991 19.7424C47.028 19.3231 47.1041 18.8372 47.0143 18.3679C46.9245 17.8986 46.6745 17.4751 46.3069 17.1699C45.9394 16.8646 45.4771 16.6965 44.9994 16.6945V16.6941Z"/><path fill="#FDD069" d="M1.02539 29.4927C1.22741 29.4927 1.42116 29.4124 1.56401 29.2696C1.70686 29.1267 1.78711 28.933 1.78711 28.731V25.6841C1.78711 25.4821 1.70686 25.2883 1.56401 25.1455C1.42116 25.0026 1.22741 24.9224 1.02539 24.9224C0.82337 24.9224 0.629624 25.0026 0.486774 25.1455C0.343924 25.2883 0.263672 25.4821 0.263672 25.6841V28.731C0.263672 28.933 0.343924 29.1267 0.486774 29.2696C0.629624 29.4124 0.82337 29.4927 1.02539 29.4927Z"/><path fill="#FDD069" d="M3.20172 36.4706L6.2486 36.4985H6.25571C6.45773 36.4994 6.65183 36.42 6.79533 36.2778C6.93882 36.1356 7.01994 35.9422 7.02085 35.7402C7.02176 35.5382 6.94238 35.3441 6.80017 35.2006C6.65797 35.0571 6.46458 34.976 6.26256 34.9751L3.21569 34.947H3.20845C3.10842 34.9466 3.00928 34.9658 2.9167 35.0037C2.82411 35.0416 2.73989 35.0973 2.66885 35.1678C2.52537 35.31 2.44426 35.5034 2.44337 35.7054C2.44247 35.9074 2.52187 36.1015 2.66409 36.245C2.80631 36.3885 2.9997 36.4696 3.20172 36.4705V36.4706Z"/><path fill="#FDD069" d="M40.0879 1.52344H43.1348C43.3368 1.52344 43.5305 1.44319 43.6734 1.30034C43.8162 1.15749 43.8965 0.963739 43.8965 0.761719C43.8965 0.559698 43.8162 0.365952 43.6734 0.223102C43.5305 0.0802522 43.3368 0 43.1348 0H40.0879C39.8859 0 39.6921 0.0802522 39.5493 0.223102C39.4064 0.365952 39.3262 0.559698 39.3262 0.761719C39.3262 0.963739 39.4064 1.15749 39.5493 1.30034C39.6921 1.44319 39.8859 1.52344 40.0879 1.52344Z"/><path fill="#FDD069" d="M1.02539 35.5864C1.22741 35.5864 1.42116 35.5062 1.56401 35.3633C1.70686 35.2205 1.78711 35.0267 1.78711 34.8247V31.7778C1.78711 31.5758 1.70686 31.3821 1.56401 31.2392C1.42116 31.0964 1.22741 31.0161 1.02539 31.0161C0.82337 31.0161 0.629624 31.0964 0.486774 31.2392C0.343924 31.3821 0.263672 31.5758 0.263672 31.7778V34.8247C0.263672 35.0267 0.343924 35.2205 0.486774 35.3633C0.629624 35.5062 0.82337 35.5864 1.02539 35.5864Z"/><path fill="#FDD069" d="M1.02539 11.2114C1.22741 11.2114 1.42116 11.1312 1.56401 10.9883C1.70686 10.8455 1.78711 10.6517 1.78711 10.4497V7.40283C1.78711 7.20081 1.70686 7.00707 1.56401 6.86422C1.42116 6.72137 1.22741 6.64111 1.02539 6.64111C0.82337 6.64111 0.629624 6.72137 0.486774 6.86422C0.343924 7.00707 0.263672 7.20081 0.263672 7.40283V10.4497C0.263672 10.6517 0.343924 10.8455 0.486774 10.9883C0.629624 11.1312 0.82337 11.2114 1.02539 11.2114Z"/><path fill="#FDD069" d="M1.02539 5.11768C1.22741 5.11768 1.42116 5.03742 1.56401 4.89457C1.70686 4.75172 1.78711 4.55798 1.78711 4.35596V1.30908C1.78711 1.10706 1.70686 0.913316 1.56401 0.770466C1.42116 0.627616 1.22741 0.547363 1.02539 0.547363C0.82337 0.547363 0.629624 0.627616 0.486774 0.770466C0.343924 0.913316 0.263672 1.10706 0.263672 1.30908V4.35596C0.263672 4.55798 0.343924 4.75172 0.486774 4.89457C0.629624 5.03742 0.82337 5.11768 1.02539 5.11768Z"/><path fill="#FDD069" d="M1.02539 17.3052C1.22741 17.3052 1.42116 17.2249 1.56401 17.0821C1.70686 16.9392 1.78711 16.7455 1.78711 16.5435V13.4966C1.78711 13.2946 1.70686 13.1008 1.56401 12.958C1.42116 12.8151 1.22741 12.7349 1.02539 12.7349C0.82337 12.7349 0.629624 12.8151 0.486774 12.958C0.343924 13.1008 0.263672 13.2946 0.263672 13.4966V16.5435C0.263672 16.7455 0.343924 16.9392 0.486774 17.0821C0.629624 17.2249 0.82337 17.3052 1.02539 17.3052Z"/><path fill="#FDD069" d="M1.02539 23.3989C1.22741 23.3989 1.42116 23.3187 1.56401 23.1758C1.70686 23.033 1.78711 22.8392 1.78711 22.6372V19.5903C1.78711 19.3883 1.70686 19.1946 1.56401 19.0517C1.42116 18.9089 1.22741 18.8286 1.02539 18.8286C0.82337 18.8286 0.629624 18.9089 0.486774 19.0517C0.343924 19.1946 0.263672 19.3883 0.263672 19.5903V22.6372C0.263672 22.8392 0.343924 23.033 0.486774 23.1758C0.629624 23.3187 0.82337 23.3989 1.02539 23.3989Z"/><path fill="#FDD069" d="M15.7129 1.52344H18.7598C18.9618 1.52344 19.1555 1.44319 19.2984 1.30034C19.4412 1.15749 19.5215 0.963739 19.5215 0.761719C19.5215 0.559698 19.4412 0.365952 19.2984 0.223102C19.1555 0.0802522 18.9618 0 18.7598 0H15.7129C15.5109 0 15.3171 0.0802522 15.1743 0.223102C15.0314 0.365952 14.9512 0.559698 14.9512 0.761719C14.9512 0.963739 15.0314 1.15749 15.1743 1.30034C15.3171 1.44319 15.5109 1.52344 15.7129 1.52344Z"/><path fill="#FDD069" d="M33.9941 1.52344H37.041C37.243 1.52344 37.4368 1.44319 37.5796 1.30034C37.7225 1.15749 37.8027 0.963739 37.8027 0.761719C37.8027 0.559698 37.7225 0.365952 37.5796 0.223102C37.4368 0.0802522 37.243 0 37.041 0H33.9941C33.7921 0 33.5984 0.0802522 33.4555 0.223102C33.3127 0.365952 33.2324 0.559698 33.2324 0.761719C33.2324 0.963739 33.3127 1.15749 33.4555 1.30034C33.5984 1.44319 33.7921 1.52344 33.9941 1.52344Z"/><path fill="#FDD069" d="M27.9004 1.52344H30.9473C31.1493 1.52344 31.343 1.44319 31.4859 1.30034C31.6287 1.15749 31.709 0.963739 31.709 0.761719C31.709 0.559698 31.6287 0.365952 31.4859 0.223102C31.343 0.0802522 31.1493 0 30.9473 0H27.9004C27.6984 0 27.5046 0.0802522 27.3618 0.223102C27.2189 0.365952 27.1387 0.559698 27.1387 0.761719C27.1387 0.963739 27.2189 1.15749 27.3618 1.30034C27.5046 1.44319 27.6984 1.52344 27.9004 1.52344Z"/><path fill="#FDD069" d="M3.52539 1.52344H6.57227C6.77429 1.52344 6.96803 1.44319 7.11088 1.30034C7.25373 1.15749 7.33398 0.963739 7.33398 0.761719C7.33398 0.559698 7.25373 0.365952 7.11088 0.223102C6.96803 0.0802522 6.77429 0 6.57227 0H3.52539C3.32337 0 3.12962 0.0802522 2.98677 0.223102C2.84392 0.365952 2.76367 0.559698 2.76367 0.761719C2.76367 0.963739 2.84392 1.15749 2.98677 1.30034C3.12962 1.44319 3.32337 1.52344 3.52539 1.52344Z"/><path fill="#FDD069" d="M9.61914 1.52344H12.666C12.868 1.52344 13.0618 1.44319 13.2046 1.30034C13.3475 1.15749 13.4277 0.963739 13.4277 0.761719C13.4277 0.559698 13.3475 0.365952 13.2046 0.223102C13.0618 0.0802522 12.868 0 12.666 0H9.61914C9.41712 0 9.22337 0.0802522 9.08052 0.223102C8.93767 0.365952 8.85742 0.559698 8.85742 0.761719C8.85742 0.963739 8.93767 1.15749 9.08052 1.30034C9.22337 1.44319 9.41712 1.52344 9.61914 1.52344Z"/><path fill="#FDD069" d="M21.8066 1.52344H24.8535C25.0555 1.52344 25.2493 1.44319 25.3921 1.30034C25.535 1.15749 25.6152 0.963739 25.6152 0.761719C25.6152 0.559698 25.535 0.365952 25.3921 0.223102C25.2493 0.0802522 25.0555 0 24.8535 0H21.8066C21.6046 0 21.4109 0.0802522 21.268 0.223102C21.1252 0.365952 21.0449 0.559698 21.0449 0.761719C21.0449 0.963739 21.1252 1.15749 21.268 1.30034C21.4109 1.44319 21.6046 1.52344 21.8066 1.52344Z"/><path fill="#FDD069" d="M45.5957 29.3139V27.5012C45.5957 27.2992 45.5155 27.1055 45.3726 26.9626C45.2298 26.8198 45.036 26.7395 44.834 26.7395C44.632 26.7395 44.4382 26.8198 44.2954 26.9626C44.1525 27.1055 44.0723 27.2992 44.0723 27.5012V29.3139C44.0723 29.5159 44.1525 29.7096 44.2954 29.8525C44.4382 29.9953 44.632 30.0756 44.834 30.0756C45.036 30.0756 45.2298 29.9953 45.3726 29.8525C45.5155 29.7096 45.5957 29.5159 45.5957 29.3139Z"/><path fill="#FDD069" d="M6.88672 11.2432H6.88419C6.78415 11.2435 6.68517 11.2635 6.59288 11.3021C6.50059 11.3407 6.41681 11.3971 6.34631 11.4681C6.27581 11.539 6.21999 11.6232 6.18201 11.7157C6.14404 11.8083 6.12467 11.9074 6.125 12.0074L6.12742 12.7539C6.12809 12.9555 6.20864 13.1486 6.35141 13.2909C6.49419 13.4332 6.68755 13.5131 6.88914 13.5131H6.89091C6.99101 13.5129 7.09008 13.4929 7.18245 13.4544C7.27483 13.4158 7.3587 13.3594 7.42928 13.2885C7.49986 13.2175 7.55575 13.1333 7.59377 13.0407C7.63179 12.9481 7.65119 12.8489 7.65086 12.7488L7.64844 12.0023C7.64777 11.8008 7.56722 11.6077 7.42445 11.4654C7.28167 11.3231 7.08831 11.2432 6.88672 11.2432Z"/><path fill="#FDD069" d="M6.85154 3.99927C6.64954 4.00031 6.45623 4.08154 6.31412 4.2251C6.17201 4.36867 6.09275 4.5628 6.09376 4.76479L6.11839 9.73133C6.1194 9.93269 6.20009 10.1255 6.34283 10.2675C6.48557 10.4095 6.67875 10.4892 6.88011 10.4892H6.88404C7.08604 10.4882 7.27937 10.407 7.4215 10.2635C7.56363 10.12 7.64293 9.92584 7.64195 9.72384L7.61682 4.75718C7.61581 4.55582 7.53511 4.36305 7.39237 4.22102C7.24963 4.07899 7.05646 3.99927 6.8551 3.99927H6.85154Z"/><path fill="#FDD069" d="M10.5229 6.3174C10.4228 6.31773 10.3238 6.33777 10.2316 6.37635C10.1393 6.41494 10.0555 6.47133 9.98498 6.5423C9.91449 6.61327 9.85866 6.69742 9.82069 6.78997C9.78271 6.88251 9.76334 6.98163 9.76368 7.08166L9.76621 7.82802C9.76689 8.0296 9.84744 8.22269 9.99021 8.36499C10.133 8.50729 10.3264 8.5872 10.5279 8.5872H10.5296C10.6297 8.58698 10.7288 8.56703 10.8212 8.5285C10.9136 8.48996 10.9974 8.43359 11.068 8.36261C11.1386 8.29163 11.1945 8.20744 11.2326 8.11483C11.2706 8.02223 11.29 7.92304 11.2897 7.82294L11.2871 7.07658C11.2871 6.97645 11.2673 6.87731 11.2289 6.78486C11.1904 6.69241 11.134 6.60848 11.063 6.53792C10.992 6.46735 10.9077 6.41154 10.815 6.37369C10.7223 6.33584 10.623 6.31671 10.5229 6.3174Z"/><path fill="#FDD069" d="M10.5286 9.34131C10.4286 9.34191 10.3296 9.36221 10.2374 9.40106C10.1452 9.43991 10.0616 9.49654 9.99128 9.56773C9.92096 9.63891 9.86537 9.72325 9.82766 9.81593C9.78995 9.9086 9.77086 10.0078 9.7715 10.1079L9.79626 13.9762C9.79753 14.1774 9.87834 14.3699 10.0211 14.5117C10.1638 14.6535 10.3568 14.7331 10.558 14.7331H10.5629C10.663 14.7326 10.762 14.7123 10.8543 14.6734C10.9466 14.6346 11.0303 14.5779 11.1006 14.5067C11.1709 14.4354 11.2266 14.351 11.2643 14.2583C11.302 14.1656 11.321 14.0663 11.3203 13.9662L11.2949 10.0982C11.2937 9.89702 11.2128 9.70451 11.0701 9.5627C10.9274 9.42089 10.7344 9.3413 10.5332 9.34131H10.5286Z"/><path fill="#FDD069" d="M21.7107 9.87575C22.1229 10.1519 22.6181 10.2766 23.1119 10.2287C23.6057 10.1807 24.0676 9.963 24.4189 9.61267C24.7703 9.26234 24.9893 8.80104 25.0386 8.30736C25.088 7.81368 24.9647 7.31815 24.6897 6.90519C24.4147 6.49223 24.005 6.18739 23.5305 6.04259C23.0559 5.89779 22.5458 5.922 22.0871 6.11108C21.6284 6.30016 21.2495 6.64242 21.0148 7.07956C20.7802 7.5167 20.7043 8.02168 20.8002 8.50847C20.8542 8.78518 20.9625 9.04847 21.1188 9.28314C21.275 9.5178 21.4762 9.71921 21.7107 9.87575ZM22.3888 7.74739C22.4575 7.64507 22.555 7.56541 22.669 7.51846C22.783 7.47151 22.9083 7.45937 23.0292 7.48357C23.15 7.50777 23.261 7.56723 23.3482 7.65444C23.4353 7.74166 23.4946 7.85272 23.5187 7.97362C23.5347 8.05376 23.5346 8.13628 23.5184 8.21639C23.5023 8.29651 23.4704 8.37261 23.4246 8.4403C23.3322 8.57744 23.1891 8.67235 23.0269 8.70421C22.8646 8.73608 22.6963 8.7023 22.5589 8.61029C22.4909 8.56487 22.4326 8.50648 22.3872 8.43848C22.3419 8.37047 22.3104 8.29418 22.2946 8.21398C22.2787 8.13379 22.2789 8.05125 22.2951 7.97112C22.3112 7.89098 22.343 7.81482 22.3886 7.747L22.3888 7.74739Z"/><path fill="#FDD069" d="M57.3386 30.4018L56.4253 30.126C56.3295 30.0971 56.229 30.0873 56.1295 30.0973C56.0299 30.1072 55.9333 30.1366 55.8452 30.1839C55.757 30.2312 55.679 30.2953 55.6157 30.3727C55.5523 30.4502 55.5048 30.5393 55.4759 30.635C55.447 30.7308 55.4372 30.8313 55.4471 30.9309C55.4571 31.0304 55.4865 31.127 55.5338 31.2152C55.581 31.3033 55.6452 31.3813 55.7226 31.4447C55.8 31.508 55.8891 31.5555 55.9849 31.5845L56.8982 31.8602C56.994 31.8891 57.0945 31.8989 57.194 31.889C57.2936 31.879 57.3902 31.8496 57.4783 31.8023C57.5665 31.7551 57.6445 31.6909 57.7078 31.6135C57.7712 31.5361 57.8187 31.447 57.8476 31.3512C57.8765 31.2554 57.8863 31.1549 57.8764 31.0554C57.8664 30.9558 57.837 30.8592 57.7897 30.7711C57.7425 30.6829 57.6783 30.6049 57.6009 30.5415C57.5235 30.4782 57.4344 30.4307 57.3386 30.4018Z"/><path fill="#FDD069" d="M58.7337 31.6184C58.6753 31.8118 58.6961 32.0204 58.7916 32.1985C58.887 32.3765 59.0493 32.5093 59.2426 32.5677L60.1561 32.8435C60.2522 32.8738 60.3534 32.8847 60.4538 32.8756C60.5543 32.8666 60.6519 32.8376 60.741 32.7905C60.8301 32.7434 60.9091 32.6791 60.9731 32.6013C61.0372 32.5235 61.0853 32.4337 61.1144 32.3372C61.1435 32.2407 61.1532 32.1393 61.1429 32.039C61.1326 31.9387 61.1024 31.8415 61.0543 31.7529C61.0061 31.6644 60.9408 31.5863 60.8622 31.5231C60.7836 31.46 60.6932 31.4131 60.5963 31.3852L59.683 31.1094C59.4897 31.051 59.281 31.0718 59.103 31.1673C58.9249 31.2627 58.7921 31.425 58.7337 31.6184Z"/><path fill="#FDD069" d="M59.1401 28.6725C59.0444 28.6435 58.9438 28.6337 58.8443 28.6436C58.7448 28.6535 58.6481 28.6829 58.56 28.7302C58.4718 28.7774 58.3938 28.8415 58.3304 28.9189C58.267 28.9963 58.2195 29.0854 58.1905 29.1812L57.9145 30.0936C57.885 30.1895 57.8748 30.2903 57.8843 30.3902C57.8939 30.49 57.9231 30.587 57.9703 30.6756C58.0174 30.7641 58.0816 30.8425 58.1591 30.9062C58.2367 30.9699 58.326 31.0176 58.4221 31.0466C58.5181 31.0757 58.6189 31.0855 58.7187 31.0754C58.8186 31.0654 58.9154 31.0357 59.0038 30.9882C59.0921 30.9406 59.1702 30.876 59.2335 30.7982C59.2968 30.7204 59.3441 30.6308 59.3727 30.5346L59.6487 29.6221C59.7072 29.4287 59.6865 29.2201 59.5911 29.042C59.4957 28.8639 59.3335 28.731 59.1401 28.6725Z"/><path fill="#FDD069" d="M57.207 32.4351L56.9311 33.3475C56.9021 33.4432 56.8923 33.5438 56.9022 33.6433C56.9121 33.7428 56.9415 33.8395 56.9887 33.9277C57.0359 34.0158 57.1001 34.0939 57.1774 34.1573C57.2548 34.2207 57.3439 34.2682 57.4397 34.2972C57.5354 34.3261 57.636 34.3359 57.7355 34.326C57.8351 34.3161 57.9317 34.2867 58.0199 34.2395C58.1081 34.1923 58.1861 34.1281 58.2495 34.0508C58.3129 33.9734 58.3604 33.8843 58.3894 33.7885L58.6652 32.876C58.6951 32.78 58.7057 32.679 58.6964 32.5788C58.6871 32.4787 58.6581 32.3814 58.6109 32.2926C58.5638 32.2037 58.4996 32.1251 58.4219 32.0612C58.3443 31.9973 58.2547 31.9494 58.1584 31.9203C58.0622 31.8912 57.9611 31.8814 57.8611 31.8916C57.761 31.9017 57.664 31.9316 57.5755 31.9795C57.4871 32.0273 57.409 32.0922 57.3457 32.1704C57.2825 32.2486 57.2353 32.3386 57.207 32.4351Z"/><path fill="#FDD069" d="M28.7307 31.9531C28.8265 32.4404 29.0883 32.8795 29.4715 33.1954C29.8547 33.5113 30.3356 33.6846 30.8323 33.6856C31.3289 33.6867 31.8106 33.5155 32.1952 33.2012C32.5797 32.887 32.8434 32.4491 32.9413 31.9621C33.0392 31.4752 32.9652 30.9694 32.732 30.531C32.4987 30.0925 32.1206 29.7485 31.6621 29.5576C31.2037 29.3666 30.6931 29.3406 30.2176 29.4839C29.7421 29.6271 29.3309 29.9309 29.0543 30.3433C28.8966 30.5769 28.7868 30.8395 28.7313 31.1158C28.6757 31.3921 28.6755 31.6767 28.7307 31.9531ZM30.319 31.1914C30.3878 31.0891 30.4853 31.0095 30.5993 30.9626C30.7133 30.9157 30.8386 30.9036 30.9594 30.9278C31.0802 30.952 31.1912 31.0115 31.2783 31.0987C31.3654 31.1858 31.4248 31.2969 31.4489 31.4177C31.4649 31.4978 31.4648 31.5803 31.4487 31.6604C31.4326 31.7404 31.4008 31.8165 31.355 31.8842C31.2626 32.0213 31.1195 32.1162 30.9572 32.1481C30.7949 32.18 30.6266 32.1463 30.4891 32.0543C30.4212 32.0088 30.363 31.9504 30.3177 31.8824C30.2724 31.8144 30.2409 31.7381 30.2251 31.6579C30.2092 31.5778 30.2094 31.4953 30.2254 31.4152C30.2415 31.335 30.2732 31.2589 30.3187 31.191L30.319 31.1914Z"/><path fill="#FDD069" d="M44.8608 33.4697C44.3653 33.4711 43.8814 33.6193 43.4701 33.8956C43.0589 34.1719 42.7387 34.5639 42.5501 35.022C42.3615 35.4802 42.3128 35.9839 42.4104 36.4697C42.5079 36.9554 42.7472 37.4014 43.098 37.7512C43.4489 38.1011 43.8955 38.3391 44.3816 38.4352C44.8676 38.5313 45.3712 38.4813 45.8288 38.2913C46.2864 38.1014 46.6775 37.7801 46.9526 37.368C47.2277 36.956 47.3745 36.4716 47.3744 35.9762C47.3728 35.3107 47.1072 34.673 46.6359 34.2031C46.1647 33.7333 45.5263 33.4695 44.8608 33.4697ZM44.8608 36.9593C44.6666 36.9579 44.4773 36.899 44.3165 36.7902C44.1558 36.6813 44.0309 36.5272 43.9576 36.3475C43.8843 36.1677 43.8658 35.9703 43.9045 35.78C43.9433 35.5898 44.0375 35.4153 44.1752 35.2785C44.313 35.1417 44.4882 35.0488 44.6787 35.0114C44.8692 34.9741 45.0665 34.994 45.2457 35.0686C45.425 35.1432 45.5781 35.2692 45.6858 35.4307C45.7935 35.5922 45.851 35.782 45.851 35.9762C45.8498 36.2378 45.7449 36.4882 45.5592 36.6725C45.3736 36.8568 45.1224 36.96 44.8608 36.9593Z"/><path fill="#FDD069" d="M44.8548 49.3235C44.7139 49.3214 44.5794 49.2638 44.4805 49.1634C44.3815 49.0629 44.3261 48.9276 44.3261 48.7866C44.3261 48.6456 44.3815 48.5103 44.4805 48.4098C44.5794 48.3093 44.7139 48.2518 44.8548 48.2496C44.9362 48.2496 45.0164 48.2686 45.0892 48.3051C45.1619 48.3415 45.2251 48.3944 45.2738 48.4596C45.3959 48.6206 45.5769 48.7265 45.777 48.754C45.9772 48.7816 46.1801 48.7284 46.3411 48.6064C46.5021 48.4843 46.608 48.3033 46.6355 48.1031C46.663 47.903 46.6099 47.7001 46.4878 47.5391C46.249 47.2219 45.9229 46.9812 45.5494 46.8464C45.5388 46.6496 45.4524 46.4646 45.3083 46.3302C45.1642 46.1958 44.9736 46.1224 44.7766 46.1256C44.5795 46.1287 44.3914 46.2081 44.2516 46.3471C44.1119 46.4861 44.0315 46.6738 44.0272 46.8708V46.9027C43.5962 47.094 43.2439 47.4274 43.0291 47.8472C42.8142 48.267 42.7498 48.7477 42.8466 49.2092C42.9434 49.6707 43.1956 50.0851 43.561 50.3832C43.9264 50.6812 44.383 50.8449 44.8546 50.847C44.995 50.85 45.1285 50.9079 45.2267 51.0083C45.3249 51.1086 45.3799 51.2435 45.3799 51.3839C45.3799 51.5243 45.3249 51.6591 45.2267 51.7594C45.1285 51.8598 44.995 51.9177 44.8546 51.9207C44.7732 51.9207 44.693 51.9017 44.6203 51.8653C44.5476 51.8288 44.4843 51.7759 44.4356 51.7108C44.3752 51.6311 44.2996 51.5641 44.2133 51.5136C44.1269 51.4631 44.0315 51.4301 43.9324 51.4164C43.8333 51.4028 43.7325 51.4089 43.6357 51.4342C43.5389 51.4596 43.4481 51.5037 43.3684 51.5642C43.2887 51.6246 43.2217 51.7002 43.1712 51.7866C43.1207 51.8729 43.0877 51.9684 43.0741 52.0675C43.0605 52.1666 43.0665 52.2674 43.0919 52.3641C43.1172 52.4609 43.1614 52.5517 43.2218 52.6314C43.4467 52.9286 43.7486 53.1586 44.0949 53.2964C44.1029 53.4926 44.1865 53.6781 44.3282 53.8141C44.4698 53.9501 44.6586 54.026 44.855 54.026C45.0513 54.026 45.2401 53.9501 45.3818 53.8141C45.5234 53.6781 45.607 53.4926 45.615 53.2964C46.0583 53.1181 46.4259 52.7914 46.6549 52.372C46.8839 51.9526 46.9599 51.4667 46.8701 50.9974C46.7804 50.5281 46.5302 50.1045 46.1626 49.7993C45.795 49.4941 45.3328 49.3261 44.855 49.324L44.8548 49.3235Z"/><path fill="#FDD069" d="M44.8551 43.9731C43.6155 43.9731 42.4039 44.3407 41.3732 45.0293C40.3426 45.7179 39.5393 46.6967 39.065 47.8418C38.5906 48.987 38.4665 50.2471 38.7083 51.4627C38.9501 52.6784 39.547 53.7951 40.4234 54.6716C41.2999 55.5481 42.4166 56.145 43.6322 56.3868C44.8479 56.6286 46.108 56.5045 47.2532 56.0302C48.3983 55.5559 49.3771 54.7526 50.0658 53.722C50.7544 52.6914 51.122 51.4797 51.122 50.2402C51.1201 48.5787 50.4592 46.9857 49.2844 45.8108C48.1095 44.636 46.5166 43.9751 44.8551 43.9731ZM44.8551 54.9837C43.9168 54.9837 42.9997 54.7055 42.2196 54.1843C41.4395 53.663 40.8315 52.9222 40.4724 52.0554C40.1134 51.1886 40.0194 50.2348 40.2025 49.3147C40.3855 48.3945 40.8373 47.5492 41.5007 46.8858C42.1641 46.2224 43.0094 45.7706 43.9295 45.5876C44.8497 45.4046 45.8035 45.4985 46.6703 45.8576C47.5371 46.2166 48.2779 46.8246 48.7991 47.6047C49.3204 48.3848 49.5986 49.302 49.5985 50.2402C49.5971 51.4978 49.0969 52.7035 48.2076 53.5927C47.3183 54.482 46.1127 54.9822 44.8551 54.9837Z"/><path fill="#FDD069" d="M12.6659 18.3053C12.2777 18.3039 11.8982 18.4197 11.5768 18.6375C11.2555 18.8554 11.0074 19.1651 10.865 19.5262L10.8104 19.6632C10.0213 21.6354 10.0213 23.8355 10.8104 25.8077L10.9484 26.1539C10.7376 26.3871 10.5902 26.6706 10.5205 26.9772C10.4508 27.2837 10.461 27.603 10.5503 27.9045C10.6395 28.2059 10.8047 28.4794 11.03 28.6986C11.2554 28.9178 11.5333 29.0754 11.837 29.1563V29.3872C11.8361 30.9774 12.4215 32.5121 13.4813 33.6977L13.4956 35.7013C13.4956 35.734 13.4971 35.7667 13.4976 35.7994L12.0359 36.5403C10.5876 37.2607 9.06013 37.8091 7.48445 38.1745C5.63467 38.6252 3.99099 39.6867 2.81926 41.1873C1.64752 42.6879 1.01623 44.5399 1.02749 46.4438V61.1945C1.02749 61.3965 1.10774 61.5903 1.25059 61.7331C1.39344 61.876 1.58719 61.9562 1.78921 61.9562H58.9333C59.1354 61.9562 59.3291 61.876 59.472 61.7331C59.6148 61.5903 59.6951 61.3965 59.6951 61.1945C59.6951 61.189 59.6943 61.1838 59.6942 61.1784H59.6949L59.6419 58.6807C59.6386 58.295 59.4831 57.9261 59.2093 57.6545C58.9354 57.3828 58.5653 57.2303 58.1795 57.2303H57.0484L57.0382 44.9783C57.2635 44.9293 57.4654 44.8047 57.6102 44.6252C57.7551 44.4458 57.8342 44.2222 57.8346 43.9916V43.014H58.1733C58.43 43.0138 58.6761 42.9118 58.8577 42.7304C59.0393 42.5489 59.1415 42.3029 59.1419 42.0462V39.1285C59.1418 38.9566 59.096 38.7879 59.0091 38.6396C58.9223 38.4913 58.7975 38.3687 58.6477 38.2845L45.4192 30.8611C45.2594 30.756 45.0723 30.7001 44.8811 30.7001C44.6899 30.7001 44.5028 30.756 44.343 30.8611L31.0623 38.2842C30.8639 38.3953 30.7111 38.5728 30.6307 38.7855C30.0934 38.528 29.5324 38.3234 28.9555 38.1743C27.2562 37.7464 25.622 37.0922 24.0968 36.2292L22.9583 35.5974L22.9539 33.9505C24.1595 32.7377 24.8358 31.097 24.835 29.387V29.1562C25.1539 29.0713 25.444 28.902 25.6747 28.666C25.9054 28.43 26.0682 28.1362 26.1459 27.8154C26.2236 27.4947 26.2133 27.1589 26.1161 26.8435C26.019 26.5282 25.8385 26.2448 25.5938 26.0234C26.3828 23.6435 26.305 21.0613 25.3743 18.7332L25.1573 18.1886C25.3232 17.799 25.4085 17.3798 25.4081 16.9563V16.2334C25.4081 16.1086 25.3774 15.9857 25.3188 15.8755C25.2601 15.7653 25.1753 15.6712 25.0717 15.6015C24.9682 15.5318 24.8491 15.4886 24.7249 15.4757C24.6008 15.4629 24.4753 15.4807 24.3597 15.5277C22.9995 16.0804 19.0538 15.9102 15.7466 15.4968C15.4988 15.4636 15.2471 15.4745 15.0031 15.5292C14.524 15.6399 14.0968 15.9101 13.7913 16.2954C13.4859 16.6808 13.3205 17.1585 13.3221 17.6502C13.3217 17.824 13.2524 17.9906 13.1294 18.1134C13.0064 18.2362 12.8397 18.3052 12.6659 18.3053ZM13.6848 37.4126C13.9153 38.4552 14.3559 39.4398 14.9798 40.3063L13.2444 41.817L12.947 37.7873L13.6848 37.4126ZM58.1196 58.7534L58.1551 60.4324H31.5977V58.7537L58.1196 58.7534ZM33.517 43.4781V43.0144H36.2638V43.4781H33.517ZM35.3549 45.0015V57.2303H34.4695V45.0015H35.3549ZM52.9379 44.9949V57.2303H36.8783V44.9964C37.1273 44.9711 37.358 44.8543 37.5259 44.6687C37.6938 44.4831 37.787 44.2419 37.7873 43.9916V43.014H52.0408V43.9916C52.0412 44.2398 52.1328 44.4793 52.2984 44.6643C52.4639 44.8493 52.6917 44.967 52.9384 44.9949H52.9379ZM53.5637 43.4781V43.0144H56.3106V43.4781H53.5637ZM55.5249 57.2303H54.4618V45.0015H55.5148L55.5249 57.2303ZM44.8799 32.3061L56.0175 38.5561H33.6982L44.8799 32.3061ZM32.0894 40.0795H57.6185V41.491H32.0894V40.0795ZM24.2918 44.0877C24.4216 44.0309 24.5329 43.939 24.6134 43.8224C24.6938 43.7058 24.7402 43.569 24.7472 43.4275L24.9961 38.3875C26.1533 38.9242 27.3593 39.3486 28.5975 39.6549C29.2847 39.8412 29.9458 40.1131 30.5653 40.4641V42.0464C30.5657 42.3031 30.6679 42.5492 30.8495 42.7306C31.0311 42.9121 31.2772 43.0141 31.5339 43.0143H31.9929V43.9918C31.9934 44.2494 32.0922 44.4971 32.2691 44.6843C32.4461 44.8714 32.6879 44.9839 32.945 44.9988V57.2305H31.5361C31.1488 57.2307 30.7773 57.3845 30.5033 57.6582C30.2292 57.9319 30.0749 58.3031 30.0742 58.6905V60.4328H29.4298V49.4958C29.4298 49.2937 29.3496 49.1 29.2067 48.9571C29.0639 48.8143 28.8701 48.734 28.6681 48.734C28.4661 48.734 28.2723 48.8143 28.1295 48.9571C27.9866 49.1 27.9064 49.2937 27.9064 49.4958V60.4326H8.53423V49.4958C8.53423 49.2937 8.45398 49.1 8.31113 48.9571C8.16828 48.8143 7.97453 48.734 7.77251 48.734C7.57049 48.734 7.37674 48.8143 7.23389 48.9571C7.09104 49.1 7.01079 49.2937 7.01079 49.4958V60.4326H2.55144V46.4437C2.54093 44.8817 3.0576 43.3619 4.01789 42.13C4.97818 40.898 6.32594 40.026 7.84322 39.655C9.08205 39.3614 10.295 38.9679 11.4703 38.4783L11.837 43.4459C11.8475 43.5869 11.8969 43.7222 11.9799 43.8367C12.0628 43.9512 12.176 44.0403 12.3068 44.0941C12.4375 44.148 12.5806 44.1643 12.7201 44.1414C12.8596 44.1185 12.99 44.0572 13.0967 43.9644L15.7345 41.6688L16.3222 43.0713C16.375 43.2403 16.4645 43.3956 16.5843 43.5259L14.6874 55.9701C14.6712 56.0763 14.6777 56.1847 14.7063 56.2881C14.735 56.3916 14.7852 56.4879 14.8537 56.5706L17.5998 59.8887C17.6708 59.9744 17.7597 60.0436 17.8603 60.0912C17.9609 60.1389 18.0707 60.164 18.182 60.1646H18.1866C18.2972 60.1646 18.4064 60.1406 18.5067 60.0941C18.607 60.0476 18.696 59.9798 18.7675 59.8955L21.5812 56.5776C21.6516 56.4946 21.7034 56.3974 21.733 56.2927C21.7627 56.188 21.7696 56.0781 21.7532 55.9705L19.8624 43.5193C19.9792 43.3903 20.0666 43.2374 20.1184 43.0713L20.7151 41.6487L23.4982 43.9744C23.6069 44.0653 23.7388 44.124 23.8791 44.144C24.0193 44.164 24.1624 44.1445 24.2922 44.0877H24.2918ZM18.7515 42.3916H17.6892L17.1747 41.164H19.2661L18.7515 42.3916ZM20.1951 55.8566L18.1936 58.2168L16.245 55.8622L18.066 43.9146H18.3816L20.1951 55.8566ZM16.3865 39.6405C15.4991 38.5173 15.0174 37.1272 15.0194 35.6957L15.0142 34.965C15.9811 35.5413 17.0814 35.8563 18.2068 35.879C19.3323 35.9016 20.4443 35.6312 21.4337 35.0942L21.4361 36.0464C21.4406 37.3702 20.9579 38.6495 20.08 39.6404L16.3865 39.6405ZM23.5075 37.6414L23.3008 41.8245L21.498 40.3181C22.1905 39.4311 22.6548 38.3878 22.8501 37.2797L23.5075 37.6414ZM24.6743 27.3821C24.6741 27.4652 24.6409 27.5448 24.582 27.6034C24.5232 27.6621 24.4434 27.695 24.3603 27.695H24.0735C23.8715 27.695 23.6778 27.7752 23.5349 27.9181C23.3921 28.0609 23.3118 28.2547 23.3118 28.4567V29.387C23.3052 30.7022 22.7781 31.9613 21.8457 32.889C20.9133 33.8167 19.6516 34.3374 18.3363 34.3374C17.0211 34.3374 15.7594 33.8167 14.827 32.889C13.8946 31.9613 13.3675 30.7022 13.3609 29.387V28.4567C13.3609 28.2547 13.2806 28.0609 13.1378 27.9181C12.9949 27.7752 12.8012 27.695 12.5991 27.695H12.3122C12.2292 27.695 12.1496 27.662 12.0909 27.6033C12.0323 27.5446 11.9993 27.465 11.9993 27.3821C11.9993 27.2991 12.0323 27.2195 12.0909 27.1608C12.1496 27.1021 12.2292 27.0691 12.3122 27.0691H12.5991C12.8012 27.0691 12.9949 26.9889 13.1378 26.846C13.2806 26.7032 13.3609 26.5094 13.3609 26.3074V24.3838C13.3611 23.4245 13.7266 22.5012 14.3831 21.8017C15.1842 22.7726 16.5523 23.3809 18.0635 23.3809C19.7265 23.3809 21.2177 22.6278 21.9669 21.4947C22.3886 21.8487 22.7276 22.2908 22.96 22.79C23.1924 23.2892 23.3125 23.8332 23.3118 24.3838V26.3074C23.3118 26.5094 23.3921 26.7032 23.5349 26.846C23.6778 26.9889 23.8715 27.0691 24.0735 27.0691H24.3603C24.4435 27.069 24.5232 27.102 24.5821 27.1606C24.641 27.2193 24.6742 27.2989 24.6744 27.3821H24.6743ZM24.6075 22.8515C24.273 21.7394 23.5814 20.7685 22.6397 20.0889C23.1478 20.026 23.6327 19.8399 24.0525 19.5469C24.4399 20.6047 24.6281 21.7251 24.6076 22.8515H24.6075ZM14.8458 17.6502C14.8453 17.5024 14.895 17.3588 14.9868 17.2429C15.0785 17.1271 15.207 17.0458 15.351 17.0125C15.4192 16.9993 15.4892 16.9979 15.5579 17.0085C16.9817 17.1862 21.3081 17.661 23.8631 17.2243C23.7988 17.6062 23.6015 17.953 23.3059 18.2032C23.0103 18.4533 22.6357 18.5908 22.2485 18.5911H17.2833C17.0813 18.5911 16.8876 18.6713 16.7447 18.8142C16.6019 18.957 16.5216 19.1508 16.5216 19.3528C16.5216 19.5548 16.6019 19.7485 16.7447 19.8914C16.8876 20.0342 17.0813 20.1145 17.2833 20.1145H20.9315C20.9214 20.1419 20.9129 20.1699 20.9061 20.1983C20.6522 21.1456 19.4348 21.8581 18.0635 21.8581C16.7831 21.8581 15.6404 21.2503 15.2824 20.3796L15.2771 20.3659C15.2351 20.2592 15.1696 20.1633 15.0854 20.0854C15.0013 20.0076 14.9006 19.9497 14.7909 19.9162C14.6813 19.8827 14.5655 19.8743 14.4521 19.8918C14.3388 19.9093 14.2309 19.9521 14.1364 20.0171C13.4868 20.4639 12.945 21.0501 12.5505 21.7328C12.156 22.4155 11.9188 23.1776 11.8562 23.9636C11.6236 22.7084 11.7517 21.413 12.2256 20.2276L12.2801 20.0905C12.3107 20.0132 12.3638 19.947 12.4326 19.9004C12.5014 19.8538 12.5827 19.829 12.6658 19.8294C13.2437 19.829 13.7979 19.5993 14.2066 19.1907C14.6153 18.7822 14.8453 18.2281 14.846 17.6502H14.8458Z"/><path fill="#FDD069" d="M4.31102 47.9159H4.31623C4.41626 47.9152 4.51518 47.8948 4.60734 47.8559C4.6995 47.817 4.7831 47.7604 4.85336 47.6892C4.92362 47.618 4.97917 47.5336 5.01683 47.441C5.0545 47.3483 5.07354 47.2491 5.07287 47.1491L5.07046 46.7974C5.06911 46.5963 4.98827 46.4038 4.84557 46.2621C4.70286 46.1203 4.50988 46.0408 4.30874 46.0408H4.30353C4.2035 46.0414 4.10458 46.0618 4.01242 46.1007C3.92026 46.1396 3.83666 46.1963 3.7664 46.2675C3.69614 46.3387 3.64059 46.423 3.60293 46.5157C3.56526 46.6084 3.54622 46.7075 3.54689 46.8076L3.5493 47.1592C3.55065 47.3604 3.63149 47.5528 3.77419 47.6946C3.9169 47.8363 4.10988 47.9159 4.31102 47.9159Z"/><path fill="#FDD069" d="M4.31888 48.6323H4.31393C4.2139 48.6329 4.11496 48.6532 4.02277 48.692C3.93057 48.7308 3.84693 48.7874 3.77661 48.8586C3.70629 48.9297 3.65067 49.014 3.61293 49.1066C3.57519 49.1993 3.55607 49.2985 3.55665 49.3985L3.58065 53.5713C3.58182 53.7726 3.66259 53.9652 3.80531 54.1071C3.94804 54.2489 4.14111 54.3286 4.34237 54.3286H4.34681C4.44685 54.328 4.5458 54.3077 4.63801 54.2689C4.73022 54.2301 4.81388 54.1735 4.88421 54.1024C4.95454 54.0312 5.01017 53.9469 5.04792 53.8543C5.08567 53.7616 5.1048 53.6625 5.10421 53.5624L5.08022 49.3897C5.07908 49.1885 4.99837 48.9959 4.85573 48.854C4.71309 48.7121 4.52009 48.6324 4.31888 48.6323Z"/></svg>