<svg xmlns="http://www.w3.org/2000/svg" width="79" height="40" fill="none" viewBox="0 0 79 40"><path fill="#666" fill-rule="evenodd" d="M30.4307 6.93408C30.3521 7.61195 30.2993 8.28565 30.2726 8.95476C30.2453 9.63196 30.2317 10.3096 30.2316 10.9874C30.2316 11.6643 30.2436 12.3389 30.2661 13.0081C30.2909 13.6774 30.3447 14.3511 30.4307 15.0289H27.8809C27.9744 14.3596 28.0306 13.6871 28.0499 13.0134C28.0692 12.3399 28.0797 11.6643 28.0797 10.9874C28.0797 10.3019 28.0682 9.62407 28.0445 8.95476C28.0205 8.27907 27.9659 7.60483 27.8809 6.93408H30.4307ZM33.5421 6.93408C34.2325 7.74714 34.9442 8.54175 35.6767 9.31709C36.4105 10.0926 37.1572 10.8558 37.9165 11.6063C37.9017 10.8252 37.8727 10.0444 37.8296 9.26433C37.7859 8.4852 37.7138 7.70793 37.6133 6.93408H39.1688C39.1057 7.53475 39.053 8.13647 39.0107 8.73895C38.9683 9.35108 38.9468 9.96447 38.9462 10.5781C38.9462 11.3258 38.9526 12.0682 38.9645 12.804C38.9763 13.5388 38.9892 14.2812 39.0053 15.0289H37.8359C37.0627 14.1642 36.2806 13.3076 35.4895 12.4592C34.7015 11.6135 33.8961 10.784 33.0741 9.97127C33.0508 10.2743 33.0393 10.5781 33.0397 10.8821C33.0397 11.5826 33.057 12.2776 33.0926 12.9672C33.1272 13.6579 33.1994 14.3461 33.3088 15.0289H31.7874C31.8736 14.3049 31.9296 13.5862 31.9574 12.8739C31.9843 12.1606 31.9983 11.4397 31.9983 10.7071C31.9983 10.069 31.9863 9.43932 31.9628 8.82058C31.9397 8.19137 31.9086 7.56249 31.8693 6.93408H33.5421ZM42.8884 11.0457C42.8884 11.4196 42.8896 11.8096 42.8938 12.2135C42.8982 12.6185 42.9121 13.0085 42.9346 13.3813C42.9424 13.5294 42.9585 13.6541 42.9822 13.7562C43.0057 13.8571 43.0445 13.9368 43.0994 13.9947C43.1532 14.0538 43.2294 14.0946 43.3274 14.1171C43.4243 14.1408 43.5512 14.1526 43.7072 14.1526C44.144 14.1526 44.5141 14.057 44.8185 13.8669C45.1195 13.6794 45.3735 13.4255 45.5611 13.1245C45.7524 12.8215 45.8943 12.4811 45.9881 12.1028C46.0817 11.7258 46.1322 11.3499 46.1408 10.976C46.1565 10.5937 46.1229 10.211 46.0409 9.83729C45.959 9.4666 45.8201 9.13791 45.6254 8.84984C45.4307 8.56197 45.1747 8.33004 44.8595 8.15485C44.543 7.97966 44.1633 7.89266 43.719 7.89266H42.8884V11.0457ZM43.9181 6.93448C44.284 6.93448 44.6487 6.94424 45.011 6.96355C45.3737 6.98286 45.7309 7.04318 46.0817 7.14511C46.9003 7.37803 47.5081 7.77679 47.9063 8.34179C48.3044 8.90678 48.5035 9.60954 48.5035 10.4495C48.5035 11.2285 48.3645 11.9095 48.088 12.494C47.8105 13.0783 47.4338 13.5651 46.9596 13.9539C46.4828 14.3439 45.9234 14.6371 45.28 14.8358C44.6369 15.0345 43.9525 15.1334 43.2274 15.1334C42.8142 15.1334 42.3698 15.1227 41.8944 15.099C41.4178 15.0755 40.982 15.0015 40.584 14.8766C40.6538 14.3108 40.6947 13.7417 40.7067 13.1717C40.7327 11.8461 40.7287 10.5201 40.6947 9.19465C40.6755 8.43892 40.6188 7.68461 40.5249 6.93448H43.9181ZM51.8722 6.93408C51.7935 7.61195 51.7408 8.28565 51.7139 8.95476C51.6866 9.63196 51.6729 10.3096 51.6729 10.9874C51.6729 11.6643 51.6848 12.3389 51.7087 13.0081C51.7322 13.6774 51.7862 14.3511 51.872 15.0289H49.3223C49.4149 14.3596 49.4718 13.6871 49.4913 13.0134C49.5107 12.3399 49.5212 11.6643 49.5212 10.9874C49.5212 10.3019 49.5095 9.62407 49.486 8.95476C49.4616 8.2791 49.407 7.60487 49.3223 6.93408H51.8722ZM55.1003 11.7114H56.9832L56.0017 9.25876L55.1003 11.7114ZM57.5338 6.93408C57.8522 7.81195 58.1854 8.68438 58.5332 9.55101C58.8812 10.4165 59.2421 11.2767 59.6156 12.1315C59.834 12.6224 60.06 13.107 60.2935 13.586C60.528 14.0652 60.7625 14.5464 60.9961 15.0287H58.2826C58.1366 14.6372 57.9802 14.2497 57.8135 13.8665C57.6485 13.4852 57.489 13.1016 57.3349 12.7158H54.7959C54.6554 13.0983 54.5129 13.4801 54.3686 13.8611C54.2238 14.2441 54.0971 14.6338 53.989 15.0287H52.3752C53.0734 13.6188 53.7402 12.1937 54.3752 10.7543C54.6476 10.1247 54.9165 9.49365 55.1821 8.86119C55.4485 8.22694 55.6943 7.58423 55.9191 6.93408H57.5338ZM63.2067 6.93408C63.8967 7.7474 64.6085 8.54202 65.3412 9.31709C66.075 10.0926 66.8217 10.8558 67.5811 11.6063C67.5649 10.82 67.5359 10.039 67.4941 9.26433C67.4495 8.48527 67.3773 7.70803 67.2777 6.93408H68.8335C68.7692 7.53464 68.7165 8.13638 68.6752 8.73895C68.6322 9.35105 68.6107 9.96446 68.6107 10.5781C68.6107 11.3258 68.6161 12.0682 68.6278 12.804C68.6398 13.5388 68.6537 14.2812 68.6688 15.0289H67.4994C66.7266 14.1643 65.9447 13.3076 65.1541 12.4592C64.366 11.6135 63.5607 10.784 62.7386 9.97127C62.7154 10.2743 62.704 10.5781 62.7044 10.8821C62.7044 11.5826 62.7215 12.2776 62.7561 12.9672C62.7914 13.6561 62.8636 14.3435 62.9731 15.0289H61.452C61.5382 14.3049 61.5941 13.5862 61.6208 12.8739C61.6488 12.1606 61.6618 11.4397 61.6618 10.7071C61.6618 10.069 61.651 9.43932 61.6273 8.82058C61.6031 8.19142 61.5719 7.56255 61.5338 6.93408H63.2067ZM27.8811 25.2743C27.9671 24.5974 28.0208 23.9239 28.0445 23.2536C28.0921 21.9029 28.0921 20.551 28.0445 19.2003C28.0208 18.5249 27.9663 17.851 27.8813 17.1806H31.2969C31.6465 17.1806 31.9811 17.2097 32.2963 17.2678C32.6128 17.3255 32.8891 17.431 33.1269 17.5835C33.3648 17.7348 33.5519 17.9413 33.6885 18.2023C33.8252 18.4633 33.8929 18.7963 33.8929 19.2003C33.8929 19.6054 33.823 19.9642 33.6831 20.2757C33.5421 20.5873 33.3496 20.8461 33.1044 21.0523C32.8579 21.2586 32.5696 21.4145 32.2384 21.5198C31.9069 21.6239 31.5465 21.6767 31.1559 21.6767C31.0624 21.6767 30.9688 21.6733 30.8752 21.6659C30.7817 21.6573 30.6881 21.6466 30.5945 21.6303L30.3373 21.1276C30.5943 21.1127 30.8052 21.0523 30.9688 20.947C31.1274 20.8471 31.2581 20.7085 31.3485 20.5443C31.4388 20.381 31.4992 20.1939 31.5304 19.9835C31.5615 19.773 31.5766 19.5592 31.5766 19.341C31.5766 18.8812 31.4894 18.5644 31.3142 18.3894C31.1388 18.213 30.832 18.126 30.3953 18.126C30.3178 18.126 30.2631 18.1304 30.232 18.138V22.1332C30.232 22.6617 30.2479 23.1881 30.2792 23.7091C30.3093 24.2313 30.3608 24.7533 30.4309 25.2743H27.8811ZM37.3675 21.3737C37.3912 21.3737 37.4308 21.3756 37.4901 21.379C37.5482 21.3832 37.5891 21.3854 37.6128 21.3854C37.8461 21.3854 38.0452 21.3307 38.2088 21.2212C38.3714 21.1146 38.506 20.9705 38.6014 20.8011C38.7018 20.6208 38.773 20.4257 38.8124 20.2232C38.8542 20.0082 38.8767 19.8009 38.8767 19.5978C38.8767 19.209 38.7832 18.8877 38.596 18.6343C38.4079 18.3817 38.1077 18.255 37.6946 18.255H37.3675V21.3737ZM39.8409 21.9924C39.9585 22.1313 40.0697 22.2755 40.1743 22.4244C40.284 22.5801 40.3854 22.7326 40.4789 22.8797C40.5725 23.028 40.6468 23.1451 40.7015 23.2301C40.9275 23.5737 41.1512 23.9133 41.374 24.2528C41.5956 24.5912 41.8203 24.9316 42.0463 25.2745H39.2038C38.8973 24.6774 38.5733 24.0894 38.2323 23.5114C38.1465 23.3633 38.0591 23.2128 37.9699 23.0615C37.882 22.9116 37.7824 22.7689 37.6719 22.6348C37.6332 22.5824 37.5901 22.5335 37.5429 22.4887C37.5041 22.4545 37.4449 22.433 37.3675 22.4244C37.3834 22.9076 37.3997 23.3848 37.42 23.8552C37.4397 24.3299 37.4807 24.8034 37.5429 25.2745H34.992C35.078 24.5976 35.1328 23.9241 35.1565 23.2538C35.1792 22.5843 35.1921 21.9108 35.1921 21.2331C35.1921 20.5487 35.1792 19.8708 35.1565 19.2005C35.1324 18.525 35.0775 17.851 34.992 17.1806H38.6541C38.9812 17.1806 39.3008 17.215 39.6127 17.2849C39.9247 17.3558 40.2044 17.4719 40.4497 17.6363C40.6951 17.7996 40.8976 18.0196 41.0403 18.2775C41.1889 18.5429 41.2621 18.8706 41.2621 19.2594C41.2621 19.9136 41.0963 20.4336 40.765 20.8182C40.4335 21.2038 39.9516 21.479 39.3213 21.6422C39.3599 21.6571 39.3965 21.6713 39.432 21.683C39.4664 21.695 39.4996 21.7077 39.5309 21.7238C39.6245 21.77 39.728 21.8602 39.8409 21.9926V21.9924ZM48.0822 25.2743C47.506 25.2355 46.9288 25.2123 46.3512 25.2046C45.7733 25.197 45.1999 25.1926 44.6308 25.1926H44.0928C43.9218 25.1926 43.7464 25.2002 43.5669 25.2165C43.427 25.2316 43.2867 25.243 43.1462 25.2508C43.0053 25.2593 42.8653 25.2667 42.7244 25.2743C42.8106 24.5974 42.8653 23.9239 42.888 23.2536C42.9356 21.9029 42.9356 20.551 42.888 19.2003C42.8653 18.5312 42.8104 17.8575 42.7244 17.1806C42.9664 17.1806 43.2042 17.186 43.4377 17.1979C43.6753 17.2097 43.9131 17.2154 44.151 17.215C44.7287 17.215 45.2999 17.214 45.8659 17.2097C46.4369 17.2052 47.0079 17.1956 47.5788 17.1806V18.4408C47.2053 18.3344 46.8239 18.2582 46.4382 18.213C46.0517 18.1705 45.6631 18.1494 45.2742 18.1497C45.2429 18.1497 45.2117 18.1517 45.1806 18.1551C45.1496 18.1594 45.1184 18.1615 45.0871 18.1615V20.6613C45.1269 20.6689 45.1567 20.6721 45.1806 20.6721H45.2861C45.613 20.6721 45.9628 20.6572 46.3327 20.6259C46.703 20.5948 47.0526 20.5602 47.3807 20.5206V21.7121C47.0535 21.6735 46.7257 21.6402 46.3974 21.6122C46.0667 21.5853 45.735 21.572 45.4032 21.5723C45.3485 21.5723 45.2957 21.5733 45.2451 21.5777C45.1925 21.5817 45.1398 21.5835 45.0871 21.5831V22.6928C45.0871 22.9432 45.0912 23.1881 45.099 23.4298C45.1067 23.672 45.13 23.9135 45.1687 24.1528C45.3873 24.2076 45.613 24.2345 45.8476 24.2345C46.2457 24.2345 46.6373 24.2076 47.0235 24.1528C47.4097 24.0991 47.7928 24.0443 48.1758 23.9896L48.0822 25.2743ZM51.5441 17.1802C51.9422 18.1073 52.3402 19.0303 52.7372 19.9486C53.1362 20.8696 53.5734 21.7735 54.0475 22.6581C54.4904 21.7671 54.9116 20.8655 55.3107 19.954C55.7088 19.0474 56.0712 18.1225 56.3983 17.1802H58.2702C58.3327 18.5435 58.4371 19.8961 58.5856 21.2389C58.7349 22.5901 58.9301 23.9359 59.1709 25.2739H56.6445C56.6445 24.4501 56.6167 23.6314 56.5629 22.8212C56.508 22.0113 56.4339 21.1947 56.3401 20.3687C55.9436 21.17 55.5651 21.9802 55.2052 22.7987C54.8474 23.6144 54.512 24.4398 54.1992 25.2739H52.679C52.3207 24.4501 51.9613 23.6314 51.6032 22.8212C51.2408 22.0042 50.8624 21.1945 50.4682 20.3924C50.4045 21.0703 50.3563 21.7396 50.3219 22.4011C50.2864 23.0702 50.2688 23.7402 50.2692 24.4102V24.8538C50.2692 24.9945 50.2735 25.1343 50.2811 25.2739H48.7607C48.9001 24.6699 49.0132 24.0602 49.0997 23.4465C49.1858 22.8353 49.259 22.2229 49.3213 21.6074C49.3992 20.8722 49.4695 20.1362 49.5322 19.3996C49.5947 18.6681 49.6257 17.928 49.6257 17.1802H51.5441ZM62.7269 17.1802C62.6482 17.8581 62.5955 18.5318 62.5688 19.2009C62.5415 19.8781 62.5278 20.5558 62.5278 21.2335C62.5278 21.9104 62.5397 22.5839 62.5622 23.2542C62.5859 23.9235 62.6409 24.5972 62.7269 25.2739H60.177C60.2706 24.6047 60.3267 23.9332 60.3461 23.2598C60.3654 22.5861 60.3759 21.9104 60.3759 21.2335C60.3759 20.5483 60.3644 19.8704 60.3407 19.2009C60.3163 18.5252 60.2617 17.851 60.177 17.1802H62.7269ZM69.4646 25.2743C68.888 25.2355 68.3104 25.2123 67.7326 25.2046C67.1558 25.197 66.5835 25.1926 66.0133 25.1926H65.4754C65.3042 25.1926 65.129 25.2002 64.9492 25.2165C64.8083 25.2315 64.6685 25.2432 64.5276 25.2508C64.3876 25.2593 64.2477 25.2667 64.1069 25.2743C64.1929 24.5974 64.2477 23.9239 64.2703 23.2536C64.3179 21.9029 64.3179 20.551 64.2703 19.2003C64.247 18.5249 64.1925 17.8509 64.1069 17.1806C64.349 17.1806 64.5867 17.186 64.8202 17.1979C65.0545 17.2099 65.2924 17.215 65.5345 17.215C66.1113 17.215 66.6824 17.214 67.2482 17.2097C67.8192 17.2053 68.3902 17.1956 68.9611 17.1806V18.4408C68.5877 18.3343 68.2063 18.2581 67.8206 18.213C67.4344 18.1706 67.0462 18.1494 66.6577 18.1497C66.6255 18.1497 66.5952 18.1517 66.563 18.1551C66.532 18.1594 66.5007 18.1615 66.4694 18.1615V20.6613C66.5092 20.6689 66.5405 20.6721 66.563 20.6721H66.6685C66.9966 20.6721 67.3452 20.6572 67.7162 20.6259C68.0865 20.5948 68.4349 20.5602 68.763 20.5206V21.7121C68.4358 21.6735 68.108 21.6401 67.7798 21.6122C67.4491 21.5853 67.1175 21.572 66.7857 21.5723C66.7308 21.5723 66.6782 21.5733 66.6277 21.5777C66.575 21.5817 66.5222 21.5835 66.4694 21.5831V22.6928C66.4694 22.9432 66.4736 23.1881 66.4823 23.4298C66.4899 23.6707 66.5124 23.9121 66.552 24.1528C66.7696 24.2076 66.9966 24.2345 67.2301 24.2345C67.6281 24.2345 68.0196 24.2076 68.4059 24.1528C68.7921 24.0991 69.1763 24.0443 69.5581 23.9896L69.4646 25.2743ZM72.7747 21.3737C72.7974 21.3737 72.8394 21.3756 72.8973 21.379C72.9555 21.3832 72.9965 21.3854 73.02 21.3854C73.2535 21.3854 73.4526 21.3307 73.6172 21.2212C73.7793 21.1142 73.9135 20.9702 74.0088 20.8011C74.1068 20.6291 74.1766 20.4368 74.2196 20.2232C74.2626 20.0082 74.2841 19.8009 74.2841 19.5978C74.2841 19.209 74.1906 18.8877 74.0022 18.6343C73.8161 18.3817 73.5149 18.255 73.103 18.255H72.7747V21.3737ZM75.2493 21.9924C75.3669 22.1311 75.4778 22.2752 75.5817 22.4244C75.6868 22.5737 75.7883 22.7255 75.8862 22.8797C75.9797 23.028 76.054 23.1451 76.1089 23.2301C76.3347 23.5737 76.5584 23.9133 76.7812 24.2528C77.0028 24.5912 77.2276 24.9316 77.4537 25.2745H74.6112C74.3047 24.6776 73.9812 24.0897 73.6409 23.5114C73.5547 23.3633 73.4665 23.2128 73.3773 23.0615C73.289 22.9119 73.1894 22.7692 73.0793 22.6348C73.0406 22.5824 72.9973 22.5336 72.9501 22.4887C72.9113 22.4545 72.8521 22.433 72.7749 22.4244C72.7908 22.9076 72.807 23.3848 72.8275 23.8552C72.8471 24.3299 72.888 24.8034 72.9501 25.2745H70.4003C70.4865 24.5976 70.5412 23.9241 70.5639 23.2538C70.6116 21.9031 70.6116 20.5512 70.5639 19.2005C70.5407 18.525 70.4861 17.851 70.4003 17.1806H74.0614C74.3885 17.1806 74.7092 17.215 75.0209 17.2849C75.3321 17.3558 75.6118 17.4719 75.8571 17.6363C76.1033 17.7995 76.299 18.0134 76.4476 18.2775C76.5963 18.5429 76.6705 18.8706 76.6705 19.2594C76.6705 19.9136 76.5037 20.4336 76.1734 20.8182C75.841 21.2038 75.36 21.479 74.7285 21.6422C74.7671 21.6571 74.8039 21.6713 74.8394 21.683C74.8738 21.695 74.9071 21.7077 74.9383 21.7238C75.0331 21.77 75.1352 21.8602 75.2493 21.9926V21.9924ZM33.2381 35.5206C32.6619 35.4818 32.0847 35.4586 31.5071 35.4509C30.9304 35.4431 30.357 35.439 29.7879 35.439H29.2499C29.0704 35.439 28.8906 35.4463 28.712 35.4624C28.5711 35.4776 28.4323 35.4893 28.2955 35.4969C28.159 35.5054 28.0214 35.5128 27.8815 35.5206C27.9665 34.8427 28.0214 34.17 28.0439 33.4999C28.0913 32.1492 28.0913 30.7973 28.0439 29.4466C28.0204 28.7709 27.9662 28.0967 27.8815 27.4259H30.4313C30.3532 28.0973 30.3004 28.7713 30.273 29.4466C30.2361 30.3495 30.2243 31.2533 30.2376 32.1569C30.242 32.3825 30.243 32.608 30.243 32.8348C30.243 33.0916 30.2473 33.3526 30.2559 33.617C30.2622 33.8789 30.2856 34.1401 30.3258 34.399C30.442 34.4388 30.5549 34.4613 30.6646 34.4698C30.7775 34.4773 30.8905 34.4809 31.0036 34.4806C31.4018 34.4806 31.7932 34.4537 32.1796 34.399C32.5658 34.3452 32.9499 34.2905 33.3317 34.2357L33.2381 35.5206ZM39.5196 35.5206C38.9433 35.4818 38.3661 35.4585 37.7885 35.4509C37.2108 35.4431 36.6373 35.439 36.0683 35.439H35.5304C35.3592 35.439 35.184 35.4463 35.0042 35.4624C34.8642 35.4776 34.7235 35.4893 34.5835 35.4969C34.4426 35.5054 34.3028 35.5128 34.1617 35.5206C34.2479 34.8427 34.3026 34.17 34.3263 33.4999C34.3721 32.1492 34.3721 30.7973 34.3263 29.4466C34.3022 28.7709 34.2472 28.0966 34.1617 27.4259C34.404 27.4259 34.6415 27.4321 34.8762 27.444C35.1095 27.456 35.3474 27.4612 35.5895 27.4612C36.1662 27.4612 36.7374 27.4592 37.3022 27.4558C37.868 27.4516 38.4393 27.4419 39.0161 27.4259V28.6869C38.6426 28.5805 38.2612 28.5043 37.8755 28.4592C37.4894 28.4167 37.1012 28.3955 36.7127 28.3959C36.6814 28.3959 36.6502 28.3978 36.6191 28.4012C36.5881 28.4054 36.5569 28.4075 36.5256 28.4076V30.9065C36.5642 30.915 36.5952 30.9184 36.6191 30.9184H36.7235C37.0515 30.9184 37.4001 30.9033 37.7712 30.872C38.1415 30.841 38.4909 30.8055 38.8182 30.7667V31.9582C38.491 31.9193 38.1631 31.8863 37.8347 31.8593C37.5041 31.8316 37.1725 31.818 36.8407 31.8185C36.7858 31.8185 36.7332 31.8195 36.6824 31.8238C36.6302 31.8278 36.5778 31.8296 36.5254 31.8292V32.9389C36.5254 33.1881 36.5288 33.4342 36.5361 33.6749C36.5443 33.9175 36.5681 34.1594 36.6072 34.399C36.8246 34.4537 37.0515 34.4806 37.2849 34.4806C37.683 34.4806 38.0746 34.4537 38.4608 34.399C38.8471 34.3452 39.2313 34.2905 39.6131 34.2357L39.5196 35.5206ZM42.6425 32.2033H44.5265L43.543 29.7506L42.6425 32.2033ZM45.0751 27.4259C45.3944 28.3036 45.728 29.176 46.0757 30.0429C46.4233 30.9089 46.7841 31.7695 47.1579 32.6245C47.3755 33.113 47.6018 33.5975 47.8368 34.0778C48.0703 34.557 48.3046 35.0384 48.5381 35.5206H45.8249C45.6788 35.1293 45.5228 34.7417 45.357 34.3583C45.1912 33.9772 45.0313 33.5936 44.8772 33.2076H42.3381C42.1976 33.5901 42.0552 33.9719 41.9109 34.353C41.7665 34.7361 41.6398 35.1257 41.5313 35.5206H39.9175C40.6159 34.1108 41.2827 32.6856 41.9175 31.2461C42.1901 30.6167 42.459 29.9857 42.7244 29.3532C42.9912 28.7192 43.237 28.0765 43.4614 27.4261H45.0751V27.4259ZM56.0007 31.7828C55.947 32.1878 55.9028 32.5907 55.8715 32.9924C55.841 33.3945 55.8256 33.7976 55.8253 34.2009C55.8253 34.3804 55.8307 34.5522 55.8424 34.7189C55.8544 34.8853 55.8803 35.0573 55.9189 35.2345C55.7079 35.3107 55.466 35.3784 55.1938 35.4366C54.9132 35.4946 54.6303 35.5409 54.3457 35.5751C54.0531 35.6094 53.765 35.6341 53.4799 35.6492C53.2248 35.6637 52.9694 35.6716 52.7139 35.6729C52.1212 35.6729 51.5594 35.5847 51.029 35.4097C50.4987 35.2345 50.035 34.9777 49.6369 34.6382C49.2399 34.2998 48.9257 33.8873 48.6956 33.4008C48.4653 32.914 48.3512 32.3556 48.3512 31.7237C48.3512 31.0008 48.487 30.3616 48.7601 29.8093C49.0335 29.2561 49.3992 28.794 49.8596 28.4245C50.3191 28.055 50.8537 27.7747 51.4626 27.5834C52.0706 27.3933 52.7139 27.2977 53.3917 27.2977C53.7821 27.2977 54.1781 27.3212 54.5795 27.3674C54.9771 27.4132 55.3591 27.5492 55.6963 27.765L55.3101 29.3421H55.0883C54.8614 28.9758 54.5912 28.7018 54.2751 28.5181C53.9597 28.3355 53.5874 28.2432 53.1582 28.2432C52.7063 28.2432 52.3233 28.3397 52.0115 28.531C51.7046 28.7177 51.4461 28.9742 51.257 29.2796C51.0667 29.5882 50.9303 29.934 50.8485 30.3208C50.7664 30.7035 50.7252 31.0939 50.7256 31.4854C50.7256 31.8441 50.7623 32.2146 50.8355 32.5961C50.9108 32.9797 51.0366 33.3277 51.2164 33.6446C51.3904 33.9542 51.6324 34.2202 51.9243 34.4224C52.217 34.6255 52.5773 34.7264 53.0065 34.7264C53.1226 34.7264 53.2379 34.7221 53.3509 34.7145C53.4648 34.7071 53.5759 34.6908 53.6844 34.6673C53.693 34.5737 53.6963 34.4814 53.6963 34.388V34.0957C53.6963 33.7069 53.6832 33.3213 53.6551 32.9387C53.6277 32.5521 53.5869 32.1666 53.5327 31.7828H56.0007ZM59.7787 27.4259C59.669 28.2282 59.6067 29.0341 59.5915 29.8442C59.5765 30.6537 59.569 31.4633 59.569 32.273C59.569 32.5845 59.584 32.8833 59.6152 33.1668C59.6465 33.4515 59.7207 33.7018 59.838 33.921C59.9541 34.1392 60.1241 34.3141 60.3468 34.4463C60.5684 34.5785 60.8706 34.645 61.2527 34.645C61.7358 34.645 62.1027 34.5451 62.3522 34.3464C62.6018 34.1487 62.7826 33.8951 62.8965 33.5879C63.0096 33.2795 63.0719 32.9369 63.0836 32.5598C63.0956 32.1816 63.1009 31.8187 63.1009 31.4673C63.1009 30.782 63.0772 30.1052 63.0311 29.4347C62.9835 28.7638 62.9211 28.094 62.8439 27.4259H64.3878C64.3176 28.0791 64.2591 28.7334 64.2124 29.3887C64.1814 29.8748 64.1598 30.3615 64.1477 30.8485C64.1361 31.3351 64.1304 31.8217 64.1306 32.3084C64.1306 33.4611 63.867 34.3056 63.3408 34.8427C62.8149 35.3798 61.9702 35.6484 60.8085 35.6484C60.3253 35.6484 59.8754 35.6086 59.4635 35.526C59.0494 35.4443 58.6911 35.2982 58.3865 35.0888C58.0821 34.8781 57.8444 34.5956 57.6732 34.2411C57.5012 33.8867 57.4162 33.4376 57.4162 32.8929C57.4162 32.6202 57.4204 32.3536 57.4279 32.0926C57.4355 31.8314 57.4387 31.565 57.4387 31.2923C57.4387 30.6455 57.4237 30.002 57.3925 29.3596C57.3608 28.7133 57.3062 28.0684 57.2288 27.4259H59.7787ZM71.0901 35.5206C70.5137 35.4818 69.9365 35.4586 69.3589 35.4509C68.7859 35.4431 68.2128 35.4392 67.6398 35.439H67.1019C66.9259 35.4389 66.75 35.4467 66.5747 35.4624C66.4348 35.4776 66.295 35.4893 66.1541 35.4969C66.0131 35.5054 65.8733 35.5128 65.7334 35.5206C65.8184 34.8427 65.8731 34.17 65.8958 33.4999C65.9433 32.1492 65.9433 30.7973 65.8958 29.4466C65.8731 28.7773 65.8182 28.1036 65.7334 27.4259C65.9743 27.4259 66.2122 27.4321 66.4467 27.444C66.68 27.456 66.9177 27.4612 67.16 27.4612C67.7366 27.4612 68.3079 27.4592 68.8737 27.4558C69.4452 27.4516 70.0165 27.4416 70.5878 27.4259V28.6869C70.2143 28.5805 69.8328 28.5044 69.4471 28.4592C69.0605 28.4167 68.6719 28.3955 68.283 28.3959C68.252 28.3959 68.2207 28.3978 68.1895 28.4012C68.1585 28.4055 68.1272 28.4076 68.0959 28.4076V30.9065C68.1347 30.915 68.166 30.9184 68.1895 30.9184H68.2938C68.6221 30.9184 68.9707 30.9033 69.3417 30.872C69.712 30.841 70.0604 30.8055 70.3885 30.7667V31.9582C70.0613 31.9194 69.7334 31.8864 69.405 31.8593C69.0745 31.8316 68.7429 31.818 68.4112 31.8185C68.3588 31.818 68.3063 31.8198 68.254 31.8238C68.2014 31.8279 68.1486 31.8297 68.0959 31.8292V32.9389C68.0959 33.1881 68.1003 33.4342 68.1078 33.6749C68.1154 33.9166 68.1377 34.1583 68.1775 34.399C68.3961 34.4537 68.6221 34.4806 68.8564 34.4806C69.2536 34.4806 69.6451 34.4537 70.0314 34.399C70.4176 34.3452 70.8018 34.2905 71.1846 34.2357L71.0901 35.5206Z" clip-rule="evenodd"/><mask id="mask0" width="17" height="20" x="9" y="20" mask-type="alpha" maskUnits="userSpaceOnUse"><path fill="#000" d="M9.4707 20.1514H25.532V39.5753H9.4707V20.1514Z"/></mask><g mask="url(#mask0)"><path fill="#666" fill-rule="evenodd" d="M25.2579 27.8465C25.1922 27.9088 25.1922 27.9151 25.1265 27.9806C25.0126 28.1021 25.0458 28.1021 24.8975 28.2169C24.8264 28.288 24.7844 28.3137 24.6606 28.42C24.5199 28.5512 24.4241 28.6006 24.2465 28.7425C24.0787 28.8809 23.9495 29.0001 23.7602 29.1548C23.6979 29.2022 23.5041 29.3246 23.1502 29.5042C23.0029 29.5942 22.8189 29.6878 22.6186 29.6426C22.7886 29.4803 22.9523 29.2633 23.1988 29.0615C23.5503 28.7768 24.1217 28.6876 24.097 28.1837C24.0851 27.9303 23.9935 27.7057 23.8989 27.478C23.9592 27.4381 24.0281 27.3983 24.0743 27.3631C24.1818 27.2803 24.324 27.2116 24.4434 27.1493C24.6134 27.0643 24.7866 27.0493 24.977 27.088C25.1653 27.1256 25.274 27.304 25.3612 27.4662C25.3998 27.5393 25.4279 27.6111 25.4096 27.6637C25.3255 27.738 25.3021 27.7832 25.2579 27.8465ZM19.3372 28.8188C18.8791 28.6575 18.3165 28.4136 17.6549 28.5576C17.6482 28.5715 17.6364 28.5759 17.6364 28.5954C17.6782 28.5456 18.1401 28.5984 18.0097 28.6133C17.6462 28.6338 17.2407 28.6521 16.9607 28.7423C17.4933 28.2311 18.6639 28.3428 19.2846 28.6876C19.3848 28.7381 19.3997 28.7457 19.4847 28.7961C19.5484 28.9324 19.4688 28.8616 19.3374 28.8188H19.3372ZM16.3928 36.5589C16.3744 36.735 16.4121 36.8501 16.2088 36.8189C15.8883 36.7683 15.8807 36.518 15.7495 36.3257C15.5976 36.1055 15.516 35.9487 15.516 35.9487C15.5903 35.7607 15.6333 35.8316 15.8182 35.794C15.9948 35.7554 16.1917 35.6757 16.2809 35.6757C16.3725 35.6757 16.3283 35.6124 16.3874 35.9692C16.4391 36.2698 16.4153 36.3665 16.3928 36.5589ZM12.014 38.9212C11.8752 39.0663 11.6439 39.0609 11.1113 39.0372C10.581 39.0125 10.6156 38.9942 10.312 38.8632C10.0582 38.7557 9.97537 38.7945 10.0333 38.1262C10.0948 37.4215 10.6465 37.5515 11.2459 37.7406C11.8549 37.9307 11.8591 37.993 11.887 38.1208C11.9172 38.2487 12.0377 38.6269 12.0377 38.6269C12.0377 38.6269 12.1053 38.8246 12.014 38.9212ZM25.5224 27.6432C25.5139 27.5403 25.4567 27.392 25.4159 27.3286C25.317 27.1845 25.176 27.0686 25.005 27.0247C24.6005 26.9171 24.1916 27.1825 23.884 27.4393C23.8227 27.2932 23.7626 27.1439 23.7215 26.9858L23.4223 26.351C23.3094 26.077 23.0879 25.9116 23.0297 25.5839C22.4251 24.6966 22.142 23.4924 21.2298 22.909C21.0437 22.6791 20.849 22.4557 20.6145 22.273C20.368 21.8541 19.8775 21.6972 19.7333 21.2073C19.6999 21.0978 19.7333 20.9473 19.6774 20.8346C19.6408 20.7594 19.5375 20.7347 19.4321 20.6455C19.3503 20.5768 19.2771 20.4725 19.2104 20.4221C19.0728 20.3232 18.9082 20.2425 18.7748 20.1514C17.3052 21.7552 15.6538 23.0593 13.9411 24.0263C13.9765 24.0747 14.0098 24.1187 14.0398 24.1617C14.1971 24.3958 14.4111 24.5977 14.4455 24.8911C14.4605 25.0199 14.523 25.134 14.5391 25.2584C14.5499 25.3617 14.5919 25.4431 14.6339 25.5357C14.6811 25.6472 14.6693 25.7623 14.6791 25.8805C14.6854 25.9761 14.7296 26.0567 14.7521 26.1479C14.7619 26.1897 14.7392 26.2351 14.7521 26.2757C14.7607 26.3048 14.7929 26.3135 14.8039 26.3392C14.8318 26.4059 14.8178 26.511 14.8371 26.5841C14.863 26.7163 14.907 26.8507 14.8963 26.9892C14.878 27.2727 14.9393 27.5671 14.962 27.8486C15.0006 28.2751 15.0125 28.7005 15.0006 29.127C14.9912 29.3472 14.9758 29.5671 14.9544 29.7865C14.9431 29.8977 14.9301 30.0087 14.9156 30.1196C14.9048 30.1873 14.9092 30.3969 14.8638 30.4461C14.6273 30.7063 14.5423 31.0499 14.3207 31.3055C14.1561 31.4968 13.9054 31.6473 13.7032 31.8096C13.5827 31.9093 13.4623 32.0093 13.3395 32.1082C13.2469 32.1844 13.1254 32.2468 13.0576 32.3487C13.0082 32.4239 12.9779 32.5185 12.9381 32.6011C12.8467 32.7978 12.7424 32.9923 12.6435 33.1878C12.5734 33.3242 12.524 33.4671 12.4573 33.6035C12.396 33.7237 12.3142 33.8237 12.2399 33.9334C12.1517 34.0654 12.1259 34.2234 12.0066 34.3405C11.9194 34.4285 11.828 34.535 11.7709 34.6132C11.5977 34.8368 11.5212 34.9238 11.3622 35.1581C11.2039 35.3944 11.0598 35.6725 10.8746 35.8692C10.7124 36.0432 10.481 36.1828 10.2949 36.3355C10.099 36.4955 9.91724 36.605 9.71816 36.8103C9.59135 37.0627 9.62021 37.3592 9.56427 37.6279C9.54078 37.7394 9.4707 37.8244 9.4707 37.9459C9.4707 38.079 9.5364 38.2284 9.56427 38.3733C9.61703 38.644 9.55253 39.0255 9.78047 39.2254C10.0496 39.4595 10.4896 39.5755 10.8274 39.5755C11.3922 39.5218 11.8173 39.481 12.3938 39.439C12.5423 39.3725 12.5069 39.078 12.5013 39.0297C12.4949 38.9417 12.4456 38.8911 12.5047 38.8041C13.2652 37.8674 13.8839 36.792 14.8264 36.0379C14.9576 36.2248 15.12 36.3966 15.2749 36.5977C15.4149 36.7737 15.5524 37.0456 15.7256 37.1583C15.9291 37.2949 16.1517 37.4044 16.4358 37.4205C16.7489 37.255 16.597 35.9477 16.906 35.4384C17.1339 35.3944 17.3061 35.2891 17.5245 35.2344C18.9189 33.8322 20.4843 32.4034 21.9796 31.0447C22.197 30.848 22.4207 30.5976 22.636 30.4654C23.0319 30.2217 23.5053 30.1369 23.9097 29.9231C24.5682 29.1487 25.6441 27.911 25.5224 27.6434" clip-rule="evenodd"/></g><path fill="#666" fill-rule="evenodd" d="M4.5682 7.24563C3.39621 8.87312 2.52304 10.5856 1.93555 12.2884C2.50711 10.8991 3.25517 9.58918 4.16128 8.39095C4.48444 7.963 4.82695 7.55 5.18774 7.15326C4.98177 7.18758 4.77522 7.21838 4.5682 7.24563ZM21.1694 1.43485C16.9335 -1.75583 9.78791 0.554907 5.0657 6.5807C5.27036 6.56677 5.52419 6.54964 5.7804 6.52914C10.0167 2.28034 15.708 0.944907 19.2929 3.64803C23.3573 6.70951 23.1745 13.7966 18.8849 19.4796C16.6773 22.4017 13.8113 24.3794 10.9969 25.1982C14.2943 24.4289 17.7693 22.1214 20.4224 18.6096C25.1379 12.3658 25.4725 4.67709 21.169 1.43485" clip-rule="evenodd"/><mask id="mask1" width="19" height="20" x="0" y="4" mask-type="alpha" maskUnits="userSpaceOnUse"><path fill="#000" d="M0.482422 4.59668H18.2875V23.825H0.482422V4.59668Z"/></mask><g mask="url(#mask1)"><path fill="#666" fill-rule="evenodd" d="M10.9342 13.0418C10.9828 13.2456 11.0188 13.4523 11.0419 13.6606C11.2625 13.6026 11.4723 13.4929 11.6616 13.4145C11.666 13.4113 11.6702 13.4081 11.6756 13.4071C11.7293 13.3705 11.766 13.3414 11.796 13.3297C11.7964 13.119 11.7755 12.9089 11.7337 12.7024C11.7166 12.7024 11.6993 12.7056 11.6819 12.7099C11.4486 12.8483 11.1635 12.9463 10.9322 13.0203C10.9322 13.0267 10.9342 13.0333 10.9342 13.0418ZM10.8032 12.9333C10.7707 12.782 10.7375 12.5819 10.6589 12.4487C10.6557 12.4456 10.6547 12.4402 10.6515 12.438C10.5008 12.4864 10.3481 12.5369 10.1964 12.5819C10.0984 12.6154 9.99732 12.6496 9.89399 12.6775C9.83924 12.8378 9.78211 12.9978 9.73055 13.1589C9.72398 13.1762 9.72298 13.1901 9.7198 13.2063C9.80341 13.1943 9.88742 13.1814 9.979 13.1633C10.2156 13.1138 10.4494 13.0517 10.6794 12.9773C10.7224 12.9654 10.761 12.9482 10.8032 12.9333ZM11.5605 12.1533C11.5503 12.148 11.539 12.1449 11.5275 12.1444C11.516 12.1438 11.5045 12.1458 11.4938 12.1501C11.4876 12.1519 11.4815 12.1541 11.4755 12.1567C11.4702 12.1615 11.4633 12.1642 11.4562 12.1641C11.3109 12.221 11.1635 12.2672 11.0399 12.3124C10.9676 12.3371 10.8936 12.3586 10.8225 12.3821C10.8074 12.3886 10.7956 12.393 10.7815 12.3984C10.7849 12.4402 10.7891 12.4778 10.7934 12.5154C10.8289 12.6454 10.8645 12.7733 10.8978 12.9011C11.119 12.8253 11.3365 12.7393 11.5498 12.6433C11.6035 12.6186 11.6531 12.5895 11.7024 12.5604C11.6868 12.4992 11.67 12.4384 11.6519 12.3779C11.6266 12.301 11.596 12.226 11.5603 12.1533H11.5605ZM17.9004 19.4498C17.8833 19.379 17.8662 19.3071 17.8618 19.2243C17.426 18.5958 17.0496 17.9362 16.6438 17.2992C16.5095 17.0854 16.3803 16.8383 16.2329 16.645C16.0964 16.4678 15.8822 16.3141 15.7078 16.1389C15.183 15.6125 14.6246 15.1419 14.0781 14.6617C14.4902 13.8551 14.872 12.9815 15.3142 12.2124C15.4637 11.9556 15.6606 11.6829 15.7637 11.4261C15.8445 11.2284 15.8758 10.9769 15.9337 10.7536C16.1059 10.064 16.2511 9.42152 16.4374 8.73389C16.5459 8.64789 16.6492 8.5577 16.6438 8.35902C16.488 8.3407 16.4137 8.24076 16.3072 8.17308C16.0165 8.30965 15.4412 8.25271 15.3894 7.98614C15.3205 7.6252 15.8338 7.59634 15.8758 7.35027C15.7444 7.35445 15.5067 7.46952 15.4464 7.36958C15.568 7.2794 15.7241 7.22226 15.8392 7.12571C15.609 6.93121 15.2787 6.83903 14.9968 6.69589C14.958 6.40165 14.8149 6.2169 14.8278 5.87309C14.8635 5.77753 14.9162 5.72696 14.9441 5.59796C14.9624 5.5464 14.9624 5.52171 14.927 5.4369C14.8376 5.43372 14.7655 5.45084 14.7159 5.42396C14.617 5.3296 14.7181 5.13928 14.6407 5.01246C14.5999 5.14684 14.5879 5.31009 14.5105 5.40585C14.5041 5.30471 14.4719 5.23065 14.434 5.16197C14.4545 5.44228 14.5439 5.65291 14.6041 5.89141C14.3954 5.85796 14.318 5.95372 14.1382 5.94834C14.1382 6.00528 14.1179 6.0439 14.0781 6.05983C13.6562 6.20396 13.1452 6.2599 12.7665 6.45202C12.5965 6.27603 12.5535 5.96865 12.3954 5.77952C12.4651 6.06321 12.6268 6.28459 12.7116 6.60372C13.2656 6.45102 13.709 6.18883 14.3028 6.07814C14.36 6.01603 14.4975 5.97621 14.6041 6.0224C14.617 6.12453 14.6922 6.24915 14.6407 6.35885C14.4257 6.32759 14.5547 6.35546 14.4179 6.39727C14.3717 6.37258 14.3622 6.4351 14.2804 6.44684C14.1868 6.4779 14.1382 6.4779 14.05 6.53384C13.9576 6.57465 13.9736 6.58321 13.8812 6.59595C13.8004 6.63378 13.8951 6.59595 13.8004 6.63378C13.71 6.64971 13.7014 6.65966 13.6132 6.68952C13.4779 6.72834 13.5272 6.71421 13.4122 6.74527C13.2366 6.79364 13.3431 6.76358 13.1593 6.81295C12.8914 6.87009 13.1315 6.80658 12.8806 6.88283C12.7643 6.72496 12.6503 6.5649 12.5063 6.4339C12.448 6.48546 12.4287 6.34252 12.4128 6.21053C12.2565 6.15778 12.2103 6.00209 12.2049 5.79784C12.1532 5.78928 12.0747 5.91609 11.9812 5.92903C11.8358 5.8709 11.7315 5.6754 11.5326 5.64972C11.3712 5.62503 11.1183 5.71183 10.9161 5.74209C10.759 5.76559 10.6051 5.76997 10.4793 5.8054C9.49483 5.89997 6.10368 6.44883 5.48295 6.54559C6.13275 6.48865 9.80699 6.04928 10.6192 5.86672C10.9786 5.83765 11.3519 5.73453 11.6821 5.74209C11.7154 5.78928 11.7466 5.83964 11.7359 5.92903C11.2282 6.09984 10.6977 6.15021 10.1651 6.22964C9.85736 6.27384 8.88584 6.47252 8.70388 6.50915C7.91751 6.66484 7.02563 6.82928 6.15763 6.9764C5.90361 7.0204 5.64122 7.06121 5.39057 7.10739C3.8895 7.38014 2.29844 7.4964 0.726695 7.31265C0.600676 7.29433 0.552299 7.32121 0.527613 7.3449C0.543739 7.27821 0.594306 7.21271 0.647062 7.18364C0.840569 7.09246 1.07509 7.00327 1.30542 6.95709H1.41731C1.4625 6.91827 1.34743 6.94096 1.30542 6.93877C1.11172 6.9334 0.790202 6.94315 0.650447 6.93877C0.612621 6.98934 0.544933 7.0622 0.530998 7.14502C0.525423 7.15577 0.483417 7.35883 0.482422 7.36958V7.3889C0.546924 7.69727 0.592116 8.02396 0.762131 8.23001C1.30761 8.23758 1.80691 8.39127 2.31775 8.39764C2.73304 8.40302 3.14951 8.3407 3.55504 8.32259C3.8885 8.30746 4.22416 8.31263 4.56538 8.28596C5.15924 8.23758 5.76803 8.08389 6.36309 7.98614C8.19742 7.68752 10.0059 7.35764 11.7198 6.99471C11.8854 6.82171 12.008 6.56928 12.3737 6.69609C12.5093 6.98496 12.6192 7.29971 12.7311 7.61246C13.0064 7.69608 13.2099 7.91208 13.5541 7.78109C13.4014 7.07315 14.0586 7.01064 14.49 6.78946C14.4675 6.86033 14.5061 6.88621 14.5105 6.93877C14.8935 6.94634 14.844 7.38989 15.0142 7.61246C14.6407 7.47589 14.262 7.62839 14.0231 7.76177C13.9316 7.81115 13.7444 7.91109 13.7241 7.98614C13.6821 8.13226 13.7854 8.44064 13.8157 8.65983C13.8511 8.89614 13.9242 9.15833 13.9113 9.35064C13.8939 9.58257 13.7488 9.83182 13.6853 10.0241C13.6081 10.2582 13.5399 10.495 13.4808 10.7343C12.9752 11.1919 12.5481 11.7247 12.0005 12.1384C11.978 12.0607 11.9672 11.9698 11.9487 11.8869C11.8876 11.9439 11.8153 11.9932 11.7337 12.0374C11.7291 12.0394 11.7248 12.0419 11.7208 12.0448C11.7048 12.0524 11.6897 12.0607 11.6724 12.0695C11.6897 12.1113 11.7024 12.1567 11.7112 12.2029C11.751 12.2931 11.7843 12.3842 11.809 12.48C11.8219 12.4714 11.8328 12.4649 11.8424 12.4573C11.881 12.4219 11.9208 12.3876 11.9597 12.3498C11.9875 12.306 12.0146 12.2618 12.0564 12.2308C12.0982 12.3393 12.051 12.3994 11.9867 12.4553C11.9435 12.5069 11.8952 12.5551 11.838 12.6002C11.8993 12.8624 11.9208 13.1364 11.9145 13.392C11.1948 13.9249 10.1856 14.1119 9.3077 14.1644C9.04949 14.1784 8.79765 13.9626 8.59538 13.8228C8.42299 13.7024 8.25333 13.578 8.08653 13.4499C8.08335 13.4489 8.08116 13.4446 8.07897 13.4426C7.8552 13.2825 7.64975 13.0826 7.60555 12.7916C7.60456 12.7872 7.60456 12.784 7.60237 12.7796C7.60237 12.7818 7.60456 12.7818 7.60456 12.7796C7.59059 12.6776 7.59463 12.574 7.6165 12.4734C7.63143 12.5531 7.638 12.6379 7.64437 12.7249C7.66169 12.7679 7.68538 12.8109 7.69812 12.8644C7.7692 13.0966 7.97047 13.2168 8.15203 13.3534C8.42437 13.5596 8.69751 13.7637 8.98917 13.9399C9.10105 14.0044 9.18188 14.0527 9.30451 14.0464V14.0452L9.3065 14.0464C9.38514 13.8162 9.46477 13.5746 9.5454 13.3416C9.49583 13.3458 9.44646 13.3544 9.39908 13.3566C9.06561 13.3759 8.71822 13.5188 8.45244 13.2942C8.37062 13.2544 8.31249 13.1943 8.29198 13.1095C8.41681 13.1181 8.48032 13.1891 8.55019 13.2512C8.5912 13.2652 8.63202 13.2759 8.66208 13.2835C8.69114 13.2911 8.72339 13.2933 8.75365 13.2974C8.94517 13.2974 9.12255 13.2847 9.29794 13.2686C9.30573 13.2664 9.31376 13.2653 9.32183 13.2652C9.41421 13.2481 9.50021 13.2385 9.58422 13.2254C9.63359 13.0751 9.68635 12.9214 9.73911 12.7689C9.74548 12.7529 9.74767 12.739 9.75304 12.7251C9.63479 12.7529 9.51633 12.7776 9.39908 12.8033C9.04949 12.8969 8.69871 12.9849 8.34594 13.0675C8.27486 13.0826 8.21255 13.0826 8.15223 13.0709C8.14911 13.0721 8.14581 13.0727 8.14247 13.0729L8.1371 13.0697C8.05548 13.0482 7.9844 13 7.92408 12.9074C7.90975 12.8744 7.8979 12.8403 7.88865 12.8055C7.81439 12.6841 7.77557 12.5357 7.82414 12.3436C7.8112 12.6423 8.01327 12.9257 8.21036 12.9719C8.29318 12.9731 8.38675 12.9387 8.45443 12.9236C8.505 12.9128 8.55557 12.9001 8.60414 12.8871C8.60733 12.8871 8.60832 12.8859 8.61051 12.8859C8.61051 12.8859 8.6125 12.8849 8.61489 12.8849C8.97742 12.7969 9.33238 12.7046 9.69073 12.6046C10.1825 12.4671 10.675 12.3231 11.156 12.1448C11.2097 12.1244 11.2647 12.1017 11.3206 12.0802C11.4195 12.0421 11.5167 11.9998 11.6121 11.9534C11.6154 11.9493 11.6174 11.9493 11.6196 11.9471C11.6734 11.918 11.7154 11.8955 11.7638 11.8708C11.7982 11.8483 11.8358 11.8278 11.8703 11.8021C11.8854 11.7892 11.8993 11.7794 11.9091 11.7743C11.9145 11.658 11.9081 11.6827 11.8713 11.5883C11.8058 11.6042 11.7036 11.6678 11.6379 11.6797C11.4271 11.7259 11.4809 11.7205 11.3055 11.744C11.2593 11.5561 11.1496 11.4283 11.1022 11.2413C11.357 11.09 11.6895 11.0179 11.7003 10.6236C11.3648 10.5141 11.1904 10.3689 10.8816 10.2336C10.8279 10.1639 10.6901 9.94351 10.6169 9.79858C10.49 9.59432 10.5277 9.6857 10.3523 9.46432C10.2157 9.28933 10.0413 9.11632 9.89618 9.04426C9.76479 8.97995 9.55078 8.91008 9.37757 8.86508C9.20437 8.8187 9.03018 8.73608 8.85359 8.73389C8.73315 8.7319 8.57727 8.78227 8.44149 8.80914C8.05209 8.88639 7.93702 8.94014 7.69056 9.12807C7.58425 9.20969 7.43992 9.30326 7.37442 9.38927C7.34535 9.42669 7.26691 9.51708 7.24203 9.55689C7.18828 9.64927 7.13771 9.6857 7.09252 9.76852C7.0109 9.91982 7.01388 9.93813 6.96113 10.0434C6.83431 10.3023 6.71705 10.571 6.66649 10.8933C6.67286 11.8021 7.19803 12.1631 7.37442 12.9033C7.38636 12.8033 7.31728 12.6863 7.37442 12.6056C7.43454 12.698 7.41304 12.8784 7.43016 13.0171C7.57012 13.1762 7.8112 13.2351 7.88108 13.4651C7.70469 13.4328 7.56255 13.1644 7.42379 13.1557C7.64437 13.3426 7.84564 13.5499 8.08673 13.6713C8.12217 13.6884 8.17692 13.6713 8.21773 13.6896C8.42119 13.7832 8.57508 14.0281 8.75903 14.0828C8.84503 14.1075 8.86554 14.0709 8.92904 14.1624C8.5062 14.2341 8.38137 13.6671 8.12635 13.7842C7.93702 13.8702 7.89402 13.8421 7.67244 13.8778C7.638 14.0527 7.86157 14.3118 7.89402 14.477C8.04035 14.6864 7.8982 14.7895 8.02541 15.0195C8.1576 15.1365 8.23604 15.1678 8.34793 15.2419C8.41263 15.6846 8.36963 16.155 8.51575 16.589C8.68139 16.9114 9.06024 17.1262 9.32283 17.4099C9.60791 17.7224 9.99731 18.0545 10.2201 18.2725C10.9913 19.0202 11.7315 19.6453 12.5254 20.3652C12.7257 20.5478 13.2087 20.8906 13.3098 21.114C13.4002 21.3073 13.4347 21.5685 13.496 21.8058C13.5617 22.0387 13.6626 22.2925 13.6851 22.4976C13.7283 22.8683 13.5917 23.2218 13.6851 23.6192C13.7014 23.6825 13.7402 23.7526 13.7906 23.8243C15.3215 22.837 16.7699 21.5533 18.0211 20.0011C18.1125 19.886 18.1997 19.7712 18.2879 19.6551C18.1843 19.5542 18.0663 19.4747 17.9004 19.45V19.4498ZM9.64235 13.4133C9.63897 13.4187 9.63797 13.4262 9.63479 13.4326C9.57885 13.598 9.5229 13.7625 9.46696 13.9289C9.45064 13.9763 9.44208 14.0117 9.43352 14.0332C9.78868 14.0042 10.1403 13.9536 10.4847 13.871C10.5504 13.8549 10.6117 13.8355 10.675 13.816C10.7612 13.7808 10.8621 13.7356 10.9312 13.7097C10.9256 13.656 10.9236 13.6012 10.9224 13.5831C10.9015 13.4041 10.8703 13.2265 10.8289 13.0512C10.8052 13.0599 10.7795 13.0673 10.7558 13.0751C10.5577 13.1394 10.3588 13.1963 10.1566 13.2425C9.99513 13.2843 9.83267 13.3221 9.67779 13.3349C9.66485 13.3617 9.6541 13.3876 9.64235 13.4133ZM12.8042 5.08771C12.7729 4.88764 12.9151 4.86514 13.0269 4.8094C13.0656 4.80721 13.1054 4.80502 13.1484 4.80084C13.2441 4.81477 13.2947 4.92865 13.3475 4.97583C13.3582 4.88226 13.4088 4.83189 13.454 4.77715C13.5272 4.76958 13.6035 4.76003 13.6777 4.75127C13.793 4.76958 13.7842 4.91133 13.8736 4.95652C13.8597 4.7224 14.1985 4.66646 14.3405 4.80721C14.3395 4.73952 14.3126 4.69871 14.3028 4.63739L12.6773 4.80621C12.5838 4.80402 12.503 4.80721 12.4675 4.82652C12.6686 4.82333 12.6987 4.99315 12.8042 5.08751V5.08771ZM14.844 4.65053C14.9476 4.64629 15.0514 4.65539 15.1527 4.67761C15.1657 4.68079 15.183 4.68079 15.1937 4.68298C15.2336 4.7001 15.2367 4.75505 15.2959 4.75166C15.3604 4.70787 15.4691 4.71085 15.5756 4.71404C15.6552 4.75505 15.6853 4.84404 15.7468 4.89998C15.7864 4.74629 16.0102 4.70448 16.1394 4.7883C16.2254 4.84523 16.1792 4.94079 16.2696 4.97623C16.2491 4.84623 16.3309 4.81836 16.4093 4.79049C16.4804 4.80124 16.4933 4.82274 16.5256 4.85598C16.531 4.86235 16.5634 4.94079 16.5634 4.94079C16.5977 5.06004 16.6267 5.18248 16.6697 5.29954C16.701 5.38454 16.7115 5.48767 16.7386 5.53704L16.7374 5.53585V5.63041C16.6761 5.66266 16.5965 5.6756 16.5136 5.68735C16.5363 5.75722 16.5923 5.79386 16.6062 5.87329C16.4545 5.99035 16.2501 5.81197 16.1006 5.87329C16.1059 6.00548 16.222 6.02678 16.2511 6.13548C16.1533 6.31386 15.9469 6.16116 15.7832 6.15479C15.7078 6.15041 15.6466 6.20516 15.5756 6.19122C15.5057 6.17629 15.4442 6.04948 15.3894 6.11617C15.3733 6.18585 15.5939 6.22367 15.5585 6.32122C15.8445 6.3053 16.0372 6.56092 16.307 6.58441C16.3749 6.58879 16.4621 6.55335 16.531 6.5651C16.7408 6.60053 16.9365 6.9551 16.958 7.49978C16.958 7.37516 17.0559 6.65329 17.0559 6.52647C17.1851 6.47591 17.271 6.37915 17.3938 6.32142C17.4109 6.09666 17.426 5.86572 17.4487 5.64992C17.2389 5.61329 17.0161 5.58542 16.8075 5.5466C16.7515 5.36404 16.659 4.86992 16.4491 4.77416C16.4516 4.77196 16.4546 4.77057 16.4579 4.77018C16.2835 4.67283 16.0016 4.66865 15.8123 4.6579C15.6804 4.65078 15.5483 4.64899 15.4163 4.65252C15.3562 4.65451 15.2336 4.68258 15.1764 4.66108C15.0462 4.61052 14.9666 4.58364 14.828 4.60096C14.7836 4.62246 14.7709 4.63958 14.7677 4.64934C14.7398 4.6782 14.702 4.71802 14.7526 4.73196C14.7611 4.68477 14.8031 4.67183 14.8441 4.65033" clip-rule="evenodd"/></g><path fill="#666" fill-rule="evenodd" d="M76.4608 6.84468C76.4758 6.84468 76.4919 6.84567 76.508 6.84786C76.5242 6.84886 76.5403 6.85105 76.5566 6.85105C76.6834 6.85105 76.7909 6.82417 76.8813 6.77062C76.9697 6.71687 77.0147 6.61912 77.0147 6.47618C77.0147 6.4053 77.0027 6.35056 76.9793 6.31173C76.9564 6.27526 76.9231 6.24649 76.8837 6.22912C76.8439 6.2108 76.7985 6.20124 76.7457 6.20005C76.6952 6.19806 76.6414 6.19686 76.5855 6.19686H76.4608V6.84468ZM76.1101 7.68898C76.1294 7.55042 76.1401 7.40867 76.1423 7.26354C76.1466 6.98033 76.1466 6.69707 76.1423 6.41386C76.1404 6.27152 76.1296 6.12943 76.1101 5.98843H76.7457C76.8297 5.98843 76.9104 5.9938 76.9846 6.00356C77.0599 6.01311 77.1266 6.03342 77.1847 6.06587C77.2418 6.09812 77.2882 6.14311 77.3247 6.20324C77.3603 6.26236 77.3784 6.342 77.3784 6.44074C77.3784 6.60299 77.3247 6.72961 77.2172 6.82099C77.1104 6.91236 76.9803 6.96174 76.8297 6.9693C76.9018 6.97786 76.9619 6.99936 77.0115 7.035C77.0611 7.07023 77.1085 7.11861 77.1515 7.17774L77.3418 7.42798C77.4065 7.5108 77.4668 7.5978 77.5269 7.68898H77.0804C77.0295 7.60335 76.9778 7.51814 76.9255 7.43336C76.8728 7.3487 76.8126 7.26888 76.7457 7.19486C76.7155 7.16136 76.685 7.12805 76.6544 7.09492C76.6243 7.06267 76.5833 7.04674 76.5329 7.04674H76.4608C76.4648 7.15425 76.4672 7.26155 76.4694 7.36786C76.4714 7.47537 76.4802 7.58287 76.4963 7.68898H76.1101ZM76.1658 5.64899C75.9977 5.71766 75.844 5.81757 75.7131 5.94343C75.5836 6.06938 75.4805 6.21982 75.4097 6.38599C75.3351 6.55704 75.2973 6.74188 75.2988 6.92849C75.2988 7.13155 75.3342 7.31849 75.4031 7.48811C75.4696 7.65244 75.5688 7.80157 75.6946 7.92648C75.8233 8.05217 75.9769 8.14949 76.1455 8.21217C76.3197 8.27985 76.5124 8.3131 76.7232 8.3131C76.9255 8.3131 77.1116 8.27786 77.2827 8.20361C77.4487 8.13392 77.5993 8.0321 77.7258 7.90399C77.8515 7.77628 77.9509 7.62519 78.0185 7.45924C78.0879 7.2868 78.1231 7.10245 78.122 6.91654C78.122 6.71567 78.0873 6.53311 78.0185 6.36549C77.9521 6.20291 77.8537 6.05532 77.7292 5.93149C77.6025 5.80827 77.4525 5.7115 77.288 5.6468C77.117 5.57712 76.9297 5.54268 76.7232 5.54268C76.5242 5.54268 76.3382 5.57812 76.1658 5.64899ZM77.4698 5.42662C77.673 5.49767 77.8597 5.60914 78.0187 5.75431C78.1727 5.89699 78.2945 6.07096 78.3758 6.26455C78.4608 6.46324 78.5038 6.68661 78.5038 6.93386C78.5038 7.17774 78.4533 7.40011 78.3521 7.60099C78.2536 7.79819 78.1156 7.97302 77.9466 8.11462C77.7786 8.25517 77.5829 8.36367 77.3603 8.4421C77.1358 8.51891 76.9001 8.55774 76.6629 8.55697C76.4135 8.55697 76.1811 8.51835 75.9659 8.4421C75.7517 8.36367 75.5678 8.25517 75.4119 8.11442C75.2567 7.97151 75.1331 7.7977 75.0492 7.60417C74.9622 7.40429 74.918 7.18212 74.918 6.93386C74.918 6.6868 74.9697 6.46324 75.0729 6.26455C75.1737 6.0683 75.3135 5.89468 75.4838 5.75431C75.6599 5.61014 75.8608 5.49911 76.0766 5.42662C76.3016 5.34914 76.538 5.30991 76.776 5.31055C77.0266 5.31055 77.2578 5.34918 77.4698 5.42662Z" clip-rule="evenodd"/></svg>