<svg width="32" height="31" viewBox="0 0 32 31" fill="none" xmlns="http://www.w3.org/2000/svg">
<path d="M15.6685 14.4216C17.0577 14.4216 18.1838 13.3404 18.1838 12.0067C18.1838 10.673 17.0577 9.5918 15.6685 9.5918C14.2794 9.5918 13.1533 10.673 13.1533 12.0067C13.1533 13.3404 14.2794 14.4216 15.6685 14.4216Z" fill="white"/>
<path d="M15.6229 0.949219C6.99469 0.949219 0 7.66509 0 15.9491C0 24.2329 6.99469 30.9492 15.6229 30.9492C24.251 30.9492 31.2462 24.2329 31.2462 15.9491C31.2462 7.66509 24.251 0.949219 15.6229 0.949219ZM15.5905 7.81709C15.6015 7.81709 15.6123 7.81659 15.6232 7.81609C15.634 7.81659 15.6447 7.81709 15.6559 7.81709C18.2883 7.85699 20.4298 9.94591 20.4298 12.4739C20.4298 15.5648 16.9901 18.6945 15.6232 19.8159C15.5318 19.7409 15.4306 19.6564 15.3223 19.5638C15.3204 19.5622 15.3187 19.5609 15.3172 19.5594C13.8044 18.2688 10.8167 15.3549 10.8167 12.4739C10.8166 9.94591 12.9582 7.85709 15.5905 7.81709ZM15.691 24.1745C12.8097 24.1745 9.89272 23.3808 9.89272 21.8646C9.89272 20.8005 11.329 20.0929 13.1808 19.7651C13.539 20.1108 13.878 20.4156 14.1755 20.67C12.1584 20.8863 10.9733 21.4994 10.9733 21.8643C10.9733 22.3127 12.7643 23.1367 15.691 23.1367C18.6176 23.1367 20.4089 22.3127 20.4089 21.8643C20.4089 21.4919 19.1738 20.8634 17.0835 20.6591C17.3836 20.4018 17.7253 20.0942 18.0862 19.7449C19.9937 20.0637 21.4894 20.7784 21.4894 21.8646C21.4894 23.3808 18.5724 24.1745 15.691 24.1745Z" fill="white"/>
</svg>
