<svg xmlns="http://www.w3.org/2000/svg" xmlns:xlink="http://www.w3.org/1999/xlink" viewBox="0 0 99.64 108.82"><defs><radialGradient id="radial-gradient" cx="30.77" cy="70.03" r="10.23" gradientTransform="rotate(-.21 -354.848 86.658)" gradientUnits="userSpaceOnUse"><stop offset="0" stop-color="#6b6866"/><stop offset=".3" stop-color="#9b9998"/><stop offset=".78" stop-color="#e3e2e2"/><stop offset="1" stop-color="#fff"/></radialGradient><radialGradient id="radial-gradient-2" cx="55.14" cy="69.37" r="46.86" gradientUnits="userSpaceOnUse"><stop offset="0" stop-color="#fff"/><stop offset="1" stop-color="#fff" stop-opacity="0"/></radialGradient><radialGradient id="radial-gradient-3" cx="30.18" cy="15.13" r="30.1" gradientUnits="userSpaceOnUse"><stop offset="0" stop-color="#fff" stop-opacity="0"/><stop offset="1" stop-color="#fff"/></radialGradient><radialGradient id="radial-gradient-4" cx="97.63" cy="68.49" r="42.87" gradientTransform="matrix(.73 -.69 .49 .52 -6.95 98.47)" gradientUnits="userSpaceOnUse"><stop offset="0" stop-color="#78170e"/><stop offset="1" stop-color="#fff" stop-opacity="0"/></radialGradient><radialGradient id="radial-gradient-5" cx="110.9" cy="6.23" r="28.59" gradientTransform="matrix(.73763 .6752 -1.16135 1.26873 36.34 -76.57)" xlink:href="#radial-gradient-2"/><radialGradient id="radial-gradient-6" cx="100.67" cy="56.54" r="40.48" gradientTransform="matrix(.81 .58 -1 1.4 75.32 -81.24)" gradientUnits="userSpaceOnUse"><stop offset="0" stop-color="#fff"/><stop offset="1" stop-color="#fff" stop-opacity="0"/></radialGradient><radialGradient id="radial-gradient-7" cx="58.42" cy="71.67" r="14.99" xlink:href="#radial-gradient"/><linearGradient id="linear-gradient" x1="67.7" y1="36.79" x2="84.79" y2="49.22" gradientTransform="rotate(-.21 -354.848 86.658)" gradientUnits="userSpaceOnUse"><stop offset=".01" stop-color="#9f9c9a"/><stop offset=".68" stop-color="#e3e2e2"/><stop offset="1" stop-color="#fff"/></linearGradient><linearGradient id="linear-gradient-2" x1="43.54" y1="39.18" x2="58.75" y2="53.26" xlink:href="#linear-gradient"/><linearGradient id="linear-gradient-3" x1="82.27" y1="69.68" x2="82.27" y2="4.31" gradientTransform="rotate(-.21 -354.848 86.658)" gradientUnits="userSpaceOnUse"><stop offset="0" stop-color="#551e2e"/><stop offset=".93" stop-color="#d31036"/></linearGradient><linearGradient id="linear-gradient-4" x1="57.74" y1="70.47" x2="57.74" y2="10.38" gradientTransform="rotate(-.21 -354.848 86.658)" gradientUnits="userSpaceOnUse"><stop offset="0" stop-color="#772838"/><stop offset=".61" stop-color="#b11b2e"/><stop offset=".96" stop-color="#ce1429"/></linearGradient><linearGradient id="linear-gradient-5" x1="33.53" y1="68.93" x2="33.53" y2="16.36" gradientTransform="rotate(-.21 -354.848 86.658)" gradientUnits="userSpaceOnUse"><stop offset="0" stop-color="#8d1c35"/><stop offset=".53" stop-color="#b71b30"/><stop offset=".95" stop-color="#d41a2c"/></linearGradient><linearGradient id="linear-gradient-6" x1="35.81" y1="-33.24" x2="51.87" y2="75.04" gradientTransform="rotate(-.21 -354.848 86.658)" xlink:href="#radial-gradient-2"/><linearGradient id="linear-gradient-7" x1="109.28" y1="-55.32" x2="50.69" y2="59.86" gradientTransform="rotate(-.21 -354.848 86.658)" xlink:href="#radial-gradient-2"/><style>.cls-5{fill:#7e7b7d}.cls-9{fill:#5f5c5a}.cls-14,.cls-16,.cls-26{fill:none;stroke:#fff;stroke-miterlimit:10}.cls-14,.cls-16{stroke-width:.03px}.cls-15{opacity:.65}.cls-16{opacity:.1}.cls-26{stroke-width:.03px}</style></defs><g style="isolation:isolate"><g id="Layer_2" data-name="Layer 2"><g id="Laag_1" data-name="Laag 1"><text transform="translate(12.31 107.65)" font-size="4.66" fill="#928e8d" font-family="TrajanPro3-Regular,TrajanPro3 Regular" letter-spacing=".22em">G<tspan x="4.04" y="0" letter-spacing=".18em">L</tspan><tspan x="7.08" y="0">OBAL HOLDING LIMITED</tspan></text><path class="cls-5" d="M17.34 95.25a3.48 3.48 0 01-1.09-.16c-.75-.25-.88-1.23-.95-1.86l-.74-6.79-.43-4c0-.34-.09-.48-.22-.48s-.19.12-.26.28l-5.15 11-3.93-8.02-.13-.22-1.32-2.7C3 82.05 3 82 2.86 82s-.18.16-.19.35L1.43 93.53v.21c-.08.65-.11 1.22-.54 1.41H.73a2.34 2.34 0 01-.53 0c-.08 0-.17 0-.17.1s.12.14.3.14h3.16c.17 0 .26 0 .26-.15s-.07-.09-.18-.09a2.66 2.66 0 01-.63-.07c-.26-.05-.47-.19-.47-.63v-.83l.29-3.35.08-.86.35-4c.06.15.3.67.6 1.32a2.55 2.55 0 01.13.29c.67 1.43 1.54 3.31 1.64 3.51s1.6 3.21 2.06 4.07c.33.63.42.81.54.81s.21-.16.58-.93l4.35-9.23.4 4.38.44 4.78c0 .32.06.58-.07.63s-.12 0-.12.12.09.14.49.18c.65 0 2.65.1 3 .1.21 0 .26 0 .26-.14s-.06-.05-.15-.05zM34.08 82a6.79 6.79 0 00-6.92 6.86c0 3.16 2 6.9 6.81 6.9a6.89 6.89 0 007-7.18C41 84.47 38 82 34.08 82zm.36 13.09c-3.16 0-5.61-2.63-5.61-6.72 0-3.84 2.19-5.77 5.12-5.77 2.77 0 5.33 2.26 5.33 6.48 0 5.08-3.28 5.99-4.84 5.99zM55.73 82.23H52.01c-.19 0-.26 0-.26.12s.07.12.19.12a2.35 2.35 0 01.54.06c.58.12.72.4.76 1s0 1 0 3.79v5.07c0 4.53-.54 5.46-1.68 6.62a3.78 3.78 0 01-.62.48c-.16.11-.24.16-.24.27a.11.11 0 00.12.1.19.19 0 00.12 0 6.92 6.92 0 00.69-.44 6.66 6.66 0 002.56-2.68c.53-1.25.53-2.34.53-5.18v-4.24-3.79c0-.56.14-1 .62-1a3.47 3.47 0 01.42 0c.1 0 .19 0 .19-.1s-.03-.2-.22-.2zM79.6 95.25a2.24 2.24 0 01-.68-.11c-.37-.1-.88-.38-1.51-2-1.07-2.66-3.83-9.91-4.09-10.58S73 82 72.93 82s-.17.11-.38.69l-4 10.89c-.31.88-.66 1.55-1.47 1.65a3.29 3.29 0 01-.42 0c-.16 0-.25 0-.25.1s.11.14.34.14H70.07c.15 0 .31 0 .31-.14s-.05-.1-.23-.1H70a.57.57 0 01-.63-.51 3.68 3.68 0 01.25-1.18l1.05-3.1c0-.09.09-.14.18-.14h3.75a.15.15 0 01.16.1l1.63 4.32c.11.28 0 .44-.1.47s-.13.06-.13.13.19.1.53.12h2.76c.27 0 .35 0 .35-.14s-.09-.05-.2-.05zm-5.23-5.56H71s-.09 0 0-.13l1.54-4.73c.09-.27.18-.27.26 0l1.67 4.73c-.01.07-.01.13-.1.13zM99.41 82.23h-2.86c-.17 0-.28 0-.28.1s.11.13.26.18.29.24.29.49a1.66 1.66 0 01-.3.89c-.35.58-2.58 4.43-2.92 5.17-.31-.52-2.94-5-3.23-5.55a1.69 1.69 0 01-.23-.69.37.37 0 01.23-.31c.16-.07.27-.09.27-.16s0-.12-.23-.12H87.2c-.16 0-.23 0-.23.12s.09.12.17.12a1.74 1.74 0 01.76.28 5 5 0 011.19 1.3c.62.92 3 4.78 3.09 5.06a3.68 3.68 0 01.41 1.89v1.51c0 .28 0 1-.06 1.75 0 .51-.19.9-.54 1a3.21 3.21 0 01-.53.07c-.1 0-.14 0-.14.1s.09.14.28.14h3.88c.19 0 .28 0 .28-.14s0-.1-.14-.1-.54 0-.79-.07c-.52-.07-.68-.46-.72-1V91a4.29 4.29 0 01.26-1.76 56.17 56.17 0 013.36-5.58 3.41 3.41 0 01.92-.89 1.68 1.68 0 01.81-.25c.14 0 .23 0 .23-.14s-.15-.15-.28-.15z"/><path fill="url(#linear-gradient)" d="M80.34 68.47l-13.5.05-.04-.48-2.29-21.67-.86-8.15v-.02l-2.64-24.89-.53-5.04 12.6-2.77.92 8 .95 8.88 1.31 11.35v.03l.75 6.45 2.52 21.9.81 6.36z"/><path fill="url(#linear-gradient-2)" d="M54.9 68.56l-12.85.05-2.04-20.51-.68-6.86-2.66-27.53 12.46-2.79.67 6.8.16.92 4.94 49.92z"/><path fill="url(#linear-gradient-3)" d="M97.34.01l-17 68.46-13.5.05L84.6 2.89 97.34.01z"/><path class="cls-9" d="M49.96 18.64L40.01 48.1l-.71-6.93 9.83-30.25.73 6.77.1.95zM74 13.5l-9.49 32.87-.88-8.15L73.08 5.5l.92 8z"/><path d="M73.08 5.5L58.3 56.74l-3.41 11.82H42.07L50.8 40l9.68-31.73 9.18-2z" fill="url(#linear-gradient-4)"/><path fill="url(#linear-gradient-5)" d="M49.13 10.92L30.46 68.65l-12.85.05 1.56-4.51 12.92-37.43.99-2.87 3.59-10.18 7.32-1.62 5.14-1.17z"/><path d="M17.62 68.7h12.85l3.24-10s-.19 1.85-6.76 6.22c-5.79 3.76-9.33 3.78-9.33 3.78z" style="mix-blend-mode:overlay" fill="url(#radial-gradient)" opacity=".15"/><g opacity=".75"><path class="cls-14" d="M74 13.5l2.26 20.31M49.96 18.64l1.76 18.26"/></g><g class="cls-15"><path class="cls-14" d="M66.84 68.52l-.04-.48-2.29-21.67L74 13.5M49.96 18.64L40.01 48.1l2.04 20.51"/></g><path class="cls-16" d="M73.08 5.5l.92 8M49.12 10.92l.84 7.72"/><path d="M33.09 51.12c-4 6-9 10.41-13.6 12.56l-.13.06 14-40.25h.1a6.65 6.65 0 012.6 1c5.7 3.85 4.34 15.74-2.97 26.63z" style="mix-blend-mode:overlay" opacity=".7" fill="url(#radial-gradient-2)"/><path d="M44 12.09c.77 3-7.29 13.38-11.87 14.58l1-2.88 3.55-10.08z" style="mix-blend-mode:overlay" fill="url(#radial-gradient-3)"/><path d="M88.5 35.74l-5.68 22.72-2.48 10h-13.5a83.85 83.85 0 0113-23 95.09 95.09 0 018.66-9.72z" style="mix-blend-mode:overlay" fill="url(#radial-gradient-4)"/><path d="M76.26 33.8L84.6 2.89 88.77 2c3.11 11.82-3.85 26.61-12.51 31.8z" style="mix-blend-mode:overlay" fill="url(#radial-gradient-5)" opacity=".6"/><path d="M72.39 48.18l2.68-9.78L84.6 2.89c8.06 4.48 6.57 29.99-12.21 45.29z" style="mix-blend-mode:overlay" fill="url(#radial-gradient-6)" opacity=".6"/><path d="M42.05 68.61H54.9l2.89-10s-.65 2.35-6.43 6.21-9.31 3.79-9.31 3.79z" style="mix-blend-mode:overlay" fill="url(#radial-gradient-7)" opacity=".15"/><path d="M58.31 56.74L54.9 68.56H42.05L50.8 40a90.23 90.23 0 016.49 13.92c.36.91.71 1.87 1.02 2.82z" style="mix-blend-mode:overlay" fill="url(#linear-gradient-6)"/><path d="M73.08 5.5L58.3 56.74l-3.4 11.82h-1C49.28 62 50 46.27 56.25 29.66 59.88 20 64.72 11.81 69.66 6.25z" style="mix-blend-mode:overlay" fill="url(#linear-gradient-7)"/><g opacity=".06"><path class="cls-14" d="M97.34.01l-17 68.46-13.5.05M73.08 5.5L54.9 68.56l-12.85.05M49.13 10.92L30.46 68.65l-12.85.05"/></g><g class="cls-15"><path class="cls-26" d="M42.05 68.61L60.48 8.27l12.6-2.77M66.84 68.52l1.65-6 7.76-28.67L84.6 2.89 97.35 0"/><path stroke-width=".02" fill="none" stroke="#fff" stroke-miterlimit="10" d="M17.61 68.7l19.06-54.99 12.46-2.79h0"/></g></g></g></g></svg>