<svg xmlns="http://www.w3.org/2000/svg" width="51" height="40" fill="none" viewBox="0 0 51 40"><path fill="#666" d="M35.2501 37.3699C35.2501 36.9337 35.2464 36.8792 35.0648 36.8565L34.9642 36.8428C34.9372 36.8109 34.9372 36.7384 34.9685 36.7154C35.2117 36.6882 35.5398 36.6747 35.8568 36.6747C36.158 36.6747 36.4207 36.72 36.5908 36.829C36.7882 36.952 36.9307 37.1654 36.9307 37.4924C36.9307 37.9106 36.6568 38.12 36.4675 38.2106C36.4442 38.2247 36.4517 38.2608 36.4675 38.2881C36.7764 38.9016 36.9697 39.2879 37.151 39.4652C37.2591 39.5742 37.3122 39.5693 37.3587 39.5742C37.3776 39.5923 37.3601 39.6969 37.3601 39.6969L36.701 39.6978C36.701 39.6978 36.5988 39.5472 36.3633 39.1242C36.2589 38.9334 36.1511 38.6836 36.0582 38.5063C35.9887 38.3698 35.946 38.3517 35.8186 38.3517C35.7031 38.3517 35.699 38.3566 35.699 38.4521V39.0335C35.699 39.5154 35.7335 39.5292 35.9153 39.5561L36.0005 39.5696C36.0272 39.6017 36.0234 39.6835 35.9925 39.7015C35.6477 39.6835 35.3023 39.6835 34.9576 39.7015C34.9269 39.6838 34.9151 39.6017 34.9501 39.5696L35.0347 39.5561C35.2163 39.5289 35.251 39.5151 35.251 39.0335V37.3699H35.2501ZM35.6987 38.0245C35.6987 38.1699 35.6987 38.1791 35.884 38.1791C36.2624 38.1791 36.4365 37.9608 36.4365 37.5291C36.4365 37.1697 36.2391 36.8562 35.9035 36.8562C35.7028 36.8562 35.6987 36.8697 35.6987 37.0788V38.0245ZM5.88789 37.0648C5.88789 36.874 5.88388 36.8648 5.78349 36.8648H5.56721C5.21182 36.8648 5.10741 36.9148 4.96457 37.283C4.93761 37.3103 4.85643 37.2965 4.84094 37.2509C4.90064 37.0244 4.95098 36.7955 4.99182 36.5648C4.99956 36.5513 5.01477 36.5468 5.03427 36.5468C5.04976 36.5468 5.06525 36.5516 5.07271 36.5648C5.09221 36.6784 5.14642 36.683 5.40888 36.683H6.98504C7.17407 36.683 7.23201 36.6692 7.27847 36.5648C7.29396 36.5557 7.30945 36.5468 7.32465 36.5468C7.34789 36.5468 7.36739 36.5557 7.37514 36.5694C7.33641 36.7556 7.30544 37.1465 7.3172 37.2925C7.29769 37.3286 7.23201 37.3375 7.1973 37.306C7.1471 36.9515 7.07367 36.8651 6.66034 36.8651H6.44034C6.33995 36.8651 6.33593 36.8743 6.33593 37.0651V39.0286C6.33593 39.5102 6.37093 39.524 6.55221 39.5466L6.69132 39.5647C6.71828 39.5963 6.71455 39.6783 6.68358 39.6967C6.49438 39.6881 6.30503 39.6835 6.11564 39.6829C5.94583 39.6829 5.76427 39.6875 5.51701 39.6967C5.48604 39.6783 5.48231 39.5877 5.50927 39.5647L5.67162 39.5421C5.8529 39.524 5.88789 39.5102 5.88789 39.0286V37.0648ZM8.81305 38.2281C8.61599 38.2281 8.60452 38.2373 8.60452 38.3601V39.0281C8.60452 39.5102 8.63922 39.5237 8.82079 39.5466L8.93667 39.5644C8.96364 39.5963 8.95991 39.678 8.92893 39.6964C8.7475 39.6874 8.56588 39.6828 8.38423 39.6826C8.21442 39.6826 8.0406 39.6869 7.89374 39.6964C7.86276 39.6783 7.85903 39.5963 7.88599 39.5644L7.93992 39.5553C8.12148 39.5237 8.15648 39.5102 8.15648 39.0281V37.3372C8.15648 36.8554 8.12148 36.8416 7.93992 36.8147L7.85501 36.8012C7.82805 36.7782 7.83178 36.6876 7.86276 36.6692C8.03643 36.6784 8.21031 36.683 8.38423 36.683C8.55432 36.683 8.72814 36.6784 8.87873 36.6692C8.90971 36.6873 8.91344 36.7782 8.88648 36.8012L8.82079 36.8147C8.63922 36.8419 8.60452 36.8557 8.60452 37.3372V37.8874C8.60452 38.0144 8.61599 38.0236 8.81305 38.0236H9.71687C9.91392 38.0236 9.92568 38.0147 9.92568 37.8874V37.3372C9.92568 36.8554 9.89069 36.8416 9.70912 36.8147L9.62422 36.8012C9.59726 36.7782 9.60098 36.6876 9.63196 36.6692C9.8098 36.6784 9.98362 36.683 10.1534 36.683C10.3235 36.683 10.4973 36.6784 10.6517 36.6692C10.6826 36.6873 10.6864 36.7782 10.6594 36.8012L10.59 36.8147C10.4084 36.8419 10.3734 36.8557 10.3734 37.3372V39.0281C10.3734 39.5102 10.4084 39.5237 10.59 39.551L10.6749 39.5644C10.7021 39.5963 10.6981 39.678 10.6672 39.6964C10.4961 39.687 10.3248 39.6825 10.1534 39.6826C9.97559 39.6826 9.80177 39.6869 9.63196 39.6964C9.60098 39.6783 9.59726 39.5963 9.62422 39.5644L9.70912 39.551C9.89069 39.5234 9.92568 39.5099 9.92568 39.0281V38.3601C9.92568 38.2373 9.91392 38.2281 9.71687 38.2281H8.81305ZM11.661 37.3372C11.661 36.8554 11.6263 36.8419 11.4448 36.8101L11.3828 36.8009C11.3558 36.7693 11.3596 36.6873 11.3908 36.6689C11.5374 36.6784 11.719 36.683 11.8891 36.683H12.6268C12.8741 36.683 13.0981 36.6784 13.1483 36.6689C13.1638 36.7467 13.1867 37.1055 13.21 37.3008C13.1948 37.3372 13.1173 37.3464 13.0863 37.3192C13.0247 37.0556 12.9667 36.9417 12.8431 36.9056C12.7542 36.8737 12.6383 36.8646 12.5342 36.8646H12.2752C12.1094 36.8646 12.1094 36.8735 12.1094 37.1327V37.9009C12.1094 38.019 12.1131 38.0239 12.202 38.0239H12.3873C12.7235 38.0239 12.7889 38.019 12.8161 37.8237L12.8431 37.6694C12.8741 37.6376 12.9472 37.6376 12.9667 37.6737C12.9627 37.7967 12.9552 37.9602 12.9552 38.1283C12.9552 38.3013 12.9627 38.4602 12.9667 38.6056C12.9472 38.6374 12.8741 38.6374 12.8431 38.6105L12.8161 38.4286C12.7889 38.2376 12.7235 38.2287 12.3873 38.2287H12.202C12.1131 38.2287 12.1094 38.2376 12.1094 38.3512V38.9285C12.1094 39.1606 12.1168 39.3238 12.1748 39.4012C12.2212 39.4649 12.2869 39.5013 12.6113 39.5013C13.1018 39.5102 13.1867 39.3783 13.3221 39.0103C13.3568 38.979 13.4225 38.9925 13.4457 39.0375C13.4225 39.2286 13.3376 39.5739 13.2834 39.6969C13.1136 39.6878 12.7814 39.6829 12.3294 39.6829H11.8891C11.719 39.6829 11.4835 39.6878 11.3097 39.6969C11.2787 39.6786 11.275 39.5966 11.3016 39.565L11.4448 39.5469C11.6263 39.5243 11.661 39.5105 11.661 39.0289V37.3372ZM16.3898 38.2281C16.1928 38.2281 16.1813 38.2373 16.1813 38.3601V39.0281C16.1813 39.5102 16.216 39.5237 16.3976 39.5466L16.5134 39.5644C16.5404 39.5963 16.5367 39.678 16.5057 39.6964C16.3243 39.6874 16.1426 39.6828 15.961 39.6826C15.7912 39.6826 15.6174 39.6869 15.4705 39.6964C15.4395 39.6783 15.4358 39.5963 15.4628 39.5644L15.5167 39.5553C15.6983 39.5237 15.7332 39.5102 15.7332 39.0281V37.3372C15.7332 36.8554 15.6983 36.8416 15.5167 36.8147L15.4318 36.8012C15.4048 36.7782 15.4088 36.6876 15.4395 36.6692C15.6132 36.6784 15.7871 36.683 15.961 36.683C16.1311 36.683 16.3049 36.6784 16.4555 36.6692C16.4865 36.6873 16.4902 36.7782 16.4632 36.8012L16.3976 36.8147C16.216 36.8419 16.1813 36.8557 16.1813 37.3372V37.8874C16.1813 38.0144 16.1928 38.0236 16.3898 38.0236H17.2936C17.4907 38.0236 17.5025 38.0147 17.5025 37.8874V37.3372C17.5025 36.8554 17.4675 36.8416 17.2859 36.8147L17.201 36.8012C17.174 36.7782 17.178 36.6876 17.2087 36.6692C17.3866 36.6784 17.5604 36.683 17.7302 36.683C17.9003 36.683 18.0741 36.6784 18.2284 36.6692C18.2594 36.6873 18.2634 36.7782 18.2362 36.8012L18.1668 36.8147C17.9852 36.8419 17.9502 36.8557 17.9502 37.3372V39.0281C17.9502 39.5102 17.9852 39.5237 18.1668 39.551L18.2517 39.5644C18.2789 39.5963 18.2749 39.678 18.2439 39.6964C18.0728 39.687 17.9015 39.6825 17.7302 39.6826C17.5524 39.6826 17.3788 39.6869 17.2087 39.6964C17.178 39.6783 17.174 39.5963 17.201 39.5644L17.2859 39.551C17.4675 39.5234 17.5025 39.5099 17.5025 39.0281V38.3601C17.5025 38.2373 17.4907 38.2281 17.2936 38.2281H16.3898ZM21.6644 38.1917C21.6644 39.0872 21.085 39.7555 20.3048 39.7555C19.4317 39.7555 18.9295 39.0327 18.9295 38.2235C18.9295 37.2965 19.5011 36.6101 20.3126 36.6101C21.2046 36.6101 21.6644 37.3645 21.6644 38.1917ZM19.4549 38.0919C19.4549 38.7189 19.6827 39.5736 20.3433 39.5736C20.7836 39.5736 21.1392 39.187 21.1392 38.2737C21.1392 37.5874 20.8765 36.792 20.2621 36.792C19.876 36.792 19.4549 37.1239 19.4549 38.0919ZM23.1695 37.0648C23.1695 36.874 23.1655 36.8648 23.0653 36.8648H22.8488C22.4934 36.8648 22.389 36.9148 22.2464 37.283C22.2192 37.3103 22.138 37.2965 22.1228 37.2509C22.1826 37.0244 22.2328 36.7955 22.2734 36.5648C22.2811 36.5513 22.2963 36.5468 22.3158 36.5468C22.331 36.5468 22.3468 36.5516 22.3543 36.5648C22.3738 36.6784 22.428 36.683 22.6907 36.683H24.2666C24.4556 36.683 24.5136 36.6692 24.5601 36.5648C24.5755 36.5557 24.591 36.5468 24.6065 36.5468C24.6298 36.5468 24.649 36.5557 24.6567 36.5694C24.618 36.7556 24.5873 37.1465 24.5988 37.2925C24.5796 37.3286 24.5136 37.3375 24.4789 37.306C24.4287 36.9515 24.3553 36.8651 23.9419 36.8651H23.7219C23.6215 36.8651 23.6178 36.8743 23.6178 37.0651V39.0286C23.6178 39.5102 23.6522 39.524 23.8341 39.5466L23.9729 39.5647C23.9999 39.5963 23.9961 39.6783 23.9652 39.6967C23.7761 39.6881 23.5868 39.6835 23.3975 39.6829C23.2277 39.6829 23.0458 39.6875 22.7986 39.6967C22.7676 39.6783 22.7639 39.5877 22.7908 39.5647L22.9532 39.5421C23.1348 39.524 23.1695 39.5102 23.1695 39.0286V37.0648ZM25.667 37.3372C25.667 36.8554 25.6322 36.8419 25.4507 36.8101L25.3887 36.8009C25.3618 36.7693 25.3655 36.6873 25.3965 36.6689C25.5433 36.6784 25.7252 36.683 25.8947 36.683H26.6327C26.8794 36.683 27.104 36.6784 27.1539 36.6689C27.1697 36.7467 27.1923 37.1055 27.2156 37.3008C27.2004 37.3372 27.1232 37.3464 27.092 37.3192C27.0303 37.0556 26.9723 36.9417 26.8487 36.9056C26.7595 36.8737 26.6439 36.8646 26.5398 36.8646H26.2808C26.1147 36.8646 26.1147 36.8735 26.1147 37.1327V37.9009C26.1147 38.019 26.119 38.0239 26.2073 38.0239H26.3929C26.7291 38.0239 26.7942 38.019 26.8215 37.8237L26.8487 37.6694C26.8791 37.6376 26.9525 37.6376 26.9723 37.6737C26.9683 37.7967 26.9606 37.9602 26.9606 38.1283C26.9606 38.3013 26.9683 38.4602 26.9723 38.6056C26.9528 38.6374 26.8794 38.6374 26.8487 38.6105L26.8215 38.4286C26.7942 38.2376 26.7291 38.2287 26.3929 38.2287H26.2073C26.1187 38.2287 26.1147 38.2376 26.1147 38.3512V38.9285C26.1147 39.1606 26.1224 39.3238 26.1804 39.4012C26.2269 39.4649 26.2925 39.5013 26.6167 39.5013C27.1072 39.5102 27.1921 39.3783 27.3277 39.0103C27.3624 38.979 27.4281 38.9925 27.4514 39.0375C27.4281 39.2286 27.3429 39.5739 27.2893 39.6969C27.1192 39.6878 26.787 39.6829 26.3353 39.6829H25.8947C25.7249 39.6829 25.4894 39.6878 25.3156 39.6969C25.2846 39.6786 25.2809 39.5966 25.3075 39.565L25.4507 39.5469C25.6322 39.5243 25.667 39.5105 25.667 39.0289V37.3372ZM28.9016 38.9328C28.9016 39.16 28.9093 39.3232 28.9673 39.4009C29.0138 39.4646 29.0754 39.501 29.3843 39.501C29.8132 39.501 29.8751 39.4781 30.0527 39.01C30.0914 38.9873 30.1531 39.0011 30.1726 39.0373C30.1416 39.2283 30.0567 39.5736 30.0102 39.6967C29.8484 39.6875 29.516 39.6826 29.0832 39.6826H28.6819C28.4845 39.6826 28.2915 39.6875 28.1294 39.6967C28.0985 39.6783 28.087 39.5877 28.1217 39.5647L28.2376 39.5421C28.4189 39.5145 28.4541 39.501 28.4541 39.0286V37.3375C28.4541 36.8651 28.4189 36.8514 28.2376 36.8195L28.1294 36.8012C28.1022 36.7785 28.1022 36.6876 28.1369 36.6692C28.3302 36.6787 28.5038 36.6833 28.6816 36.6833C28.8514 36.6833 29.0255 36.6787 29.1953 36.6692C29.23 36.6876 29.234 36.7785 29.2031 36.8012L29.1176 36.8195C28.9363 36.8511 28.9013 36.8648 28.9013 37.3375V38.9328H28.9016ZM34.0583 39.2099C34.0583 39.3691 34.0776 39.4876 34.151 39.528C34.1625 39.5464 34.1625 39.5825 34.147 39.5963C34.1045 39.5963 34.0348 39.61 33.9617 39.6327C33.7222 39.6961 33.4325 39.7555 33.2125 39.7555C32.7489 39.7555 32.3121 39.61 32.0229 39.2552C31.7949 38.9782 31.6828 38.5964 31.6828 38.2146C31.6828 37.8329 31.7949 37.4419 32.0381 37.1465C32.3121 36.8058 32.7334 36.6101 33.2701 36.6101C33.452 36.6101 33.649 36.6466 33.7841 36.6784C33.873 36.7008 33.9849 36.7194 34.0314 36.7194C34.0351 36.8557 34.0621 37.0874 34.0813 37.4419C34.0624 37.4873 33.9772 37.4921 33.9579 37.4511C33.8728 37.0103 33.5985 36.792 33.2162 36.792C32.5364 36.792 32.2077 37.3694 32.2077 38.1418C32.2077 38.5055 32.2774 38.8961 32.4862 39.1873C32.5709 39.3062 32.6827 39.4033 32.8123 39.4705C32.9419 39.5377 33.0857 39.5732 33.2317 39.5739C33.417 39.5739 33.5291 39.5375 33.5753 39.4692C33.5985 39.4285 33.61 39.3464 33.61 39.183V39.0195C33.61 38.6968 33.606 38.6693 33.3476 38.6194L33.2084 38.5921C33.1815 38.5603 33.1815 38.4831 33.2125 38.4602C33.363 38.4691 33.5486 38.4739 33.8151 38.4739C33.9886 38.4739 34.1203 38.4691 34.2864 38.4602C34.3251 38.4831 34.3288 38.5603 34.2941 38.5921L34.2247 38.6059C34.0816 38.6285 34.0586 38.6693 34.0586 38.9466V39.2099H34.0583ZM40.5371 38.1917C40.5371 39.0872 39.9577 39.7555 39.1775 39.7555C38.3044 39.7555 37.8024 39.0327 37.8024 38.2235C37.8024 37.2965 38.3738 36.6101 39.1852 36.6101C40.0776 36.6101 40.5371 37.3645 40.5371 38.1917ZM38.3276 38.0919C38.3276 38.7189 38.5556 39.5736 39.2159 39.5736C39.6562 39.5736 40.0119 39.187 40.0119 38.2737C40.0119 37.5874 39.7492 36.792 39.1348 36.792C38.7487 36.792 38.3276 37.1239 38.3276 38.0919ZM41.4816 37.3372C41.4816 36.8554 41.4472 36.8419 41.2654 36.8101L41.1997 36.7963C41.1724 36.7647 41.1765 36.6873 41.2071 36.6689C41.5456 36.6874 41.8847 36.6874 42.2231 36.6689C42.2538 36.6873 42.2581 36.7647 42.2306 36.7963L42.146 36.8101C41.9644 36.8419 41.9297 36.8554 41.9297 37.3372V38.3781C41.9297 39.0057 42.0915 39.5323 42.6287 39.5323C43.1347 39.5323 43.3435 39.0826 43.3435 38.3913V37.8234C43.3435 37.4827 43.3392 37.0599 43.2698 36.9282C43.2351 36.86 43.1734 36.8281 43.0767 36.8101L42.999 36.7963C42.9646 36.7647 42.9686 36.6827 43.007 36.6689C43.1384 36.6784 43.285 36.683 43.4359 36.683C43.5976 36.683 43.7023 36.6784 43.8452 36.6689C43.8762 36.6919 43.8839 36.7647 43.8529 36.7963L43.768 36.8192C43.6943 36.837 43.6249 36.8554 43.5976 36.9282C43.5437 37.0645 43.5437 37.4646 43.5437 37.8234V38.3647C43.5437 38.778 43.4895 39.1597 43.2884 39.4141C43.0876 39.6688 42.7977 39.7552 42.5315 39.7552C42.168 39.7552 41.9131 39.6642 41.7355 39.464C41.562 39.2684 41.4805 38.9503 41.4805 38.4914V37.3372H41.4816ZM44.8987 37.3648C44.8987 36.9515 44.895 36.8826 44.7326 36.8557L44.5975 36.8376C44.5703 36.806 44.5703 36.7286 44.6013 36.7105C44.8718 36.6744 45.1035 36.6692 45.4549 36.6692C45.8218 36.6692 46.0885 36.7335 46.2623 36.8517C46.4634 36.9922 46.5908 37.2334 46.5908 37.5334C46.5908 38.2238 46.0309 38.4148 45.7254 38.4148C45.6907 38.4148 45.6597 38.4148 45.6287 38.41C45.6018 38.383 45.598 38.3239 45.6172 38.2967C45.9689 38.2146 46.0963 37.9149 46.0963 37.5418C46.0963 37.174 45.8955 36.8514 45.5438 36.8514C45.3508 36.8514 45.3468 36.8648 45.3468 37.0421V39.0284C45.3468 39.5099 45.3815 39.5237 45.563 39.5464L45.7059 39.5644C45.7291 39.596 45.7251 39.678 45.6981 39.6964C45.4707 39.6872 45.2966 39.6823 45.1268 39.6823C44.957 39.6823 44.7828 39.6872 44.6285 39.6964C44.5978 39.678 44.5935 39.596 44.6211 39.5644L44.6827 39.5555C44.8646 39.5237 44.899 39.5099 44.899 39.0284V37.3648H44.8987ZM3.61329 32.9422C3.65201 32.96 3.64799 33.0558 3.60554 33.0739C3.4486 33.0651 3.29145 33.0606 3.13427 33.0604C2.9527 33.0604 2.78662 33.065 2.61653 33.0739C2.58584 33.0558 2.57035 32.9695 2.60879 32.9422L2.71319 32.9196C2.8678 32.8918 2.87927 32.8556 2.87927 32.5467V30.6878H2.87153C2.76741 30.9376 2.71319 31.0739 2.63976 31.2557L2.30761 32.0557C2.17624 32.3735 1.9832 32.878 1.9135 33.0914C1.89829 33.1098 1.84007 33.1098 1.8131 33.0914C1.74742 32.8465 1.58134 32.4007 1.49271 32.1736L1.14879 31.3008C1.07087 31.0976 0.996186 30.8931 0.924772 30.6875H0.917027C0.909283 30.9101 0.901538 31.2646 0.893794 31.4554C0.886336 31.733 0.878305 32.1371 0.878305 32.5103C0.878305 32.81 0.88232 32.8829 1.0484 32.9144L1.17575 32.942C1.203 32.9692 1.203 33.0555 1.17202 33.0736C0.899352 33.0555 0.62578 33.0555 0.353108 33.0736C0.318401 33.051 0.318401 32.9646 0.341348 32.942L0.407033 32.9328C0.592616 32.9055 0.623307 32.8373 0.646541 32.5602C0.677519 32.2737 0.685264 31.9785 0.704482 31.5058C0.719971 31.1966 0.743205 30.8192 0.743205 30.5424C0.743205 30.3287 0.685264 30.2332 0.534675 30.206L0.403304 30.1784C0.380071 30.1466 0.384086 30.0605 0.418793 30.0465C0.534675 30.0557 0.638797 30.0605 0.781928 30.0605C0.917027 30.0605 1.05213 30.0605 1.19526 30.0465C1.21046 30.3192 1.31114 30.5556 1.40752 30.8011L1.83261 31.8509C1.8633 31.9283 1.96369 32.1555 2.01417 32.2602C2.07584 32.1285 2.12977 32.0012 2.21496 31.7875L2.57809 30.915C2.70172 30.615 2.82506 30.3471 2.89075 30.0468C2.99515 30.0559 3.1228 30.0608 3.2077 30.0608C3.36976 30.0608 3.50515 30.0559 3.61329 30.0468C3.65574 30.0648 3.66348 30.1515 3.62476 30.1787L3.4974 30.2014C3.32731 30.2289 3.28887 30.3058 3.28887 30.5467C3.28887 31.2196 3.29662 31.8919 3.32358 32.5648C3.33505 32.8694 3.37751 32.9009 3.50113 32.9193L3.61329 32.9422ZM5.11917 31.9467C5.01878 31.9467 5.02251 31.9467 4.9878 32.0694L4.82947 32.6147C4.75231 32.8832 4.76751 32.8964 4.91064 32.9193L5.02251 32.942C5.04976 32.9738 5.04574 33.0555 5.01505 33.0739C4.89114 33.065 4.76378 33.065 4.60545 33.0601C4.4781 33.0601 4.3582 33.065 4.2231 33.0739C4.19585 33.0512 4.19212 32.983 4.21908 32.942L4.33496 32.9193C4.44712 32.9015 4.48957 32.8602 4.54751 32.7102C4.59398 32.592 4.65565 32.4013 4.73682 32.1555L5.26603 30.5375C5.31623 30.3921 5.35094 30.2831 5.33918 30.2057C5.47456 30.1738 5.60192 29.9877 5.60966 29.9877C5.64064 29.9877 5.65986 30.0014 5.67535 30.0241C5.7373 30.2286 5.7875 30.4423 5.84917 30.6465L6.40535 32.551C6.49426 32.8556 6.51377 32.8872 6.71054 32.9282L6.76848 32.9417C6.79946 32.9735 6.79946 33.051 6.7725 33.0736C6.60526 33.064 6.43776 33.0594 6.27025 33.0598C6.10417 33.0598 5.93407 33.0693 5.79897 33.0736C5.76828 33.051 5.76427 32.9692 5.7875 32.9417L5.8724 32.9282C6.01152 32.9101 6.02299 32.8829 5.97308 32.6873L5.79152 32.0692C5.75251 31.9464 5.74103 31.9464 5.6329 31.9464H5.11917V31.9467ZM5.58299 31.7422C5.69112 31.7422 5.70661 31.733 5.67564 31.624L5.51357 31.0788C5.44789 30.8378 5.42465 30.7515 5.40544 30.7197H5.39769C5.3822 30.7515 5.35122 30.8651 5.28152 31.0788L5.11946 31.6105C5.07701 31.7422 5.08848 31.7422 5.18113 31.7422H5.58299ZM9.75129 32.2877C9.75129 32.424 9.75129 32.9833 9.76276 33.0877C9.74911 33.1095 9.72956 33.1271 9.70638 33.1384C9.68319 33.1496 9.6573 33.1541 9.63168 33.1513C9.56972 33.0558 9.45785 32.9012 9.17962 32.5287L8.27552 31.3154C8.02453 30.9835 7.90091 30.8106 7.83551 30.7426C7.82375 30.7426 7.82375 30.7928 7.82375 31.0334V31.9197C7.82375 32.2608 7.82748 32.6789 7.89345 32.8152C7.92816 32.8834 7.99384 32.9107 8.09022 32.9288L8.17541 32.9425C8.21012 32.9741 8.2061 33.0604 8.16767 33.0742C8.02098 33.0651 7.87405 33.0605 7.72709 33.0604C7.56502 33.0604 7.46061 33.0653 7.32552 33.0742C7.29454 33.0515 7.28679 32.9741 7.31777 32.9425L7.40267 32.9196C7.4761 32.9061 7.54552 32.8878 7.57277 32.8152C7.62296 32.6744 7.62296 32.2788 7.62296 31.9197V30.8427C7.62296 30.4882 7.62669 30.4156 7.49532 30.2837C7.45287 30.243 7.34473 30.2065 7.29052 30.193L7.23287 30.1793C7.20562 30.1517 7.20963 30.0614 7.24807 30.0473C7.39493 30.0654 7.60748 30.0614 7.70414 30.0614C7.78503 30.0614 7.87767 30.0565 7.97061 30.0473C8.03629 30.2432 8.45737 30.8157 8.59247 30.9881L8.97884 31.4789C9.1409 31.6883 9.50031 32.1698 9.53874 32.1971C9.5505 32.1836 9.5505 32.1607 9.5505 32.0881V31.2018C9.5505 30.8611 9.54649 30.4429 9.47707 30.3063C9.44236 30.2384 9.38041 30.2108 9.28403 30.1928L9.19511 30.179C9.16041 30.1472 9.16413 30.0611 9.20286 30.0471C9.35345 30.0562 9.49629 30.0611 9.64717 30.0611C9.81324 30.0611 9.91364 30.0562 10.0528 30.0471C10.0834 30.0697 10.0912 30.1472 10.0605 30.179L9.97158 30.2017C9.89815 30.2154 9.83246 30.2335 9.80521 30.3061C9.75129 30.4472 9.75129 30.8424 9.75129 31.2015V32.2877ZM11.1771 30.7423C11.1771 30.3061 11.1734 30.2516 10.9919 30.224L10.911 30.2151C10.8837 30.1925 10.8837 30.1107 10.9147 30.0878C11.1929 30.0605 11.5018 30.0468 11.8805 30.0468C12.2473 30.0468 12.5101 30.0832 12.792 30.2014C13.2556 30.4013 13.584 30.8831 13.584 31.56C13.584 32.0649 13.3714 32.5829 12.8924 32.8691C12.6182 33.0326 12.2861 33.0874 11.9347 33.0874C11.6989 33.0874 11.5173 33.0598 11.3745 33.0598C11.2276 33.0598 11.0538 33.0647 10.8837 33.0736C10.853 33.0553 10.849 32.9735 10.8763 32.942L10.9609 32.9282C11.1424 32.9007 11.1771 32.8869 11.1771 32.4056V30.7423ZM11.6255 32.2286C11.6255 32.6695 11.6524 32.9058 12.062 32.9058C12.7496 32.9058 13.0585 32.3333 13.0585 31.5646C13.0585 30.6649 12.6142 30.2289 11.9694 30.2289C11.807 30.2289 11.6834 30.2653 11.6562 30.2926C11.6295 30.3198 11.6255 30.4153 11.6255 30.629V32.2286ZM14.7379 31.9467C14.6375 31.9467 14.6413 31.9467 14.6066 32.0694L14.4482 32.6147C14.3711 32.8832 14.3863 32.8964 14.5294 32.9193L14.6413 32.942C14.6685 32.9738 14.6645 33.0555 14.6335 33.0739C14.5099 33.065 14.3825 33.065 14.2242 33.0601C14.0969 33.0601 13.977 33.065 13.8419 33.0739C13.8146 33.0512 13.8109 32.983 13.8378 32.942L13.9537 32.9193C14.0659 32.9015 14.1083 32.8602 14.1663 32.7102C14.2127 32.592 14.2744 32.4013 14.3556 32.1555L14.8848 30.5375C14.935 30.3921 14.9697 30.2831 14.9579 30.2057C15.0933 30.1738 15.2207 29.9877 15.2284 29.9877C15.2594 29.9877 15.2786 30.0014 15.2941 30.0241C15.3561 30.2286 15.4063 30.4423 15.4679 30.6465L16.0241 32.551C16.113 32.8556 16.1325 32.8872 16.3293 32.9282L16.3872 32.9417C16.4182 32.9735 16.4182 33.051 16.3913 33.0736C16.224 33.064 16.0565 33.0594 15.889 33.0598C15.7229 33.0598 15.5528 33.0693 15.4177 33.0736C15.3868 33.051 15.383 32.9692 15.4063 32.9417L15.4912 32.9282C15.6303 32.9101 15.6417 32.8829 15.5916 32.6873L15.41 32.0692C15.3713 31.9464 15.3598 31.9464 15.2517 31.9464H14.7379V31.9467ZM15.2015 31.7422C15.3096 31.7422 15.3251 31.733 15.2941 31.624L15.132 31.0788C15.0664 30.8378 15.0431 30.7515 15.0239 30.7197H15.0159C15.0007 30.7515 14.9697 30.8651 14.9 31.0788L14.7379 31.6105C14.6955 31.7422 14.707 31.7422 14.7996 31.7422H15.2015ZM17.1462 30.7423C17.1462 30.3061 17.1422 30.2516 16.9606 30.2289L16.8602 30.2151C16.8333 30.1836 16.8333 30.1107 16.8642 30.0878C17.1075 30.0605 17.4359 30.0471 17.7526 30.0471C18.054 30.0471 18.3168 30.0921 18.4866 30.2017C18.6836 30.3244 18.8265 30.5378 18.8265 30.8648C18.8265 31.283 18.5523 31.4924 18.363 31.5827C18.3397 31.5968 18.3478 31.6329 18.363 31.6604C18.6719 32.274 18.8652 32.66 19.0468 32.8376C19.1546 32.9468 19.2074 32.942 19.2539 32.9466C19.2731 32.9649 19.2553 33.0696 19.2553 33.0696L18.5964 33.0705C18.5964 33.0705 18.4943 32.9199 18.2588 32.4971C18.1544 32.3061 18.0463 32.0563 17.9534 31.879C17.8839 31.7422 17.8415 31.7244 17.7139 31.7244C17.5983 31.7244 17.5942 31.729 17.5942 31.8245V32.4062C17.5942 32.8878 17.6289 32.9015 17.8105 32.9288L17.8957 32.9425C17.9224 32.9744 17.9187 33.0558 17.888 33.0742C17.543 33.0562 17.1974 33.0562 16.8525 33.0742C16.8218 33.0558 16.81 32.9744 16.845 32.9425L16.9299 32.9288C17.1112 32.9012 17.1462 32.8875 17.1462 32.4062V30.7423ZM17.5942 31.3968C17.5942 31.5423 17.5942 31.5514 17.7798 31.5514C18.1582 31.5514 18.332 31.3329 18.332 30.9012C18.332 30.5421 18.1352 30.2286 17.799 30.2286C17.5983 30.2286 17.5942 30.2421 17.5942 30.4509V31.3968ZM30.7133 30.7423C30.7133 30.3061 30.7092 30.2516 30.528 30.2289L30.4276 30.2151C30.4003 30.1836 30.4003 30.1107 30.4313 30.0878C30.6748 30.0605 31.003 30.0471 31.3199 30.0471C31.6217 30.0471 31.8841 30.0921 32.0542 30.2017C32.2513 30.3244 32.3938 30.5378 32.3938 30.8648C32.3938 31.283 32.1199 31.4924 31.9306 31.5827C31.9076 31.5968 31.9148 31.6329 31.9306 31.6604C32.2395 32.274 32.4331 32.66 32.6144 32.8376C32.7225 32.9468 32.7753 32.942 32.8218 32.9466C32.841 32.9649 32.8232 33.0696 32.8232 33.0696L32.1641 33.0705C32.1641 33.0705 32.062 32.9199 31.8265 32.4971C31.7221 32.3061 31.6142 32.0563 31.5213 31.879C31.4519 31.7422 31.4094 31.7244 31.2818 31.7244C31.1665 31.7244 31.1622 31.729 31.1622 31.8245V32.4062C31.1622 32.8878 31.1966 32.9015 31.3784 32.9288L31.4633 32.9425C31.4906 32.9744 31.4866 33.0558 31.4559 33.0742C31.111 33.0562 30.7655 33.0562 30.4207 33.0742C30.3903 33.0558 30.3785 32.9744 30.4132 32.9425L30.4981 32.9288C30.68 32.9012 30.7144 32.8875 30.7144 32.4062V30.7423H30.7133ZM31.1613 31.3968C31.1613 31.5423 31.1613 31.5514 31.3466 31.5514C31.7249 31.5514 31.899 31.3329 31.899 30.9012C31.899 30.5421 31.7017 30.2286 31.3658 30.2286C31.1656 30.2286 31.1613 30.2421 31.1613 30.4509V31.3968ZM20.5705 32.4059C20.5705 32.8878 20.6052 32.9012 20.7867 32.9285L20.8719 32.9422C20.8986 32.9738 20.8949 33.0558 20.8639 33.0739C20.5192 33.0559 20.1737 33.0559 19.829 33.0739C19.798 33.0558 19.794 32.9738 19.8212 32.9422L19.9059 32.9285C20.0877 32.9009 20.1221 32.8875 20.1221 32.4059V30.7151C20.1221 30.2332 20.0877 30.2194 19.9059 30.1925L19.8212 30.1787C19.794 30.1472 19.798 30.0651 19.829 30.0468C20.1737 30.0653 20.5192 30.0653 20.8639 30.0468C20.8949 30.0651 20.8986 30.1472 20.8719 30.1787L20.7867 30.1925C20.6052 30.2197 20.5705 30.2335 20.5705 30.7151V32.4059ZM24.2884 32.2877C24.2884 32.424 24.2884 32.9833 24.2999 33.0877C24.2862 33.1096 24.2666 33.1271 24.2434 33.1384C24.2201 33.1497 24.1942 33.1541 24.1685 33.1513C24.1071 33.0558 23.995 32.9012 23.7168 32.5287L22.8129 31.3154C22.562 30.9835 22.4383 30.8106 22.3726 30.7426C22.3609 30.7426 22.3609 30.7928 22.3609 31.0334V31.9197C22.3609 32.2608 22.3646 32.6789 22.4306 32.8152C22.4653 32.8834 22.531 32.9107 22.6274 32.9288L22.7125 32.9425C22.7472 32.9741 22.7432 33.0604 22.7048 33.0742C22.5582 33.0651 22.4114 33.0605 22.2645 33.0604C22.1022 33.0604 21.9977 33.0653 21.8626 33.0742C21.8317 33.0515 21.8239 32.9741 21.8549 32.9425L21.9398 32.9196C22.0132 32.9061 22.0829 32.8878 22.1099 32.8152C22.1601 32.6744 22.1601 32.2788 22.1601 31.9197V30.8427C22.1601 30.4882 22.1641 30.4156 22.0325 30.2837C21.99 30.243 21.8819 30.2065 21.8277 30.193L21.77 30.1793C21.743 30.1517 21.7468 30.0614 21.7855 30.0473C21.9321 30.0654 22.1446 30.0614 22.2413 30.0614C22.3222 30.0614 22.4151 30.0565 22.5077 30.0473C22.5734 30.2432 22.9945 30.8157 23.1296 30.9881L23.516 31.4789C23.6783 31.6883 24.0374 32.1698 24.0759 32.1971C24.0876 32.1836 24.0876 32.1607 24.0876 32.0881V31.2018C24.0876 30.8611 24.0839 30.4429 24.0142 30.3063C23.9795 30.2384 23.9175 30.2108 23.8212 30.1928L23.7322 30.179C23.6975 30.1472 23.7013 30.0611 23.74 30.0471C23.8906 30.0562 24.0334 30.0611 24.1843 30.0611C24.3504 30.0611 24.4508 30.0562 24.5899 30.0471C24.6209 30.0697 24.6283 30.1472 24.5976 30.179L24.5087 30.2017C24.4353 30.2154 24.3696 30.2335 24.3423 30.3061C24.2884 30.4472 24.2884 30.8424 24.2884 31.2015V32.2877ZM29.5745 31.5698C29.5745 32.4647 28.9948 33.1327 28.2149 33.1327C27.3418 33.1327 26.8398 32.4102 26.8398 31.6011C26.8398 30.6743 27.4112 29.9877 28.2227 29.9877C29.115 29.9877 29.5745 30.742 29.5745 31.5698ZM27.365 31.4694C27.365 32.097 27.5931 32.9511 28.2533 32.9511C28.6936 32.9511 29.0493 32.5648 29.0493 31.6513C29.0493 30.9649 28.7866 30.1695 28.1719 30.1695C27.7861 30.1695 27.365 30.5014 27.365 31.4694ZM34.4467 32.4059C34.4467 32.8878 34.4817 32.9012 34.663 32.9285L34.7482 32.9422C34.7751 32.9738 34.7711 33.0558 34.7404 33.0739C34.3956 33.0559 34.0501 33.0559 33.7052 33.0739C33.6745 33.0558 33.6708 32.9738 33.6978 32.9422L33.7827 32.9285C33.9643 32.9009 33.9992 32.8875 33.9992 32.4059V30.7151C33.9992 30.2332 33.9643 30.2194 33.7827 30.1925L33.6978 30.1787C33.6708 30.1472 33.6745 30.0651 33.7052 30.0468C34.0501 30.0652 34.3956 30.0652 34.7404 30.0468C34.7711 30.0651 34.7751 30.1472 34.7482 30.1787L34.663 30.1925C34.4817 30.2197 34.4467 30.2335 34.4467 30.7151V32.4059ZM36.2452 30.7151C36.2452 30.2332 36.2105 30.2194 36.0289 30.1876L35.9667 30.1787C35.9397 30.1472 35.944 30.0651 35.9744 30.0468C36.1213 30.0559 36.3031 30.0605 36.4729 30.0605H37.2107C37.4576 30.0605 37.6816 30.0559 37.7318 30.0468C37.7473 30.1245 37.7703 30.4833 37.7935 30.6786C37.7783 30.7151 37.7011 30.7242 37.6699 30.697C37.6082 30.4328 37.5503 30.3195 37.4267 30.2834C37.3374 30.2513 37.2216 30.2424 37.1177 30.2424H36.8587C36.6926 30.2424 36.6926 30.251 36.6926 30.5106V31.2787C36.6926 31.3968 36.6969 31.4011 36.7856 31.4011H36.9709C37.307 31.4011 37.3724 31.3968 37.3994 31.2015L37.4269 31.0469C37.4576 31.0151 37.5311 31.0151 37.5506 31.0515C37.5465 31.1743 37.5391 31.338 37.5391 31.5061C37.5391 31.6791 37.5465 31.838 37.5506 31.9834C37.5313 32.0149 37.4579 32.0149 37.4269 31.988L37.3994 31.8061C37.3724 31.6151 37.307 31.6065 36.9709 31.6065H36.7856C36.6967 31.6065 36.6926 31.6151 36.6926 31.729V32.3064C36.6926 32.5384 36.7004 32.7016 36.7583 32.779C36.8045 32.8424 36.8702 32.8792 37.1946 32.8792C37.6851 32.888 37.77 32.7561 37.9057 32.3881C37.9404 32.3563 38.0061 32.3698 38.0293 32.4154C38.0061 32.6061 37.9212 32.9517 37.8667 33.0742C37.6968 33.0656 37.365 33.0607 36.9132 33.0607H36.4729C36.3028 33.0607 36.0673 33.0656 35.8932 33.0742C35.8625 33.0564 35.8582 32.9744 35.8855 32.9425L36.0286 32.9248C36.2102 32.9018 36.2449 32.8883 36.2449 32.4065V30.7151H36.2452ZM41.3924 32.2877C41.3924 32.424 41.3924 32.9833 41.4042 33.0877C41.3905 33.1095 41.3709 33.127 41.3478 33.1383C41.3246 33.1495 41.2987 33.1541 41.2731 33.1513C41.2109 33.0558 41.099 32.9012 40.8211 32.5287L39.917 31.3154C39.666 30.9835 39.5424 30.8106 39.4767 30.7426C39.4652 30.7426 39.4652 30.7928 39.4652 31.0334V31.9197C39.4652 32.2608 39.4692 32.6789 39.5346 32.8152C39.5693 32.8834 39.6353 32.9107 39.732 32.9288L39.8169 32.9425C39.8516 32.9741 39.8473 33.0604 39.8091 33.0742C39.6625 33.0651 39.5157 33.0605 39.3688 33.0604C39.2068 33.0604 39.1021 33.0653 38.9675 33.0742C38.9366 33.0515 38.9282 32.9741 38.9595 32.9425L39.0444 32.9196C39.1178 32.9061 39.1875 32.8878 39.2145 32.8152C39.265 32.6744 39.265 32.2788 39.265 31.9197V30.8427C39.265 30.4882 39.269 30.4156 39.1376 30.2837C39.0949 30.243 38.9868 30.2065 38.9325 30.193L38.8749 30.1793C38.8479 30.1517 38.8517 30.0614 38.8904 30.0473C39.0372 30.0654 39.2498 30.0614 39.3462 30.0614C39.4273 30.0614 39.52 30.0565 39.6129 30.0473C39.6786 30.2432 40.0994 30.8157 40.2348 30.9881L40.6211 31.4789C40.7832 31.6883 41.1426 32.1698 41.1813 32.1971C41.1928 32.1836 41.1928 32.1607 41.1928 32.0881V31.2018C41.1928 30.8611 41.1888 30.4429 41.1194 30.3063C41.0847 30.2384 41.0227 30.2108 40.9263 30.1928L40.8371 30.179C40.8024 30.1472 40.8061 30.0611 40.8449 30.0471C40.9952 30.0562 41.1383 30.0611 41.2892 30.0611C41.4553 30.0611 41.5557 30.0562 41.6948 30.0471C41.7255 30.0697 41.7335 30.1472 41.7022 30.179L41.6133 30.2017C41.5402 30.2154 41.4742 30.2335 41.4472 30.3061C41.3933 30.4472 41.3933 30.8424 41.3933 31.2015V32.2877H41.3924ZM43.5962 30.4423C43.5962 30.2513 43.5922 30.2424 43.4924 30.2424H43.2755C42.9204 30.2424 42.816 30.2926 42.6732 30.6606C42.6459 30.6881 42.565 30.6743 42.5495 30.6287C42.6152 30.3835 42.6732 30.1016 42.6998 29.9421C42.7076 29.9289 42.7228 29.9243 42.7423 29.9243C42.7578 29.9243 42.773 29.9292 42.781 29.9421C42.8002 30.0559 42.8544 30.0605 43.1172 30.0605H44.6931C44.8824 30.0605 44.94 30.0468 44.9865 29.9421C45.002 29.9335 45.0172 29.9243 45.033 29.9243C45.0559 29.9243 45.0751 29.9335 45.0832 29.947C45.0441 30.1331 45.0137 30.5243 45.0252 30.6697C45.006 30.7062 44.94 30.7154 44.9056 30.6835C44.8554 30.3293 44.782 30.2427 44.3687 30.2427H44.1484C44.0477 30.2427 44.044 30.2516 44.044 30.4426V32.4062C44.044 32.888 44.0789 32.9015 44.2605 32.9245L44.3993 32.9422C44.4263 32.9741 44.4223 33.0558 44.3916 33.0742C44.2025 33.0658 44.0132 33.0612 43.8239 33.0604C43.6541 33.0604 43.4723 33.0653 43.225 33.0742C43.1946 33.0561 43.1903 32.9649 43.2179 32.9422L43.3796 32.9199C43.5612 32.9015 43.5959 32.888 43.5959 32.4062V30.4423H43.5962ZM46.3903 31.9467C46.2896 31.9467 46.2939 31.9467 46.2592 32.0694L46.1003 32.6147C46.0231 32.8832 46.0386 32.8964 46.1815 32.9193L46.2939 32.942C46.3211 32.9738 46.3166 33.0555 46.2861 33.0739C46.1625 33.065 46.0352 33.065 45.8768 33.0601C45.7495 33.0601 45.6296 33.065 45.4942 33.0739C45.4669 33.0512 45.4635 32.983 45.4902 32.942L45.6061 32.9193C45.7179 32.9015 45.7607 32.8602 45.8186 32.7102C45.8651 32.592 45.9265 32.4013 46.0076 32.1555L46.5368 30.5375C46.587 30.3921 46.622 30.2831 46.6103 30.2057C46.7457 30.1738 46.873 29.9877 46.8808 29.9877C46.9112 29.9877 46.931 30.0014 46.9462 30.0241C47.0084 30.2286 47.0586 30.4423 47.1203 30.6465L47.6762 32.551C47.7654 32.8556 47.7843 32.8872 47.9813 32.9282L48.0393 32.9417C48.07 32.9735 48.07 33.051 48.0433 33.0736C47.8761 33.064 47.7086 33.0594 47.5411 33.0598C47.375 33.0598 47.2049 33.0693 47.0695 33.0736C47.0388 33.051 47.0348 32.9692 47.058 32.9417L47.1432 32.9282C47.2818 32.9101 47.2935 32.8829 47.2436 32.6873L47.062 32.0692C47.0233 31.9464 47.0118 31.9464 46.9037 31.9464H46.3903V31.9467ZM46.8538 31.7422C46.9619 31.7422 46.9774 31.733 46.9462 31.624L46.7844 31.0788C46.7187 30.8378 46.6952 30.7515 46.676 30.7197H46.6685C46.653 30.7515 46.6223 30.8651 46.5526 31.0788L46.3906 31.6105C46.3484 31.7422 46.3599 31.7422 46.4525 31.7422H46.8538ZM49.6094 32.3104C49.6094 32.5375 49.6172 32.7013 49.6751 32.7785C49.7216 32.8424 49.7833 32.8789 50.0925 32.8789C50.521 32.8789 50.583 32.8559 50.7605 32.3878C50.7992 32.3652 50.8609 32.3789 50.8804 32.4151C50.8494 32.6061 50.7645 32.9514 50.7181 33.0742C50.556 33.0653 50.2238 33.0604 49.7913 33.0604H49.3894C49.1927 33.0604 48.9993 33.0653 48.8373 33.0742C48.8063 33.0561 48.7945 32.9652 48.8295 32.9422L48.9454 32.9196C49.127 32.8923 49.1617 32.8789 49.1617 32.4062V30.7154C49.1617 30.2427 49.127 30.2289 48.9454 30.1971L48.8373 30.179C48.8103 30.1563 48.8103 30.0654 48.8444 30.0473C49.0378 30.0565 49.2116 30.0608 49.3891 30.0608C49.5592 30.0608 49.7328 30.0565 49.9029 30.0473C49.9376 30.0651 49.9416 30.1563 49.9109 30.179L49.8257 30.1971C49.6441 30.2286 49.6091 30.2424 49.6091 30.7154V32.3104H49.6094ZM26.6686 18.8865C26.1986 18.8503 25.7266 18.8512 25.2568 18.889L25.8672 24.5756H26.1138L26.6686 18.8865ZM26.7133 18.4138C26.2117 18.3745 25.7077 18.3756 25.2063 18.4169L23.224 0L28.4438 0.694686L26.7133 18.4138ZM28.5534 19.2312C28.1013 19.0981 27.6395 19.0003 27.1723 18.9387L26.5805 24.6272L26.8215 24.6789L28.5534 19.2312ZM28.6957 18.7786C28.2136 18.6348 27.7206 18.5305 27.2216 18.4666L29.1345 0.0424499L34.0936 1.81301L28.6957 18.7786ZM24.7537 18.943C24.2867 19.0063 23.8253 19.1059 23.3737 19.2407L25.1601 24.6734L25.4008 24.6221L24.7537 18.943ZM24.6986 18.4714C24.1997 18.5374 23.707 18.6439 23.2254 18.7898L17.4353 1.19462L22.6856 0.782168L24.6986 18.4714ZM22.893 19.399C22.6765 19.4769 22.4632 19.563 22.2533 19.6572C22.0313 19.7564 21.8153 19.864 21.6056 19.9787L24.4886 24.9184L24.7135 24.8174L22.893 19.399ZM22.7401 18.9496C22.2662 19.1186 21.8067 19.3256 21.3661 19.5685L12.025 3.57325L17.0728 2.0723L22.7401 18.9496ZM21.1685 20.2337C20.9746 20.3541 20.7841 20.4826 20.5968 20.62C20.4023 20.7623 20.2135 20.9123 20.0309 21.0698L23.8828 25.2973L24.0816 25.1516L21.1685 20.2337ZM20.9253 19.8264C20.7185 19.954 20.5154 20.0908 20.3163 20.2368C20.1079 20.3892 19.906 20.5502 19.7111 20.7196L7.23143 7.03033L11.8535 4.50714L20.9253 19.8264ZM19.6569 21.4111C19.3175 21.7381 19.004 22.0909 18.7192 22.4663L23.3703 25.7946L23.5343 25.6105L19.6569 21.4111ZM19.3336 21.0632C18.9705 21.4115 18.636 21.7883 18.3331 22.1901L3.26679 11.4133L7.25897 7.97943L19.3336 21.0632ZM18.4249 22.8779C18.1613 23.2686 17.9286 23.6792 17.7288 24.1061L22.973 26.3886L23.0949 26.1744L18.4249 22.8779ZM18.0363 22.6054C17.754 23.022 17.5055 23.4605 17.2934 23.9168L0.306641 16.5285L3.49253 12.336L18.0363 22.6054ZM30.324 19.9626C29.9095 19.7381 29.4784 19.5459 29.0344 19.3875L27.2661 24.8266L27.4909 24.9273L30.324 19.9626ZM30.5581 19.5496C30.1164 19.3087 29.6561 19.1036 29.1816 18.9364L34.9045 1.31939L39.384 4.08781L30.5581 19.5496ZM31.9025 21.048C31.7278 20.8985 31.5475 20.7558 31.3618 20.6203C31.1674 20.4776 30.9672 20.3429 30.7617 20.2165L27.8951 25.165L28.0936 25.3107L31.9025 21.048ZM32.2177 20.6932C32.0322 20.5334 31.8403 20.381 31.6426 20.2365C31.4345 20.0838 31.2201 19.94 30.9998 19.8054L40.2807 3.77488L44.0821 7.41869L32.2177 20.6932ZM33.2193 22.4399C32.9332 22.0653 32.6184 21.7136 32.2777 21.3879L28.4395 25.6277L28.6036 25.8118L33.2193 22.4399ZM33.6017 22.1583C33.2975 21.7575 32.9612 21.3821 32.5963 21.0356L45.0244 7.29966L47.9796 11.6577L33.6017 22.1583ZM34.2158 24.076C34.1183 23.8695 34.0124 23.6652 33.898 23.4639C33.7785 23.2544 33.6508 23.0496 33.5154 22.8501L28.8755 26.1942L28.9971 26.4081L34.2158 24.076ZM34.6489 23.8806C34.4348 23.4253 34.1845 22.9879 33.9003 22.5727L48.9259 11.7394L50.9045 16.6191L34.6489 23.8806Z"/></svg>