<svg width="227" height="305" viewBox="0 0 227 305" fill="none" xmlns="http://www.w3.org/2000/svg">
<rect width="227" height="305" fill="#F9F8F8"/>
<rect width="227" height="54" fill="#9CBAD4"/>
<path d="M25.8369 91H24.1143V81.0469H25.8369V91ZM35.8584 91H34.1289L29.6924 83.9385V91H27.9629V81.0469H29.6924L34.1426 88.1357V81.0469H35.8584V91ZM39.7275 91H38.0049V81.0469H39.7275V91ZM48.8398 82.4414H45.7363V91H44.0205V82.4414H40.9443V81.0469H48.8398V82.4414ZM51.9775 91H50.2549V81.0469H51.9775V91ZM59.7979 88.6826H55.9424L55.1357 91H53.3379L57.0977 81.0469H58.6494L62.416 91H60.6113L59.7979 88.6826ZM56.4277 87.2881H59.3125L57.8701 83.1592L56.4277 87.2881ZM65.2803 89.6191H69.7988V91H63.5508V81.0469H65.2803V89.6191ZM80.1826 88.6826H76.3271L75.5205 91H73.7227L77.4824 81.0469H79.0342L82.8008 91H80.9961L80.1826 88.6826ZM76.8125 87.2881H79.6973L78.2549 83.1592L76.8125 87.2881ZM91.8311 91H90.1016L85.665 83.9385V91H83.9355V81.0469H85.665L90.1152 88.1357V81.0469H91.8311V91ZM99.5693 88.6826H95.7139L94.9072 91H93.1094L96.8691 81.0469H98.4209L102.188 91H100.383L99.5693 88.6826ZM96.1992 87.2881H99.084L97.6416 83.1592L96.1992 87.2881ZM105.052 89.6191H109.57V91H103.322V81.0469H105.052V89.6191ZM112.229 85.7637L114.52 81.0469H116.434L113.098 87.3359V91H111.361V87.3359L108.019 81.0469H109.939L112.229 85.7637ZM122.606 88.4365C122.606 87.999 122.451 87.6618 122.142 87.4248C121.836 87.1878 121.283 86.9486 120.48 86.707C119.678 86.4655 119.04 86.1966 118.566 85.9004C117.66 85.3307 117.206 84.5879 117.206 83.6719C117.206 82.8698 117.532 82.209 118.184 81.6895C118.84 81.1699 119.69 80.9102 120.733 80.9102C121.426 80.9102 122.044 81.0378 122.586 81.293C123.128 81.5482 123.554 81.9128 123.864 82.3867C124.174 82.8561 124.329 83.3779 124.329 83.9521H122.606C122.606 83.4326 122.442 83.027 122.114 82.7354C121.791 82.4391 121.326 82.291 120.72 82.291C120.155 82.291 119.715 82.4118 119.4 82.6533C119.09 82.8949 118.936 83.2321 118.936 83.665C118.936 84.0296 119.104 84.335 119.441 84.5811C119.779 84.8226 120.335 85.0596 121.109 85.292C121.884 85.5199 122.506 85.7819 122.976 86.0781C123.445 86.3698 123.789 86.707 124.008 87.0898C124.227 87.4681 124.336 87.9124 124.336 88.4229C124.336 89.2523 124.017 89.9131 123.379 90.4053C122.745 90.8929 121.884 91.1367 120.795 91.1367C120.075 91.1367 119.412 91.0046 118.806 90.7402C118.204 90.4714 117.735 90.1022 117.397 89.6328C117.065 89.1634 116.898 88.6165 116.898 87.9922H118.628C118.628 88.5573 118.815 88.9948 119.188 89.3047C119.562 89.6146 120.098 89.7695 120.795 89.7695C121.396 89.7695 121.848 89.6488 122.148 89.4072C122.454 89.1611 122.606 88.8376 122.606 88.4365ZM127.679 91H125.956V81.0469H127.679V91ZM135.007 88.4365C135.007 87.999 134.852 87.6618 134.542 87.4248C134.237 87.1878 133.683 86.9486 132.881 86.707C132.079 86.4655 131.441 86.1966 130.967 85.9004C130.06 85.3307 129.606 84.5879 129.606 83.6719C129.606 82.8698 129.932 82.209 130.584 81.6895C131.24 81.1699 132.09 80.9102 133.134 80.9102C133.826 80.9102 134.444 81.0378 134.986 81.293C135.529 81.5482 135.955 81.9128 136.265 82.3867C136.575 82.8561 136.729 83.3779 136.729 83.9521H135.007C135.007 83.4326 134.843 83.027 134.515 82.7354C134.191 82.4391 133.726 82.291 133.12 82.291C132.555 82.291 132.115 82.4118 131.801 82.6533C131.491 82.8949 131.336 83.2321 131.336 83.665C131.336 84.0296 131.505 84.335 131.842 84.5811C132.179 84.8226 132.735 85.0596 133.51 85.292C134.285 85.5199 134.907 85.7819 135.376 86.0781C135.845 86.3698 136.189 86.707 136.408 87.0898C136.627 87.4681 136.736 87.9124 136.736 88.4229C136.736 89.2523 136.417 89.9131 135.779 90.4053C135.146 90.8929 134.285 91.1367 133.195 91.1367C132.475 91.1367 131.812 91.0046 131.206 90.7402C130.604 90.4714 130.135 90.1022 129.798 89.6328C129.465 89.1634 129.299 88.6165 129.299 87.9922H131.028C131.028 88.5573 131.215 88.9948 131.589 89.3047C131.963 89.6146 132.498 89.7695 133.195 89.7695C133.797 89.7695 134.248 89.6488 134.549 89.4072C134.854 89.1611 135.007 88.8376 135.007 88.4365ZM32.085 122.723C32.085 122.326 32.2103 122 32.4609 121.745C32.7161 121.49 33.0534 121.362 33.4727 121.362C33.8874 121.362 34.2246 121.488 34.4844 121.738C34.7441 121.984 34.874 122.319 34.874 122.743V122.996C34.874 123.393 34.7487 123.716 34.498 123.967C34.2474 124.217 33.9079 124.343 33.4795 124.343C33.0557 124.343 32.7161 124.217 32.4609 123.967C32.2103 123.712 32.085 123.383 32.085 122.982V122.723ZM48.0879 123.563C46.9622 123.24 46.1419 122.843 45.627 122.374C45.1165 121.9 44.8613 121.317 44.8613 120.624C44.8613 119.84 45.1735 119.193 45.7979 118.683C46.4268 118.168 47.2425 117.91 48.2451 117.91C48.9287 117.91 49.5371 118.042 50.0703 118.307C50.6081 118.571 51.0228 118.936 51.3145 119.4C51.6107 119.865 51.7588 120.373 51.7588 120.925H50.4395C50.4395 120.323 50.248 119.852 49.8652 119.51C49.4824 119.163 48.9424 118.99 48.2451 118.99C47.598 118.99 47.0921 119.134 46.7275 119.421C46.3675 119.703 46.1875 120.098 46.1875 120.604C46.1875 121.009 46.3584 121.353 46.7002 121.636C47.0465 121.914 47.6322 122.169 48.457 122.401C49.2865 122.634 49.9336 122.891 50.3984 123.174C50.8678 123.452 51.2142 123.778 51.4375 124.151C51.6654 124.525 51.7793 124.965 51.7793 125.471C51.7793 126.277 51.4648 126.924 50.8359 127.412C50.207 127.895 49.3662 128.137 48.3135 128.137C47.6299 128.137 46.9919 128.007 46.3994 127.747C45.807 127.483 45.349 127.123 45.0254 126.667C44.7064 126.211 44.5469 125.694 44.5469 125.115H45.8662C45.8662 125.717 46.0872 126.193 46.5293 126.544C46.9759 126.89 47.5706 127.063 48.3135 127.063C49.0062 127.063 49.5371 126.922 49.9062 126.64C50.2754 126.357 50.46 125.972 50.46 125.484C50.46 124.997 50.2891 124.621 49.9473 124.356C49.6055 124.088 48.9857 123.823 48.0879 123.563ZM54.9854 118.812V120.604H56.3662V121.581H54.9854V126.168C54.9854 126.464 55.0469 126.688 55.1699 126.838C55.293 126.984 55.5026 127.057 55.7988 127.057C55.9447 127.057 56.1452 127.029 56.4004 126.975V128C56.0677 128.091 55.7441 128.137 55.4297 128.137C54.8646 128.137 54.4385 127.966 54.1514 127.624C53.8643 127.282 53.7207 126.797 53.7207 126.168V121.581H52.374V120.604H53.7207V118.812H54.9854ZM61.4248 121.738C61.2334 121.706 61.026 121.69 60.8027 121.69C59.9733 121.69 59.4105 122.044 59.1143 122.75V128H57.8496V120.604H59.0801L59.1006 121.458C59.5153 120.797 60.1032 120.467 60.8643 120.467C61.1104 120.467 61.2972 120.499 61.4248 120.562V121.738ZM66.8867 128C66.8138 127.854 66.7546 127.594 66.709 127.221C66.1211 127.831 65.4193 128.137 64.6035 128.137C63.8743 128.137 63.2751 127.932 62.8057 127.521C62.3408 127.107 62.1084 126.583 62.1084 125.949C62.1084 125.179 62.4001 124.582 62.9834 124.158C63.5713 123.73 64.3962 123.516 65.458 123.516H66.6885V122.935C66.6885 122.493 66.5563 122.142 66.292 121.882C66.0277 121.618 65.638 121.485 65.123 121.485C64.6719 121.485 64.2936 121.599 63.9883 121.827C63.6829 122.055 63.5303 122.331 63.5303 122.654H62.2588C62.2588 122.285 62.3887 121.93 62.6484 121.588C62.9128 121.242 63.2682 120.968 63.7148 120.768C64.166 120.567 64.6605 120.467 65.1982 120.467C66.0505 120.467 66.7181 120.681 67.2012 121.109C67.6842 121.533 67.9349 122.119 67.9531 122.866V126.271C67.9531 126.95 68.0397 127.49 68.2129 127.891V128H66.8867ZM64.7881 127.036C65.1846 127.036 65.5605 126.934 65.916 126.729C66.2715 126.523 66.529 126.257 66.6885 125.929V124.411H65.6973C64.1478 124.411 63.373 124.865 63.373 125.771C63.373 126.168 63.5052 126.478 63.7695 126.701C64.0339 126.924 64.3734 127.036 64.7881 127.036ZM71.6514 118.812V120.604H73.0322V121.581H71.6514V126.168C71.6514 126.464 71.7129 126.688 71.8359 126.838C71.959 126.984 72.1686 127.057 72.4648 127.057C72.6107 127.057 72.8112 127.029 73.0664 126.975V128C72.7337 128.091 72.4102 128.137 72.0957 128.137C71.5306 128.137 71.1045 127.966 70.8174 127.624C70.5303 127.282 70.3867 126.797 70.3867 126.168V121.581H69.04V120.604H70.3867V118.812H71.6514ZM77.585 128.137C76.5824 128.137 75.7666 127.809 75.1377 127.152C74.5088 126.492 74.1943 125.61 74.1943 124.507V124.274C74.1943 123.541 74.3333 122.887 74.6113 122.312C74.8939 121.734 75.2858 121.283 75.7871 120.959C76.293 120.631 76.8398 120.467 77.4277 120.467C78.3893 120.467 79.1367 120.784 79.6699 121.417C80.2031 122.05 80.4697 122.957 80.4697 124.138V124.664H75.459C75.4772 125.393 75.6891 125.983 76.0947 126.435C76.5049 126.881 77.0244 127.104 77.6533 127.104C78.0999 127.104 78.4782 127.013 78.7881 126.831C79.098 126.649 79.3691 126.407 79.6016 126.106L80.374 126.708C79.7542 127.66 78.8245 128.137 77.585 128.137ZM77.4277 121.506C76.9173 121.506 76.4889 121.693 76.1426 122.066C75.7962 122.436 75.582 122.955 75.5 123.625H79.2051V123.529C79.1686 122.887 78.9954 122.39 78.6855 122.039C78.3757 121.684 77.9564 121.506 77.4277 121.506ZM81.6387 124.24C81.6387 123.087 81.9053 122.171 82.4385 121.492C82.9717 120.809 83.6781 120.467 84.5576 120.467C85.46 120.467 86.1641 120.786 86.6699 121.424L86.7314 120.604H87.8867V127.822C87.8867 128.779 87.6019 129.534 87.0322 130.085C86.4671 130.636 85.7061 130.912 84.749 130.912C84.2158 130.912 83.694 130.798 83.1836 130.57C82.6732 130.342 82.2835 130.03 82.0146 129.634L82.6709 128.875C83.2132 129.545 83.8763 129.88 84.6602 129.88C85.2754 129.88 85.7539 129.707 86.0957 129.36C86.4421 129.014 86.6152 128.526 86.6152 127.897V127.262C86.1094 127.845 85.4189 128.137 84.5439 128.137C83.6781 128.137 82.9762 127.788 82.4385 127.091C81.9053 126.394 81.6387 125.443 81.6387 124.24ZM82.9102 124.384C82.9102 125.218 83.0811 125.874 83.4229 126.353C83.7646 126.826 84.2432 127.063 84.8584 127.063C85.6559 127.063 86.2415 126.701 86.6152 125.977V122.6C86.2279 121.893 85.6468 121.54 84.8721 121.54C84.2568 121.54 83.776 121.779 83.4297 122.258C83.0833 122.736 82.9102 123.445 82.9102 124.384ZM91.1748 128H89.9102V120.604H91.1748V128ZM89.8076 118.642C89.8076 118.437 89.8691 118.263 89.9922 118.122C90.1198 117.981 90.3066 117.91 90.5527 117.91C90.7988 117.91 90.9857 117.981 91.1133 118.122C91.2409 118.263 91.3047 118.437 91.3047 118.642C91.3047 118.847 91.2409 119.018 91.1133 119.154C90.9857 119.291 90.7988 119.359 90.5527 119.359C90.3066 119.359 90.1198 119.291 89.9922 119.154C89.8691 119.018 89.8076 118.847 89.8076 118.642ZM96.1719 127.104C96.623 127.104 97.0173 126.968 97.3545 126.694C97.6917 126.421 97.8786 126.079 97.915 125.669H99.1113C99.0885 126.093 98.9427 126.496 98.6738 126.879C98.4049 127.262 98.0449 127.567 97.5938 127.795C97.1471 128.023 96.6732 128.137 96.1719 128.137C95.1647 128.137 94.3626 127.802 93.7656 127.132C93.1732 126.457 92.877 125.537 92.877 124.37V124.158C92.877 123.438 93.0091 122.798 93.2734 122.237C93.5378 121.677 93.916 121.242 94.4082 120.932C94.9049 120.622 95.4906 120.467 96.165 120.467C96.9945 120.467 97.6826 120.715 98.2295 121.212C98.7809 121.709 99.0749 122.354 99.1113 123.146H97.915C97.8786 122.668 97.6963 122.276 97.3682 121.971C97.0446 121.661 96.6436 121.506 96.165 121.506C95.5225 121.506 95.0234 121.738 94.668 122.203C94.3171 122.663 94.1416 123.331 94.1416 124.206V124.445C94.1416 125.298 94.3171 125.954 94.668 126.414C95.0189 126.874 95.5202 127.104 96.1719 127.104ZM109.693 123.604H105.517V128H104.204V118.047H110.37V119.127H105.517V122.531H109.693V123.604ZM113.118 128H111.854V120.604H113.118V128ZM111.751 118.642C111.751 118.437 111.812 118.263 111.936 118.122C112.063 117.981 112.25 117.91 112.496 117.91C112.742 117.91 112.929 117.981 113.057 118.122C113.184 118.263 113.248 118.437 113.248 118.642C113.248 118.847 113.184 119.018 113.057 119.154C112.929 119.291 112.742 119.359 112.496 119.359C112.25 119.359 112.063 119.291 111.936 119.154C111.812 119.018 111.751 118.847 111.751 118.642ZM116.864 118.812V120.604H118.245V121.581H116.864V126.168C116.864 126.464 116.926 126.688 117.049 126.838C117.172 126.984 117.382 127.057 117.678 127.057C117.824 127.057 118.024 127.029 118.279 126.975V128C117.947 128.091 117.623 128.137 117.309 128.137C116.743 128.137 116.317 127.966 116.03 127.624C115.743 127.282 115.6 126.797 115.6 126.168V121.581H114.253V120.604H115.6V118.812H116.864ZM121.444 118.812V120.604H122.825V121.581H121.444V126.168C121.444 126.464 121.506 126.688 121.629 126.838C121.752 126.984 121.962 127.057 122.258 127.057C122.404 127.057 122.604 127.029 122.859 126.975V128C122.527 128.091 122.203 128.137 121.889 128.137C121.324 128.137 120.897 127.966 120.61 127.624C120.323 127.282 120.18 126.797 120.18 126.168V121.581H118.833V120.604H120.18V118.812H121.444ZM125.683 128H124.418V120.604H125.683V128ZM124.315 118.642C124.315 118.437 124.377 118.263 124.5 118.122C124.628 117.981 124.814 117.91 125.061 117.91C125.307 117.91 125.493 117.981 125.621 118.122C125.749 118.263 125.812 118.437 125.812 118.642C125.812 118.847 125.749 119.018 125.621 119.154C125.493 119.291 125.307 119.359 125.061 119.359C124.814 119.359 124.628 119.291 124.5 119.154C124.377 119.018 124.315 118.847 124.315 118.642ZM128.909 120.604L128.95 121.533C129.515 120.822 130.254 120.467 131.165 120.467C132.728 120.467 133.517 121.349 133.53 123.112V128H132.266V123.105C132.261 122.572 132.138 122.178 131.896 121.923C131.66 121.668 131.288 121.54 130.782 121.54C130.372 121.54 130.012 121.649 129.702 121.868C129.392 122.087 129.151 122.374 128.978 122.729V128H127.713V120.604H128.909ZM135.137 124.24C135.137 123.087 135.403 122.171 135.937 121.492C136.47 120.809 137.176 120.467 138.056 120.467C138.958 120.467 139.662 120.786 140.168 121.424L140.229 120.604H141.385V127.822C141.385 128.779 141.1 129.534 140.53 130.085C139.965 130.636 139.204 130.912 138.247 130.912C137.714 130.912 137.192 130.798 136.682 130.57C136.171 130.342 135.782 130.03 135.513 129.634L136.169 128.875C136.711 129.545 137.374 129.88 138.158 129.88C138.773 129.88 139.252 129.707 139.594 129.36C139.94 129.014 140.113 128.526 140.113 127.897V127.262C139.607 127.845 138.917 128.137 138.042 128.137C137.176 128.137 136.474 127.788 135.937 127.091C135.403 126.394 135.137 125.443 135.137 124.24ZM136.408 124.384C136.408 125.218 136.579 125.874 136.921 126.353C137.263 126.826 137.741 127.063 138.356 127.063C139.154 127.063 139.74 126.701 140.113 125.977V122.6C139.726 121.893 139.145 121.54 138.37 121.54C137.755 121.54 137.274 121.779 136.928 122.258C136.581 122.736 136.408 123.445 136.408 124.384ZM32.085 143.723C32.085 143.326 32.2103 143 32.4609 142.745C32.7161 142.49 33.0534 142.362 33.4727 142.362C33.8874 142.362 34.2246 142.488 34.4844 142.738C34.7441 142.984 34.874 143.319 34.874 143.743V143.996C34.874 144.393 34.7487 144.716 34.498 144.967C34.2474 145.217 33.9079 145.343 33.4795 145.343C33.0557 145.343 32.7161 145.217 32.4609 144.967C32.2103 144.712 32.085 144.383 32.085 143.982V143.723ZM45.1553 149V139.047H48.4092C49.4893 139.047 50.3005 139.27 50.8428 139.717C51.3896 140.163 51.6631 140.824 51.6631 141.699C51.6631 142.164 51.5309 142.576 51.2666 142.937C51.0023 143.292 50.6423 143.568 50.1865 143.764C50.7243 143.914 51.1481 144.201 51.458 144.625C51.7725 145.044 51.9297 145.546 51.9297 146.129C51.9297 147.022 51.6403 147.724 51.0615 148.234C50.4827 148.745 49.6647 149 48.6074 149H45.1553ZM46.4678 144.345V147.927H48.6348C49.2454 147.927 49.7262 147.77 50.0771 147.455C50.4326 147.136 50.6104 146.699 50.6104 146.143C50.6104 144.944 49.9587 144.345 48.6553 144.345H46.4678ZM46.4678 143.292H48.4502C49.0244 143.292 49.4824 143.148 49.8242 142.861C50.1706 142.574 50.3438 142.185 50.3438 141.692C50.3438 141.146 50.1842 140.749 49.8652 140.503C49.5462 140.252 49.0609 140.127 48.4092 140.127H46.4678V143.292ZM58.2461 148.269C57.7539 148.847 57.0316 149.137 56.0791 149.137C55.2907 149.137 54.6891 148.909 54.2744 148.453C53.8643 147.993 53.6569 147.314 53.6523 146.416V141.604H54.917V146.382C54.917 147.503 55.3727 148.063 56.2842 148.063C57.2503 148.063 57.8929 147.703 58.2119 146.983V141.604H59.4766V149H58.2734L58.2461 148.269ZM65.7109 147.038C65.7109 146.696 65.5811 146.432 65.3213 146.245C65.0661 146.054 64.6172 145.89 63.9746 145.753C63.3366 145.616 62.8285 145.452 62.4502 145.261C62.0765 145.069 61.7985 144.841 61.6162 144.577C61.4385 144.313 61.3496 143.998 61.3496 143.634C61.3496 143.028 61.6048 142.515 62.1152 142.096C62.6302 141.676 63.2865 141.467 64.084 141.467C64.9225 141.467 65.6016 141.683 66.1211 142.116C66.6452 142.549 66.9072 143.103 66.9072 143.777H65.6357C65.6357 143.431 65.4876 143.132 65.1914 142.882C64.8997 142.631 64.5306 142.506 64.084 142.506C63.6237 142.506 63.2637 142.606 63.0039 142.807C62.7441 143.007 62.6143 143.269 62.6143 143.593C62.6143 143.898 62.735 144.128 62.9766 144.283C63.2181 144.438 63.6533 144.586 64.2822 144.728C64.9157 144.869 65.4284 145.037 65.8203 145.233C66.2122 145.429 66.5016 145.666 66.6885 145.944C66.8799 146.218 66.9756 146.553 66.9756 146.949C66.9756 147.61 66.7113 148.141 66.1826 148.542C65.654 148.938 64.9681 149.137 64.125 149.137C63.5326 149.137 63.0085 149.032 62.5527 148.822C62.097 148.613 61.7393 148.321 61.4795 147.947C61.2243 147.569 61.0967 147.161 61.0967 146.724H62.3613C62.3841 147.147 62.5527 147.485 62.8672 147.735C63.1862 147.981 63.6055 148.104 64.125 148.104C64.6035 148.104 64.9863 148.009 65.2734 147.817C65.5651 147.621 65.7109 147.362 65.7109 147.038ZM69.9971 149H68.7324V141.604H69.9971V149ZM68.6299 139.642C68.6299 139.437 68.6914 139.263 68.8145 139.122C68.9421 138.981 69.1289 138.91 69.375 138.91C69.6211 138.91 69.8079 138.981 69.9355 139.122C70.0632 139.263 70.127 139.437 70.127 139.642C70.127 139.847 70.0632 140.018 69.9355 140.154C69.8079 140.291 69.6211 140.359 69.375 140.359C69.1289 140.359 68.9421 140.291 68.8145 140.154C68.6914 140.018 68.6299 139.847 68.6299 139.642ZM73.2236 141.604L73.2646 142.533C73.8298 141.822 74.568 141.467 75.4795 141.467C77.0426 141.467 77.8311 142.349 77.8447 144.112V149H76.5801V144.105C76.5755 143.572 76.4525 143.178 76.2109 142.923C75.974 142.668 75.6025 142.54 75.0967 142.54C74.6865 142.54 74.3265 142.649 74.0166 142.868C73.7067 143.087 73.4652 143.374 73.292 143.729V149H72.0273V141.604H73.2236ZM82.8213 149.137C81.8187 149.137 81.0029 148.809 80.374 148.152C79.7451 147.492 79.4307 146.61 79.4307 145.507V145.274C79.4307 144.541 79.5697 143.887 79.8477 143.312C80.1302 142.734 80.5221 142.283 81.0234 141.959C81.5293 141.631 82.0762 141.467 82.6641 141.467C83.6257 141.467 84.373 141.784 84.9062 142.417C85.4395 143.05 85.7061 143.957 85.7061 145.138V145.664H80.6953C80.7135 146.393 80.9255 146.983 81.3311 147.435C81.7412 147.881 82.2607 148.104 82.8896 148.104C83.3363 148.104 83.7145 148.013 84.0244 147.831C84.3343 147.649 84.6055 147.407 84.8379 147.106L85.6104 147.708C84.9906 148.66 84.0609 149.137 82.8213 149.137ZM82.6641 142.506C82.1536 142.506 81.7253 142.693 81.3789 143.066C81.0326 143.436 80.8184 143.955 80.7363 144.625H84.4414V144.529C84.4049 143.887 84.2318 143.39 83.9219 143.039C83.612 142.684 83.1927 142.506 82.6641 142.506ZM91.4824 147.038C91.4824 146.696 91.3525 146.432 91.0928 146.245C90.8376 146.054 90.3887 145.89 89.7461 145.753C89.1081 145.616 88.5999 145.452 88.2217 145.261C87.848 145.069 87.57 144.841 87.3877 144.577C87.21 144.313 87.1211 143.998 87.1211 143.634C87.1211 143.028 87.3763 142.515 87.8867 142.096C88.4017 141.676 89.0579 141.467 89.8555 141.467C90.694 141.467 91.373 141.683 91.8926 142.116C92.4167 142.549 92.6787 143.103 92.6787 143.777H91.4072C91.4072 143.431 91.2591 143.132 90.9629 142.882C90.6712 142.631 90.3021 142.506 89.8555 142.506C89.3952 142.506 89.0352 142.606 88.7754 142.807C88.5156 143.007 88.3857 143.269 88.3857 143.593C88.3857 143.898 88.5065 144.128 88.748 144.283C88.9896 144.438 89.4248 144.586 90.0537 144.728C90.6872 144.869 91.1999 145.037 91.5918 145.233C91.9837 145.429 92.2731 145.666 92.46 145.944C92.6514 146.218 92.7471 146.553 92.7471 146.949C92.7471 147.61 92.4827 148.141 91.9541 148.542C91.4255 148.938 90.7396 149.137 89.8965 149.137C89.304 149.137 88.7799 149.032 88.3242 148.822C87.8685 148.613 87.5107 148.321 87.251 147.947C86.9958 147.569 86.8682 147.161 86.8682 146.724H88.1328C88.1556 147.147 88.3242 147.485 88.6387 147.735C88.9577 147.981 89.377 148.104 89.8965 148.104C90.375 148.104 90.7578 148.009 91.0449 147.817C91.3366 147.621 91.4824 147.362 91.4824 147.038ZM98.7012 147.038C98.7012 146.696 98.5713 146.432 98.3115 146.245C98.0563 146.054 97.6074 145.89 96.9648 145.753C96.3268 145.616 95.8187 145.452 95.4404 145.261C95.0667 145.069 94.7887 144.841 94.6064 144.577C94.4287 144.313 94.3398 143.998 94.3398 143.634C94.3398 143.028 94.5951 142.515 95.1055 142.096C95.6204 141.676 96.2767 141.467 97.0742 141.467C97.9128 141.467 98.5918 141.683 99.1113 142.116C99.6354 142.549 99.8975 143.103 99.8975 143.777H98.626C98.626 143.431 98.4779 143.132 98.1816 142.882C97.89 142.631 97.5208 142.506 97.0742 142.506C96.6139 142.506 96.2539 142.606 95.9941 142.807C95.7344 143.007 95.6045 143.269 95.6045 143.593C95.6045 143.898 95.7253 144.128 95.9668 144.283C96.2083 144.438 96.6436 144.586 97.2725 144.728C97.9059 144.869 98.4186 145.037 98.8105 145.233C99.2025 145.429 99.4919 145.666 99.6787 145.944C99.8701 146.218 99.9658 146.553 99.9658 146.949C99.9658 147.61 99.7015 148.141 99.1729 148.542C98.6442 148.938 97.9583 149.137 97.1152 149.137C96.5228 149.137 95.9987 149.032 95.543 148.822C95.0872 148.613 94.7295 148.321 94.4697 147.947C94.2145 147.569 94.0869 147.161 94.0869 146.724H95.3516C95.3743 147.147 95.543 147.485 95.8574 147.735C96.1764 147.981 96.5957 148.104 97.1152 148.104C97.5938 148.104 97.9766 148.009 98.2637 147.817C98.5553 147.621 98.7012 147.362 98.7012 147.038ZM106.979 139.047L110.233 147.168L113.487 139.047H115.189V149H113.877V145.124L114 140.94L110.732 149H109.728L106.467 140.961L106.597 145.124V149H105.284V139.047H106.979ZM116.974 145.233C116.974 144.509 117.115 143.857 117.397 143.278C117.685 142.7 118.081 142.253 118.587 141.938C119.097 141.624 119.678 141.467 120.33 141.467C121.337 141.467 122.151 141.815 122.771 142.513C123.395 143.21 123.707 144.137 123.707 145.295V145.384C123.707 146.104 123.568 146.751 123.29 147.325C123.017 147.895 122.622 148.339 122.107 148.658C121.597 148.977 121.009 149.137 120.344 149.137C119.341 149.137 118.528 148.788 117.903 148.091C117.284 147.394 116.974 146.471 116.974 145.322V145.233ZM118.245 145.384C118.245 146.204 118.434 146.863 118.812 147.359C119.195 147.856 119.706 148.104 120.344 148.104C120.986 148.104 121.497 147.854 121.875 147.353C122.253 146.847 122.442 146.14 122.442 145.233C122.442 144.422 122.249 143.766 121.861 143.265C121.479 142.759 120.968 142.506 120.33 142.506C119.706 142.506 119.202 142.754 118.819 143.251C118.437 143.748 118.245 144.459 118.245 145.384ZM124.985 145.24C124.985 144.105 125.254 143.194 125.792 142.506C126.33 141.813 127.034 141.467 127.904 141.467C128.77 141.467 129.456 141.763 129.962 142.355V138.5H131.227V149H130.064L130.003 148.207C129.497 148.827 128.793 149.137 127.891 149.137C127.034 149.137 126.334 148.786 125.792 148.084C125.254 147.382 124.985 146.466 124.985 145.336V145.24ZM126.25 145.384C126.25 146.222 126.423 146.879 126.77 147.353C127.116 147.826 127.594 148.063 128.205 148.063C129.007 148.063 129.593 147.703 129.962 146.983V143.586C129.584 142.889 129.003 142.54 128.219 142.54C127.599 142.54 127.116 142.779 126.77 143.258C126.423 143.736 126.25 144.445 126.25 145.384ZM136.265 149.137C135.262 149.137 134.446 148.809 133.817 148.152C133.188 147.492 132.874 146.61 132.874 145.507V145.274C132.874 144.541 133.013 143.887 133.291 143.312C133.574 142.734 133.965 142.283 134.467 141.959C134.973 141.631 135.52 141.467 136.107 141.467C137.069 141.467 137.816 141.784 138.35 142.417C138.883 143.05 139.149 143.957 139.149 145.138V145.664H134.139C134.157 146.393 134.369 146.983 134.774 147.435C135.185 147.881 135.704 148.104 136.333 148.104C136.78 148.104 137.158 148.013 137.468 147.831C137.778 147.649 138.049 147.407 138.281 147.106L139.054 147.708C138.434 148.66 137.504 149.137 136.265 149.137ZM136.107 142.506C135.597 142.506 135.169 142.693 134.822 143.066C134.476 143.436 134.262 143.955 134.18 144.625H137.885V144.529C137.848 143.887 137.675 143.39 137.365 143.039C137.055 142.684 136.636 142.506 136.107 142.506ZM141.993 149H140.729V138.5H141.993V149ZM153.19 146.402H149.021L148.084 149H146.73L150.531 139.047H151.68L155.487 149H154.141L153.19 146.402ZM149.417 145.322H152.801L151.105 140.667L149.417 145.322ZM157.825 141.604L157.866 142.533C158.431 141.822 159.17 141.467 160.081 141.467C161.644 141.467 162.433 142.349 162.446 144.112V149H161.182V144.105C161.177 143.572 161.054 143.178 160.812 142.923C160.576 142.668 160.204 142.54 159.698 142.54C159.288 142.54 158.928 142.649 158.618 142.868C158.308 143.087 158.067 143.374 157.894 143.729V149H156.629V141.604H157.825ZM168.92 149C168.847 148.854 168.788 148.594 168.742 148.221C168.154 148.831 167.452 149.137 166.637 149.137C165.908 149.137 165.308 148.932 164.839 148.521C164.374 148.107 164.142 147.583 164.142 146.949C164.142 146.179 164.433 145.582 165.017 145.158C165.604 144.73 166.429 144.516 167.491 144.516H168.722V143.935C168.722 143.493 168.59 143.142 168.325 142.882C168.061 142.618 167.671 142.485 167.156 142.485C166.705 142.485 166.327 142.599 166.021 142.827C165.716 143.055 165.563 143.331 165.563 143.654H164.292C164.292 143.285 164.422 142.93 164.682 142.588C164.946 142.242 165.301 141.968 165.748 141.768C166.199 141.567 166.694 141.467 167.231 141.467C168.084 141.467 168.751 141.681 169.234 142.109C169.717 142.533 169.968 143.119 169.986 143.866V147.271C169.986 147.95 170.073 148.49 170.246 148.891V149H168.92ZM166.821 148.036C167.218 148.036 167.594 147.934 167.949 147.729C168.305 147.523 168.562 147.257 168.722 146.929V145.411H167.73C166.181 145.411 165.406 145.865 165.406 146.771C165.406 147.168 165.538 147.478 165.803 147.701C166.067 147.924 166.407 148.036 166.821 148.036ZM173.343 149H172.078V138.5H173.343V149ZM176.747 149H175.482V141.604H176.747V149ZM175.38 139.642C175.38 139.437 175.441 139.263 175.564 139.122C175.692 138.981 175.879 138.91 176.125 138.91C176.371 138.91 176.558 138.981 176.686 139.122C176.813 139.263 176.877 139.437 176.877 139.642C176.877 139.847 176.813 140.018 176.686 140.154C176.558 140.291 176.371 140.359 176.125 140.359C175.879 140.359 175.692 140.291 175.564 140.154C175.441 140.018 175.38 139.847 175.38 139.642ZM183.084 147.038C183.084 146.696 182.954 146.432 182.694 146.245C182.439 146.054 181.99 145.89 181.348 145.753C180.71 145.616 180.201 145.452 179.823 145.261C179.45 145.069 179.172 144.841 178.989 144.577C178.812 144.313 178.723 143.998 178.723 143.634C178.723 143.028 178.978 142.515 179.488 142.096C180.003 141.676 180.66 141.467 181.457 141.467C182.296 141.467 182.975 141.683 183.494 142.116C184.018 142.549 184.28 143.103 184.28 143.777H183.009C183.009 143.431 182.861 143.132 182.564 142.882C182.273 142.631 181.904 142.506 181.457 142.506C180.997 142.506 180.637 142.606 180.377 142.807C180.117 143.007 179.987 143.269 179.987 143.593C179.987 143.898 180.108 144.128 180.35 144.283C180.591 144.438 181.026 144.586 181.655 144.728C182.289 144.869 182.801 145.037 183.193 145.233C183.585 145.429 183.875 145.666 184.062 145.944C184.253 146.218 184.349 146.553 184.349 146.949C184.349 147.61 184.084 148.141 183.556 148.542C183.027 148.938 182.341 149.137 181.498 149.137C180.906 149.137 180.382 149.032 179.926 148.822C179.47 148.613 179.112 148.321 178.853 147.947C178.597 147.569 178.47 147.161 178.47 146.724H179.734C179.757 147.147 179.926 147.485 180.24 147.735C180.559 147.981 180.979 148.104 181.498 148.104C181.977 148.104 182.359 148.009 182.646 147.817C182.938 147.621 183.084 147.362 183.084 147.038ZM188.416 147.147L190.139 141.604H191.492L188.519 150.142C188.058 151.372 187.327 151.987 186.324 151.987L186.085 151.967L185.613 151.878V150.853L185.955 150.88C186.383 150.88 186.716 150.793 186.953 150.62C187.195 150.447 187.393 150.13 187.548 149.67L187.828 148.918L185.189 141.604H186.57L188.416 147.147ZM196.934 147.038C196.934 146.696 196.804 146.432 196.544 146.245C196.289 146.054 195.84 145.89 195.197 145.753C194.559 145.616 194.051 145.452 193.673 145.261C193.299 145.069 193.021 144.841 192.839 144.577C192.661 144.313 192.572 143.998 192.572 143.634C192.572 143.028 192.827 142.515 193.338 142.096C193.853 141.676 194.509 141.467 195.307 141.467C196.145 141.467 196.824 141.683 197.344 142.116C197.868 142.549 198.13 143.103 198.13 143.777H196.858C196.858 143.431 196.71 143.132 196.414 142.882C196.122 142.631 195.753 142.506 195.307 142.506C194.846 142.506 194.486 142.606 194.227 142.807C193.967 143.007 193.837 143.269 193.837 143.593C193.837 143.898 193.958 144.128 194.199 144.283C194.441 144.438 194.876 144.586 195.505 144.728C196.138 144.869 196.651 145.037 197.043 145.233C197.435 145.429 197.724 145.666 197.911 145.944C198.103 146.218 198.198 146.553 198.198 146.949C198.198 147.61 197.934 148.141 197.405 148.542C196.877 148.938 196.191 149.137 195.348 149.137C194.755 149.137 194.231 149.032 193.775 148.822C193.32 148.613 192.962 148.321 192.702 147.947C192.447 147.569 192.319 147.161 192.319 146.724H193.584C193.607 147.147 193.775 147.485 194.09 147.735C194.409 147.981 194.828 148.104 195.348 148.104C195.826 148.104 196.209 148.009 196.496 147.817C196.788 147.621 196.934 147.362 196.934 147.038ZM32.085 164.723C32.085 164.326 32.2103 164 32.4609 163.745C32.7161 163.49 33.0534 163.362 33.4727 163.362C33.8874 163.362 34.2246 163.488 34.4844 163.738C34.7441 163.984 34.874 164.319 34.874 164.743V164.996C34.874 165.393 34.7487 165.716 34.498 165.967C34.2474 166.217 33.9079 166.343 33.4795 166.343C33.0557 166.343 32.7161 166.217 32.4609 165.967C32.2103 165.712 32.085 165.383 32.085 164.982V164.723ZM46.5635 170H45.251V160.047H46.5635V170ZM49.9678 162.604L50.0088 163.533C50.5739 162.822 51.3122 162.467 52.2236 162.467C53.7868 162.467 54.5752 163.349 54.5889 165.112V170H53.3242V165.105C53.3197 164.572 53.1966 164.178 52.9551 163.923C52.7181 163.668 52.3467 163.54 51.8408 163.54C51.4307 163.54 51.0706 163.649 50.7607 163.868C50.4508 164.087 50.2093 164.374 50.0361 164.729V170H48.7715V162.604H49.9678ZM57.6924 162.604L57.7334 163.533C58.2985 162.822 59.0368 162.467 59.9482 162.467C61.5114 162.467 62.2998 163.349 62.3135 165.112V170H61.0488V165.105C61.0443 164.572 60.9212 164.178 60.6797 163.923C60.4427 163.668 60.0713 163.54 59.5654 163.54C59.1553 163.54 58.7952 163.649 58.4854 163.868C58.1755 164.087 57.9339 164.374 57.7607 164.729V170H56.4961V162.604H57.6924ZM63.8857 166.233C63.8857 165.509 64.027 164.857 64.3096 164.278C64.5967 163.7 64.9932 163.253 65.499 162.938C66.0094 162.624 66.5905 162.467 67.2422 162.467C68.2493 162.467 69.0628 162.815 69.6826 163.513C70.307 164.21 70.6191 165.137 70.6191 166.295V166.384C70.6191 167.104 70.4801 167.751 70.2021 168.325C69.9287 168.895 69.5345 169.339 69.0195 169.658C68.5091 169.977 67.9212 170.137 67.2559 170.137C66.2533 170.137 65.4398 169.788 64.8154 169.091C64.1956 168.394 63.8857 167.471 63.8857 166.322V166.233ZM65.1572 166.384C65.1572 167.204 65.3464 167.863 65.7246 168.359C66.1074 168.856 66.6178 169.104 67.2559 169.104C67.8984 169.104 68.4089 168.854 68.7871 168.353C69.1654 167.847 69.3545 167.14 69.3545 166.233C69.3545 165.422 69.1608 164.766 68.7734 164.265C68.3906 163.759 67.8802 163.506 67.2422 163.506C66.6178 163.506 66.1143 163.754 65.7314 164.251C65.3486 164.748 65.1572 165.459 65.1572 166.384ZM74.5361 168.284L76.3682 162.604H77.6602L75.0078 170H74.0439L71.3643 162.604H72.6562L74.5361 168.284ZM83.334 170C83.2611 169.854 83.2018 169.594 83.1562 169.221C82.5684 169.831 81.8665 170.137 81.0508 170.137C80.3216 170.137 79.7223 169.932 79.2529 169.521C78.7881 169.107 78.5557 168.583 78.5557 167.949C78.5557 167.179 78.8473 166.582 79.4307 166.158C80.0186 165.73 80.8434 165.516 81.9053 165.516H83.1357V164.935C83.1357 164.493 83.0036 164.142 82.7393 163.882C82.4749 163.618 82.0853 163.485 81.5703 163.485C81.1191 163.485 80.7409 163.599 80.4355 163.827C80.1302 164.055 79.9775 164.331 79.9775 164.654H78.7061C78.7061 164.285 78.8359 163.93 79.0957 163.588C79.36 163.242 79.7155 162.968 80.1621 162.768C80.6133 162.567 81.1077 162.467 81.6455 162.467C82.4977 162.467 83.1654 162.681 83.6484 163.109C84.1315 163.533 84.3822 164.119 84.4004 164.866V168.271C84.4004 168.95 84.487 169.49 84.6602 169.891V170H83.334ZM81.2354 169.036C81.6318 169.036 82.0078 168.934 82.3633 168.729C82.7188 168.523 82.9762 168.257 83.1357 167.929V166.411H82.1445C80.5951 166.411 79.8203 166.865 79.8203 167.771C79.8203 168.168 79.9525 168.478 80.2168 168.701C80.4811 168.924 80.8206 169.036 81.2354 169.036ZM88.0986 160.812V162.604H89.4795V163.581H88.0986V168.168C88.0986 168.464 88.1602 168.688 88.2832 168.838C88.4062 168.984 88.6159 169.057 88.9121 169.057C89.0579 169.057 89.2585 169.029 89.5137 168.975V170C89.181 170.091 88.8574 170.137 88.543 170.137C87.9779 170.137 87.5518 169.966 87.2646 169.624C86.9775 169.282 86.834 168.797 86.834 168.168V163.581H85.4873V162.604H86.834V160.812H88.0986ZM92.3369 170H91.0723V162.604H92.3369V170ZM90.9697 160.642C90.9697 160.437 91.0312 160.263 91.1543 160.122C91.2819 159.981 91.4688 159.91 91.7148 159.91C91.9609 159.91 92.1478 159.981 92.2754 160.122C92.403 160.263 92.4668 160.437 92.4668 160.642C92.4668 160.847 92.403 161.018 92.2754 161.154C92.1478 161.291 91.9609 161.359 91.7148 161.359C91.4688 161.359 91.2819 161.291 91.1543 161.154C91.0312 161.018 90.9697 160.847 90.9697 160.642ZM94.0322 166.233C94.0322 165.509 94.1735 164.857 94.4561 164.278C94.7432 163.7 95.1396 163.253 95.6455 162.938C96.1559 162.624 96.737 162.467 97.3887 162.467C98.3958 162.467 99.2093 162.815 99.8291 163.513C100.453 164.21 100.766 165.137 100.766 166.295V166.384C100.766 167.104 100.627 167.751 100.349 168.325C100.075 168.895 99.681 169.339 99.166 169.658C98.6556 169.977 98.0677 170.137 97.4023 170.137C96.3997 170.137 95.5863 169.788 94.9619 169.091C94.3421 168.394 94.0322 167.471 94.0322 166.322V166.233ZM95.3037 166.384C95.3037 167.204 95.4928 167.863 95.8711 168.359C96.2539 168.856 96.7643 169.104 97.4023 169.104C98.0449 169.104 98.5553 168.854 98.9336 168.353C99.3118 167.847 99.501 167.14 99.501 166.233C99.501 165.422 99.3073 164.766 98.9199 164.265C98.5371 163.759 98.0267 163.506 97.3887 163.506C96.7643 163.506 96.2607 163.754 95.8779 164.251C95.4951 164.748 95.3037 165.459 95.3037 166.384ZM103.548 162.604L103.589 163.533C104.154 162.822 104.892 162.467 105.804 162.467C107.367 162.467 108.155 163.349 108.169 165.112V170H106.904V165.105C106.9 164.572 106.777 164.178 106.535 163.923C106.298 163.668 105.927 163.54 105.421 163.54C105.011 163.54 104.651 163.649 104.341 163.868C104.031 164.087 103.789 164.374 103.616 164.729V170H102.352V162.604H103.548ZM115.06 166.104V170H113.747V160.047H117.418C118.507 160.047 119.359 160.325 119.975 160.881C120.594 161.437 120.904 162.173 120.904 163.089C120.904 164.055 120.601 164.8 119.995 165.324C119.394 165.844 118.53 166.104 117.404 166.104H115.06ZM115.06 165.03H117.418C118.12 165.03 118.658 164.866 119.031 164.538C119.405 164.205 119.592 163.727 119.592 163.103C119.592 162.51 119.405 162.036 119.031 161.681C118.658 161.325 118.145 161.141 117.493 161.127H115.06V165.03ZM121.95 166.233C121.95 165.509 122.091 164.857 122.374 164.278C122.661 163.7 123.058 163.253 123.563 162.938C124.074 162.624 124.655 162.467 125.307 162.467C126.314 162.467 127.127 162.815 127.747 163.513C128.371 164.21 128.684 165.137 128.684 166.295V166.384C128.684 167.104 128.545 167.751 128.267 168.325C127.993 168.895 127.599 169.339 127.084 169.658C126.574 169.977 125.986 170.137 125.32 170.137C124.318 170.137 123.504 169.788 122.88 169.091C122.26 168.394 121.95 167.471 121.95 166.322V166.233ZM123.222 166.384C123.222 167.204 123.411 167.863 123.789 168.359C124.172 168.856 124.682 169.104 125.32 169.104C125.963 169.104 126.473 168.854 126.852 168.353C127.23 167.847 127.419 167.14 127.419 166.233C127.419 165.422 127.225 164.766 126.838 164.265C126.455 163.759 125.945 163.506 125.307 163.506C124.682 163.506 124.179 163.754 123.796 164.251C123.413 164.748 123.222 165.459 123.222 166.384ZM131.985 160.812V162.604H133.366V163.581H131.985V168.168C131.985 168.464 132.047 168.688 132.17 168.838C132.293 168.984 132.503 169.057 132.799 169.057C132.945 169.057 133.145 169.029 133.4 168.975V170C133.068 170.091 132.744 170.137 132.43 170.137C131.865 170.137 131.438 169.966 131.151 169.624C130.864 169.282 130.721 168.797 130.721 168.168V163.581H129.374V162.604H130.721V160.812H131.985ZM137.919 170.137C136.916 170.137 136.101 169.809 135.472 169.152C134.843 168.492 134.528 167.61 134.528 166.507V166.274C134.528 165.541 134.667 164.887 134.945 164.312C135.228 163.734 135.62 163.283 136.121 162.959C136.627 162.631 137.174 162.467 137.762 162.467C138.723 162.467 139.471 162.784 140.004 163.417C140.537 164.05 140.804 164.957 140.804 166.138V166.664H135.793C135.811 167.393 136.023 167.983 136.429 168.435C136.839 168.881 137.358 169.104 137.987 169.104C138.434 169.104 138.812 169.013 139.122 168.831C139.432 168.649 139.703 168.407 139.936 168.106L140.708 168.708C140.088 169.66 139.159 170.137 137.919 170.137ZM137.762 163.506C137.251 163.506 136.823 163.693 136.477 164.066C136.13 164.436 135.916 164.955 135.834 165.625H139.539V165.529C139.503 164.887 139.329 164.39 139.02 164.039C138.71 163.684 138.29 163.506 137.762 163.506ZM143.47 162.604L143.511 163.533C144.076 162.822 144.814 162.467 145.726 162.467C147.289 162.467 148.077 163.349 148.091 165.112V170H146.826V165.105C146.822 164.572 146.699 164.178 146.457 163.923C146.22 163.668 145.849 163.54 145.343 163.54C144.933 163.54 144.573 163.649 144.263 163.868C143.953 164.087 143.711 164.374 143.538 164.729V170H142.273V162.604H143.47ZM151.714 160.812V162.604H153.095V163.581H151.714V168.168C151.714 168.464 151.775 168.688 151.898 168.838C152.021 168.984 152.231 169.057 152.527 169.057C152.673 169.057 152.874 169.029 153.129 168.975V170C152.796 170.091 152.473 170.137 152.158 170.137C151.593 170.137 151.167 169.966 150.88 169.624C150.593 169.282 150.449 168.797 150.449 168.168V163.581H149.103V162.604H150.449V160.812H151.714ZM155.952 170H154.688V162.604H155.952V170ZM154.585 160.642C154.585 160.437 154.646 160.263 154.77 160.122C154.897 159.981 155.084 159.91 155.33 159.91C155.576 159.91 155.763 159.981 155.891 160.122C156.018 160.263 156.082 160.437 156.082 160.642C156.082 160.847 156.018 161.018 155.891 161.154C155.763 161.291 155.576 161.359 155.33 161.359C155.084 161.359 154.897 161.291 154.77 161.154C154.646 161.018 154.585 160.847 154.585 160.642ZM162.549 170C162.476 169.854 162.417 169.594 162.371 169.221C161.783 169.831 161.081 170.137 160.266 170.137C159.536 170.137 158.937 169.932 158.468 169.521C158.003 169.107 157.771 168.583 157.771 167.949C157.771 167.179 158.062 166.582 158.646 166.158C159.233 165.73 160.058 165.516 161.12 165.516H162.351V164.935C162.351 164.493 162.218 164.142 161.954 163.882C161.69 163.618 161.3 163.485 160.785 163.485C160.334 163.485 159.956 163.599 159.65 163.827C159.345 164.055 159.192 164.331 159.192 164.654H157.921C157.921 164.285 158.051 163.93 158.311 163.588C158.575 163.242 158.93 162.968 159.377 162.768C159.828 162.567 160.323 162.467 160.86 162.467C161.713 162.467 162.38 162.681 162.863 163.109C163.346 163.533 163.597 164.119 163.615 164.866V168.271C163.615 168.95 163.702 169.49 163.875 169.891V170H162.549ZM160.45 169.036C160.847 169.036 161.223 168.934 161.578 168.729C161.934 168.523 162.191 168.257 162.351 167.929V166.411H161.359C159.81 166.411 159.035 166.865 159.035 167.771C159.035 168.168 159.167 168.478 159.432 168.701C159.696 168.924 160.035 169.036 160.45 169.036ZM166.972 170H165.707V159.5H166.972V170ZM32.085 185.723C32.085 185.326 32.2103 185 32.4609 184.745C32.7161 184.49 33.0534 184.362 33.4727 184.362C33.8874 184.362 34.2246 184.488 34.4844 184.738C34.7441 184.984 34.874 185.319 34.874 185.743V185.996C34.874 186.393 34.7487 186.716 34.498 186.967C34.2474 187.217 33.9079 187.343 33.4795 187.343C33.0557 187.343 32.7161 187.217 32.4609 186.967C32.2103 186.712 32.085 186.383 32.085 185.982V185.723ZM48.4502 189.257L51.2939 181.047H52.7295L49.0381 191H47.876L44.1914 181.047H45.6201L48.4502 189.257ZM58.123 191C58.0501 190.854 57.9909 190.594 57.9453 190.221C57.3574 190.831 56.6556 191.137 55.8398 191.137C55.1107 191.137 54.5114 190.932 54.042 190.521C53.5771 190.107 53.3447 189.583 53.3447 188.949C53.3447 188.179 53.6364 187.582 54.2197 187.158C54.8076 186.73 55.6325 186.516 56.6943 186.516H57.9248V185.935C57.9248 185.493 57.7926 185.142 57.5283 184.882C57.264 184.618 56.8743 184.485 56.3594 184.485C55.9082 184.485 55.5299 184.599 55.2246 184.827C54.9193 185.055 54.7666 185.331 54.7666 185.654H53.4951C53.4951 185.285 53.625 184.93 53.8848 184.588C54.1491 184.242 54.5046 183.968 54.9512 183.768C55.4023 183.567 55.8968 183.467 56.4346 183.467C57.2868 183.467 57.9544 183.681 58.4375 184.109C58.9206 184.533 59.1712 185.119 59.1895 185.866V189.271C59.1895 189.95 59.276 190.49 59.4492 190.891V191H58.123ZM56.0244 190.036C56.4209 190.036 56.7969 189.934 57.1523 189.729C57.5078 189.523 57.7653 189.257 57.9248 188.929V187.411H56.9336C55.3841 187.411 54.6094 187.865 54.6094 188.771C54.6094 189.168 54.7415 189.478 55.0059 189.701C55.2702 189.924 55.6097 190.036 56.0244 190.036ZM62.5459 191H61.2812V180.5H62.5459V191ZM69.1426 190.269C68.6504 190.847 67.9281 191.137 66.9756 191.137C66.1872 191.137 65.5856 190.909 65.1709 190.453C64.7607 189.993 64.5534 189.314 64.5488 188.416V183.604H65.8135V188.382C65.8135 189.503 66.2692 190.063 67.1807 190.063C68.1468 190.063 68.7894 189.703 69.1084 188.983V183.604H70.373V191H69.1699L69.1426 190.269ZM75.3701 191.137C74.3675 191.137 73.5518 190.809 72.9229 190.152C72.2939 189.492 71.9795 188.61 71.9795 187.507V187.274C71.9795 186.541 72.1185 185.887 72.3965 185.312C72.679 184.734 73.071 184.283 73.5723 183.959C74.0781 183.631 74.625 183.467 75.2129 183.467C76.1745 183.467 76.9219 183.784 77.4551 184.417C77.9883 185.05 78.2549 185.957 78.2549 187.138V187.664H73.2441C73.2624 188.393 73.4743 188.983 73.8799 189.435C74.29 189.881 74.8096 190.104 75.4385 190.104C75.8851 190.104 76.2633 190.013 76.5732 189.831C76.8831 189.649 77.1543 189.407 77.3867 189.106L78.1592 189.708C77.5394 190.66 76.6097 191.137 75.3701 191.137ZM75.2129 184.506C74.7025 184.506 74.2741 184.693 73.9277 185.066C73.5814 185.436 73.3672 185.955 73.2852 186.625H76.9902V186.529C76.9538 185.887 76.7806 185.39 76.4707 185.039C76.1608 184.684 75.7415 184.506 75.2129 184.506ZM90.7168 187.842C90.5938 188.895 90.2041 189.708 89.5479 190.282C88.8962 190.852 88.028 191.137 86.9434 191.137C85.7676 191.137 84.8242 190.715 84.1133 189.872C83.4069 189.029 83.0537 187.901 83.0537 186.488V185.531C83.0537 184.606 83.2178 183.793 83.5459 183.091C83.8786 182.389 84.348 181.851 84.9541 181.478C85.5602 181.099 86.262 180.91 87.0596 180.91C88.1169 180.91 88.9645 181.206 89.6025 181.799C90.2406 182.387 90.612 183.202 90.7168 184.246H89.3975C89.2835 183.453 89.0352 182.879 88.6523 182.523C88.2741 182.168 87.7432 181.99 87.0596 181.99C86.221 181.99 85.5625 182.3 85.084 182.92C84.61 183.54 84.373 184.422 84.373 185.565V186.529C84.373 187.609 84.5986 188.468 85.0498 189.106C85.501 189.744 86.1322 190.063 86.9434 190.063C87.6725 190.063 88.2308 189.899 88.6182 189.571C89.0101 189.239 89.2699 188.662 89.3975 187.842H90.7168ZM95.8916 184.738C95.7002 184.706 95.4928 184.69 95.2695 184.69C94.4401 184.69 93.8773 185.044 93.5811 185.75V191H92.3164V183.604H93.5469L93.5674 184.458C93.9821 183.797 94.57 183.467 95.3311 183.467C95.5771 183.467 95.764 183.499 95.8916 183.562V184.738ZM99.9932 191.137C98.9906 191.137 98.1748 190.809 97.5459 190.152C96.917 189.492 96.6025 188.61 96.6025 187.507V187.274C96.6025 186.541 96.7415 185.887 97.0195 185.312C97.3021 184.734 97.694 184.283 98.1953 183.959C98.7012 183.631 99.248 183.467 99.8359 183.467C100.798 183.467 101.545 183.784 102.078 184.417C102.611 185.05 102.878 185.957 102.878 187.138V187.664H97.8672C97.8854 188.393 98.0973 188.983 98.5029 189.435C98.9131 189.881 99.4326 190.104 100.062 190.104C100.508 190.104 100.886 190.013 101.196 189.831C101.506 189.649 101.777 189.407 102.01 189.106L102.782 189.708C102.162 190.66 101.233 191.137 99.9932 191.137ZM99.8359 184.506C99.3255 184.506 98.8971 184.693 98.5508 185.066C98.2044 185.436 97.9902 185.955 97.9082 186.625H101.613V186.529C101.577 185.887 101.404 185.39 101.094 185.039C100.784 184.684 100.365 184.506 99.8359 184.506ZM108.914 191C108.841 190.854 108.782 190.594 108.736 190.221C108.148 190.831 107.447 191.137 106.631 191.137C105.902 191.137 105.302 190.932 104.833 190.521C104.368 190.107 104.136 189.583 104.136 188.949C104.136 188.179 104.427 187.582 105.011 187.158C105.599 186.73 106.424 186.516 107.485 186.516H108.716V185.935C108.716 185.493 108.584 185.142 108.319 184.882C108.055 184.618 107.665 184.485 107.15 184.485C106.699 184.485 106.321 184.599 106.016 184.827C105.71 185.055 105.558 185.331 105.558 185.654H104.286C104.286 185.285 104.416 184.93 104.676 184.588C104.94 184.242 105.296 183.968 105.742 183.768C106.193 183.567 106.688 183.467 107.226 183.467C108.078 183.467 108.745 183.681 109.229 184.109C109.712 184.533 109.962 185.119 109.98 185.866V189.271C109.98 189.95 110.067 190.49 110.24 190.891V191H108.914ZM106.815 190.036C107.212 190.036 107.588 189.934 107.943 189.729C108.299 189.523 108.556 189.257 108.716 188.929V187.411H107.725C106.175 187.411 105.4 187.865 105.4 188.771C105.4 189.168 105.533 189.478 105.797 189.701C106.061 189.924 106.401 190.036 106.815 190.036ZM113.679 181.812V183.604H115.06V184.581H113.679V189.168C113.679 189.464 113.74 189.688 113.863 189.838C113.986 189.984 114.196 190.057 114.492 190.057C114.638 190.057 114.839 190.029 115.094 189.975V191C114.761 191.091 114.438 191.137 114.123 191.137C113.558 191.137 113.132 190.966 112.845 190.624C112.558 190.282 112.414 189.797 112.414 189.168V184.581H111.067V183.604H112.414V181.812H113.679ZM117.917 191H116.652V183.604H117.917V191ZM116.55 181.642C116.55 181.437 116.611 181.263 116.734 181.122C116.862 180.981 117.049 180.91 117.295 180.91C117.541 180.91 117.728 180.981 117.855 181.122C117.983 181.263 118.047 181.437 118.047 181.642C118.047 181.847 117.983 182.018 117.855 182.154C117.728 182.291 117.541 182.359 117.295 182.359C117.049 182.359 116.862 182.291 116.734 182.154C116.611 182.018 116.55 181.847 116.55 181.642ZM119.612 187.233C119.612 186.509 119.754 185.857 120.036 185.278C120.323 184.7 120.72 184.253 121.226 183.938C121.736 183.624 122.317 183.467 122.969 183.467C123.976 183.467 124.789 183.815 125.409 184.513C126.034 185.21 126.346 186.137 126.346 187.295V187.384C126.346 188.104 126.207 188.751 125.929 189.325C125.655 189.895 125.261 190.339 124.746 190.658C124.236 190.977 123.648 191.137 122.982 191.137C121.98 191.137 121.166 190.788 120.542 190.091C119.922 189.394 119.612 188.471 119.612 187.322V187.233ZM120.884 187.384C120.884 188.204 121.073 188.863 121.451 189.359C121.834 189.856 122.344 190.104 122.982 190.104C123.625 190.104 124.135 189.854 124.514 189.353C124.892 188.847 125.081 188.14 125.081 187.233C125.081 186.422 124.887 185.766 124.5 185.265C124.117 184.759 123.607 184.506 122.969 184.506C122.344 184.506 121.841 184.754 121.458 185.251C121.075 185.748 120.884 186.459 120.884 187.384ZM129.128 183.604L129.169 184.533C129.734 183.822 130.472 183.467 131.384 183.467C132.947 183.467 133.735 184.349 133.749 186.112V191H132.484V186.105C132.48 185.572 132.357 185.178 132.115 184.923C131.878 184.668 131.507 184.54 131.001 184.54C130.591 184.54 130.231 184.649 129.921 184.868C129.611 185.087 129.369 185.374 129.196 185.729V191H127.932V183.604H129.128ZM140.64 187.104V191H139.327V181.047H142.998C144.087 181.047 144.939 181.325 145.555 181.881C146.174 182.437 146.484 183.173 146.484 184.089C146.484 185.055 146.181 185.8 145.575 186.324C144.974 186.844 144.11 187.104 142.984 187.104H140.64ZM140.64 186.03H142.998C143.7 186.03 144.238 185.866 144.611 185.538C144.985 185.205 145.172 184.727 145.172 184.103C145.172 183.51 144.985 183.036 144.611 182.681C144.238 182.325 143.725 182.141 143.073 182.127H140.64V186.03ZM147.53 187.233C147.53 186.509 147.672 185.857 147.954 185.278C148.241 184.7 148.638 184.253 149.144 183.938C149.654 183.624 150.235 183.467 150.887 183.467C151.894 183.467 152.707 183.815 153.327 184.513C153.951 185.21 154.264 186.137 154.264 187.295V187.384C154.264 188.104 154.125 188.751 153.847 189.325C153.573 189.895 153.179 190.339 152.664 190.658C152.154 190.977 151.566 191.137 150.9 191.137C149.898 191.137 149.084 190.788 148.46 190.091C147.84 189.394 147.53 188.471 147.53 187.322V187.233ZM148.802 187.384C148.802 188.204 148.991 188.863 149.369 189.359C149.752 189.856 150.262 190.104 150.9 190.104C151.543 190.104 152.053 189.854 152.432 189.353C152.81 188.847 152.999 188.14 152.999 187.233C152.999 186.422 152.805 185.766 152.418 185.265C152.035 184.759 151.525 184.506 150.887 184.506C150.262 184.506 149.759 184.754 149.376 185.251C148.993 185.748 148.802 186.459 148.802 187.384ZM157.565 181.812V183.604H158.946V184.581H157.565V189.168C157.565 189.464 157.627 189.688 157.75 189.838C157.873 189.984 158.083 190.057 158.379 190.057C158.525 190.057 158.725 190.029 158.98 189.975V191C158.648 191.091 158.324 191.137 158.01 191.137C157.445 191.137 157.019 190.966 156.731 190.624C156.444 190.282 156.301 189.797 156.301 189.168V184.581H154.954V183.604H156.301V181.812H157.565ZM163.499 191.137C162.496 191.137 161.681 190.809 161.052 190.152C160.423 189.492 160.108 188.61 160.108 187.507V187.274C160.108 186.541 160.247 185.887 160.525 185.312C160.808 184.734 161.2 184.283 161.701 183.959C162.207 183.631 162.754 183.467 163.342 183.467C164.303 183.467 165.051 183.784 165.584 184.417C166.117 185.05 166.384 185.957 166.384 187.138V187.664H161.373C161.391 188.393 161.603 188.983 162.009 189.435C162.419 189.881 162.938 190.104 163.567 190.104C164.014 190.104 164.392 190.013 164.702 189.831C165.012 189.649 165.283 189.407 165.516 189.106L166.288 189.708C165.668 190.66 164.739 191.137 163.499 191.137ZM163.342 184.506C162.831 184.506 162.403 184.693 162.057 185.066C161.71 185.436 161.496 185.955 161.414 186.625H165.119V186.529C165.083 185.887 164.91 185.39 164.6 185.039C164.29 184.684 163.87 184.506 163.342 184.506ZM169.05 183.604L169.091 184.533C169.656 183.822 170.394 183.467 171.306 183.467C172.869 183.467 173.657 184.349 173.671 186.112V191H172.406V186.105C172.402 185.572 172.279 185.178 172.037 184.923C171.8 184.668 171.429 184.54 170.923 184.54C170.513 184.54 170.153 184.649 169.843 184.868C169.533 185.087 169.291 185.374 169.118 185.729V191H167.854V183.604H169.05ZM177.294 181.812V183.604H178.675V184.581H177.294V189.168C177.294 189.464 177.355 189.688 177.479 189.838C177.602 189.984 177.811 190.057 178.107 190.057C178.253 190.057 178.454 190.029 178.709 189.975V191C178.376 191.091 178.053 191.137 177.738 191.137C177.173 191.137 176.747 190.966 176.46 190.624C176.173 190.282 176.029 189.797 176.029 189.168V184.581H174.683V183.604H176.029V181.812H177.294ZM181.532 191H180.268V183.604H181.532V191ZM180.165 181.642C180.165 181.437 180.227 181.263 180.35 181.122C180.477 180.981 180.664 180.91 180.91 180.91C181.156 180.91 181.343 180.981 181.471 181.122C181.598 181.263 181.662 181.437 181.662 181.642C181.662 181.847 181.598 182.018 181.471 182.154C181.343 182.291 181.156 182.359 180.91 182.359C180.664 182.359 180.477 182.291 180.35 182.154C180.227 182.018 180.165 181.847 180.165 181.642ZM188.129 191C188.056 190.854 187.997 190.594 187.951 190.221C187.363 190.831 186.661 191.137 185.846 191.137C185.117 191.137 184.517 190.932 184.048 190.521C183.583 190.107 183.351 189.583 183.351 188.949C183.351 188.179 183.642 187.582 184.226 187.158C184.813 186.73 185.638 186.516 186.7 186.516H187.931V185.935C187.931 185.493 187.799 185.142 187.534 184.882C187.27 184.618 186.88 184.485 186.365 184.485C185.914 184.485 185.536 184.599 185.23 184.827C184.925 185.055 184.772 185.331 184.772 185.654H183.501C183.501 185.285 183.631 184.93 183.891 184.588C184.155 184.242 184.51 183.968 184.957 183.768C185.408 183.567 185.903 183.467 186.44 183.467C187.293 183.467 187.96 183.681 188.443 184.109C188.926 184.533 189.177 185.119 189.195 185.866V189.271C189.195 189.95 189.282 190.49 189.455 190.891V191H188.129ZM186.03 190.036C186.427 190.036 186.803 189.934 187.158 189.729C187.514 189.523 187.771 189.257 187.931 188.929V187.411H186.939C185.39 187.411 184.615 187.865 184.615 188.771C184.615 189.168 184.747 189.478 185.012 189.701C185.276 189.924 185.616 190.036 186.03 190.036ZM192.552 191H191.287V180.5H192.552V191ZM32.085 206.723C32.085 206.326 32.2103 206 32.4609 205.745C32.7161 205.49 33.0534 205.362 33.4727 205.362C33.8874 205.362 34.2246 205.488 34.4844 205.738C34.7441 205.984 34.874 206.319 34.874 206.743V206.996C34.874 207.393 34.7487 207.716 34.498 207.967C34.2474 208.217 33.9079 208.343 33.4795 208.343C33.0557 208.343 32.7161 208.217 32.4609 207.967C32.2103 207.712 32.085 207.383 32.085 206.982V206.723ZM48.8057 207.974H46.4678V212H45.1484V202.047H48.4434C49.5645 202.047 50.4258 202.302 51.0273 202.812C51.6335 203.323 51.9365 204.066 51.9365 205.041C51.9365 205.661 51.7679 206.201 51.4307 206.661C51.098 207.121 50.6331 207.465 50.0361 207.693L52.374 211.918V212H50.9658L48.8057 207.974ZM46.4678 206.9H48.4844C49.1361 206.9 49.6533 206.732 50.0361 206.395C50.4235 206.057 50.6172 205.606 50.6172 205.041C50.6172 204.426 50.4326 203.954 50.0635 203.626C49.6989 203.298 49.1702 203.132 48.4775 203.127H46.4678V206.9ZM56.6533 212.137C55.6507 212.137 54.835 211.809 54.2061 211.152C53.5771 210.492 53.2627 209.61 53.2627 208.507V208.274C53.2627 207.541 53.4017 206.887 53.6797 206.312C53.9622 205.734 54.3542 205.283 54.8555 204.959C55.3613 204.631 55.9082 204.467 56.4961 204.467C57.4577 204.467 58.2051 204.784 58.7383 205.417C59.2715 206.05 59.5381 206.957 59.5381 208.138V208.664H54.5273C54.5456 209.393 54.7575 209.983 55.1631 210.435C55.5732 210.881 56.0928 211.104 56.7217 211.104C57.1683 211.104 57.5465 211.013 57.8564 210.831C58.1663 210.649 58.4375 210.407 58.6699 210.106L59.4424 210.708C58.8226 211.66 57.8929 212.137 56.6533 212.137ZM56.4961 205.506C55.9857 205.506 55.5573 205.693 55.2109 206.066C54.8646 206.436 54.6504 206.955 54.5684 207.625H58.2734V207.529C58.237 206.887 58.0638 206.39 57.7539 206.039C57.444 205.684 57.0247 205.506 56.4961 205.506ZM60.7002 208.24C60.7002 207.078 60.9668 206.16 61.5 205.485C62.0332 204.806 62.7487 204.467 63.6465 204.467C64.5215 204.467 65.2119 204.761 65.7178 205.349L65.7725 204.604H66.9346V214.844H65.6699V211.316C65.1595 211.863 64.4805 212.137 63.6328 212.137C62.7396 212.137 62.0264 211.79 61.4932 211.098C60.9645 210.4 60.7002 209.478 60.7002 208.329V208.24ZM61.9648 208.384C61.9648 209.231 62.1426 209.897 62.498 210.38C62.8581 210.863 63.3411 211.104 63.9473 211.104C64.6992 211.104 65.2734 210.772 65.6699 210.106V206.483C65.2689 205.832 64.6992 205.506 63.9609 205.506C63.3503 205.506 62.8649 205.75 62.5049 206.237C62.1449 206.72 61.9648 207.436 61.9648 208.384ZM73.5312 211.269C73.0391 211.847 72.3167 212.137 71.3643 212.137C70.5758 212.137 69.9743 211.909 69.5596 211.453C69.1494 210.993 68.9421 210.314 68.9375 209.416V204.604H70.2021V209.382C70.2021 210.503 70.6579 211.063 71.5693 211.063C72.5355 211.063 73.1781 210.703 73.4971 209.983V204.604H74.7617V212H73.5586L73.5312 211.269ZM79.7588 212.137C78.7562 212.137 77.9404 211.809 77.3115 211.152C76.6826 210.492 76.3682 209.61 76.3682 208.507V208.274C76.3682 207.541 76.5072 206.887 76.7852 206.312C77.0677 205.734 77.4596 205.283 77.9609 204.959C78.4668 204.631 79.0137 204.467 79.6016 204.467C80.5632 204.467 81.3105 204.784 81.8438 205.417C82.377 206.05 82.6436 206.957 82.6436 208.138V208.664H77.6328C77.651 209.393 77.863 209.983 78.2686 210.435C78.6787 210.881 79.1982 211.104 79.8271 211.104C80.2738 211.104 80.652 211.013 80.9619 210.831C81.2718 210.649 81.543 210.407 81.7754 210.106L82.5479 210.708C81.9281 211.66 80.9984 212.137 79.7588 212.137ZM79.6016 205.506C79.0911 205.506 78.6628 205.693 78.3164 206.066C77.9701 206.436 77.7559 206.955 77.6738 207.625H81.3789V207.529C81.3424 206.887 81.1693 206.39 80.8594 206.039C80.5495 205.684 80.1302 205.506 79.6016 205.506ZM88.4199 210.038C88.4199 209.696 88.29 209.432 88.0303 209.245C87.7751 209.054 87.3262 208.89 86.6836 208.753C86.0456 208.616 85.5374 208.452 85.1592 208.261C84.7855 208.069 84.5075 207.841 84.3252 207.577C84.1475 207.313 84.0586 206.998 84.0586 206.634C84.0586 206.028 84.3138 205.515 84.8242 205.096C85.3392 204.676 85.9954 204.467 86.793 204.467C87.6315 204.467 88.3105 204.683 88.8301 205.116C89.3542 205.549 89.6162 206.103 89.6162 206.777H88.3447C88.3447 206.431 88.1966 206.132 87.9004 205.882C87.6087 205.631 87.2396 205.506 86.793 205.506C86.3327 205.506 85.9727 205.606 85.7129 205.807C85.4531 206.007 85.3232 206.269 85.3232 206.593C85.3232 206.898 85.444 207.128 85.6855 207.283C85.9271 207.438 86.3623 207.586 86.9912 207.728C87.6247 207.869 88.1374 208.037 88.5293 208.233C88.9212 208.429 89.2106 208.666 89.3975 208.944C89.5889 209.218 89.6846 209.553 89.6846 209.949C89.6846 210.61 89.4202 211.141 88.8916 211.542C88.363 211.938 87.6771 212.137 86.834 212.137C86.2415 212.137 85.7174 212.032 85.2617 211.822C84.806 211.613 84.4482 211.321 84.1885 210.947C83.9333 210.569 83.8057 210.161 83.8057 209.724H85.0703C85.0931 210.147 85.2617 210.485 85.5762 210.735C85.8952 210.981 86.3145 211.104 86.834 211.104C87.3125 211.104 87.6953 211.009 87.9824 210.817C88.2741 210.621 88.4199 210.362 88.4199 210.038ZM93.0479 202.812V204.604H94.4287V205.581H93.0479V210.168C93.0479 210.464 93.1094 210.688 93.2324 210.838C93.3555 210.984 93.5651 211.057 93.8613 211.057C94.0072 211.057 94.2077 211.029 94.4629 210.975V212C94.1302 212.091 93.8066 212.137 93.4922 212.137C92.9271 212.137 92.501 211.966 92.2139 211.624C91.9268 211.282 91.7832 210.797 91.7832 210.168V205.581H90.4365V204.604H91.7832V202.812H93.0479ZM100.007 212V205.581H98.8379V204.604H100.007V203.845C100.007 203.052 100.219 202.439 100.643 202.006C101.066 201.573 101.666 201.356 102.44 201.356C102.732 201.356 103.021 201.395 103.309 201.473L103.24 202.498C103.026 202.457 102.798 202.437 102.557 202.437C102.146 202.437 101.83 202.557 101.606 202.799C101.383 203.036 101.271 203.378 101.271 203.824V204.604H102.851V205.581H101.271V212H100.007ZM103.917 208.233C103.917 207.509 104.058 206.857 104.341 206.278C104.628 205.7 105.024 205.253 105.53 204.938C106.041 204.624 106.622 204.467 107.273 204.467C108.281 204.467 109.094 204.815 109.714 205.513C110.338 206.21 110.65 207.137 110.65 208.295V208.384C110.65 209.104 110.511 209.751 110.233 210.325C109.96 210.895 109.566 211.339 109.051 211.658C108.54 211.977 107.952 212.137 107.287 212.137C106.285 212.137 105.471 211.788 104.847 211.091C104.227 210.394 103.917 209.471 103.917 208.322V208.233ZM105.188 208.384C105.188 209.204 105.378 209.863 105.756 210.359C106.139 210.856 106.649 211.104 107.287 211.104C107.93 211.104 108.44 210.854 108.818 210.353C109.197 209.847 109.386 209.14 109.386 208.233C109.386 207.422 109.192 206.766 108.805 206.265C108.422 205.759 107.911 205.506 107.273 205.506C106.649 205.506 106.146 205.754 105.763 206.251C105.38 206.748 105.188 207.459 105.188 208.384ZM115.812 205.738C115.62 205.706 115.413 205.69 115.189 205.69C114.36 205.69 113.797 206.044 113.501 206.75V212H112.236V204.604H113.467L113.487 205.458C113.902 204.797 114.49 204.467 115.251 204.467C115.497 204.467 115.684 204.499 115.812 204.562V205.738ZM126.147 209.402H121.978L121.041 212H119.688L123.488 202.047H124.637L128.444 212H127.098L126.147 209.402ZM122.374 208.322H125.758L124.062 203.667L122.374 208.322ZM129.278 208.24C129.278 207.105 129.547 206.194 130.085 205.506C130.623 204.813 131.327 204.467 132.197 204.467C133.063 204.467 133.749 204.763 134.255 205.355V201.5H135.52V212H134.357L134.296 211.207C133.79 211.827 133.086 212.137 132.184 212.137C131.327 212.137 130.627 211.786 130.085 211.084C129.547 210.382 129.278 209.466 129.278 208.336V208.24ZM130.543 208.384C130.543 209.222 130.716 209.879 131.062 210.353C131.409 210.826 131.887 211.063 132.498 211.063C133.3 211.063 133.886 210.703 134.255 209.983V206.586C133.877 205.889 133.296 205.54 132.512 205.54C131.892 205.54 131.409 205.779 131.062 206.258C130.716 206.736 130.543 207.445 130.543 208.384ZM137.181 208.24C137.181 207.105 137.45 206.194 137.987 205.506C138.525 204.813 139.229 204.467 140.1 204.467C140.965 204.467 141.651 204.763 142.157 205.355V201.5H143.422V212H142.26L142.198 211.207C141.692 211.827 140.988 212.137 140.086 212.137C139.229 212.137 138.53 211.786 137.987 211.084C137.45 210.382 137.181 209.466 137.181 208.336V208.24ZM138.445 208.384C138.445 209.222 138.618 209.879 138.965 210.353C139.311 210.826 139.79 211.063 140.4 211.063C141.202 211.063 141.788 210.703 142.157 209.983V206.586C141.779 205.889 141.198 205.54 140.414 205.54C139.794 205.54 139.311 205.779 138.965 206.258C138.618 206.736 138.445 207.445 138.445 208.384ZM146.765 212H145.5V204.604H146.765V212ZM145.397 202.642C145.397 202.437 145.459 202.263 145.582 202.122C145.71 201.981 145.896 201.91 146.143 201.91C146.389 201.91 146.576 201.981 146.703 202.122C146.831 202.263 146.895 202.437 146.895 202.642C146.895 202.847 146.831 203.018 146.703 203.154C146.576 203.291 146.389 203.359 146.143 203.359C145.896 203.359 145.71 203.291 145.582 203.154C145.459 203.018 145.397 202.847 145.397 202.642ZM150.511 202.812V204.604H151.892V205.581H150.511V210.168C150.511 210.464 150.572 210.688 150.695 210.838C150.818 210.984 151.028 211.057 151.324 211.057C151.47 211.057 151.671 211.029 151.926 210.975V212C151.593 212.091 151.27 212.137 150.955 212.137C150.39 212.137 149.964 211.966 149.677 211.624C149.39 211.282 149.246 210.797 149.246 210.168V205.581H147.899V204.604H149.246V202.812H150.511ZM154.749 212H153.484V204.604H154.749V212ZM153.382 202.642C153.382 202.437 153.443 202.263 153.566 202.122C153.694 201.981 153.881 201.91 154.127 201.91C154.373 201.91 154.56 201.981 154.688 202.122C154.815 202.263 154.879 202.437 154.879 202.642C154.879 202.847 154.815 203.018 154.688 203.154C154.56 203.291 154.373 203.359 154.127 203.359C153.881 203.359 153.694 203.291 153.566 203.154C153.443 203.018 153.382 202.847 153.382 202.642ZM156.444 208.233C156.444 207.509 156.586 206.857 156.868 206.278C157.155 205.7 157.552 205.253 158.058 204.938C158.568 204.624 159.149 204.467 159.801 204.467C160.808 204.467 161.621 204.815 162.241 205.513C162.866 206.21 163.178 207.137 163.178 208.295V208.384C163.178 209.104 163.039 209.751 162.761 210.325C162.487 210.895 162.093 211.339 161.578 211.658C161.068 211.977 160.48 212.137 159.814 212.137C158.812 212.137 157.998 211.788 157.374 211.091C156.754 210.394 156.444 209.471 156.444 208.322V208.233ZM157.716 208.384C157.716 209.204 157.905 209.863 158.283 210.359C158.666 210.856 159.176 211.104 159.814 211.104C160.457 211.104 160.967 210.854 161.346 210.353C161.724 209.847 161.913 209.14 161.913 208.233C161.913 207.422 161.719 206.766 161.332 206.265C160.949 205.759 160.439 205.506 159.801 205.506C159.176 205.506 158.673 205.754 158.29 206.251C157.907 206.748 157.716 207.459 157.716 208.384ZM165.96 204.604L166.001 205.533C166.566 204.822 167.304 204.467 168.216 204.467C169.779 204.467 170.567 205.349 170.581 207.112V212H169.316V207.105C169.312 206.572 169.189 206.178 168.947 205.923C168.71 205.668 168.339 205.54 167.833 205.54C167.423 205.54 167.063 205.649 166.753 205.868C166.443 206.087 166.201 206.374 166.028 206.729V212H164.764V204.604H165.96ZM177.055 212C176.982 211.854 176.923 211.594 176.877 211.221C176.289 211.831 175.587 212.137 174.771 212.137C174.042 212.137 173.443 211.932 172.974 211.521C172.509 211.107 172.276 210.583 172.276 209.949C172.276 209.179 172.568 208.582 173.151 208.158C173.739 207.73 174.564 207.516 175.626 207.516H176.856V206.935C176.856 206.493 176.724 206.142 176.46 205.882C176.196 205.618 175.806 205.485 175.291 205.485C174.84 205.485 174.462 205.599 174.156 205.827C173.851 206.055 173.698 206.331 173.698 206.654H172.427C172.427 206.285 172.557 205.93 172.816 205.588C173.081 205.242 173.436 204.968 173.883 204.768C174.334 204.567 174.828 204.467 175.366 204.467C176.218 204.467 176.886 204.681 177.369 205.109C177.852 205.533 178.103 206.119 178.121 206.866V210.271C178.121 210.95 178.208 211.49 178.381 211.891V212H177.055ZM174.956 211.036C175.353 211.036 175.729 210.934 176.084 210.729C176.439 210.523 176.697 210.257 176.856 209.929V208.411H175.865C174.316 208.411 173.541 208.865 173.541 209.771C173.541 210.168 173.673 210.478 173.938 210.701C174.202 210.924 174.541 211.036 174.956 211.036ZM181.478 212H180.213V201.5H181.478V212ZM46.5635 233H45.251V223.047H46.5635V233ZM49.9678 225.604L50.0088 226.533C50.5739 225.822 51.3122 225.467 52.2236 225.467C53.7868 225.467 54.5752 226.349 54.5889 228.112V233H53.3242V228.105C53.3197 227.572 53.1966 227.178 52.9551 226.923C52.7181 226.668 52.3467 226.54 51.8408 226.54C51.4307 226.54 51.0706 226.649 50.7607 226.868C50.4508 227.087 50.2093 227.374 50.0361 227.729V233H48.7715V225.604H49.9678ZM57.1182 233V226.581H55.9492V225.604H57.1182V224.845C57.1182 224.052 57.3301 223.439 57.7539 223.006C58.1777 222.573 58.777 222.356 59.5518 222.356C59.8434 222.356 60.1328 222.395 60.4199 222.473L60.3516 223.498C60.1374 223.457 59.9095 223.437 59.668 223.437C59.2578 223.437 58.9411 223.557 58.7178 223.799C58.4945 224.036 58.3828 224.378 58.3828 224.824V225.604H59.9619V226.581H58.3828V233H57.1182ZM61.0283 229.233C61.0283 228.509 61.1696 227.857 61.4521 227.278C61.7393 226.7 62.1357 226.253 62.6416 225.938C63.152 225.624 63.7331 225.467 64.3848 225.467C65.3919 225.467 66.2054 225.815 66.8252 226.513C67.4495 227.21 67.7617 228.137 67.7617 229.295V229.384C67.7617 230.104 67.6227 230.751 67.3447 231.325C67.0713 231.895 66.6771 232.339 66.1621 232.658C65.6517 232.977 65.0638 233.137 64.3984 233.137C63.3958 233.137 62.5824 232.788 61.958 232.091C61.3382 231.394 61.0283 230.471 61.0283 229.322V229.233ZM62.2998 229.384C62.2998 230.204 62.4889 230.863 62.8672 231.359C63.25 231.856 63.7604 232.104 64.3984 232.104C65.041 232.104 65.5514 231.854 65.9297 231.353C66.3079 230.847 66.4971 230.14 66.4971 229.233C66.4971 228.422 66.3034 227.766 65.916 227.265C65.5332 226.759 65.0228 226.506 64.3848 226.506C63.7604 226.506 63.2568 226.754 62.874 227.251C62.4912 227.748 62.2998 228.459 62.2998 229.384ZM72.9229 226.738C72.7314 226.706 72.5241 226.69 72.3008 226.69C71.4714 226.69 70.9085 227.044 70.6123 227.75V233H69.3477V225.604H70.5781L70.5986 226.458C71.0133 225.797 71.6012 225.467 72.3623 225.467C72.6084 225.467 72.7952 225.499 72.9229 225.562V226.738ZM75.2812 225.604L75.3154 226.424C75.8577 225.786 76.5892 225.467 77.5098 225.467C78.5443 225.467 79.2484 225.863 79.6221 226.656C79.8682 226.301 80.1872 226.014 80.5791 225.795C80.9756 225.576 81.4427 225.467 81.9805 225.467C83.6029 225.467 84.4277 226.326 84.4551 228.044V233H83.1904V228.119C83.1904 227.59 83.0697 227.196 82.8281 226.937C82.5866 226.672 82.181 226.54 81.6113 226.54C81.1419 226.54 80.7523 226.681 80.4424 226.964C80.1325 227.242 79.9525 227.618 79.9023 228.092V233H78.6309V228.153C78.6309 227.078 78.1045 226.54 77.0518 226.54C76.2223 226.54 75.6549 226.893 75.3496 227.6V233H74.085V225.604H75.2812ZM90.9355 233C90.8626 232.854 90.8034 232.594 90.7578 232.221C90.1699 232.831 89.4681 233.137 88.6523 233.137C87.9232 233.137 87.3239 232.932 86.8545 232.521C86.3896 232.107 86.1572 231.583 86.1572 230.949C86.1572 230.179 86.4489 229.582 87.0322 229.158C87.6201 228.73 88.445 228.516 89.5068 228.516H90.7373V227.935C90.7373 227.493 90.6051 227.142 90.3408 226.882C90.0765 226.618 89.6868 226.485 89.1719 226.485C88.7207 226.485 88.3424 226.599 88.0371 226.827C87.7318 227.055 87.5791 227.331 87.5791 227.654H86.3076C86.3076 227.285 86.4375 226.93 86.6973 226.588C86.9616 226.242 87.3171 225.968 87.7637 225.768C88.2148 225.567 88.7093 225.467 89.2471 225.467C90.0993 225.467 90.7669 225.681 91.25 226.109C91.7331 226.533 91.9837 227.119 92.002 227.866V231.271C92.002 231.95 92.0885 232.49 92.2617 232.891V233H90.9355ZM88.8369 232.036C89.2334 232.036 89.6094 231.934 89.9648 231.729C90.3203 231.523 90.5778 231.257 90.7373 230.929V229.411H89.7461C88.1966 229.411 87.4219 229.865 87.4219 230.771C87.4219 231.168 87.554 231.478 87.8184 231.701C88.0827 231.924 88.4222 232.036 88.8369 232.036ZM95.7002 223.812V225.604H97.0811V226.581H95.7002V231.168C95.7002 231.464 95.7617 231.688 95.8848 231.838C96.0078 231.984 96.2174 232.057 96.5137 232.057C96.6595 232.057 96.86 232.029 97.1152 231.975V233C96.7826 233.091 96.459 233.137 96.1445 233.137C95.5794 233.137 95.1533 232.966 94.8662 232.624C94.5791 232.282 94.4355 231.797 94.4355 231.168V226.581H93.0889V225.604H94.4355V223.812H95.7002ZM99.9385 233H98.6738V225.604H99.9385V233ZM98.5713 223.642C98.5713 223.437 98.6328 223.263 98.7559 223.122C98.8835 222.981 99.0703 222.91 99.3164 222.91C99.5625 222.91 99.7493 222.981 99.877 223.122C100.005 223.263 100.068 223.437 100.068 223.642C100.068 223.847 100.005 224.018 99.877 224.154C99.7493 224.291 99.5625 224.359 99.3164 224.359C99.0703 224.359 98.8835 224.291 98.7559 224.154C98.6328 224.018 98.5713 223.847 98.5713 223.642ZM101.634 229.233C101.634 228.509 101.775 227.857 102.058 227.278C102.345 226.7 102.741 226.253 103.247 225.938C103.757 225.624 104.339 225.467 104.99 225.467C105.997 225.467 106.811 225.815 107.431 226.513C108.055 227.21 108.367 228.137 108.367 229.295V229.384C108.367 230.104 108.228 230.751 107.95 231.325C107.677 231.895 107.283 232.339 106.768 232.658C106.257 232.977 105.669 233.137 105.004 233.137C104.001 233.137 103.188 232.788 102.563 232.091C101.944 231.394 101.634 230.471 101.634 229.322V229.233ZM102.905 229.384C102.905 230.204 103.094 230.863 103.473 231.359C103.855 231.856 104.366 232.104 105.004 232.104C105.646 232.104 106.157 231.854 106.535 231.353C106.913 230.847 107.103 230.14 107.103 229.233C107.103 228.422 106.909 227.766 106.521 227.265C106.139 226.759 105.628 226.506 104.99 226.506C104.366 226.506 103.862 226.754 103.479 227.251C103.097 227.748 102.905 228.459 102.905 229.384ZM111.149 225.604L111.19 226.533C111.756 225.822 112.494 225.467 113.405 225.467C114.968 225.467 115.757 226.349 115.771 228.112V233H114.506V228.105C114.501 227.572 114.378 227.178 114.137 226.923C113.9 226.668 113.528 226.54 113.022 226.54C112.612 226.54 112.252 226.649 111.942 226.868C111.632 227.087 111.391 227.374 111.218 227.729V233H109.953V225.604H111.149Z" fill="#616263"/>
<path d="M29.0215 21.7578L31.6875 28.8418L34.3472 21.7578H36.4229V31H34.8232V27.9531L34.9819 23.8779L32.2524 31H31.1035L28.3804 23.8843L28.5391 27.9531V31H26.9395V21.7578H29.0215ZM45.4111 29.8003C45.0768 30.2362 44.6134 30.5662 44.021 30.7905C43.4285 31.0148 42.7557 31.127 42.0024 31.127C41.228 31.127 40.5425 30.9513 39.9458 30.6001C39.3491 30.2489 38.8879 29.7474 38.562 29.0957C38.2404 28.4398 38.0732 27.6759 38.0605 26.8042V26.0806C38.0605 24.6841 38.3949 23.5944 39.0635 22.8115C39.7321 22.0244 40.6652 21.6309 41.8628 21.6309C42.8911 21.6309 43.7078 21.8848 44.313 22.3926C44.9181 22.9004 45.2821 23.6325 45.4048 24.5889H43.8306C43.6528 23.4759 43.0075 22.9194 41.8945 22.9194C41.1751 22.9194 40.6271 23.1797 40.2505 23.7002C39.8781 24.2165 39.6855 24.9761 39.6729 25.979V26.6899C39.6729 27.6886 39.8823 28.4652 40.3013 29.0195C40.7244 29.5697 41.3105 29.8447 42.0596 29.8447C42.8805 29.8447 43.4645 29.6585 43.8115 29.2861V27.4771H41.9072V26.2583H45.4111V29.8003ZM54.5137 31H52.9141V26.8931H48.7817V31H47.1758V21.7578H48.7817V25.6045H52.9141V21.7578H54.5137V31ZM58.0239 29.7178H62.2197V31H56.418V21.7578H58.0239V29.7178ZM72.0903 26.874H68.2944V29.7178H72.7314V31H66.6885V21.7578H72.687V23.0527H68.2944V25.6045H72.0903V26.874ZM77.2192 25.0967L79.1616 21.7578H81.0151L78.2222 26.3408L81.0786 31H79.2061L77.2192 27.6104L75.2261 31H73.3599L76.2227 26.3408L73.4233 21.7578H75.2769L77.2192 25.0967ZM87.6675 26.874H83.8716V29.7178H88.3086V31H82.2656V21.7578H88.2642V23.0527H83.8716V25.6045H87.6675V26.874ZM96.6685 27.9912C96.5754 28.9772 96.2114 29.7474 95.5767 30.3018C94.9419 30.8519 94.0977 31.127 93.0439 31.127C92.3076 31.127 91.658 30.9535 91.0952 30.6064C90.5366 30.2552 90.105 29.758 89.8003 29.1147C89.4956 28.4715 89.3369 27.7246 89.3242 26.874V26.0107C89.3242 25.139 89.4787 24.3709 89.7876 23.7065C90.0965 23.0422 90.5387 22.5301 91.1143 22.1704C91.694 21.8107 92.3626 21.6309 93.1201 21.6309C94.14 21.6309 94.9609 21.908 95.583 22.4624C96.2051 23.0168 96.5669 23.7996 96.6685 24.811H95.0688C94.9927 24.1466 94.798 23.6685 94.4849 23.3765C94.1759 23.0802 93.721 22.9321 93.1201 22.9321C92.4219 22.9321 91.8844 23.1882 91.5078 23.7002C91.1354 24.208 90.945 24.9549 90.9365 25.9409V26.7598C90.9365 27.7585 91.1143 28.5202 91.4697 29.0449C91.8294 29.5697 92.3542 29.832 93.0439 29.832C93.6745 29.832 94.1484 29.6903 94.4658 29.4067C94.7832 29.1232 94.9842 28.6514 95.0688 27.9912H96.6685ZM104.87 21.7578V27.9341C104.87 28.9159 104.554 29.6945 103.924 30.27C103.298 30.8413 102.462 31.127 101.417 31.127C100.359 31.127 99.5186 30.8455 98.8965 30.2827C98.2744 29.7157 97.9634 28.9307 97.9634 27.9277V21.7578H99.563V27.9404C99.563 28.5583 99.7196 29.0301 100.033 29.356C100.346 29.6818 100.807 29.8447 101.417 29.8447C102.652 29.8447 103.27 29.193 103.27 27.8896V21.7578H104.87ZM113.268 23.0527H110.386V31H108.792V23.0527H105.936V21.7578H113.268V23.0527ZM116.181 31H114.582V21.7578H116.181V31ZM121.412 28.9878L123.76 21.7578H125.525L122.199 31H120.644L117.33 21.7578H119.088L121.412 28.9878ZM131.974 26.874H128.178V29.7178H132.615V31H126.572V21.7578H132.571V23.0527H128.178V25.6045H131.974V26.874ZM144.212 27.9912C144.119 28.9772 143.755 29.7474 143.121 30.3018C142.486 30.8519 141.642 31.127 140.588 31.127C139.852 31.127 139.202 30.9535 138.639 30.6064C138.081 30.2552 137.649 29.758 137.344 29.1147C137.04 28.4715 136.881 27.7246 136.868 26.874V26.0107C136.868 25.139 137.023 24.3709 137.332 23.7065C137.64 23.0422 138.083 22.5301 138.658 22.1704C139.238 21.8107 139.907 21.6309 140.664 21.6309C141.684 21.6309 142.505 21.908 143.127 22.4624C143.749 23.0168 144.111 23.7996 144.212 24.811H142.613C142.537 24.1466 142.342 23.6685 142.029 23.3765C141.72 23.0802 141.265 22.9321 140.664 22.9321C139.966 22.9321 139.428 23.1882 139.052 23.7002C138.679 24.208 138.489 24.9549 138.48 25.9409V26.7598C138.48 27.7585 138.658 28.5202 139.014 29.0449C139.373 29.5697 139.898 29.832 140.588 29.832C141.218 29.832 141.692 29.6903 142.01 29.4067C142.327 29.1232 142.528 28.6514 142.613 27.9912H144.212ZM153.029 26.6201C153.029 27.5257 152.873 28.3213 152.56 29.0068C152.246 29.6882 151.798 30.2129 151.214 30.5811C150.634 30.945 149.965 31.127 149.208 31.127C148.459 31.127 147.79 30.945 147.202 30.5811C146.618 30.2129 146.165 29.6903 145.844 29.0132C145.526 28.3361 145.366 27.5553 145.361 26.6709V26.1504C145.361 25.249 145.52 24.4535 145.837 23.7637C146.159 23.0739 146.61 22.547 147.189 22.1831C147.773 21.8149 148.442 21.6309 149.195 21.6309C149.949 21.6309 150.615 21.8128 151.195 22.1768C151.779 22.5365 152.229 23.057 152.547 23.7383C152.864 24.4154 153.025 25.2046 153.029 26.106V26.6201ZM151.423 26.1377C151.423 25.1136 151.229 24.3286 150.839 23.7827C150.454 23.2368 149.906 22.9639 149.195 22.9639C148.501 22.9639 147.958 23.2368 147.564 23.7827C147.175 24.3244 146.976 25.0924 146.967 26.0869V26.6201C146.967 27.6357 147.164 28.4207 147.558 28.9751C147.955 29.5295 148.506 29.8066 149.208 29.8066C149.919 29.8066 150.465 29.5358 150.846 28.9941C151.231 28.4525 151.423 27.6611 151.423 26.6201V26.1377ZM156.711 21.7578L159.377 28.8418L162.037 21.7578H164.112V31H162.513V27.9531L162.671 23.8779L159.942 31H158.793L156.07 23.8843L156.229 27.9531V31H154.629V21.7578H156.711ZM168.099 21.7578L170.765 28.8418L173.424 21.7578H175.5V31H173.9V27.9531L174.059 23.8779L171.33 31H170.181L167.458 23.8843L167.616 27.9531V31H166.017V21.7578H168.099ZM179.099 31H177.5V21.7578H179.099V31ZM187.561 23.0527H184.679V31H183.085V23.0527H180.229V21.7578H187.561V23.0527ZM194.181 26.874H190.385V29.7178H194.822V31H188.779V21.7578H194.778V23.0527H190.385V25.6045H194.181V26.874ZM201.532 26.874H197.736V29.7178H202.173V31H196.13V21.7578H202.128V23.0527H197.736V25.6045H201.532V26.874Z" fill="white"/>
</svg>
