<svg width="226" height="305" viewBox="0 0 226 305" fill="none" xmlns="http://www.w3.org/2000/svg">
<rect width="226" height="305" fill="#F9F8F8"/>
<rect width="226" height="54" fill="#353E52"/>
<path d="M30.8047 91H29.4854L24.4746 83.3301V91H23.1553V81.0469H24.4746L29.499 88.751V81.0469H30.8047V91ZM38.7617 86.3994H34.4482V89.9268H39.459V91H33.1357V81.0469H39.3906V82.127H34.4482V85.3262H38.7617V86.3994ZM48.4414 89.6943C48.1042 90.1774 47.6325 90.5397 47.0264 90.7812C46.4248 91.0182 45.723 91.1367 44.9209 91.1367C44.1097 91.1367 43.3896 90.9476 42.7607 90.5693C42.1318 90.1865 41.6442 89.6442 41.2979 88.9424C40.9561 88.2406 40.7806 87.4271 40.7715 86.502V85.6338C40.7715 84.1344 41.1201 82.9723 41.8174 82.1475C42.5192 81.3226 43.5036 80.9102 44.7705 80.9102C45.8096 80.9102 46.6458 81.1768 47.2793 81.71C47.9128 82.2386 48.3001 82.9906 48.4414 83.9658H47.1289C46.8828 82.6488 46.099 81.9902 44.7773 81.9902C43.8978 81.9902 43.2301 82.3001 42.7744 82.9199C42.3232 83.5352 42.0954 84.4284 42.0908 85.5996V86.4131C42.0908 87.5296 42.346 88.4183 42.8564 89.0791C43.3669 89.7354 44.0573 90.0635 44.9277 90.0635C45.4199 90.0635 45.8506 90.0088 46.2197 89.8994C46.5889 89.79 46.8942 89.6055 47.1357 89.3457V87.1104H44.832V86.0439H48.4414V89.6943ZM58.292 86.3447C58.292 87.32 58.1279 88.1722 57.7998 88.9014C57.4717 89.626 57.0068 90.1797 56.4053 90.5625C55.8037 90.9453 55.1019 91.1367 54.2998 91.1367C53.516 91.1367 52.821 90.9453 52.2148 90.5625C51.6087 90.1751 51.137 89.626 50.7998 88.915C50.4671 88.1995 50.2962 87.3724 50.2871 86.4336V85.7158C50.2871 84.7588 50.4535 83.9134 50.7861 83.1797C51.1188 82.446 51.5882 81.8854 52.1943 81.498C52.805 81.1061 53.5023 80.9102 54.2861 80.9102C55.0837 80.9102 55.7855 81.1038 56.3916 81.4912C57.0023 81.874 57.4717 82.4323 57.7998 83.166C58.1279 83.8952 58.292 84.7451 58.292 85.7158V86.3447ZM56.9863 85.7021C56.9863 84.5218 56.7493 83.6172 56.2754 82.9883C55.8014 82.3548 55.1383 82.0381 54.2861 82.0381C53.4567 82.0381 52.8027 82.3548 52.3242 82.9883C51.8503 83.6172 51.6064 84.4922 51.5928 85.6133V86.3447C51.5928 87.4886 51.832 88.3887 52.3105 89.0449C52.7936 89.6966 53.4567 90.0225 54.2998 90.0225C55.1475 90.0225 55.8037 89.7148 56.2686 89.0996C56.7334 88.4798 56.9727 87.5934 56.9863 86.4404V85.7021ZM66.9463 82.127H63.7471V91H62.4414V82.127H59.249V81.0469H66.9463V82.127ZM69.8311 91H68.5186V81.0469H69.8311V91ZM77.8564 88.4023H73.6865L72.75 91H71.3965L75.1973 81.0469H76.3457L80.1533 91H78.8066L77.8564 88.4023ZM74.083 87.3223H77.4668L75.7715 82.667L74.083 87.3223ZM87.4814 82.127H84.2822V91H82.9766V82.127H79.7842V81.0469H87.4814V82.127ZM90.3662 91H89.0537V81.0469H90.3662V91ZM100.429 86.3447C100.429 87.32 100.265 88.1722 99.9365 88.9014C99.6084 89.626 99.1436 90.1797 98.542 90.5625C97.9404 90.9453 97.2386 91.1367 96.4365 91.1367C95.6527 91.1367 94.9577 90.9453 94.3516 90.5625C93.7454 90.1751 93.2738 89.626 92.9365 88.915C92.6038 88.1995 92.4329 87.3724 92.4238 86.4336V85.7158C92.4238 84.7588 92.5902 83.9134 92.9229 83.1797C93.2555 82.446 93.7249 81.8854 94.3311 81.498C94.9417 81.1061 95.639 80.9102 96.4229 80.9102C97.2204 80.9102 97.9222 81.1038 98.5283 81.4912C99.139 81.874 99.6084 82.4323 99.9365 83.166C100.265 83.8952 100.429 84.7451 100.429 85.7158V86.3447ZM99.123 85.7021C99.123 84.5218 98.8861 83.6172 98.4121 82.9883C97.9382 82.3548 97.2751 82.0381 96.4229 82.0381C95.5934 82.0381 94.9395 82.3548 94.4609 82.9883C93.987 83.6172 93.7432 84.4922 93.7295 85.6133V86.3447C93.7295 87.4886 93.9688 88.3887 94.4473 89.0449C94.9303 89.6966 95.5934 90.0225 96.4365 90.0225C97.2842 90.0225 97.9404 89.7148 98.4053 89.0996C98.8701 88.4798 99.1094 87.5934 99.123 86.4404V85.7021ZM110.047 91H108.728L103.717 83.3301V91H102.397V81.0469H103.717L108.741 88.751V81.0469H110.047V91ZM118.783 86.5635C117.658 86.2399 116.837 85.8434 116.322 85.374C115.812 84.9001 115.557 84.3167 115.557 83.624C115.557 82.8402 115.869 82.193 116.493 81.6826C117.122 81.1676 117.938 80.9102 118.94 80.9102C119.624 80.9102 120.232 81.0423 120.766 81.3066C121.303 81.571 121.718 81.9355 122.01 82.4004C122.306 82.8652 122.454 83.3734 122.454 83.9248H121.135C121.135 83.3232 120.943 82.8516 120.561 82.5098C120.178 82.1634 119.638 81.9902 118.94 81.9902C118.293 81.9902 117.787 82.1338 117.423 82.4209C117.063 82.7035 116.883 83.0977 116.883 83.6035C116.883 84.0091 117.054 84.3532 117.396 84.6357C117.742 84.9137 118.327 85.1689 119.152 85.4014C119.982 85.6338 120.629 85.8913 121.094 86.1738C121.563 86.4518 121.91 86.7777 122.133 87.1514C122.361 87.5251 122.475 87.9648 122.475 88.4707C122.475 89.2773 122.16 89.9245 121.531 90.4121C120.902 90.8952 120.062 91.1367 119.009 91.1367C118.325 91.1367 117.687 91.0068 117.095 90.7471C116.502 90.4827 116.044 90.1227 115.721 89.667C115.402 89.2113 115.242 88.694 115.242 88.1152H116.562C116.562 88.7168 116.783 89.193 117.225 89.5439C117.671 89.8903 118.266 90.0635 119.009 90.0635C119.701 90.0635 120.232 89.9222 120.602 89.6396C120.971 89.3571 121.155 88.972 121.155 88.4844C121.155 87.9967 120.984 87.6208 120.643 87.3564C120.301 87.0876 119.681 86.8232 118.783 86.5635ZM131.04 82.127H127.841V91H126.535V82.127H123.343V81.0469H131.04V82.127ZM137.466 88.4023H133.296L132.359 91H131.006L134.807 81.0469H135.955L139.763 91H138.416L137.466 88.4023ZM133.692 87.3223H137.076L135.381 82.667L133.692 87.3223ZM148.369 89.6943C148.032 90.1774 147.56 90.5397 146.954 90.7812C146.353 91.0182 145.651 91.1367 144.849 91.1367C144.037 91.1367 143.317 90.9476 142.688 90.5693C142.06 90.1865 141.572 89.6442 141.226 88.9424C140.884 88.2406 140.708 87.4271 140.699 86.502V85.6338C140.699 84.1344 141.048 82.9723 141.745 82.1475C142.447 81.3226 143.431 80.9102 144.698 80.9102C145.737 80.9102 146.574 81.1768 147.207 81.71C147.84 82.2386 148.228 82.9906 148.369 83.9658H147.057C146.811 82.6488 146.027 81.9902 144.705 81.9902C143.826 81.9902 143.158 82.3001 142.702 82.9199C142.251 83.5352 142.023 84.4284 142.019 85.5996V86.4131C142.019 87.5296 142.274 88.4183 142.784 89.0791C143.295 89.7354 143.985 90.0635 144.855 90.0635C145.348 90.0635 145.778 90.0088 146.147 89.8994C146.517 89.79 146.822 89.6055 147.063 89.3457V87.1104H144.76V86.0439H148.369V89.6943ZM156.189 86.3994H151.876V89.9268H156.887V91H150.563V81.0469H156.818V82.127H151.876V85.3262H156.189V86.3994ZM31.085 122.723C31.085 122.326 31.2103 122 31.4609 121.745C31.7161 121.49 32.0534 121.362 32.4727 121.362C32.8874 121.362 33.2246 121.488 33.4844 121.738C33.7441 121.984 33.874 122.319 33.874 122.743V122.996C33.874 123.393 33.7487 123.716 33.498 123.967C33.2474 124.217 32.9079 124.343 32.4795 124.343C32.0557 124.343 31.7161 124.217 31.4609 123.967C31.2103 123.712 31.085 123.383 31.085 122.982V122.723ZM51.8047 128H50.4854L45.4746 120.33V128H44.1553V118.047H45.4746L50.499 125.751V118.047H51.8047V128ZM57.0068 128.137C56.0042 128.137 55.1885 127.809 54.5596 127.152C53.9307 126.492 53.6162 125.61 53.6162 124.507V124.274C53.6162 123.541 53.7552 122.887 54.0332 122.312C54.3158 121.734 54.7077 121.283 55.209 120.959C55.7148 120.631 56.2617 120.467 56.8496 120.467C57.8112 120.467 58.5586 120.784 59.0918 121.417C59.625 122.05 59.8916 122.957 59.8916 124.138V124.664H54.8809C54.8991 125.393 55.111 125.983 55.5166 126.435C55.9268 126.881 56.4463 127.104 57.0752 127.104C57.5218 127.104 57.9001 127.013 58.21 126.831C58.5199 126.649 58.791 126.407 59.0234 126.106L59.7959 126.708C59.1761 127.66 58.2464 128.137 57.0068 128.137ZM56.8496 121.506C56.3392 121.506 55.9108 121.693 55.5645 122.066C55.2181 122.436 55.0039 122.955 54.9219 123.625H58.627V123.529C58.5905 122.887 58.4173 122.39 58.1074 122.039C57.7975 121.684 57.3783 121.506 56.8496 121.506ZM61.0605 124.24C61.0605 123.087 61.3271 122.171 61.8604 121.492C62.3936 120.809 63.0999 120.467 63.9795 120.467C64.8818 120.467 65.5859 120.786 66.0918 121.424L66.1533 120.604H67.3086V127.822C67.3086 128.779 67.0238 129.534 66.4541 130.085C65.889 130.636 65.1279 130.912 64.1709 130.912C63.6377 130.912 63.1159 130.798 62.6055 130.57C62.0951 130.342 61.7054 130.03 61.4365 129.634L62.0928 128.875C62.6351 129.545 63.2982 129.88 64.082 129.88C64.6973 129.88 65.1758 129.707 65.5176 129.36C65.8639 129.014 66.0371 128.526 66.0371 127.897V127.262C65.5312 127.845 64.8408 128.137 63.9658 128.137C63.0999 128.137 62.3981 127.788 61.8604 127.091C61.3271 126.394 61.0605 125.443 61.0605 124.24ZM62.332 124.384C62.332 125.218 62.5029 125.874 62.8447 126.353C63.1865 126.826 63.665 127.063 64.2803 127.063C65.0778 127.063 65.6634 126.701 66.0371 125.977V122.6C65.6497 121.893 65.0687 121.54 64.2939 121.54C63.6787 121.54 63.1979 121.779 62.8516 122.258C62.5052 122.736 62.332 123.445 62.332 124.384ZM68.8877 124.233C68.8877 123.509 69.029 122.857 69.3115 122.278C69.5986 121.7 69.9951 121.253 70.501 120.938C71.0114 120.624 71.5924 120.467 72.2441 120.467C73.2513 120.467 74.0648 120.815 74.6846 121.513C75.3089 122.21 75.6211 123.137 75.6211 124.295V124.384C75.6211 125.104 75.4821 125.751 75.2041 126.325C74.9307 126.895 74.5365 127.339 74.0215 127.658C73.5111 127.977 72.9232 128.137 72.2578 128.137C71.2552 128.137 70.4417 127.788 69.8174 127.091C69.1976 126.394 68.8877 125.471 68.8877 124.322V124.233ZM70.1592 124.384C70.1592 125.204 70.3483 125.863 70.7266 126.359C71.1094 126.856 71.6198 127.104 72.2578 127.104C72.9004 127.104 73.4108 126.854 73.7891 126.353C74.1673 125.847 74.3564 125.14 74.3564 124.233C74.3564 123.422 74.1628 122.766 73.7754 122.265C73.3926 121.759 72.8822 121.506 72.2441 121.506C71.6198 121.506 71.1162 121.754 70.7334 122.251C70.3506 122.748 70.1592 123.459 70.1592 124.384ZM78.9229 118.812V120.604H80.3037V121.581H78.9229V126.168C78.9229 126.464 78.9844 126.688 79.1074 126.838C79.2305 126.984 79.4401 127.057 79.7363 127.057C79.8822 127.057 80.0827 127.029 80.3379 126.975V128C80.0052 128.091 79.6816 128.137 79.3672 128.137C78.8021 128.137 78.376 127.966 78.0889 127.624C77.8018 127.282 77.6582 126.797 77.6582 126.168V121.581H76.3115V120.604H77.6582V118.812H78.9229ZM83.1611 128H81.8965V120.604H83.1611V128ZM81.7939 118.642C81.7939 118.437 81.8555 118.263 81.9785 118.122C82.1061 117.981 82.293 117.91 82.5391 117.91C82.7852 117.91 82.972 117.981 83.0996 118.122C83.2272 118.263 83.291 118.437 83.291 118.642C83.291 118.847 83.2272 119.018 83.0996 119.154C82.972 119.291 82.7852 119.359 82.5391 119.359C82.293 119.359 82.1061 119.291 81.9785 119.154C81.8555 119.018 81.7939 118.847 81.7939 118.642ZM89.7578 128C89.6849 127.854 89.6257 127.594 89.5801 127.221C88.9922 127.831 88.2904 128.137 87.4746 128.137C86.7454 128.137 86.1462 127.932 85.6768 127.521C85.2119 127.107 84.9795 126.583 84.9795 125.949C84.9795 125.179 85.2712 124.582 85.8545 124.158C86.4424 123.73 87.2673 123.516 88.3291 123.516H89.5596V122.935C89.5596 122.493 89.4274 122.142 89.1631 121.882C88.8988 121.618 88.5091 121.485 87.9941 121.485C87.543 121.485 87.1647 121.599 86.8594 121.827C86.554 122.055 86.4014 122.331 86.4014 122.654H85.1299C85.1299 122.285 85.2598 121.93 85.5195 121.588C85.7839 121.242 86.1393 120.968 86.5859 120.768C87.0371 120.567 87.5316 120.467 88.0693 120.467C88.9215 120.467 89.5892 120.681 90.0723 121.109C90.5553 121.533 90.806 122.119 90.8242 122.866V126.271C90.8242 126.95 90.9108 127.49 91.084 127.891V128H89.7578ZM87.6592 127.036C88.0557 127.036 88.4316 126.934 88.7871 126.729C89.1426 126.523 89.4001 126.257 89.5596 125.929V124.411H88.5684C87.0189 124.411 86.2441 124.865 86.2441 125.771C86.2441 126.168 86.3763 126.478 86.6406 126.701C86.9049 126.924 87.2445 127.036 87.6592 127.036ZM94.5225 118.812V120.604H95.9033V121.581H94.5225V126.168C94.5225 126.464 94.584 126.688 94.707 126.838C94.8301 126.984 95.0397 127.057 95.3359 127.057C95.4818 127.057 95.6823 127.029 95.9375 126.975V128C95.6048 128.091 95.2812 128.137 94.9668 128.137C94.4017 128.137 93.9756 127.966 93.6885 127.624C93.4014 127.282 93.2578 126.797 93.2578 126.168V121.581H91.9111V120.604H93.2578V118.812H94.5225ZM98.7607 128H97.4961V120.604H98.7607V128ZM97.3936 118.642C97.3936 118.437 97.4551 118.263 97.5781 118.122C97.7057 117.981 97.8926 117.91 98.1387 117.91C98.3848 117.91 98.5716 117.981 98.6992 118.122C98.8268 118.263 98.8906 118.437 98.8906 118.642C98.8906 118.847 98.8268 119.018 98.6992 119.154C98.5716 119.291 98.3848 119.359 98.1387 119.359C97.8926 119.359 97.7057 119.291 97.5781 119.154C97.4551 119.018 97.3936 118.847 97.3936 118.642ZM100.456 124.233C100.456 123.509 100.597 122.857 100.88 122.278C101.167 121.7 101.563 121.253 102.069 120.938C102.58 120.624 103.161 120.467 103.812 120.467C104.82 120.467 105.633 120.815 106.253 121.513C106.877 122.21 107.189 123.137 107.189 124.295V124.384C107.189 125.104 107.05 125.751 106.772 126.325C106.499 126.895 106.105 127.339 105.59 127.658C105.079 127.977 104.492 128.137 103.826 128.137C102.824 128.137 102.01 127.788 101.386 127.091C100.766 126.394 100.456 125.471 100.456 124.322V124.233ZM101.728 124.384C101.728 125.204 101.917 125.863 102.295 126.359C102.678 126.856 103.188 127.104 103.826 127.104C104.469 127.104 104.979 126.854 105.357 126.353C105.736 125.847 105.925 125.14 105.925 124.233C105.925 123.422 105.731 122.766 105.344 122.265C104.961 121.759 104.451 121.506 103.812 121.506C103.188 121.506 102.685 121.754 102.302 122.251C101.919 122.748 101.728 123.459 101.728 124.384ZM109.972 120.604L110.013 121.533C110.578 120.822 111.316 120.467 112.228 120.467C113.791 120.467 114.579 121.349 114.593 123.112V128H113.328V123.105C113.324 122.572 113.201 122.178 112.959 121.923C112.722 121.668 112.351 121.54 111.845 121.54C111.435 121.54 111.075 121.649 110.765 121.868C110.455 122.087 110.213 122.374 110.04 122.729V128H108.775V120.604H109.972ZM119.638 124.233C119.638 123.509 119.779 122.857 120.062 122.278C120.349 121.7 120.745 121.253 121.251 120.938C121.761 120.624 122.342 120.467 122.994 120.467C124.001 120.467 124.815 120.815 125.435 121.513C126.059 122.21 126.371 123.137 126.371 124.295V124.384C126.371 125.104 126.232 125.751 125.954 126.325C125.681 126.895 125.286 127.339 124.771 127.658C124.261 127.977 123.673 128.137 123.008 128.137C122.005 128.137 121.192 127.788 120.567 127.091C119.948 126.394 119.638 125.471 119.638 124.322V124.233ZM120.909 124.384C120.909 125.204 121.098 125.863 121.477 126.359C121.859 126.856 122.37 127.104 123.008 127.104C123.65 127.104 124.161 126.854 124.539 126.353C124.917 125.847 125.106 125.14 125.106 124.233C125.106 123.422 124.913 122.766 124.525 122.265C124.143 121.759 123.632 121.506 122.994 121.506C122.37 121.506 121.866 121.754 121.483 122.251C121.101 122.748 120.909 123.459 120.909 124.384ZM128.579 128V121.581H127.41V120.604H128.579V119.845C128.579 119.052 128.791 118.439 129.215 118.006C129.639 117.573 130.238 117.356 131.013 117.356C131.304 117.356 131.594 117.395 131.881 117.473L131.812 118.498C131.598 118.457 131.37 118.437 131.129 118.437C130.719 118.437 130.402 118.557 130.179 118.799C129.955 119.036 129.844 119.378 129.844 119.824V120.604H131.423V121.581H129.844V128H128.579ZM138.013 118.812V120.604H139.394V121.581H138.013V126.168C138.013 126.464 138.074 126.688 138.197 126.838C138.32 126.984 138.53 127.057 138.826 127.057C138.972 127.057 139.173 127.029 139.428 126.975V128C139.095 128.091 138.771 128.137 138.457 128.137C137.892 128.137 137.466 127.966 137.179 127.624C136.892 127.282 136.748 126.797 136.748 126.168V121.581H135.401V120.604H136.748V118.812H138.013ZM143.946 128.137C142.944 128.137 142.128 127.809 141.499 127.152C140.87 126.492 140.556 125.61 140.556 124.507V124.274C140.556 123.541 140.695 122.887 140.973 122.312C141.255 121.734 141.647 121.283 142.148 120.959C142.654 120.631 143.201 120.467 143.789 120.467C144.751 120.467 145.498 120.784 146.031 121.417C146.564 122.05 146.831 122.957 146.831 124.138V124.664H141.82C141.839 125.393 142.05 125.983 142.456 126.435C142.866 126.881 143.386 127.104 144.015 127.104C144.461 127.104 144.84 127.013 145.149 126.831C145.459 126.649 145.73 126.407 145.963 126.106L146.735 126.708C146.116 127.66 145.186 128.137 143.946 128.137ZM143.789 121.506C143.279 121.506 142.85 121.693 142.504 122.066C142.158 122.436 141.943 122.955 141.861 123.625H145.566V123.529C145.53 122.887 145.357 122.39 145.047 122.039C144.737 121.684 144.318 121.506 143.789 121.506ZM151.876 121.738C151.685 121.706 151.477 121.69 151.254 121.69C150.424 121.69 149.862 122.044 149.565 122.75V128H148.301V120.604H149.531L149.552 121.458C149.966 120.797 150.554 120.467 151.315 120.467C151.562 120.467 151.748 120.499 151.876 120.562V121.738ZM154.234 120.604L154.269 121.424C154.811 120.786 155.542 120.467 156.463 120.467C157.497 120.467 158.201 120.863 158.575 121.656C158.821 121.301 159.14 121.014 159.532 120.795C159.929 120.576 160.396 120.467 160.934 120.467C162.556 120.467 163.381 121.326 163.408 123.044V128H162.144V123.119C162.144 122.59 162.023 122.196 161.781 121.937C161.54 121.672 161.134 121.54 160.564 121.54C160.095 121.54 159.705 121.681 159.396 121.964C159.086 122.242 158.906 122.618 158.855 123.092V128H157.584V123.153C157.584 122.078 157.058 121.54 156.005 121.54C155.175 121.54 154.608 121.893 154.303 122.6V128H153.038V120.604H154.234ZM169.629 126.038C169.629 125.696 169.499 125.432 169.239 125.245C168.984 125.054 168.535 124.89 167.893 124.753C167.255 124.616 166.746 124.452 166.368 124.261C165.994 124.069 165.716 123.841 165.534 123.577C165.356 123.313 165.268 122.998 165.268 122.634C165.268 122.028 165.523 121.515 166.033 121.096C166.548 120.676 167.204 120.467 168.002 120.467C168.84 120.467 169.52 120.683 170.039 121.116C170.563 121.549 170.825 122.103 170.825 122.777H169.554C169.554 122.431 169.406 122.132 169.109 121.882C168.818 121.631 168.449 121.506 168.002 121.506C167.542 121.506 167.182 121.606 166.922 121.807C166.662 122.007 166.532 122.269 166.532 122.593C166.532 122.898 166.653 123.128 166.895 123.283C167.136 123.438 167.571 123.586 168.2 123.728C168.834 123.869 169.346 124.037 169.738 124.233C170.13 124.429 170.42 124.666 170.606 124.944C170.798 125.218 170.894 125.553 170.894 125.949C170.894 126.61 170.629 127.141 170.101 127.542C169.572 127.938 168.886 128.137 168.043 128.137C167.451 128.137 166.926 128.032 166.471 127.822C166.015 127.613 165.657 127.321 165.397 126.947C165.142 126.569 165.015 126.161 165.015 125.724H166.279C166.302 126.147 166.471 126.485 166.785 126.735C167.104 126.981 167.523 127.104 168.043 127.104C168.521 127.104 168.904 127.009 169.191 126.817C169.483 126.621 169.629 126.362 169.629 126.038ZM180.58 128C180.507 127.854 180.448 127.594 180.402 127.221C179.814 127.831 179.113 128.137 178.297 128.137C177.568 128.137 176.968 127.932 176.499 127.521C176.034 127.107 175.802 126.583 175.802 125.949C175.802 125.179 176.093 124.582 176.677 124.158C177.265 123.73 178.09 123.516 179.151 123.516H180.382V122.935C180.382 122.493 180.25 122.142 179.985 121.882C179.721 121.618 179.331 121.485 178.816 121.485C178.365 121.485 177.987 121.599 177.682 121.827C177.376 122.055 177.224 122.331 177.224 122.654H175.952C175.952 122.285 176.082 121.93 176.342 121.588C176.606 121.242 176.962 120.968 177.408 120.768C177.859 120.567 178.354 120.467 178.892 120.467C179.744 120.467 180.411 120.681 180.895 121.109C181.378 121.533 181.628 122.119 181.646 122.866V126.271C181.646 126.95 181.733 127.49 181.906 127.891V128H180.58ZM178.481 127.036C178.878 127.036 179.254 126.934 179.609 126.729C179.965 126.523 180.222 126.257 180.382 125.929V124.411H179.391C177.841 124.411 177.066 124.865 177.066 125.771C177.066 126.168 177.199 126.478 177.463 126.701C177.727 126.924 178.067 127.036 178.481 127.036ZM184.825 120.604L184.866 121.533C185.431 120.822 186.17 120.467 187.081 120.467C188.644 120.467 189.433 121.349 189.446 123.112V128H188.182V123.105C188.177 122.572 188.054 122.178 187.812 121.923C187.576 121.668 187.204 121.54 186.698 121.54C186.288 121.54 185.928 121.649 185.618 121.868C185.308 122.087 185.067 122.374 184.894 122.729V128H183.629V120.604H184.825ZM191.046 124.24C191.046 123.105 191.315 122.194 191.853 121.506C192.39 120.813 193.094 120.467 193.965 120.467C194.831 120.467 195.517 120.763 196.022 121.355V117.5H197.287V128H196.125L196.063 127.207C195.558 127.827 194.854 128.137 193.951 128.137C193.094 128.137 192.395 127.786 191.853 127.084C191.315 126.382 191.046 125.466 191.046 124.336V124.24ZM192.311 124.384C192.311 125.222 192.484 125.879 192.83 126.353C193.176 126.826 193.655 127.063 194.266 127.063C195.068 127.063 195.653 126.703 196.022 125.983V122.586C195.644 121.889 195.063 121.54 194.279 121.54C193.66 121.54 193.176 121.779 192.83 122.258C192.484 122.736 192.311 123.445 192.311 124.384ZM46.9238 148.104C47.375 148.104 47.7692 147.968 48.1064 147.694C48.4437 147.421 48.6305 147.079 48.667 146.669H49.8633C49.8405 147.093 49.6947 147.496 49.4258 147.879C49.1569 148.262 48.7969 148.567 48.3457 148.795C47.8991 149.023 47.4251 149.137 46.9238 149.137C45.9167 149.137 45.1146 148.802 44.5176 148.132C43.9251 147.457 43.6289 146.537 43.6289 145.37V145.158C43.6289 144.438 43.7611 143.798 44.0254 143.237C44.2897 142.677 44.668 142.242 45.1602 141.932C45.6569 141.622 46.2425 141.467 46.917 141.467C47.7464 141.467 48.4346 141.715 48.9814 142.212C49.5329 142.709 49.8268 143.354 49.8633 144.146H48.667C48.6305 143.668 48.4482 143.276 48.1201 142.971C47.7965 142.661 47.3955 142.506 46.917 142.506C46.2744 142.506 45.7754 142.738 45.4199 143.203C45.069 143.663 44.8936 144.331 44.8936 145.206V145.445C44.8936 146.298 45.069 146.954 45.4199 147.414C45.7708 147.874 46.2721 148.104 46.9238 148.104ZM50.9502 145.233C50.9502 144.509 51.0915 143.857 51.374 143.278C51.6611 142.7 52.0576 142.253 52.5635 141.938C53.0739 141.624 53.6549 141.467 54.3066 141.467C55.3138 141.467 56.1273 141.815 56.7471 142.513C57.3714 143.21 57.6836 144.137 57.6836 145.295V145.384C57.6836 146.104 57.5446 146.751 57.2666 147.325C56.9932 147.895 56.599 148.339 56.084 148.658C55.5736 148.977 54.9857 149.137 54.3203 149.137C53.3177 149.137 52.5042 148.788 51.8799 148.091C51.2601 147.394 50.9502 146.471 50.9502 145.322V145.233ZM52.2217 145.384C52.2217 146.204 52.4108 146.863 52.7891 147.359C53.1719 147.856 53.6823 148.104 54.3203 148.104C54.9629 148.104 55.4733 147.854 55.8516 147.353C56.2298 146.847 56.4189 146.14 56.4189 145.233C56.4189 144.422 56.2253 143.766 55.8379 143.265C55.4551 142.759 54.9447 142.506 54.3066 142.506C53.6823 142.506 53.1787 142.754 52.7959 143.251C52.4131 143.748 52.2217 144.459 52.2217 145.384ZM60.4658 141.604L60.5068 142.533C61.0719 141.822 61.8102 141.467 62.7217 141.467C64.2848 141.467 65.0732 142.349 65.0869 144.112V149H63.8223V144.105C63.8177 143.572 63.6947 143.178 63.4531 142.923C63.2161 142.668 62.8447 142.54 62.3389 142.54C61.9287 142.54 61.5687 142.649 61.2588 142.868C60.9489 143.087 60.7074 143.374 60.5342 143.729V149H59.2695V141.604H60.4658ZM66.6865 145.24C66.6865 144.105 66.9554 143.194 67.4932 142.506C68.0309 141.813 68.735 141.467 69.6055 141.467C70.4714 141.467 71.1572 141.763 71.6631 142.355V138.5H72.9277V149H71.7656L71.7041 148.207C71.1982 148.827 70.4941 149.137 69.5918 149.137C68.735 149.137 68.0355 148.786 67.4932 148.084C66.9554 147.382 66.6865 146.466 66.6865 145.336V145.24ZM67.9512 145.384C67.9512 146.222 68.1243 146.879 68.4707 147.353C68.8171 147.826 69.2956 148.063 69.9062 148.063C70.7083 148.063 71.2939 147.703 71.6631 146.983V143.586C71.2848 142.889 70.7038 142.54 69.9199 142.54C69.3001 142.54 68.8171 142.779 68.4707 143.258C68.1243 143.736 67.9512 144.445 67.9512 145.384ZM76.2705 149H75.0059V141.604H76.2705V149ZM74.9033 139.642C74.9033 139.437 74.9648 139.263 75.0879 139.122C75.2155 138.981 75.4023 138.91 75.6484 138.91C75.8945 138.91 76.0814 138.981 76.209 139.122C76.3366 139.263 76.4004 139.437 76.4004 139.642C76.4004 139.847 76.3366 140.018 76.209 140.154C76.0814 140.291 75.8945 140.359 75.6484 140.359C75.4023 140.359 75.2155 140.291 75.0879 140.154C74.9648 140.018 74.9033 139.847 74.9033 139.642ZM80.0166 139.812V141.604H81.3975V142.581H80.0166V147.168C80.0166 147.464 80.0781 147.688 80.2012 147.838C80.3242 147.984 80.5339 148.057 80.8301 148.057C80.9759 148.057 81.1764 148.029 81.4316 147.975V149C81.099 149.091 80.7754 149.137 80.4609 149.137C79.8958 149.137 79.4697 148.966 79.1826 148.624C78.8955 148.282 78.752 147.797 78.752 147.168V142.581H77.4053V141.604H78.752V139.812H80.0166ZM84.2549 149H82.9902V141.604H84.2549V149ZM82.8877 139.642C82.8877 139.437 82.9492 139.263 83.0723 139.122C83.1999 138.981 83.3867 138.91 83.6328 138.91C83.8789 138.91 84.0658 138.981 84.1934 139.122C84.321 139.263 84.3848 139.437 84.3848 139.642C84.3848 139.847 84.321 140.018 84.1934 140.154C84.0658 140.291 83.8789 140.359 83.6328 140.359C83.3867 140.359 83.1999 140.291 83.0723 140.154C82.9492 140.018 82.8877 139.847 82.8877 139.642ZM85.9502 145.233C85.9502 144.509 86.0915 143.857 86.374 143.278C86.6611 142.7 87.0576 142.253 87.5635 141.938C88.0739 141.624 88.6549 141.467 89.3066 141.467C90.3138 141.467 91.1273 141.815 91.7471 142.513C92.3714 143.21 92.6836 144.137 92.6836 145.295V145.384C92.6836 146.104 92.5446 146.751 92.2666 147.325C91.9932 147.895 91.599 148.339 91.084 148.658C90.5736 148.977 89.9857 149.137 89.3203 149.137C88.3177 149.137 87.5042 148.788 86.8799 148.091C86.2601 147.394 85.9502 146.471 85.9502 145.322V145.233ZM87.2217 145.384C87.2217 146.204 87.4108 146.863 87.7891 147.359C88.1719 147.856 88.6823 148.104 89.3203 148.104C89.9629 148.104 90.4733 147.854 90.8516 147.353C91.2298 146.847 91.4189 146.14 91.4189 145.233C91.4189 144.422 91.2253 143.766 90.8379 143.265C90.4551 142.759 89.9447 142.506 89.3066 142.506C88.6823 142.506 88.1787 142.754 87.7959 143.251C87.4131 143.748 87.2217 144.459 87.2217 145.384ZM95.4658 141.604L95.5068 142.533C96.0719 141.822 96.8102 141.467 97.7217 141.467C99.2848 141.467 100.073 142.349 100.087 144.112V149H98.8223V144.105C98.8177 143.572 98.6947 143.178 98.4531 142.923C98.2161 142.668 97.8447 142.54 97.3389 142.54C96.9287 142.54 96.5687 142.649 96.2588 142.868C95.9489 143.087 95.7074 143.374 95.5342 143.729V149H94.2695V141.604H95.4658ZM106.301 147.038C106.301 146.696 106.171 146.432 105.911 146.245C105.656 146.054 105.207 145.89 104.564 145.753C103.926 145.616 103.418 145.452 103.04 145.261C102.666 145.069 102.388 144.841 102.206 144.577C102.028 144.313 101.939 143.998 101.939 143.634C101.939 143.028 102.195 142.515 102.705 142.096C103.22 141.676 103.876 141.467 104.674 141.467C105.512 141.467 106.191 141.683 106.711 142.116C107.235 142.549 107.497 143.103 107.497 143.777H106.226C106.226 143.431 106.077 143.132 105.781 142.882C105.49 142.631 105.12 142.506 104.674 142.506C104.214 142.506 103.854 142.606 103.594 142.807C103.334 143.007 103.204 143.269 103.204 143.593C103.204 143.898 103.325 144.128 103.566 144.283C103.808 144.438 104.243 144.586 104.872 144.728C105.506 144.869 106.018 145.037 106.41 145.233C106.802 145.429 107.091 145.666 107.278 145.944C107.47 146.218 107.565 146.553 107.565 146.949C107.565 147.61 107.301 148.141 106.772 148.542C106.244 148.938 105.558 149.137 104.715 149.137C104.122 149.137 103.598 149.032 103.143 148.822C102.687 148.613 102.329 148.321 102.069 147.947C101.814 147.569 101.687 147.161 101.687 146.724H102.951C102.974 147.147 103.143 147.485 103.457 147.735C103.776 147.981 104.195 148.104 104.715 148.104C105.193 148.104 105.576 148.009 105.863 147.817C106.155 147.621 106.301 147.362 106.301 147.038ZM31.085 164.723C31.085 164.326 31.2103 164 31.4609 163.745C31.7161 163.49 32.0534 163.362 32.4727 163.362C32.8874 163.362 33.2246 163.488 33.4844 163.738C33.7441 163.984 33.874 164.319 33.874 164.743V164.996C33.874 165.393 33.7487 165.716 33.498 165.967C33.2474 166.217 32.9079 166.343 32.4795 166.343C32.0557 166.343 31.7161 166.217 31.4609 165.967C31.2103 165.712 31.085 165.383 31.085 164.982V164.723ZM45.5635 170H44.251V160.047H45.5635V170ZM48.9678 162.604L49.0088 163.533C49.5739 162.822 50.3122 162.467 51.2236 162.467C52.7868 162.467 53.5752 163.349 53.5889 165.112V170H52.3242V165.105C52.3197 164.572 52.1966 164.178 51.9551 163.923C51.7181 163.668 51.3467 163.54 50.8408 163.54C50.4307 163.54 50.0706 163.649 49.7607 163.868C49.4508 164.087 49.2093 164.374 49.0361 164.729V170H47.7715V162.604H48.9678ZM57.9365 168.284L59.7686 162.604H61.0605L58.4082 170H57.4443L54.7646 162.604H56.0566L57.9365 168.284ZM65.251 170.137C64.2484 170.137 63.4326 169.809 62.8037 169.152C62.1748 168.492 61.8604 167.61 61.8604 166.507V166.274C61.8604 165.541 61.9993 164.887 62.2773 164.312C62.5599 163.734 62.9518 163.283 63.4531 162.959C63.959 162.631 64.5059 162.467 65.0938 162.467C66.0553 162.467 66.8027 162.784 67.3359 163.417C67.8691 164.05 68.1357 164.957 68.1357 166.138V166.664H63.125C63.1432 167.393 63.3551 167.983 63.7607 168.435C64.1709 168.881 64.6904 169.104 65.3193 169.104C65.766 169.104 66.1442 169.013 66.4541 168.831C66.764 168.649 67.0352 168.407 67.2676 168.106L68.04 168.708C67.4202 169.66 66.4906 170.137 65.251 170.137ZM65.0938 163.506C64.5833 163.506 64.1549 163.693 63.8086 164.066C63.4622 164.436 63.248 164.955 63.166 165.625H66.8711V165.529C66.8346 164.887 66.6615 164.39 66.3516 164.039C66.0417 163.684 65.6224 163.506 65.0938 163.506ZM73.9121 168.038C73.9121 167.696 73.7822 167.432 73.5225 167.245C73.2673 167.054 72.8184 166.89 72.1758 166.753C71.5378 166.616 71.0296 166.452 70.6514 166.261C70.2777 166.069 69.9997 165.841 69.8174 165.577C69.6396 165.313 69.5508 164.998 69.5508 164.634C69.5508 164.028 69.806 163.515 70.3164 163.096C70.8314 162.676 71.4876 162.467 72.2852 162.467C73.1237 162.467 73.8027 162.683 74.3223 163.116C74.8464 163.549 75.1084 164.103 75.1084 164.777H73.8369C73.8369 164.431 73.6888 164.132 73.3926 163.882C73.1009 163.631 72.7318 163.506 72.2852 163.506C71.8249 163.506 71.4648 163.606 71.2051 163.807C70.9453 164.007 70.8154 164.269 70.8154 164.593C70.8154 164.898 70.9362 165.128 71.1777 165.283C71.4193 165.438 71.8545 165.586 72.4834 165.728C73.1169 165.869 73.6296 166.037 74.0215 166.233C74.4134 166.429 74.7028 166.666 74.8896 166.944C75.0811 167.218 75.1768 167.553 75.1768 167.949C75.1768 168.61 74.9124 169.141 74.3838 169.542C73.8551 169.938 73.1693 170.137 72.3262 170.137C71.7337 170.137 71.2096 170.032 70.7539 169.822C70.2982 169.613 69.9404 169.321 69.6807 168.947C69.4255 168.569 69.2979 168.161 69.2979 167.724H70.5625C70.5853 168.147 70.7539 168.485 71.0684 168.735C71.3874 168.981 71.8066 169.104 72.3262 169.104C72.8047 169.104 73.1875 169.009 73.4746 168.817C73.7663 168.621 73.9121 168.362 73.9121 168.038ZM78.54 160.812V162.604H79.9209V163.581H78.54V168.168C78.54 168.464 78.6016 168.688 78.7246 168.838C78.8477 168.984 79.0573 169.057 79.3535 169.057C79.4993 169.057 79.6999 169.029 79.9551 168.975V170C79.6224 170.091 79.2988 170.137 78.9844 170.137C78.4193 170.137 77.9932 169.966 77.7061 169.624C77.4189 169.282 77.2754 168.797 77.2754 168.168V163.581H75.9287V162.604H77.2754V160.812H78.54ZM82.5938 162.604L82.6279 163.424C83.1702 162.786 83.9017 162.467 84.8223 162.467C85.8568 162.467 86.5609 162.863 86.9346 163.656C87.1807 163.301 87.4997 163.014 87.8916 162.795C88.2881 162.576 88.7552 162.467 89.293 162.467C90.9154 162.467 91.7402 163.326 91.7676 165.044V170H90.5029V165.119C90.5029 164.59 90.3822 164.196 90.1406 163.937C89.8991 163.672 89.4935 163.54 88.9238 163.54C88.4544 163.54 88.0648 163.681 87.7549 163.964C87.445 164.242 87.265 164.618 87.2148 165.092V170H85.9434V165.153C85.9434 164.078 85.417 163.54 84.3643 163.54C83.5348 163.54 82.9674 163.893 82.6621 164.6V170H81.3975V162.604H82.5938ZM96.751 170.137C95.7484 170.137 94.9326 169.809 94.3037 169.152C93.6748 168.492 93.3604 167.61 93.3604 166.507V166.274C93.3604 165.541 93.4993 164.887 93.7773 164.312C94.0599 163.734 94.4518 163.283 94.9531 162.959C95.459 162.631 96.0059 162.467 96.5938 162.467C97.5553 162.467 98.3027 162.784 98.8359 163.417C99.3691 164.05 99.6357 164.957 99.6357 166.138V166.664H94.625C94.6432 167.393 94.8551 167.983 95.2607 168.435C95.6709 168.881 96.1904 169.104 96.8193 169.104C97.266 169.104 97.6442 169.013 97.9541 168.831C98.264 168.649 98.5352 168.407 98.7676 168.106L99.54 168.708C98.9202 169.66 97.9906 170.137 96.751 170.137ZM96.5938 163.506C96.0833 163.506 95.6549 163.693 95.3086 164.066C94.9622 164.436 94.748 164.955 94.666 165.625H98.3711V165.529C98.3346 164.887 98.1615 164.39 97.8516 164.039C97.5417 163.684 97.1224 163.506 96.5938 163.506ZM102.302 162.604L102.343 163.533C102.908 162.822 103.646 162.467 104.558 162.467C106.121 162.467 106.909 163.349 106.923 165.112V170H105.658V165.105C105.654 164.572 105.531 164.178 105.289 163.923C105.052 163.668 104.681 163.54 104.175 163.54C103.765 163.54 103.405 163.649 103.095 163.868C102.785 164.087 102.543 164.374 102.37 164.729V170H101.105V162.604H102.302ZM110.546 160.812V162.604H111.927V163.581H110.546V168.168C110.546 168.464 110.607 168.688 110.73 168.838C110.854 168.984 111.063 169.057 111.359 169.057C111.505 169.057 111.706 169.029 111.961 168.975V170C111.628 170.091 111.305 170.137 110.99 170.137C110.425 170.137 109.999 169.966 109.712 169.624C109.425 169.282 109.281 168.797 109.281 168.168V163.581H107.935V162.604H109.281V160.812H110.546ZM122.577 167.402H118.407L117.471 170H116.117L119.918 160.047H121.066L124.874 170H123.527L122.577 167.402ZM118.804 166.322H122.188L120.492 161.667L118.804 166.322ZM125.715 166.24C125.715 165.087 125.981 164.171 126.515 163.492C127.048 162.809 127.754 162.467 128.634 162.467C129.536 162.467 130.24 162.786 130.746 163.424L130.808 162.604H131.963V169.822C131.963 170.779 131.678 171.534 131.108 172.085C130.543 172.636 129.782 172.912 128.825 172.912C128.292 172.912 127.77 172.798 127.26 172.57C126.749 172.342 126.36 172.03 126.091 171.634L126.747 170.875C127.289 171.545 127.952 171.88 128.736 171.88C129.352 171.88 129.83 171.707 130.172 171.36C130.518 171.014 130.691 170.526 130.691 169.897V169.262C130.186 169.845 129.495 170.137 128.62 170.137C127.754 170.137 127.052 169.788 126.515 169.091C125.981 168.394 125.715 167.443 125.715 166.24ZM126.986 166.384C126.986 167.218 127.157 167.874 127.499 168.353C127.841 168.826 128.319 169.063 128.935 169.063C129.732 169.063 130.318 168.701 130.691 167.977V164.6C130.304 163.893 129.723 163.54 128.948 163.54C128.333 163.54 127.852 163.779 127.506 164.258C127.16 164.736 126.986 165.445 126.986 166.384ZM137.452 163.738C137.261 163.706 137.053 163.69 136.83 163.69C136.001 163.69 135.438 164.044 135.142 164.75V170H133.877V162.604H135.107L135.128 163.458C135.543 162.797 136.131 162.467 136.892 162.467C137.138 162.467 137.325 162.499 137.452 162.562V163.738ZM141.554 170.137C140.551 170.137 139.735 169.809 139.106 169.152C138.478 168.492 138.163 167.61 138.163 166.507V166.274C138.163 165.541 138.302 164.887 138.58 164.312C138.863 163.734 139.255 163.283 139.756 162.959C140.262 162.631 140.809 162.467 141.396 162.467C142.358 162.467 143.105 162.784 143.639 163.417C144.172 164.05 144.438 164.957 144.438 166.138V166.664H139.428C139.446 167.393 139.658 167.983 140.063 168.435C140.474 168.881 140.993 169.104 141.622 169.104C142.069 169.104 142.447 169.013 142.757 168.831C143.067 168.649 143.338 168.407 143.57 168.106L144.343 168.708C143.723 169.66 142.793 170.137 141.554 170.137ZM141.396 163.506C140.886 163.506 140.458 163.693 140.111 164.066C139.765 164.436 139.551 164.955 139.469 165.625H143.174V165.529C143.137 164.887 142.964 164.39 142.654 164.039C142.344 163.684 141.925 163.506 141.396 163.506ZM148.978 170.137C147.975 170.137 147.159 169.809 146.53 169.152C145.901 168.492 145.587 167.61 145.587 166.507V166.274C145.587 165.541 145.726 164.887 146.004 164.312C146.286 163.734 146.678 163.283 147.18 162.959C147.686 162.631 148.232 162.467 148.82 162.467C149.782 162.467 150.529 162.784 151.062 163.417C151.596 164.05 151.862 164.957 151.862 166.138V166.664H146.852C146.87 167.393 147.082 167.983 147.487 168.435C147.897 168.881 148.417 169.104 149.046 169.104C149.493 169.104 149.871 169.013 150.181 168.831C150.491 168.649 150.762 168.407 150.994 168.106L151.767 168.708C151.147 169.66 150.217 170.137 148.978 170.137ZM148.82 163.506C148.31 163.506 147.882 163.693 147.535 164.066C147.189 164.436 146.975 164.955 146.893 165.625H150.598V165.529C150.561 164.887 150.388 164.39 150.078 164.039C149.768 163.684 149.349 163.506 148.82 163.506ZM154.521 162.604L154.556 163.424C155.098 162.786 155.829 162.467 156.75 162.467C157.785 162.467 158.489 162.863 158.862 163.656C159.108 163.301 159.427 163.014 159.819 162.795C160.216 162.576 160.683 162.467 161.221 162.467C162.843 162.467 163.668 163.326 163.695 165.044V170H162.431V165.119C162.431 164.59 162.31 164.196 162.068 163.937C161.827 163.672 161.421 163.54 160.852 163.54C160.382 163.54 159.993 163.681 159.683 163.964C159.373 164.242 159.193 164.618 159.143 165.092V170H157.871V165.153C157.871 164.078 157.345 163.54 156.292 163.54C155.463 163.54 154.895 163.893 154.59 164.6V170H153.325V162.604H154.521ZM168.679 170.137C167.676 170.137 166.86 169.809 166.231 169.152C165.603 168.492 165.288 167.61 165.288 166.507V166.274C165.288 165.541 165.427 164.887 165.705 164.312C165.988 163.734 166.38 163.283 166.881 162.959C167.387 162.631 167.934 162.467 168.521 162.467C169.483 162.467 170.23 162.784 170.764 163.417C171.297 164.05 171.563 164.957 171.563 166.138V166.664H166.553C166.571 167.393 166.783 167.983 167.188 168.435C167.599 168.881 168.118 169.104 168.747 169.104C169.194 169.104 169.572 169.013 169.882 168.831C170.192 168.649 170.463 168.407 170.695 168.106L171.468 168.708C170.848 169.66 169.918 170.137 168.679 170.137ZM168.521 163.506C168.011 163.506 167.583 163.693 167.236 164.066C166.89 164.436 166.676 164.955 166.594 165.625H170.299V165.529C170.262 164.887 170.089 164.39 169.779 164.039C169.469 163.684 169.05 163.506 168.521 163.506ZM174.229 162.604L174.271 163.533C174.836 162.822 175.574 162.467 176.485 162.467C178.049 162.467 178.837 163.349 178.851 165.112V170H177.586V165.105C177.581 164.572 177.458 164.178 177.217 163.923C176.98 163.668 176.608 163.54 176.103 163.54C175.692 163.54 175.332 163.649 175.022 163.868C174.713 164.087 174.471 164.374 174.298 164.729V170H173.033V162.604H174.229ZM182.474 160.812V162.604H183.854V163.581H182.474V168.168C182.474 168.464 182.535 168.688 182.658 168.838C182.781 168.984 182.991 169.057 183.287 169.057C183.433 169.057 183.633 169.029 183.889 168.975V170C183.556 170.091 183.232 170.137 182.918 170.137C182.353 170.137 181.927 169.966 181.64 169.624C181.353 169.282 181.209 168.797 181.209 168.168V163.581H179.862V162.604H181.209V160.812H182.474ZM31.085 185.723C31.085 185.326 31.2103 185 31.4609 184.745C31.7161 184.49 32.0534 184.362 32.4727 184.362C32.8874 184.362 33.2246 184.488 33.4844 184.738C33.7441 184.984 33.874 185.319 33.874 185.743V185.996C33.874 186.393 33.7487 186.716 33.498 186.967C33.2474 187.217 32.9079 187.343 32.4795 187.343C32.0557 187.343 31.7161 187.217 31.4609 186.967C31.2103 186.712 31.085 186.383 31.085 185.982V185.723ZM45.5635 191H44.251V181.047H45.5635V191ZM48.9678 183.604L49.0088 184.533C49.5739 183.822 50.3122 183.467 51.2236 183.467C52.7868 183.467 53.5752 184.349 53.5889 186.112V191H52.3242V186.105C52.3197 185.572 52.1966 185.178 51.9551 184.923C51.7181 184.668 51.3467 184.54 50.8408 184.54C50.4307 184.54 50.0706 184.649 49.7607 184.868C49.4508 185.087 49.2093 185.374 49.0361 185.729V191H47.7715V183.604H48.9678ZM57.9365 189.284L59.7686 183.604H61.0605L58.4082 191H57.4443L54.7646 183.604H56.0566L57.9365 189.284ZM65.251 191.137C64.2484 191.137 63.4326 190.809 62.8037 190.152C62.1748 189.492 61.8604 188.61 61.8604 187.507V187.274C61.8604 186.541 61.9993 185.887 62.2773 185.312C62.5599 184.734 62.9518 184.283 63.4531 183.959C63.959 183.631 64.5059 183.467 65.0938 183.467C66.0553 183.467 66.8027 183.784 67.3359 184.417C67.8691 185.05 68.1357 185.957 68.1357 187.138V187.664H63.125C63.1432 188.393 63.3551 188.983 63.7607 189.435C64.1709 189.881 64.6904 190.104 65.3193 190.104C65.766 190.104 66.1442 190.013 66.4541 189.831C66.764 189.649 67.0352 189.407 67.2676 189.106L68.04 189.708C67.4202 190.66 66.4906 191.137 65.251 191.137ZM65.0938 184.506C64.5833 184.506 64.1549 184.693 63.8086 185.066C63.4622 185.436 63.248 185.955 63.166 186.625H66.8711V186.529C66.8346 185.887 66.6615 185.39 66.3516 185.039C66.0417 184.684 65.6224 184.506 65.0938 184.506ZM73.9121 189.038C73.9121 188.696 73.7822 188.432 73.5225 188.245C73.2673 188.054 72.8184 187.89 72.1758 187.753C71.5378 187.616 71.0296 187.452 70.6514 187.261C70.2777 187.069 69.9997 186.841 69.8174 186.577C69.6396 186.313 69.5508 185.998 69.5508 185.634C69.5508 185.028 69.806 184.515 70.3164 184.096C70.8314 183.676 71.4876 183.467 72.2852 183.467C73.1237 183.467 73.8027 183.683 74.3223 184.116C74.8464 184.549 75.1084 185.103 75.1084 185.777H73.8369C73.8369 185.431 73.6888 185.132 73.3926 184.882C73.1009 184.631 72.7318 184.506 72.2852 184.506C71.8249 184.506 71.4648 184.606 71.2051 184.807C70.9453 185.007 70.8154 185.269 70.8154 185.593C70.8154 185.898 70.9362 186.128 71.1777 186.283C71.4193 186.438 71.8545 186.586 72.4834 186.728C73.1169 186.869 73.6296 187.037 74.0215 187.233C74.4134 187.429 74.7028 187.666 74.8896 187.944C75.0811 188.218 75.1768 188.553 75.1768 188.949C75.1768 189.61 74.9124 190.141 74.3838 190.542C73.8551 190.938 73.1693 191.137 72.3262 191.137C71.7337 191.137 71.2096 191.032 70.7539 190.822C70.2982 190.613 69.9404 190.321 69.6807 189.947C69.4255 189.569 69.2979 189.161 69.2979 188.724H70.5625C70.5853 189.147 70.7539 189.485 71.0684 189.735C71.3874 189.981 71.8066 190.104 72.3262 190.104C72.8047 190.104 73.1875 190.009 73.4746 189.817C73.7663 189.621 73.9121 189.362 73.9121 189.038ZM78.54 181.812V183.604H79.9209V184.581H78.54V189.168C78.54 189.464 78.6016 189.688 78.7246 189.838C78.8477 189.984 79.0573 190.057 79.3535 190.057C79.4993 190.057 79.6999 190.029 79.9551 189.975V191C79.6224 191.091 79.2988 191.137 78.9844 191.137C78.4193 191.137 77.9932 190.966 77.7061 190.624C77.4189 190.282 77.2754 189.797 77.2754 189.168V184.581H75.9287V183.604H77.2754V181.812H78.54ZM82.5938 183.604L82.6279 184.424C83.1702 183.786 83.9017 183.467 84.8223 183.467C85.8568 183.467 86.5609 183.863 86.9346 184.656C87.1807 184.301 87.4997 184.014 87.8916 183.795C88.2881 183.576 88.7552 183.467 89.293 183.467C90.9154 183.467 91.7402 184.326 91.7676 186.044V191H90.5029V186.119C90.5029 185.59 90.3822 185.196 90.1406 184.937C89.8991 184.672 89.4935 184.54 88.9238 184.54C88.4544 184.54 88.0648 184.681 87.7549 184.964C87.445 185.242 87.265 185.618 87.2148 186.092V191H85.9434V186.153C85.9434 185.078 85.417 184.54 84.3643 184.54C83.5348 184.54 82.9674 184.893 82.6621 185.6V191H81.3975V183.604H82.5938ZM96.751 191.137C95.7484 191.137 94.9326 190.809 94.3037 190.152C93.6748 189.492 93.3604 188.61 93.3604 187.507V187.274C93.3604 186.541 93.4993 185.887 93.7773 185.312C94.0599 184.734 94.4518 184.283 94.9531 183.959C95.459 183.631 96.0059 183.467 96.5938 183.467C97.5553 183.467 98.3027 183.784 98.8359 184.417C99.3691 185.05 99.6357 185.957 99.6357 187.138V187.664H94.625C94.6432 188.393 94.8551 188.983 95.2607 189.435C95.6709 189.881 96.1904 190.104 96.8193 190.104C97.266 190.104 97.6442 190.013 97.9541 189.831C98.264 189.649 98.5352 189.407 98.7676 189.106L99.54 189.708C98.9202 190.66 97.9906 191.137 96.751 191.137ZM96.5938 184.506C96.0833 184.506 95.6549 184.693 95.3086 185.066C94.9622 185.436 94.748 185.955 94.666 186.625H98.3711V186.529C98.3346 185.887 98.1615 185.39 97.8516 185.039C97.5417 184.684 97.1224 184.506 96.5938 184.506ZM102.302 183.604L102.343 184.533C102.908 183.822 103.646 183.467 104.558 183.467C106.121 183.467 106.909 184.349 106.923 186.112V191H105.658V186.105C105.654 185.572 105.531 185.178 105.289 184.923C105.052 184.668 104.681 184.54 104.175 184.54C103.765 184.54 103.405 184.649 103.095 184.868C102.785 185.087 102.543 185.374 102.37 185.729V191H101.105V183.604H102.302ZM110.546 181.812V183.604H111.927V184.581H110.546V189.168C110.546 189.464 110.607 189.688 110.73 189.838C110.854 189.984 111.063 190.057 111.359 190.057C111.505 190.057 111.706 190.029 111.961 189.975V191C111.628 191.091 111.305 191.137 110.99 191.137C110.425 191.137 109.999 190.966 109.712 190.624C109.425 190.282 109.281 189.797 109.281 189.168V184.581H107.935V183.604H109.281V181.812H110.546ZM117.081 191V181.047H119.891C120.757 181.047 121.522 181.238 122.188 181.621C122.853 182.004 123.366 182.549 123.726 183.255C124.09 183.961 124.275 184.772 124.279 185.688V186.324C124.279 187.263 124.097 188.086 123.732 188.792C123.372 189.498 122.855 190.041 122.181 190.419C121.511 190.797 120.729 190.991 119.836 191H117.081ZM118.394 182.127V189.927H119.774C120.786 189.927 121.572 189.612 122.133 188.983C122.698 188.354 122.98 187.459 122.98 186.297V185.716C122.98 184.586 122.714 183.708 122.181 183.084C121.652 182.455 120.9 182.136 119.925 182.127H118.394ZM129.14 191.137C128.137 191.137 127.321 190.809 126.692 190.152C126.063 189.492 125.749 188.61 125.749 187.507V187.274C125.749 186.541 125.888 185.887 126.166 185.312C126.449 184.734 126.84 184.283 127.342 183.959C127.848 183.631 128.395 183.467 128.982 183.467C129.944 183.467 130.691 183.784 131.225 184.417C131.758 185.05 132.024 185.957 132.024 187.138V187.664H127.014C127.032 188.393 127.244 188.983 127.649 189.435C128.06 189.881 128.579 190.104 129.208 190.104C129.655 190.104 130.033 190.013 130.343 189.831C130.653 189.649 130.924 189.407 131.156 189.106L131.929 189.708C131.309 190.66 130.379 191.137 129.14 191.137ZM128.982 184.506C128.472 184.506 128.044 184.693 127.697 185.066C127.351 185.436 127.137 185.955 127.055 186.625H130.76V186.529C130.723 185.887 130.55 185.39 130.24 185.039C129.93 184.684 129.511 184.506 128.982 184.506ZM139.742 187.384C139.742 188.509 139.485 189.416 138.97 190.104C138.455 190.793 137.757 191.137 136.878 191.137C135.98 191.137 135.274 190.852 134.759 190.282V193.844H133.494V183.604H134.649L134.711 184.424C135.226 183.786 135.941 183.467 136.857 183.467C137.746 183.467 138.448 183.802 138.963 184.472C139.482 185.142 139.742 186.074 139.742 187.268V187.384ZM138.478 187.24C138.478 186.406 138.3 185.748 137.944 185.265C137.589 184.782 137.101 184.54 136.481 184.54C135.716 184.54 135.142 184.88 134.759 185.559V189.093C135.137 189.767 135.716 190.104 136.495 190.104C137.101 190.104 137.582 189.865 137.938 189.387C138.298 188.904 138.478 188.188 138.478 187.24ZM142.729 191H141.465V180.5H142.729V191ZM144.425 187.233C144.425 186.509 144.566 185.857 144.849 185.278C145.136 184.7 145.532 184.253 146.038 183.938C146.549 183.624 147.13 183.467 147.781 183.467C148.788 183.467 149.602 183.815 150.222 184.513C150.846 185.21 151.158 186.137 151.158 187.295V187.384C151.158 188.104 151.019 188.751 150.741 189.325C150.468 189.895 150.074 190.339 149.559 190.658C149.048 190.977 148.46 191.137 147.795 191.137C146.792 191.137 145.979 190.788 145.354 190.091C144.735 189.394 144.425 188.471 144.425 187.322V187.233ZM145.696 187.384C145.696 188.204 145.885 188.863 146.264 189.359C146.646 189.856 147.157 190.104 147.795 190.104C148.438 190.104 148.948 189.854 149.326 189.353C149.704 188.847 149.894 188.14 149.894 187.233C149.894 186.422 149.7 185.766 149.312 185.265C148.93 184.759 148.419 184.506 147.781 184.506C147.157 184.506 146.653 184.754 146.271 185.251C145.888 185.748 145.696 186.459 145.696 187.384ZM154.118 191H152.854V183.604H154.118V191ZM152.751 181.642C152.751 181.437 152.812 181.263 152.936 181.122C153.063 180.981 153.25 180.91 153.496 180.91C153.742 180.91 153.929 180.981 154.057 181.122C154.184 181.263 154.248 181.437 154.248 181.642C154.248 181.847 154.184 182.018 154.057 182.154C153.929 182.291 153.742 182.359 153.496 182.359C153.25 182.359 153.063 182.291 152.936 182.154C152.812 182.018 152.751 181.847 152.751 181.642ZM157.338 183.604L157.372 184.424C157.914 183.786 158.646 183.467 159.566 183.467C160.601 183.467 161.305 183.863 161.679 184.656C161.925 184.301 162.244 184.014 162.636 183.795C163.032 183.576 163.499 183.467 164.037 183.467C165.66 183.467 166.484 184.326 166.512 186.044V191H165.247V186.119C165.247 185.59 165.126 185.196 164.885 184.937C164.643 184.672 164.238 184.54 163.668 184.54C163.199 184.54 162.809 184.681 162.499 184.964C162.189 185.242 162.009 185.618 161.959 186.092V191H160.688V186.153C160.688 185.078 160.161 184.54 159.108 184.54C158.279 184.54 157.712 184.893 157.406 185.6V191H156.142V183.604H157.338ZM171.495 191.137C170.493 191.137 169.677 190.809 169.048 190.152C168.419 189.492 168.104 188.61 168.104 187.507V187.274C168.104 186.541 168.243 185.887 168.521 185.312C168.804 184.734 169.196 184.283 169.697 183.959C170.203 183.631 170.75 183.467 171.338 183.467C172.299 183.467 173.047 183.784 173.58 184.417C174.113 185.05 174.38 185.957 174.38 187.138V187.664H169.369C169.387 188.393 169.599 188.983 170.005 189.435C170.415 189.881 170.935 190.104 171.563 190.104C172.01 190.104 172.388 190.013 172.698 189.831C173.008 189.649 173.279 189.407 173.512 189.106L174.284 189.708C173.664 190.66 172.735 191.137 171.495 191.137ZM171.338 184.506C170.827 184.506 170.399 184.693 170.053 185.066C169.706 185.436 169.492 185.955 169.41 186.625H173.115V186.529C173.079 185.887 172.906 185.39 172.596 185.039C172.286 184.684 171.867 184.506 171.338 184.506ZM177.046 183.604L177.087 184.533C177.652 183.822 178.39 183.467 179.302 183.467C180.865 183.467 181.653 184.349 181.667 186.112V191H180.402V186.105C180.398 185.572 180.275 185.178 180.033 184.923C179.796 184.668 179.425 184.54 178.919 184.54C178.509 184.54 178.149 184.649 177.839 184.868C177.529 185.087 177.287 185.374 177.114 185.729V191H175.85V183.604H177.046ZM185.29 181.812V183.604H186.671V184.581H185.29V189.168C185.29 189.464 185.352 189.688 185.475 189.838C185.598 189.984 185.807 190.057 186.104 190.057C186.249 190.057 186.45 190.029 186.705 189.975V191C186.372 191.091 186.049 191.137 185.734 191.137C185.169 191.137 184.743 190.966 184.456 190.624C184.169 190.282 184.025 189.797 184.025 189.168V184.581H182.679V183.604H184.025V181.812H185.29ZM31.085 206.723C31.085 206.326 31.2103 206 31.4609 205.745C31.7161 205.49 32.0534 205.362 32.4727 205.362C32.8874 205.362 33.2246 205.488 33.4844 205.738C33.7441 205.984 33.874 206.319 33.874 206.743V206.996C33.874 207.393 33.7487 207.716 33.498 207.967C33.2474 208.217 32.9079 208.343 32.4795 208.343C32.0557 208.343 31.7161 208.217 31.4609 207.967C31.2103 207.712 31.085 207.383 31.085 206.982V206.723ZM45.8506 202.047L49.1045 210.168L52.3584 202.047H54.0605V212H52.748V208.124L52.8711 203.94L49.6035 212H48.5986L45.3379 203.961L45.4678 208.124V212H44.1553V202.047H45.8506ZM63.7266 210.694C63.3893 211.177 62.9176 211.54 62.3115 211.781C61.71 212.018 61.0081 212.137 60.2061 212.137C59.3949 212.137 58.6748 211.948 58.0459 211.569C57.417 211.187 56.9294 210.644 56.583 209.942C56.2412 209.241 56.0658 208.427 56.0566 207.502V206.634C56.0566 205.134 56.4053 203.972 57.1025 203.147C57.8044 202.323 58.7887 201.91 60.0557 201.91C61.0947 201.91 61.931 202.177 62.5645 202.71C63.1979 203.239 63.5853 203.991 63.7266 204.966H62.4141C62.168 203.649 61.3841 202.99 60.0625 202.99C59.1829 202.99 58.5153 203.3 58.0596 203.92C57.6084 204.535 57.3805 205.428 57.376 206.6V207.413C57.376 208.53 57.6312 209.418 58.1416 210.079C58.652 210.735 59.3424 211.063 60.2129 211.063C60.7051 211.063 61.1357 211.009 61.5049 210.899C61.874 210.79 62.1794 210.605 62.4209 210.346V208.11H60.1172V207.044H63.7266V210.694ZM73.5703 212H72.251V207.399H67.2334V212H65.9209V202.047H67.2334V206.326H72.251V202.047H73.5703V212ZM77.2207 210.927H81.9375V212H75.9014V202.047H77.2207V210.927ZM89.8398 207.563C88.7142 207.24 87.8939 206.843 87.3789 206.374C86.8685 205.9 86.6133 205.317 86.6133 204.624C86.6133 203.84 86.9255 203.193 87.5498 202.683C88.1787 202.168 88.9945 201.91 89.9971 201.91C90.6807 201.91 91.2891 202.042 91.8223 202.307C92.36 202.571 92.7747 202.936 93.0664 203.4C93.3626 203.865 93.5107 204.373 93.5107 204.925H92.1914C92.1914 204.323 92 203.852 91.6172 203.51C91.2344 203.163 90.6943 202.99 89.9971 202.99C89.3499 202.99 88.8441 203.134 88.4795 203.421C88.1195 203.703 87.9395 204.098 87.9395 204.604C87.9395 205.009 88.1104 205.353 88.4521 205.636C88.7985 205.914 89.3841 206.169 90.209 206.401C91.0384 206.634 91.6855 206.891 92.1504 207.174C92.6198 207.452 92.9661 207.778 93.1895 208.151C93.4173 208.525 93.5312 208.965 93.5312 209.471C93.5312 210.277 93.2168 210.924 92.5879 211.412C91.959 211.895 91.1182 212.137 90.0654 212.137C89.3818 212.137 88.7438 212.007 88.1514 211.747C87.5589 211.483 87.1009 211.123 86.7773 210.667C86.4583 210.211 86.2988 209.694 86.2988 209.115H87.6182C87.6182 209.717 87.8392 210.193 88.2812 210.544C88.7279 210.89 89.3226 211.063 90.0654 211.063C90.7581 211.063 91.2891 210.922 91.6582 210.64C92.0273 210.357 92.2119 209.972 92.2119 209.484C92.2119 208.997 92.041 208.621 91.6992 208.356C91.3574 208.088 90.7376 207.823 89.8398 207.563ZM96.7373 202.812V204.604H98.1182V205.581H96.7373V210.168C96.7373 210.464 96.7988 210.688 96.9219 210.838C97.0449 210.984 97.2546 211.057 97.5508 211.057C97.6966 211.057 97.8971 211.029 98.1523 210.975V212C97.8197 212.091 97.4961 212.137 97.1816 212.137C96.6165 212.137 96.1904 211.966 95.9033 211.624C95.6162 211.282 95.4727 210.797 95.4727 210.168V205.581H94.126V204.604H95.4727V202.812H96.7373ZM103.177 205.738C102.985 205.706 102.778 205.69 102.555 205.69C101.725 205.69 101.162 206.044 100.866 206.75V212H99.6016V204.604H100.832L100.853 205.458C101.267 204.797 101.855 204.467 102.616 204.467C102.862 204.467 103.049 204.499 103.177 204.562V205.738ZM108.639 212C108.566 211.854 108.507 211.594 108.461 211.221C107.873 211.831 107.171 212.137 106.355 212.137C105.626 212.137 105.027 211.932 104.558 211.521C104.093 211.107 103.86 210.583 103.86 209.949C103.86 209.179 104.152 208.582 104.735 208.158C105.323 207.73 106.148 207.516 107.21 207.516H108.44V206.935C108.44 206.493 108.308 206.142 108.044 205.882C107.78 205.618 107.39 205.485 106.875 205.485C106.424 205.485 106.046 205.599 105.74 205.827C105.435 206.055 105.282 206.331 105.282 206.654H104.011C104.011 206.285 104.141 205.93 104.4 205.588C104.665 205.242 105.02 204.968 105.467 204.768C105.918 204.567 106.412 204.467 106.95 204.467C107.802 204.467 108.47 204.681 108.953 205.109C109.436 205.533 109.687 206.119 109.705 206.866V210.271C109.705 210.95 109.792 211.49 109.965 211.891V212H108.639ZM106.54 211.036C106.937 211.036 107.312 210.934 107.668 210.729C108.023 210.523 108.281 210.257 108.44 209.929V208.411H107.449C105.9 208.411 105.125 208.865 105.125 209.771C105.125 210.168 105.257 210.478 105.521 210.701C105.786 210.924 106.125 211.036 106.54 211.036ZM113.403 202.812V204.604H114.784V205.581H113.403V210.168C113.403 210.464 113.465 210.688 113.588 210.838C113.711 210.984 113.921 211.057 114.217 211.057C114.363 211.057 114.563 211.029 114.818 210.975V212C114.486 212.091 114.162 212.137 113.848 212.137C113.283 212.137 112.856 211.966 112.569 211.624C112.282 211.282 112.139 210.797 112.139 210.168V205.581H110.792V204.604H112.139V202.812H113.403ZM119.337 212.137C118.334 212.137 117.519 211.809 116.89 211.152C116.261 210.492 115.946 209.61 115.946 208.507V208.274C115.946 207.541 116.085 206.887 116.363 206.312C116.646 205.734 117.038 205.283 117.539 204.959C118.045 204.631 118.592 204.467 119.18 204.467C120.141 204.467 120.889 204.784 121.422 205.417C121.955 206.05 122.222 206.957 122.222 208.138V208.664H117.211C117.229 209.393 117.441 209.983 117.847 210.435C118.257 210.881 118.776 211.104 119.405 211.104C119.852 211.104 120.23 211.013 120.54 210.831C120.85 210.649 121.121 210.407 121.354 210.106L122.126 210.708C121.506 211.66 120.576 212.137 119.337 212.137ZM119.18 205.506C118.669 205.506 118.241 205.693 117.895 206.066C117.548 206.436 117.334 206.955 117.252 207.625H120.957V207.529C120.921 206.887 120.747 206.39 120.438 206.039C120.128 205.684 119.708 205.506 119.18 205.506ZM123.391 208.24C123.391 207.087 123.657 206.171 124.19 205.492C124.724 204.809 125.43 204.467 126.31 204.467C127.212 204.467 127.916 204.786 128.422 205.424L128.483 204.604H129.639V211.822C129.639 212.779 129.354 213.534 128.784 214.085C128.219 214.636 127.458 214.912 126.501 214.912C125.968 214.912 125.446 214.798 124.936 214.57C124.425 214.342 124.035 214.03 123.767 213.634L124.423 212.875C124.965 213.545 125.628 213.88 126.412 213.88C127.027 213.88 127.506 213.707 127.848 213.36C128.194 213.014 128.367 212.526 128.367 211.897V211.262C127.861 211.845 127.171 212.137 126.296 212.137C125.43 212.137 124.728 211.788 124.19 211.091C123.657 210.394 123.391 209.443 123.391 208.24ZM124.662 208.384C124.662 209.218 124.833 209.874 125.175 210.353C125.517 210.826 125.995 211.063 126.61 211.063C127.408 211.063 127.993 210.701 128.367 209.977V206.6C127.98 205.893 127.399 205.54 126.624 205.54C126.009 205.54 125.528 205.779 125.182 206.258C124.835 206.736 124.662 207.445 124.662 208.384ZM132.927 212H131.662V204.604H132.927V212ZM131.56 202.642C131.56 202.437 131.621 202.263 131.744 202.122C131.872 201.981 132.059 201.91 132.305 201.91C132.551 201.91 132.738 201.981 132.865 202.122C132.993 202.263 133.057 202.437 133.057 202.642C133.057 202.847 132.993 203.018 132.865 203.154C132.738 203.291 132.551 203.359 132.305 203.359C132.059 203.359 131.872 203.291 131.744 203.154C131.621 203.018 131.56 202.847 131.56 202.642ZM137.924 211.104C138.375 211.104 138.769 210.968 139.106 210.694C139.444 210.421 139.631 210.079 139.667 209.669H140.863C140.84 210.093 140.695 210.496 140.426 210.879C140.157 211.262 139.797 211.567 139.346 211.795C138.899 212.023 138.425 212.137 137.924 212.137C136.917 212.137 136.115 211.802 135.518 211.132C134.925 210.457 134.629 209.537 134.629 208.37V208.158C134.629 207.438 134.761 206.798 135.025 206.237C135.29 205.677 135.668 205.242 136.16 204.932C136.657 204.622 137.243 204.467 137.917 204.467C138.746 204.467 139.435 204.715 139.981 205.212C140.533 205.709 140.827 206.354 140.863 207.146H139.667C139.631 206.668 139.448 206.276 139.12 205.971C138.797 205.661 138.396 205.506 137.917 205.506C137.274 205.506 136.775 205.738 136.42 206.203C136.069 206.663 135.894 207.331 135.894 208.206V208.445C135.894 209.298 136.069 209.954 136.42 210.414C136.771 210.874 137.272 211.104 137.924 211.104ZM148.889 207.563C147.763 207.24 146.943 206.843 146.428 206.374C145.917 205.9 145.662 205.317 145.662 204.624C145.662 203.84 145.974 203.193 146.599 202.683C147.228 202.168 148.043 201.91 149.046 201.91C149.729 201.91 150.338 202.042 150.871 202.307C151.409 202.571 151.824 202.936 152.115 203.4C152.411 203.865 152.56 204.373 152.56 204.925H151.24C151.24 204.323 151.049 203.852 150.666 203.51C150.283 203.163 149.743 202.99 149.046 202.99C148.399 202.99 147.893 203.134 147.528 203.421C147.168 203.703 146.988 204.098 146.988 204.604C146.988 205.009 147.159 205.353 147.501 205.636C147.847 205.914 148.433 206.169 149.258 206.401C150.087 206.634 150.734 206.891 151.199 207.174C151.669 207.452 152.015 207.778 152.238 208.151C152.466 208.525 152.58 208.965 152.58 209.471C152.58 210.277 152.266 210.924 151.637 211.412C151.008 211.895 150.167 212.137 149.114 212.137C148.431 212.137 147.793 212.007 147.2 211.747C146.608 211.483 146.15 211.123 145.826 210.667C145.507 210.211 145.348 209.694 145.348 209.115H146.667C146.667 209.717 146.888 210.193 147.33 210.544C147.777 210.89 148.371 211.063 149.114 211.063C149.807 211.063 150.338 210.922 150.707 210.64C151.076 210.357 151.261 209.972 151.261 209.484C151.261 208.997 151.09 208.621 150.748 208.356C150.406 208.088 149.786 207.823 148.889 207.563ZM158.637 211.269C158.145 211.847 157.422 212.137 156.47 212.137C155.681 212.137 155.08 211.909 154.665 211.453C154.255 210.993 154.048 210.314 154.043 209.416V204.604H155.308V209.382C155.308 210.503 155.763 211.063 156.675 211.063C157.641 211.063 158.284 210.703 158.603 209.983V204.604H159.867V212H158.664L158.637 211.269ZM168.043 208.384C168.043 209.509 167.785 210.416 167.271 211.104C166.756 211.793 166.058 212.137 165.179 212.137C164.281 212.137 163.575 211.852 163.06 211.282V214.844H161.795V204.604H162.95L163.012 205.424C163.527 204.786 164.242 204.467 165.158 204.467C166.047 204.467 166.749 204.802 167.264 205.472C167.783 206.142 168.043 207.074 168.043 208.268V208.384ZM166.778 208.24C166.778 207.406 166.601 206.748 166.245 206.265C165.89 205.782 165.402 205.54 164.782 205.54C164.017 205.54 163.442 205.88 163.06 206.559V210.093C163.438 210.767 164.017 211.104 164.796 211.104C165.402 211.104 165.883 210.865 166.238 210.387C166.598 209.904 166.778 209.188 166.778 208.24ZM175.904 208.384C175.904 209.509 175.647 210.416 175.132 211.104C174.617 211.793 173.92 212.137 173.04 212.137C172.142 212.137 171.436 211.852 170.921 211.282V214.844H169.656V204.604H170.812L170.873 205.424C171.388 204.786 172.104 204.467 173.02 204.467C173.908 204.467 174.61 204.802 175.125 205.472C175.645 206.142 175.904 207.074 175.904 208.268V208.384ZM174.64 208.24C174.64 207.406 174.462 206.748 174.106 206.265C173.751 205.782 173.263 205.54 172.644 205.54C171.878 205.54 171.304 205.88 170.921 206.559V210.093C171.299 210.767 171.878 211.104 172.657 211.104C173.263 211.104 173.744 210.865 174.1 210.387C174.46 209.904 174.64 209.188 174.64 208.24ZM177.183 208.233C177.183 207.509 177.324 206.857 177.606 206.278C177.894 205.7 178.29 205.253 178.796 204.938C179.306 204.624 179.887 204.467 180.539 204.467C181.546 204.467 182.36 204.815 182.979 205.513C183.604 206.21 183.916 207.137 183.916 208.295V208.384C183.916 209.104 183.777 209.751 183.499 210.325C183.226 210.895 182.831 211.339 182.316 211.658C181.806 211.977 181.218 212.137 180.553 212.137C179.55 212.137 178.737 211.788 178.112 211.091C177.493 210.394 177.183 209.471 177.183 208.322V208.233ZM178.454 208.384C178.454 209.204 178.643 209.863 179.021 210.359C179.404 210.856 179.915 211.104 180.553 211.104C181.195 211.104 181.706 210.854 182.084 210.353C182.462 209.847 182.651 209.14 182.651 208.233C182.651 207.422 182.458 206.766 182.07 206.265C181.688 205.759 181.177 205.506 180.539 205.506C179.915 205.506 179.411 205.754 179.028 206.251C178.646 206.748 178.454 207.459 178.454 208.384ZM189.077 205.738C188.886 205.706 188.678 205.69 188.455 205.69C187.626 205.69 187.063 206.044 186.767 206.75V212H185.502V204.604H186.732L186.753 205.458C187.168 204.797 187.756 204.467 188.517 204.467C188.763 204.467 188.95 204.499 189.077 204.562V205.738ZM192.304 202.812V204.604H193.685V205.581H192.304V210.168C192.304 210.464 192.365 210.688 192.488 210.838C192.611 210.984 192.821 211.057 193.117 211.057C193.263 211.057 193.464 211.029 193.719 210.975V212C193.386 212.091 193.062 212.137 192.748 212.137C192.183 212.137 191.757 211.966 191.47 211.624C191.183 211.282 191.039 210.797 191.039 210.168V205.581H189.692V204.604H191.039V202.812H192.304Z" fill="#616263"/>
<path d="M27.647 21.7578L30.6685 29.2988L33.6899 21.7578H35.2705V31H34.0518V27.4009L34.166 23.5161L31.1318 31H30.1987L27.1709 23.5352L27.2915 27.4009V31H26.0728V21.7578H27.647ZM44.2461 29.7876C43.9329 30.2362 43.495 30.5726 42.9321 30.7969C42.3735 31.0169 41.7218 31.127 40.9771 31.127C40.2238 31.127 39.5552 30.9513 38.9712 30.6001C38.3872 30.2446 37.9344 29.741 37.6128 29.0894C37.2954 28.4377 37.1325 27.6823 37.124 26.8232V26.0171C37.124 24.6248 37.4478 23.5457 38.0952 22.7798C38.7469 22.0138 39.661 21.6309 40.8374 21.6309C41.8022 21.6309 42.5788 21.8784 43.167 22.3735C43.7552 22.8644 44.1149 23.5627 44.2461 24.4683H43.0273C42.7988 23.2453 42.071 22.6338 40.8438 22.6338C40.027 22.6338 39.4071 22.9215 38.9839 23.4971C38.5649 24.0684 38.3534 24.8978 38.3491 25.9854V26.7407C38.3491 27.7775 38.5861 28.6027 39.0601 29.2163C39.534 29.8257 40.1751 30.1304 40.9834 30.1304C41.4404 30.1304 41.8403 30.0796 42.1831 29.978C42.5259 29.8765 42.8094 29.7051 43.0337 29.4639V27.3882H40.8945V26.3979H44.2461V29.7876ZM53.3867 31H52.1616V26.728H47.5024V31H46.2837V21.7578H47.5024V25.7314H52.1616V21.7578H53.3867V31ZM56.7764 30.0034H61.1562V31H55.5513V21.7578H56.7764V30.0034ZM65.3394 28.5181C65.3394 28.0737 65.4621 27.6654 65.7075 27.293C65.9572 26.9206 66.4312 26.4868 67.1294 25.9917C66.7189 25.4924 66.4438 25.0903 66.3042 24.7856C66.1646 24.481 66.0947 24.1784 66.0947 23.8779C66.0947 23.1755 66.3021 22.6253 66.7168 22.2275C67.1315 21.8298 67.6943 21.6309 68.4053 21.6309C69.04 21.6309 69.5648 21.8171 69.9795 22.1895C70.3942 22.5576 70.6016 23.0231 70.6016 23.5859C70.6016 23.9583 70.5063 24.3032 70.3159 24.6206C70.1297 24.9338 69.8018 25.2638 69.332 25.6108L68.6528 26.1123L70.7095 28.5688C70.9972 28.0187 71.1411 27.4072 71.1411 26.7344H72.2012C72.2012 27.8135 71.9409 28.7085 71.4204 29.4194L72.7407 31H71.3315L70.7158 30.27C70.4027 30.5493 70.0345 30.763 69.6113 30.9111C69.1924 31.055 68.765 31.127 68.3291 31.127C67.4277 31.127 66.7041 30.8879 66.1582 30.4097C65.6123 29.9315 65.3394 29.3009 65.3394 28.5181ZM68.3291 30.1685C68.9512 30.1685 69.5203 29.9315 70.0366 29.4575L67.7832 26.7598L67.5737 26.9121C66.867 27.4326 66.5137 27.9679 66.5137 28.5181C66.5137 29.0174 66.6745 29.4173 66.9961 29.7178C67.3219 30.0182 67.7663 30.1685 68.3291 30.1685ZM67.269 23.8398C67.269 24.2461 67.5187 24.7539 68.0181 25.3633L68.7671 24.8364C69.0549 24.6333 69.2516 24.4408 69.3574 24.2588C69.4632 24.0726 69.5161 23.8483 69.5161 23.5859C69.5161 23.3024 69.4103 23.0675 69.1987 22.8813C68.9871 22.6909 68.7205 22.5957 68.3989 22.5957C68.0519 22.5957 67.7769 22.7142 67.5737 22.9512C67.3706 23.1839 67.269 23.4801 67.269 23.8398ZM82.3066 26.728H78.3013V30.0034H82.9541V31H77.0825V21.7578H82.8906V22.7607H78.3013V25.7314H82.3066V26.728ZM91.5742 31H90.3491L85.6963 23.8779V31H84.4712V21.7578H85.6963L90.3618 28.9116V21.7578H91.5742V31ZM99.9341 22.7607H96.9634V31H95.751V22.7607H92.7866V21.7578H99.9341V22.7607ZM104.695 27.2612H102.524V31H101.299V21.7578H104.358C105.399 21.7578 106.199 21.9948 106.758 22.4688C107.321 22.9427 107.602 23.6325 107.602 24.5381C107.602 25.1136 107.445 25.6151 107.132 26.0425C106.823 26.4699 106.392 26.7894 105.837 27.001L108.008 30.9238V31H106.701L104.695 27.2612ZM102.524 26.2646H104.396C105.002 26.2646 105.482 26.1081 105.837 25.7949C106.197 25.4818 106.377 25.0628 106.377 24.5381C106.377 23.9668 106.206 23.5288 105.863 23.2241C105.524 22.9194 105.033 22.765 104.39 22.7607H102.524V26.2646ZM114.54 26.728H110.535V30.0034H115.188V31H109.316V21.7578H115.124V22.7607H110.535V25.7314H114.54V26.728ZM117.923 27.3818V31H116.705V21.7578H120.113C121.125 21.7578 121.916 22.016 122.487 22.5322C123.063 23.0485 123.351 23.7319 123.351 24.5825C123.351 25.4797 123.069 26.1715 122.506 26.6582C121.948 27.1406 121.146 27.3818 120.101 27.3818H117.923ZM117.923 26.3853H120.113C120.765 26.3853 121.264 26.2329 121.611 25.9282C121.958 25.6193 122.132 25.175 122.132 24.5952C122.132 24.0451 121.958 23.605 121.611 23.2749C121.264 22.9448 120.788 22.7734 120.183 22.7607H117.923V26.3853ZM128.295 27.2612H126.125V31H124.899V21.7578H127.959C129 21.7578 129.8 21.9948 130.358 22.4688C130.921 22.9427 131.203 23.6325 131.203 24.5381C131.203 25.1136 131.046 25.6151 130.733 26.0425C130.424 26.4699 129.992 26.7894 129.438 27.001L131.609 30.9238V31H130.301L128.295 27.2612ZM126.125 26.2646H127.997C128.602 26.2646 129.083 26.1081 129.438 25.7949C129.798 25.4818 129.978 25.0628 129.978 24.5381C129.978 23.9668 129.806 23.5288 129.463 23.2241C129.125 22.9194 128.634 22.765 127.991 22.7607H126.125V26.2646ZM138.141 26.728H134.135V30.0034H138.788V31H132.917V21.7578H138.725V22.7607H134.135V25.7314H138.141V26.728ZM147.408 31H146.183L141.53 23.8779V31H140.305V21.7578H141.53L146.196 28.9116V21.7578H147.408V31ZM154.797 26.728H150.792V30.0034H155.444V31H149.573V21.7578H155.381V22.7607H150.792V25.7314H154.797V26.728ZM163.468 21.7578V28.042C163.464 28.9137 163.188 29.6268 162.643 30.1812C162.101 30.7355 161.365 31.0465 160.434 31.1143L160.11 31.127C159.098 31.127 158.292 30.854 157.691 30.3081C157.09 29.7622 156.786 29.0111 156.777 28.0547V21.7578H157.983V28.0166C157.983 28.6852 158.167 29.2057 158.536 29.5781C158.904 29.9463 159.429 30.1304 160.11 30.1304C160.8 30.1304 161.326 29.9463 161.69 29.5781C162.059 29.21 162.243 28.6916 162.243 28.0229V21.7578H163.468ZM168.781 27.2612H166.61V31H165.385V21.7578H168.444C169.485 21.7578 170.285 21.9948 170.844 22.4688C171.407 22.9427 171.688 23.6325 171.688 24.5381C171.688 25.1136 171.531 25.6151 171.218 26.0425C170.909 26.4699 170.478 26.7894 169.923 27.001L172.094 30.9238V31H170.787L168.781 27.2612ZM166.61 26.2646H168.482C169.088 26.2646 169.568 26.1081 169.923 25.7949C170.283 25.4818 170.463 25.0628 170.463 24.5381C170.463 23.9668 170.292 23.5288 169.949 23.2241C169.61 22.9194 169.119 22.765 168.476 22.7607H166.61V26.2646Z" fill="white"/>
</svg>
