<svg width="227" height="305" viewBox="0 0 227 305" fill="none" xmlns="http://www.w3.org/2000/svg">
<rect width="227" height="305" fill="#F9F8F8"/>
<rect width="227" height="54" fill="#3D5C98"/>
<path d="M25.5635 91H24.251V81.0469H25.5635V91ZM35.6191 91H34.2998L29.2891 83.3301V91H27.9697V81.0469H29.2891L34.3135 88.751V81.0469H35.6191V91ZM44.6221 82.127H41.4229V91H40.1172V82.127H36.9248V81.0469H44.6221V82.127ZM51.7246 86.3994H47.4111V89.9268H52.4219V91H46.0986V81.0469H52.3535V82.127H47.4111V85.3262H51.7246V86.3994ZM57.7061 86.9736H55.3682V91H54.0488V81.0469H57.3438C58.4648 81.0469 59.3262 81.3021 59.9277 81.8125C60.5339 82.3229 60.8369 83.0658 60.8369 84.041C60.8369 84.6608 60.6683 85.2008 60.3311 85.6611C59.9984 86.1214 59.5335 86.4655 58.9365 86.6934L61.2744 90.918V91H59.8662L57.7061 86.9736ZM55.3682 85.9004H57.3848C58.0365 85.9004 58.5537 85.7318 58.9365 85.3945C59.3239 85.0573 59.5176 84.6061 59.5176 84.041C59.5176 83.4258 59.333 82.9541 58.9639 82.626C58.5993 82.2979 58.0706 82.1315 57.3779 82.127H55.3682V85.9004ZM70.332 91H69.0127L64.002 83.3301V91H62.6826V81.0469H64.002L69.0264 88.751V81.0469H70.332V91ZM78.2822 88.4023H74.1123L73.1758 91H71.8223L75.623 81.0469H76.7715L80.5791 91H79.2324L78.2822 88.4023ZM74.5088 87.3223H77.8926L76.1973 82.667L74.5088 87.3223ZM83.2383 89.9268H87.9551V91H81.9189V81.0469H83.2383V89.9268ZM98.4209 88.4023H94.251L93.3145 91H91.9609L95.7617 81.0469H96.9102L100.718 91H99.3711L98.4209 88.4023ZM94.6475 87.3223H98.0312L96.3359 82.667L94.6475 87.3223ZM109.707 91H108.388L103.377 83.3301V91H102.058V81.0469H103.377L108.401 88.751V81.0469H109.707V91ZM117.657 88.4023H113.487L112.551 91H111.197L114.998 81.0469H116.146L119.954 91H118.607L117.657 88.4023ZM113.884 87.3223H117.268L115.572 82.667L113.884 87.3223ZM122.613 89.9268H127.33V91H121.294V81.0469H122.613V89.9268ZM130.235 91H128.923V81.0469H130.235V91ZM135.574 86.5635C134.449 86.2399 133.628 85.8434 133.113 85.374C132.603 84.9001 132.348 84.3167 132.348 83.624C132.348 82.8402 132.66 82.193 133.284 81.6826C133.913 81.1676 134.729 80.9102 135.731 80.9102C136.415 80.9102 137.023 81.0423 137.557 81.3066C138.094 81.571 138.509 81.9355 138.801 82.4004C139.097 82.8652 139.245 83.3734 139.245 83.9248H137.926C137.926 83.3232 137.734 82.8516 137.352 82.5098C136.969 82.1634 136.429 81.9902 135.731 81.9902C135.084 81.9902 134.578 82.1338 134.214 82.4209C133.854 82.7035 133.674 83.0977 133.674 83.6035C133.674 84.0091 133.845 84.3532 134.187 84.6357C134.533 84.9137 135.118 85.1689 135.943 85.4014C136.773 85.6338 137.42 85.8913 137.885 86.1738C138.354 86.4518 138.701 86.7777 138.924 87.1514C139.152 87.5251 139.266 87.9648 139.266 88.4707C139.266 89.2773 138.951 89.9245 138.322 90.4121C137.693 90.8952 136.853 91.1367 135.8 91.1367C135.116 91.1367 134.478 91.0068 133.886 90.7471C133.293 90.4827 132.835 90.1227 132.512 89.667C132.193 89.2113 132.033 88.694 132.033 88.1152H133.353C133.353 88.7168 133.574 89.193 134.016 89.5439C134.462 89.8903 135.057 90.0635 135.8 90.0635C136.493 90.0635 137.023 89.9222 137.393 89.6396C137.762 89.3571 137.946 88.972 137.946 88.4844C137.946 87.9967 137.775 87.6208 137.434 87.3564C137.092 87.0876 136.472 86.8232 135.574 86.5635ZM143.989 86.0439L146.587 81.0469H148.077L144.646 87.2881V91H143.333V87.2881L139.901 81.0469H141.405L143.989 86.0439ZM152.186 86.5635C151.06 86.2399 150.24 85.8434 149.725 85.374C149.214 84.9001 148.959 84.3167 148.959 83.624C148.959 82.8402 149.271 82.193 149.896 81.6826C150.524 81.1676 151.34 80.9102 152.343 80.9102C153.026 80.9102 153.635 81.0423 154.168 81.3066C154.706 81.571 155.12 81.9355 155.412 82.4004C155.708 82.8652 155.856 83.3734 155.856 83.9248H154.537C154.537 83.3232 154.346 82.8516 153.963 82.5098C153.58 82.1634 153.04 81.9902 152.343 81.9902C151.696 81.9902 151.19 82.1338 150.825 82.4209C150.465 82.7035 150.285 83.0977 150.285 83.6035C150.285 84.0091 150.456 84.3532 150.798 84.6357C151.144 84.9137 151.73 85.1689 152.555 85.4014C153.384 85.6338 154.031 85.8913 154.496 86.1738C154.965 86.4518 155.312 86.7777 155.535 87.1514C155.763 87.5251 155.877 87.9648 155.877 88.4707C155.877 89.2773 155.562 89.9245 154.934 90.4121C154.305 90.8952 153.464 91.1367 152.411 91.1367C151.728 91.1367 151.09 91.0068 150.497 90.7471C149.905 90.4827 149.447 90.1227 149.123 89.667C148.804 89.2113 148.645 88.694 148.645 88.1152H149.964C149.964 88.7168 150.185 89.193 150.627 89.5439C151.074 89.8903 151.668 90.0635 152.411 90.0635C153.104 90.0635 153.635 89.9222 154.004 89.6396C154.373 89.3571 154.558 88.972 154.558 88.4844C154.558 87.9967 154.387 87.6208 154.045 87.3564C153.703 87.0876 153.083 86.8232 152.186 86.5635ZM32.085 122.723C32.085 122.326 32.2103 122 32.4609 121.745C32.7161 121.49 33.0534 121.362 33.4727 121.362C33.8874 121.362 34.2246 121.488 34.4844 121.738C34.7441 121.984 34.874 122.319 34.874 122.743V122.996C34.874 123.393 34.7487 123.716 34.498 123.967C34.2474 124.217 33.9079 124.343 33.4795 124.343C33.0557 124.343 32.7161 124.217 32.4609 123.967C32.2103 123.712 32.085 123.383 32.085 122.982V122.723ZM46.5635 128H45.251V118.047H46.5635V128ZM49.9678 120.604L50.0088 121.533C50.5739 120.822 51.3122 120.467 52.2236 120.467C53.7868 120.467 54.5752 121.349 54.5889 123.112V128H53.3242V123.105C53.3197 122.572 53.1966 122.178 52.9551 121.923C52.7181 121.668 52.3467 121.54 51.8408 121.54C51.4307 121.54 51.0706 121.649 50.7607 121.868C50.4508 122.087 50.2093 122.374 50.0361 122.729V128H48.7715V120.604H49.9678ZM58.9365 126.284L60.7686 120.604H62.0605L59.4082 128H58.4443L55.7646 120.604H57.0566L58.9365 126.284ZM66.251 128.137C65.2484 128.137 64.4326 127.809 63.8037 127.152C63.1748 126.492 62.8604 125.61 62.8604 124.507V124.274C62.8604 123.541 62.9993 122.887 63.2773 122.312C63.5599 121.734 63.9518 121.283 64.4531 120.959C64.959 120.631 65.5059 120.467 66.0938 120.467C67.0553 120.467 67.8027 120.784 68.3359 121.417C68.8691 122.05 69.1357 122.957 69.1357 124.138V124.664H64.125C64.1432 125.393 64.3551 125.983 64.7607 126.435C65.1709 126.881 65.6904 127.104 66.3193 127.104C66.766 127.104 67.1442 127.013 67.4541 126.831C67.764 126.649 68.0352 126.407 68.2676 126.106L69.04 126.708C68.4202 127.66 67.4906 128.137 66.251 128.137ZM66.0938 121.506C65.5833 121.506 65.1549 121.693 64.8086 122.066C64.4622 122.436 64.248 122.955 64.166 123.625H67.8711V123.529C67.8346 122.887 67.6615 122.39 67.3516 122.039C67.0417 121.684 66.6224 121.506 66.0938 121.506ZM74.9121 126.038C74.9121 125.696 74.7822 125.432 74.5225 125.245C74.2673 125.054 73.8184 124.89 73.1758 124.753C72.5378 124.616 72.0296 124.452 71.6514 124.261C71.2777 124.069 70.9997 123.841 70.8174 123.577C70.6396 123.313 70.5508 122.998 70.5508 122.634C70.5508 122.028 70.806 121.515 71.3164 121.096C71.8314 120.676 72.4876 120.467 73.2852 120.467C74.1237 120.467 74.8027 120.683 75.3223 121.116C75.8464 121.549 76.1084 122.103 76.1084 122.777H74.8369C74.8369 122.431 74.6888 122.132 74.3926 121.882C74.1009 121.631 73.7318 121.506 73.2852 121.506C72.8249 121.506 72.4648 121.606 72.2051 121.807C71.9453 122.007 71.8154 122.269 71.8154 122.593C71.8154 122.898 71.9362 123.128 72.1777 123.283C72.4193 123.438 72.8545 123.586 73.4834 123.728C74.1169 123.869 74.6296 124.037 75.0215 124.233C75.4134 124.429 75.7028 124.666 75.8896 124.944C76.0811 125.218 76.1768 125.553 76.1768 125.949C76.1768 126.61 75.9124 127.141 75.3838 127.542C74.8551 127.938 74.1693 128.137 73.3262 128.137C72.7337 128.137 72.2096 128.032 71.7539 127.822C71.2982 127.613 70.9404 127.321 70.6807 126.947C70.4255 126.569 70.2979 126.161 70.2979 125.724H71.5625C71.5853 126.147 71.7539 126.485 72.0684 126.735C72.3874 126.981 72.8066 127.104 73.3262 127.104C73.8047 127.104 74.1875 127.009 74.4746 126.817C74.7663 126.621 74.9121 126.362 74.9121 126.038ZM79.54 118.812V120.604H80.9209V121.581H79.54V126.168C79.54 126.464 79.6016 126.688 79.7246 126.838C79.8477 126.984 80.0573 127.057 80.3535 127.057C80.4993 127.057 80.6999 127.029 80.9551 126.975V128C80.6224 128.091 80.2988 128.137 79.9844 128.137C79.4193 128.137 78.9932 127.966 78.7061 127.624C78.4189 127.282 78.2754 126.797 78.2754 126.168V121.581H76.9287V120.604H78.2754V118.812H79.54ZM83.5938 120.604L83.6279 121.424C84.1702 120.786 84.9017 120.467 85.8223 120.467C86.8568 120.467 87.5609 120.863 87.9346 121.656C88.1807 121.301 88.4997 121.014 88.8916 120.795C89.2881 120.576 89.7552 120.467 90.293 120.467C91.9154 120.467 92.7402 121.326 92.7676 123.044V128H91.5029V123.119C91.5029 122.59 91.3822 122.196 91.1406 121.937C90.8991 121.672 90.4935 121.54 89.9238 121.54C89.4544 121.54 89.0648 121.681 88.7549 121.964C88.445 122.242 88.265 122.618 88.2148 123.092V128H86.9434V123.153C86.9434 122.078 86.417 121.54 85.3643 121.54C84.5348 121.54 83.9674 121.893 83.6621 122.6V128H82.3975V120.604H83.5938ZM97.751 128.137C96.7484 128.137 95.9326 127.809 95.3037 127.152C94.6748 126.492 94.3604 125.61 94.3604 124.507V124.274C94.3604 123.541 94.4993 122.887 94.7773 122.312C95.0599 121.734 95.4518 121.283 95.9531 120.959C96.459 120.631 97.0059 120.467 97.5938 120.467C98.5553 120.467 99.3027 120.784 99.8359 121.417C100.369 122.05 100.636 122.957 100.636 124.138V124.664H95.625C95.6432 125.393 95.8551 125.983 96.2607 126.435C96.6709 126.881 97.1904 127.104 97.8193 127.104C98.266 127.104 98.6442 127.013 98.9541 126.831C99.264 126.649 99.5352 126.407 99.7676 126.106L100.54 126.708C99.9202 127.66 98.9906 128.137 97.751 128.137ZM97.5938 121.506C97.0833 121.506 96.6549 121.693 96.3086 122.066C95.9622 122.436 95.748 122.955 95.666 123.625H99.3711V123.529C99.3346 122.887 99.1615 122.39 98.8516 122.039C98.5417 121.684 98.1224 121.506 97.5938 121.506ZM103.302 120.604L103.343 121.533C103.908 120.822 104.646 120.467 105.558 120.467C107.121 120.467 107.909 121.349 107.923 123.112V128H106.658V123.105C106.654 122.572 106.531 122.178 106.289 121.923C106.052 121.668 105.681 121.54 105.175 121.54C104.765 121.54 104.405 121.649 104.095 121.868C103.785 122.087 103.543 122.374 103.37 122.729V128H102.105V120.604H103.302ZM111.546 118.812V120.604H112.927V121.581H111.546V126.168C111.546 126.464 111.607 126.688 111.73 126.838C111.854 126.984 112.063 127.057 112.359 127.057C112.505 127.057 112.706 127.029 112.961 126.975V128C112.628 128.091 112.305 128.137 111.99 128.137C111.425 128.137 110.999 127.966 110.712 127.624C110.425 127.282 110.281 126.797 110.281 126.168V121.581H108.935V120.604H110.281V118.812H111.546ZM125.402 124.842C125.279 125.895 124.89 126.708 124.233 127.282C123.582 127.852 122.714 128.137 121.629 128.137C120.453 128.137 119.51 127.715 118.799 126.872C118.092 126.029 117.739 124.901 117.739 123.488V122.531C117.739 121.606 117.903 120.793 118.231 120.091C118.564 119.389 119.034 118.851 119.64 118.478C120.246 118.099 120.948 117.91 121.745 117.91C122.802 117.91 123.65 118.206 124.288 118.799C124.926 119.387 125.298 120.202 125.402 121.246H124.083C123.969 120.453 123.721 119.879 123.338 119.523C122.96 119.168 122.429 118.99 121.745 118.99C120.907 118.99 120.248 119.3 119.77 119.92C119.296 120.54 119.059 121.422 119.059 122.565V123.529C119.059 124.609 119.284 125.468 119.735 126.106C120.187 126.744 120.818 127.063 121.629 127.063C122.358 127.063 122.916 126.899 123.304 126.571C123.696 126.239 123.955 125.662 124.083 124.842H125.402ZM126.667 124.233C126.667 123.509 126.808 122.857 127.091 122.278C127.378 121.7 127.774 121.253 128.28 120.938C128.791 120.624 129.372 120.467 130.023 120.467C131.031 120.467 131.844 120.815 132.464 121.513C133.088 122.21 133.4 123.137 133.4 124.295V124.384C133.4 125.104 133.261 125.751 132.983 126.325C132.71 126.895 132.316 127.339 131.801 127.658C131.29 127.977 130.702 128.137 130.037 128.137C129.035 128.137 128.221 127.788 127.597 127.091C126.977 126.394 126.667 125.471 126.667 124.322V124.233ZM127.938 124.384C127.938 125.204 128.128 125.863 128.506 126.359C128.889 126.856 129.399 127.104 130.037 127.104C130.68 127.104 131.19 126.854 131.568 126.353C131.947 125.847 132.136 125.14 132.136 124.233C132.136 123.422 131.942 122.766 131.555 122.265C131.172 121.759 130.661 121.506 130.023 121.506C129.399 121.506 128.896 121.754 128.513 122.251C128.13 122.748 127.938 123.459 127.938 124.384ZM136.176 120.604L136.21 121.424C136.752 120.786 137.484 120.467 138.404 120.467C139.439 120.467 140.143 120.863 140.517 121.656C140.763 121.301 141.082 121.014 141.474 120.795C141.87 120.576 142.337 120.467 142.875 120.467C144.497 120.467 145.322 121.326 145.35 123.044V128H144.085V123.119C144.085 122.59 143.964 122.196 143.723 121.937C143.481 121.672 143.076 121.54 142.506 121.54C142.036 121.54 141.647 121.681 141.337 121.964C141.027 122.242 140.847 122.618 140.797 123.092V128H139.525V123.153C139.525 122.078 138.999 121.54 137.946 121.54C137.117 121.54 136.549 121.893 136.244 122.6V128H134.979V120.604H136.176ZM148.453 120.604L148.487 121.424C149.03 120.786 149.761 120.467 150.682 120.467C151.716 120.467 152.42 120.863 152.794 121.656C153.04 121.301 153.359 121.014 153.751 120.795C154.147 120.576 154.615 120.467 155.152 120.467C156.775 120.467 157.6 121.326 157.627 123.044V128H156.362V123.119C156.362 122.59 156.242 122.196 156 121.937C155.758 121.672 155.353 121.54 154.783 121.54C154.314 121.54 153.924 121.681 153.614 121.964C153.304 122.242 153.124 122.618 153.074 123.092V128H151.803V123.153C151.803 122.078 151.276 121.54 150.224 121.54C149.394 121.54 148.827 121.893 148.521 122.6V128H147.257V120.604H148.453ZM160.915 128H159.65V120.604H160.915V128ZM159.548 118.642C159.548 118.437 159.609 118.263 159.732 118.122C159.86 117.981 160.047 117.91 160.293 117.91C160.539 117.91 160.726 117.981 160.854 118.122C160.981 118.263 161.045 118.437 161.045 118.642C161.045 118.847 160.981 119.018 160.854 119.154C160.726 119.291 160.539 119.359 160.293 119.359C160.047 119.359 159.86 119.291 159.732 119.154C159.609 119.018 159.548 118.847 159.548 118.642ZM164.661 118.812V120.604H166.042V121.581H164.661V126.168C164.661 126.464 164.723 126.688 164.846 126.838C164.969 126.984 165.178 127.057 165.475 127.057C165.62 127.057 165.821 127.029 166.076 126.975V128C165.743 128.091 165.42 128.137 165.105 128.137C164.54 128.137 164.114 127.966 163.827 127.624C163.54 127.282 163.396 126.797 163.396 126.168V121.581H162.05V120.604H163.396V118.812H164.661ZM169.241 118.812V120.604H170.622V121.581H169.241V126.168C169.241 126.464 169.303 126.688 169.426 126.838C169.549 126.984 169.758 127.057 170.055 127.057C170.201 127.057 170.401 127.029 170.656 126.975V128C170.324 128.091 170 128.137 169.686 128.137C169.12 128.137 168.694 127.966 168.407 127.624C168.12 127.282 167.977 126.797 167.977 126.168V121.581H166.63V120.604H167.977V118.812H169.241ZM175.175 128.137C174.172 128.137 173.356 127.809 172.728 127.152C172.099 126.492 171.784 125.61 171.784 124.507V124.274C171.784 123.541 171.923 122.887 172.201 122.312C172.484 121.734 172.876 121.283 173.377 120.959C173.883 120.631 174.43 120.467 175.018 120.467C175.979 120.467 176.727 120.784 177.26 121.417C177.793 122.05 178.06 122.957 178.06 124.138V124.664H173.049C173.067 125.393 173.279 125.983 173.685 126.435C174.095 126.881 174.614 127.104 175.243 127.104C175.69 127.104 176.068 127.013 176.378 126.831C176.688 126.649 176.959 126.407 177.191 126.106L177.964 126.708C177.344 127.66 176.414 128.137 175.175 128.137ZM175.018 121.506C174.507 121.506 174.079 121.693 173.732 122.066C173.386 122.436 173.172 122.955 173.09 123.625H176.795V123.529C176.758 122.887 176.585 122.39 176.275 122.039C175.965 121.684 175.546 121.506 175.018 121.506ZM182.599 128.137C181.596 128.137 180.78 127.809 180.151 127.152C179.522 126.492 179.208 125.61 179.208 124.507V124.274C179.208 123.541 179.347 122.887 179.625 122.312C179.908 121.734 180.299 121.283 180.801 120.959C181.307 120.631 181.854 120.467 182.441 120.467C183.403 120.467 184.15 120.784 184.684 121.417C185.217 122.05 185.483 122.957 185.483 124.138V124.664H180.473C180.491 125.393 180.703 125.983 181.108 126.435C181.519 126.881 182.038 127.104 182.667 127.104C183.114 127.104 183.492 127.013 183.802 126.831C184.112 126.649 184.383 126.407 184.615 126.106L185.388 126.708C184.768 127.66 183.838 128.137 182.599 128.137ZM182.441 121.506C181.931 121.506 181.503 121.693 181.156 122.066C180.81 122.436 180.596 122.955 180.514 123.625H184.219V123.529C184.182 122.887 184.009 122.39 183.699 122.039C183.389 121.684 182.97 121.506 182.441 121.506ZM50.6514 146.402H46.4814L45.5449 149H44.1914L47.9922 139.047H49.1406L52.9482 149H51.6016L50.6514 146.402ZM46.8779 145.322H50.2617L48.5664 140.667L46.8779 145.322ZM55.2861 141.604L55.3271 142.533C55.8923 141.822 56.6305 141.467 57.542 141.467C59.1051 141.467 59.8936 142.349 59.9072 144.112V149H58.6426V144.105C58.638 143.572 58.515 143.178 58.2734 142.923C58.0365 142.668 57.665 142.54 57.1592 142.54C56.749 142.54 56.389 142.649 56.0791 142.868C55.7692 143.087 55.5277 143.374 55.3545 143.729V149H54.0898V141.604H55.2861ZM66.3809 149C66.3079 148.854 66.2487 148.594 66.2031 148.221C65.6152 148.831 64.9134 149.137 64.0977 149.137C63.3685 149.137 62.7692 148.932 62.2998 148.521C61.835 148.107 61.6025 147.583 61.6025 146.949C61.6025 146.179 61.8942 145.582 62.4775 145.158C63.0654 144.73 63.8903 144.516 64.9521 144.516H66.1826V143.935C66.1826 143.493 66.0505 143.142 65.7861 142.882C65.5218 142.618 65.1322 142.485 64.6172 142.485C64.166 142.485 63.7878 142.599 63.4824 142.827C63.1771 143.055 63.0244 143.331 63.0244 143.654H61.7529C61.7529 143.285 61.8828 142.93 62.1426 142.588C62.4069 142.242 62.7624 141.968 63.209 141.768C63.6602 141.567 64.1546 141.467 64.6924 141.467C65.5446 141.467 66.2122 141.681 66.6953 142.109C67.1784 142.533 67.429 143.119 67.4473 143.866V147.271C67.4473 147.95 67.5339 148.49 67.707 148.891V149H66.3809ZM64.2822 148.036C64.6787 148.036 65.0547 147.934 65.4102 147.729C65.7656 147.523 66.0231 147.257 66.1826 146.929V145.411H65.1914C63.6419 145.411 62.8672 145.865 62.8672 146.771C62.8672 147.168 62.9993 147.478 63.2637 147.701C63.528 147.924 63.8675 148.036 64.2822 148.036ZM70.8037 149H69.5391V138.5H70.8037V149ZM75.2539 147.147L76.9766 141.604H78.3301L75.3564 150.142C74.8962 151.372 74.1647 151.987 73.1621 151.987L72.9229 151.967L72.4512 151.878V150.853L72.793 150.88C73.2214 150.88 73.554 150.793 73.791 150.62C74.0326 150.447 74.2308 150.13 74.3857 149.67L74.666 148.918L72.0273 141.604H73.4082L75.2539 147.147ZM83.7715 147.038C83.7715 146.696 83.6416 146.432 83.3818 146.245C83.1266 146.054 82.6777 145.89 82.0352 145.753C81.3971 145.616 80.889 145.452 80.5107 145.261C80.137 145.069 79.859 144.841 79.6768 144.577C79.499 144.313 79.4102 143.998 79.4102 143.634C79.4102 143.028 79.6654 142.515 80.1758 142.096C80.6908 141.676 81.347 141.467 82.1445 141.467C82.9831 141.467 83.6621 141.683 84.1816 142.116C84.7057 142.549 84.9678 143.103 84.9678 143.777H83.6963C83.6963 143.431 83.5482 143.132 83.252 142.882C82.9603 142.631 82.5911 142.506 82.1445 142.506C81.6842 142.506 81.3242 142.606 81.0645 142.807C80.8047 143.007 80.6748 143.269 80.6748 143.593C80.6748 143.898 80.7956 144.128 81.0371 144.283C81.2786 144.438 81.7139 144.586 82.3428 144.728C82.9762 144.869 83.4889 145.037 83.8809 145.233C84.2728 145.429 84.5622 145.666 84.749 145.944C84.9404 146.218 85.0361 146.553 85.0361 146.949C85.0361 147.61 84.7718 148.141 84.2432 148.542C83.7145 148.938 83.0286 149.137 82.1855 149.137C81.5931 149.137 81.069 149.032 80.6133 148.822C80.1576 148.613 79.7998 148.321 79.54 147.947C79.2848 147.569 79.1572 147.161 79.1572 146.724H80.4219C80.4447 147.147 80.6133 147.485 80.9277 147.735C81.2467 147.981 81.666 148.104 82.1855 148.104C82.6641 148.104 83.0469 148.009 83.334 147.817C83.6257 147.621 83.7715 147.362 83.7715 147.038ZM88.0576 149H86.793V141.604H88.0576V149ZM86.6904 139.642C86.6904 139.437 86.752 139.263 86.875 139.122C87.0026 138.981 87.1895 138.91 87.4355 138.91C87.6816 138.91 87.8685 138.981 87.9961 139.122C88.1237 139.263 88.1875 139.437 88.1875 139.642C88.1875 139.847 88.1237 140.018 87.9961 140.154C87.8685 140.291 87.6816 140.359 87.4355 140.359C87.1895 140.359 87.0026 140.291 86.875 140.154C86.752 140.018 86.6904 139.847 86.6904 139.642ZM94.3945 147.038C94.3945 146.696 94.2646 146.432 94.0049 146.245C93.7497 146.054 93.3008 145.89 92.6582 145.753C92.0202 145.616 91.512 145.452 91.1338 145.261C90.7601 145.069 90.4821 144.841 90.2998 144.577C90.1221 144.313 90.0332 143.998 90.0332 143.634C90.0332 143.028 90.2884 142.515 90.7988 142.096C91.3138 141.676 91.9701 141.467 92.7676 141.467C93.6061 141.467 94.2852 141.683 94.8047 142.116C95.3288 142.549 95.5908 143.103 95.5908 143.777H94.3193C94.3193 143.431 94.1712 143.132 93.875 142.882C93.5833 142.631 93.2142 142.506 92.7676 142.506C92.3073 142.506 91.9473 142.606 91.6875 142.807C91.4277 143.007 91.2979 143.269 91.2979 143.593C91.2979 143.898 91.4186 144.128 91.6602 144.283C91.9017 144.438 92.3369 144.586 92.9658 144.728C93.5993 144.869 94.112 145.037 94.5039 145.233C94.8958 145.429 95.1852 145.666 95.3721 145.944C95.5635 146.218 95.6592 146.553 95.6592 146.949C95.6592 147.61 95.3949 148.141 94.8662 148.542C94.3376 148.938 93.6517 149.137 92.8086 149.137C92.2161 149.137 91.6921 149.032 91.2363 148.822C90.7806 148.613 90.4229 148.321 90.1631 147.947C89.9079 147.569 89.7803 147.161 89.7803 146.724H91.0449C91.0677 147.147 91.2363 147.485 91.5508 147.735C91.8698 147.981 92.2891 148.104 92.8086 148.104C93.2871 148.104 93.6699 148.009 93.957 147.817C94.2487 147.621 94.3945 147.362 94.3945 147.038ZM32.085 164.723C32.085 164.326 32.2103 164 32.4609 163.745C32.7161 163.49 33.0534 163.362 33.4727 163.362C33.8874 163.362 34.2246 163.488 34.4844 163.738C34.7441 163.984 34.874 164.319 34.874 164.743V164.996C34.874 165.393 34.7487 165.716 34.498 165.967C34.2474 166.217 33.9079 166.343 33.4795 166.343C33.0557 166.343 32.7161 166.217 32.4609 165.967C32.2103 165.712 32.085 165.383 32.085 164.982V164.723ZM48.8057 165.974H46.4678V170H45.1484V160.047H48.4434C49.5645 160.047 50.4258 160.302 51.0273 160.812C51.6335 161.323 51.9365 162.066 51.9365 163.041C51.9365 163.661 51.7679 164.201 51.4307 164.661C51.098 165.121 50.6331 165.465 50.0361 165.693L52.374 169.918V170H50.9658L48.8057 165.974ZM46.4678 164.9H48.4844C49.1361 164.9 49.6533 164.732 50.0361 164.395C50.4235 164.057 50.6172 163.606 50.6172 163.041C50.6172 162.426 50.4326 161.954 50.0635 161.626C49.6989 161.298 49.1702 161.132 48.4775 161.127H46.4678V164.9ZM54.958 170H53.6934V162.604H54.958V170ZM53.5908 160.642C53.5908 160.437 53.6523 160.263 53.7754 160.122C53.903 159.981 54.0898 159.91 54.3359 159.91C54.582 159.91 54.7689 159.981 54.8965 160.122C55.0241 160.263 55.0879 160.437 55.0879 160.642C55.0879 160.847 55.0241 161.018 54.8965 161.154C54.7689 161.291 54.582 161.359 54.3359 161.359C54.0898 161.359 53.903 161.291 53.7754 161.154C53.6523 161.018 53.5908 160.847 53.5908 160.642ZM61.2949 168.038C61.2949 167.696 61.165 167.432 60.9053 167.245C60.6501 167.054 60.2012 166.89 59.5586 166.753C58.9206 166.616 58.4124 166.452 58.0342 166.261C57.6605 166.069 57.3825 165.841 57.2002 165.577C57.0225 165.313 56.9336 164.998 56.9336 164.634C56.9336 164.028 57.1888 163.515 57.6992 163.096C58.2142 162.676 58.8704 162.467 59.668 162.467C60.5065 162.467 61.1855 162.683 61.7051 163.116C62.2292 163.549 62.4912 164.103 62.4912 164.777H61.2197C61.2197 164.431 61.0716 164.132 60.7754 163.882C60.4837 163.631 60.1146 163.506 59.668 163.506C59.2077 163.506 58.8477 163.606 58.5879 163.807C58.3281 164.007 58.1982 164.269 58.1982 164.593C58.1982 164.898 58.319 165.128 58.5605 165.283C58.8021 165.438 59.2373 165.586 59.8662 165.728C60.4997 165.869 61.0124 166.037 61.4043 166.233C61.7962 166.429 62.0856 166.666 62.2725 166.944C62.4639 167.218 62.5596 167.553 62.5596 167.949C62.5596 168.61 62.2952 169.141 61.7666 169.542C61.238 169.938 60.5521 170.137 59.709 170.137C59.1165 170.137 58.5924 170.032 58.1367 169.822C57.681 169.613 57.3232 169.321 57.0635 168.947C56.8083 168.569 56.6807 168.161 56.6807 167.724H57.9453C57.9681 168.147 58.1367 168.485 58.4512 168.735C58.7702 168.981 59.1895 169.104 59.709 169.104C60.1875 169.104 60.5703 169.009 60.8574 168.817C61.1491 168.621 61.2949 168.362 61.2949 168.038ZM66.2715 166.575L65.4785 167.402V170H64.2139V159.5H65.4785V165.851L66.1553 165.037L68.459 162.604H69.9971L67.1191 165.693L70.332 170H68.8486L66.2715 166.575ZM82.2949 166.842C82.1719 167.895 81.7822 168.708 81.126 169.282C80.4743 169.852 79.6061 170.137 78.5215 170.137C77.3457 170.137 76.4023 169.715 75.6914 168.872C74.985 168.029 74.6318 166.901 74.6318 165.488V164.531C74.6318 163.606 74.7959 162.793 75.124 162.091C75.4567 161.389 75.9261 160.851 76.5322 160.478C77.1383 160.099 77.8402 159.91 78.6377 159.91C79.695 159.91 80.5426 160.206 81.1807 160.799C81.8187 161.387 82.1901 162.202 82.2949 163.246H80.9756C80.8617 162.453 80.6133 161.879 80.2305 161.523C79.8522 161.168 79.3213 160.99 78.6377 160.99C77.7992 160.99 77.1406 161.3 76.6621 161.92C76.1882 162.54 75.9512 163.422 75.9512 164.565V165.529C75.9512 166.609 76.1768 167.468 76.6279 168.106C77.0791 168.744 77.7103 169.063 78.5215 169.063C79.2507 169.063 79.8089 168.899 80.1963 168.571C80.5882 168.239 80.848 167.662 80.9756 166.842H82.2949ZM83.5596 166.233C83.5596 165.509 83.7008 164.857 83.9834 164.278C84.2705 163.7 84.667 163.253 85.1729 162.938C85.6833 162.624 86.2643 162.467 86.916 162.467C87.9232 162.467 88.7367 162.815 89.3564 163.513C89.9808 164.21 90.293 165.137 90.293 166.295V166.384C90.293 167.104 90.154 167.751 89.876 168.325C89.6025 168.895 89.2083 169.339 88.6934 169.658C88.1829 169.977 87.5951 170.137 86.9297 170.137C85.9271 170.137 85.1136 169.788 84.4893 169.091C83.8695 168.394 83.5596 167.471 83.5596 166.322V166.233ZM84.8311 166.384C84.8311 167.204 85.0202 167.863 85.3984 168.359C85.7812 168.856 86.2917 169.104 86.9297 169.104C87.5723 169.104 88.0827 168.854 88.4609 168.353C88.8392 167.847 89.0283 167.14 89.0283 166.233C89.0283 165.422 88.8346 164.766 88.4473 164.265C88.0645 163.759 87.554 163.506 86.916 163.506C86.2917 163.506 85.7881 163.754 85.4053 164.251C85.0225 164.748 84.8311 165.459 84.8311 166.384ZM93.0684 162.604L93.1025 163.424C93.6449 162.786 94.3763 162.467 95.2969 162.467C96.3314 162.467 97.0355 162.863 97.4092 163.656C97.6553 163.301 97.9743 163.014 98.3662 162.795C98.7627 162.576 99.2298 162.467 99.7676 162.467C101.39 162.467 102.215 163.326 102.242 165.044V170H100.978V165.119C100.978 164.59 100.857 164.196 100.615 163.937C100.374 163.672 99.9681 163.54 99.3984 163.54C98.929 163.54 98.5394 163.681 98.2295 163.964C97.9196 164.242 97.7396 164.618 97.6895 165.092V170H96.418V165.153C96.418 164.078 95.8916 163.54 94.8389 163.54C94.0094 163.54 93.4421 163.893 93.1367 164.6V170H91.8721V162.604H93.0684ZM105.346 162.604L105.38 163.424C105.922 162.786 106.654 162.467 107.574 162.467C108.609 162.467 109.313 162.863 109.687 163.656C109.933 163.301 110.252 163.014 110.644 162.795C111.04 162.576 111.507 162.467 112.045 162.467C113.667 162.467 114.492 163.326 114.52 165.044V170H113.255V165.119C113.255 164.59 113.134 164.196 112.893 163.937C112.651 163.672 112.245 163.54 111.676 163.54C111.206 163.54 110.817 163.681 110.507 163.964C110.197 164.242 110.017 164.618 109.967 165.092V170H108.695V165.153C108.695 164.078 108.169 163.54 107.116 163.54C106.287 163.54 105.719 163.893 105.414 164.6V170H104.149V162.604H105.346ZM117.808 170H116.543V162.604H117.808V170ZM116.44 160.642C116.44 160.437 116.502 160.263 116.625 160.122C116.753 159.981 116.939 159.91 117.186 159.91C117.432 159.91 117.618 159.981 117.746 160.122C117.874 160.263 117.938 160.437 117.938 160.642C117.938 160.847 117.874 161.018 117.746 161.154C117.618 161.291 117.432 161.359 117.186 161.359C116.939 161.359 116.753 161.291 116.625 161.154C116.502 161.018 116.44 160.847 116.44 160.642ZM121.554 160.812V162.604H122.935V163.581H121.554V168.168C121.554 168.464 121.615 168.688 121.738 168.838C121.861 168.984 122.071 169.057 122.367 169.057C122.513 169.057 122.714 169.029 122.969 168.975V170C122.636 170.091 122.312 170.137 121.998 170.137C121.433 170.137 121.007 169.966 120.72 169.624C120.433 169.282 120.289 168.797 120.289 168.168V163.581H118.942V162.604H120.289V160.812H121.554ZM126.134 160.812V162.604H127.515V163.581H126.134V168.168C126.134 168.464 126.195 168.688 126.318 168.838C126.441 168.984 126.651 169.057 126.947 169.057C127.093 169.057 127.294 169.029 127.549 168.975V170C127.216 170.091 126.893 170.137 126.578 170.137C126.013 170.137 125.587 169.966 125.3 169.624C125.013 169.282 124.869 168.797 124.869 168.168V163.581H123.522V162.604H124.869V160.812H126.134ZM132.067 170.137C131.065 170.137 130.249 169.809 129.62 169.152C128.991 168.492 128.677 167.61 128.677 166.507V166.274C128.677 165.541 128.816 164.887 129.094 164.312C129.376 163.734 129.768 163.283 130.27 162.959C130.775 162.631 131.322 162.467 131.91 162.467C132.872 162.467 133.619 162.784 134.152 163.417C134.686 164.05 134.952 164.957 134.952 166.138V166.664H129.941C129.96 167.393 130.172 167.983 130.577 168.435C130.987 168.881 131.507 169.104 132.136 169.104C132.582 169.104 132.961 169.013 133.271 168.831C133.58 168.649 133.852 168.407 134.084 168.106L134.856 168.708C134.237 169.66 133.307 170.137 132.067 170.137ZM131.91 163.506C131.4 163.506 130.971 163.693 130.625 164.066C130.279 164.436 130.064 164.955 129.982 165.625H133.688V165.529C133.651 164.887 133.478 164.39 133.168 164.039C132.858 163.684 132.439 163.506 131.91 163.506ZM139.491 170.137C138.489 170.137 137.673 169.809 137.044 169.152C136.415 168.492 136.101 167.61 136.101 166.507V166.274C136.101 165.541 136.24 164.887 136.518 164.312C136.8 163.734 137.192 163.283 137.693 162.959C138.199 162.631 138.746 162.467 139.334 162.467C140.296 162.467 141.043 162.784 141.576 163.417C142.109 164.05 142.376 164.957 142.376 166.138V166.664H137.365C137.383 167.393 137.595 167.983 138.001 168.435C138.411 168.881 138.931 169.104 139.56 169.104C140.006 169.104 140.384 169.013 140.694 168.831C141.004 168.649 141.275 168.407 141.508 168.106L142.28 168.708C141.66 169.66 140.731 170.137 139.491 170.137ZM139.334 163.506C138.824 163.506 138.395 163.693 138.049 164.066C137.702 164.436 137.488 164.955 137.406 165.625H141.111V165.529C141.075 164.887 140.902 164.39 140.592 164.039C140.282 163.684 139.863 163.506 139.334 163.506ZM153.013 167.402H148.843L147.906 170H146.553L150.354 160.047H151.502L155.31 170H153.963L153.013 167.402ZM149.239 166.322H152.623L150.928 161.667L149.239 166.322ZM157.647 162.604L157.688 163.533C158.254 162.822 158.992 162.467 159.903 162.467C161.466 162.467 162.255 163.349 162.269 165.112V170H161.004V165.105C160.999 164.572 160.876 164.178 160.635 163.923C160.398 163.668 160.026 163.54 159.521 163.54C159.11 163.54 158.75 163.649 158.44 163.868C158.131 164.087 157.889 164.374 157.716 164.729V170H156.451V162.604H157.647ZM168.742 170C168.669 169.854 168.61 169.594 168.564 169.221C167.977 169.831 167.275 170.137 166.459 170.137C165.73 170.137 165.131 169.932 164.661 169.521C164.196 169.107 163.964 168.583 163.964 167.949C163.964 167.179 164.256 166.582 164.839 166.158C165.427 165.73 166.252 165.516 167.313 165.516H168.544V164.935C168.544 164.493 168.412 164.142 168.147 163.882C167.883 163.618 167.493 163.485 166.979 163.485C166.527 163.485 166.149 163.599 165.844 163.827C165.538 164.055 165.386 164.331 165.386 164.654H164.114C164.114 164.285 164.244 163.93 164.504 163.588C164.768 163.242 165.124 162.968 165.57 162.768C166.021 162.567 166.516 162.467 167.054 162.467C167.906 162.467 168.574 162.681 169.057 163.109C169.54 163.533 169.79 164.119 169.809 164.866V168.271C169.809 168.95 169.895 169.49 170.068 169.891V170H168.742ZM166.644 169.036C167.04 169.036 167.416 168.934 167.771 168.729C168.127 168.523 168.384 168.257 168.544 167.929V166.411H167.553C166.003 166.411 165.229 166.865 165.229 167.771C165.229 168.168 165.361 168.478 165.625 168.701C165.889 168.924 166.229 169.036 166.644 169.036ZM173.165 170H171.9V159.5H173.165V170ZM176.569 170H175.305V162.604H176.569V170ZM175.202 160.642C175.202 160.437 175.264 160.263 175.387 160.122C175.514 159.981 175.701 159.91 175.947 159.91C176.193 159.91 176.38 159.981 176.508 160.122C176.635 160.263 176.699 160.437 176.699 160.642C176.699 160.847 176.635 161.018 176.508 161.154C176.38 161.291 176.193 161.359 175.947 161.359C175.701 161.359 175.514 161.291 175.387 161.154C175.264 161.018 175.202 160.847 175.202 160.642ZM182.906 168.038C182.906 167.696 182.776 167.432 182.517 167.245C182.261 167.054 181.812 166.89 181.17 166.753C180.532 166.616 180.024 166.452 179.646 166.261C179.272 166.069 178.994 165.841 178.812 165.577C178.634 165.313 178.545 164.998 178.545 164.634C178.545 164.028 178.8 163.515 179.311 163.096C179.826 162.676 180.482 162.467 181.279 162.467C182.118 162.467 182.797 162.683 183.316 163.116C183.84 163.549 184.103 164.103 184.103 164.777H182.831C182.831 164.431 182.683 164.132 182.387 163.882C182.095 163.631 181.726 163.506 181.279 163.506C180.819 163.506 180.459 163.606 180.199 163.807C179.939 164.007 179.81 164.269 179.81 164.593C179.81 164.898 179.93 165.128 180.172 165.283C180.413 165.438 180.849 165.586 181.478 165.728C182.111 165.869 182.624 166.037 183.016 166.233C183.408 166.429 183.697 166.666 183.884 166.944C184.075 167.218 184.171 167.553 184.171 167.949C184.171 168.61 183.907 169.141 183.378 169.542C182.849 169.938 182.163 170.137 181.32 170.137C180.728 170.137 180.204 170.032 179.748 169.822C179.292 169.613 178.935 169.321 178.675 168.947C178.42 168.569 178.292 168.161 178.292 167.724H179.557C179.579 168.147 179.748 168.485 180.062 168.735C180.382 168.981 180.801 169.104 181.32 169.104C181.799 169.104 182.182 169.009 182.469 168.817C182.76 168.621 182.906 168.362 182.906 168.038ZM188.238 168.147L189.961 162.604H191.314L188.341 171.142C187.881 172.372 187.149 172.987 186.146 172.987L185.907 172.967L185.436 172.878V171.853L185.777 171.88C186.206 171.88 186.538 171.793 186.775 171.62C187.017 171.447 187.215 171.13 187.37 170.67L187.65 169.918L185.012 162.604H186.393L188.238 168.147ZM196.756 168.038C196.756 167.696 196.626 167.432 196.366 167.245C196.111 167.054 195.662 166.89 195.02 166.753C194.382 166.616 193.873 166.452 193.495 166.261C193.121 166.069 192.843 165.841 192.661 165.577C192.483 165.313 192.395 164.998 192.395 164.634C192.395 164.028 192.65 163.515 193.16 163.096C193.675 162.676 194.331 162.467 195.129 162.467C195.967 162.467 196.646 162.683 197.166 163.116C197.69 163.549 197.952 164.103 197.952 164.777H196.681C196.681 164.431 196.533 164.132 196.236 163.882C195.945 163.631 195.576 163.506 195.129 163.506C194.669 163.506 194.309 163.606 194.049 163.807C193.789 164.007 193.659 164.269 193.659 164.593C193.659 164.898 193.78 165.128 194.021 165.283C194.263 165.438 194.698 165.586 195.327 165.728C195.961 165.869 196.473 166.037 196.865 166.233C197.257 166.429 197.547 166.666 197.733 166.944C197.925 167.218 198.021 167.553 198.021 167.949C198.021 168.61 197.756 169.141 197.228 169.542C196.699 169.938 196.013 170.137 195.17 170.137C194.577 170.137 194.053 170.032 193.598 169.822C193.142 169.613 192.784 169.321 192.524 168.947C192.269 168.569 192.142 168.161 192.142 167.724H193.406C193.429 168.147 193.598 168.485 193.912 168.735C194.231 168.981 194.65 169.104 195.17 169.104C195.648 169.104 196.031 169.009 196.318 168.817C196.61 168.621 196.756 168.362 196.756 168.038ZM32.085 185.723C32.085 185.326 32.2103 185 32.4609 184.745C32.7161 184.49 33.0534 184.362 33.4727 184.362C33.8874 184.362 34.2246 184.488 34.4844 184.738C34.7441 184.984 34.874 185.319 34.874 185.743V185.996C34.874 186.393 34.7487 186.716 34.498 186.967C34.2474 187.217 33.9079 187.343 33.4795 187.343C33.0557 187.343 32.7161 187.217 32.4609 186.967C32.2103 186.712 32.085 186.383 32.085 185.982V185.723ZM46.5635 191H45.251V181.047H46.5635V191ZM49.9678 183.604L50.0088 184.533C50.5739 183.822 51.3122 183.467 52.2236 183.467C53.7868 183.467 54.5752 184.349 54.5889 186.112V191H53.3242V186.105C53.3197 185.572 53.1966 185.178 52.9551 184.923C52.7181 184.668 52.3467 184.54 51.8408 184.54C51.4307 184.54 51.0706 184.649 50.7607 184.868C50.4508 185.087 50.2093 185.374 50.0361 185.729V191H48.7715V183.604H49.9678ZM58.9365 189.284L60.7686 183.604H62.0605L59.4082 191H58.4443L55.7646 183.604H57.0566L58.9365 189.284ZM66.251 191.137C65.2484 191.137 64.4326 190.809 63.8037 190.152C63.1748 189.492 62.8604 188.61 62.8604 187.507V187.274C62.8604 186.541 62.9993 185.887 63.2773 185.312C63.5599 184.734 63.9518 184.283 64.4531 183.959C64.959 183.631 65.5059 183.467 66.0938 183.467C67.0553 183.467 67.8027 183.784 68.3359 184.417C68.8691 185.05 69.1357 185.957 69.1357 187.138V187.664H64.125C64.1432 188.393 64.3551 188.983 64.7607 189.435C65.1709 189.881 65.6904 190.104 66.3193 190.104C66.766 190.104 67.1442 190.013 67.4541 189.831C67.764 189.649 68.0352 189.407 68.2676 189.106L69.04 189.708C68.4202 190.66 67.4906 191.137 66.251 191.137ZM66.0938 184.506C65.5833 184.506 65.1549 184.693 64.8086 185.066C64.4622 185.436 64.248 185.955 64.166 186.625H67.8711V186.529C67.8346 185.887 67.6615 185.39 67.3516 185.039C67.0417 184.684 66.6224 184.506 66.0938 184.506ZM74.9121 189.038C74.9121 188.696 74.7822 188.432 74.5225 188.245C74.2673 188.054 73.8184 187.89 73.1758 187.753C72.5378 187.616 72.0296 187.452 71.6514 187.261C71.2777 187.069 70.9997 186.841 70.8174 186.577C70.6396 186.313 70.5508 185.998 70.5508 185.634C70.5508 185.028 70.806 184.515 71.3164 184.096C71.8314 183.676 72.4876 183.467 73.2852 183.467C74.1237 183.467 74.8027 183.683 75.3223 184.116C75.8464 184.549 76.1084 185.103 76.1084 185.777H74.8369C74.8369 185.431 74.6888 185.132 74.3926 184.882C74.1009 184.631 73.7318 184.506 73.2852 184.506C72.8249 184.506 72.4648 184.606 72.2051 184.807C71.9453 185.007 71.8154 185.269 71.8154 185.593C71.8154 185.898 71.9362 186.128 72.1777 186.283C72.4193 186.438 72.8545 186.586 73.4834 186.728C74.1169 186.869 74.6296 187.037 75.0215 187.233C75.4134 187.429 75.7028 187.666 75.8896 187.944C76.0811 188.218 76.1768 188.553 76.1768 188.949C76.1768 189.61 75.9124 190.141 75.3838 190.542C74.8551 190.938 74.1693 191.137 73.3262 191.137C72.7337 191.137 72.2096 191.032 71.7539 190.822C71.2982 190.613 70.9404 190.321 70.6807 189.947C70.4255 189.569 70.2979 189.161 70.2979 188.724H71.5625C71.5853 189.147 71.7539 189.485 72.0684 189.735C72.3874 189.981 72.8066 190.104 73.3262 190.104C73.8047 190.104 74.1875 190.009 74.4746 189.817C74.7663 189.621 74.9121 189.362 74.9121 189.038ZM79.54 181.812V183.604H80.9209V184.581H79.54V189.168C79.54 189.464 79.6016 189.688 79.7246 189.838C79.8477 189.984 80.0573 190.057 80.3535 190.057C80.4993 190.057 80.6999 190.029 80.9551 189.975V191C80.6224 191.091 80.2988 191.137 79.9844 191.137C79.4193 191.137 78.9932 190.966 78.7061 190.624C78.4189 190.282 78.2754 189.797 78.2754 189.168V184.581H76.9287V183.604H78.2754V181.812H79.54ZM83.5938 183.604L83.6279 184.424C84.1702 183.786 84.9017 183.467 85.8223 183.467C86.8568 183.467 87.5609 183.863 87.9346 184.656C88.1807 184.301 88.4997 184.014 88.8916 183.795C89.2881 183.576 89.7552 183.467 90.293 183.467C91.9154 183.467 92.7402 184.326 92.7676 186.044V191H91.5029V186.119C91.5029 185.59 91.3822 185.196 91.1406 184.937C90.8991 184.672 90.4935 184.54 89.9238 184.54C89.4544 184.54 89.0648 184.681 88.7549 184.964C88.445 185.242 88.265 185.618 88.2148 186.092V191H86.9434V186.153C86.9434 185.078 86.417 184.54 85.3643 184.54C84.5348 184.54 83.9674 184.893 83.6621 185.6V191H82.3975V183.604H83.5938ZM97.751 191.137C96.7484 191.137 95.9326 190.809 95.3037 190.152C94.6748 189.492 94.3604 188.61 94.3604 187.507V187.274C94.3604 186.541 94.4993 185.887 94.7773 185.312C95.0599 184.734 95.4518 184.283 95.9531 183.959C96.459 183.631 97.0059 183.467 97.5938 183.467C98.5553 183.467 99.3027 183.784 99.8359 184.417C100.369 185.05 100.636 185.957 100.636 187.138V187.664H95.625C95.6432 188.393 95.8551 188.983 96.2607 189.435C96.6709 189.881 97.1904 190.104 97.8193 190.104C98.266 190.104 98.6442 190.013 98.9541 189.831C99.264 189.649 99.5352 189.407 99.7676 189.106L100.54 189.708C99.9202 190.66 98.9906 191.137 97.751 191.137ZM97.5938 184.506C97.0833 184.506 96.6549 184.693 96.3086 185.066C95.9622 185.436 95.748 185.955 95.666 186.625H99.3711V186.529C99.3346 185.887 99.1615 185.39 98.8516 185.039C98.5417 184.684 98.1224 184.506 97.5938 184.506ZM103.302 183.604L103.343 184.533C103.908 183.822 104.646 183.467 105.558 183.467C107.121 183.467 107.909 184.349 107.923 186.112V191H106.658V186.105C106.654 185.572 106.531 185.178 106.289 184.923C106.052 184.668 105.681 184.54 105.175 184.54C104.765 184.54 104.405 184.649 104.095 184.868C103.785 185.087 103.543 185.374 103.37 185.729V191H102.105V183.604H103.302ZM111.546 181.812V183.604H112.927V184.581H111.546V189.168C111.546 189.464 111.607 189.688 111.73 189.838C111.854 189.984 112.063 190.057 112.359 190.057C112.505 190.057 112.706 190.029 112.961 189.975V191C112.628 191.091 112.305 191.137 111.99 191.137C111.425 191.137 110.999 190.966 110.712 190.624C110.425 190.282 110.281 189.797 110.281 189.168V184.581H108.935V183.604H110.281V181.812H111.546ZM121.731 186.974H119.394V191H118.074V181.047H121.369C122.49 181.047 123.352 181.302 123.953 181.812C124.559 182.323 124.862 183.066 124.862 184.041C124.862 184.661 124.694 185.201 124.356 185.661C124.024 186.121 123.559 186.465 122.962 186.693L125.3 190.918V191H123.892L121.731 186.974ZM119.394 185.9H121.41C122.062 185.9 122.579 185.732 122.962 185.395C123.349 185.057 123.543 184.606 123.543 184.041C123.543 183.426 123.358 182.954 122.989 182.626C122.625 182.298 122.096 182.132 121.403 182.127H119.394V185.9ZM129.579 191.137C128.576 191.137 127.761 190.809 127.132 190.152C126.503 189.492 126.188 188.61 126.188 187.507V187.274C126.188 186.541 126.327 185.887 126.605 185.312C126.888 184.734 127.28 184.283 127.781 183.959C128.287 183.631 128.834 183.467 129.422 183.467C130.383 183.467 131.131 183.784 131.664 184.417C132.197 185.05 132.464 185.957 132.464 187.138V187.664H127.453C127.471 188.393 127.683 188.983 128.089 189.435C128.499 189.881 129.019 190.104 129.647 190.104C130.094 190.104 130.472 190.013 130.782 189.831C131.092 189.649 131.363 189.407 131.596 189.106L132.368 189.708C131.748 190.66 130.819 191.137 129.579 191.137ZM129.422 184.506C128.911 184.506 128.483 184.693 128.137 185.066C127.79 185.436 127.576 185.955 127.494 186.625H131.199V186.529C131.163 185.887 130.99 185.39 130.68 185.039C130.37 184.684 129.951 184.506 129.422 184.506ZM140.182 187.384C140.182 188.509 139.924 189.416 139.409 190.104C138.894 190.793 138.197 191.137 137.317 191.137C136.42 191.137 135.713 190.852 135.198 190.282V193.844H133.934V183.604H135.089L135.15 184.424C135.665 183.786 136.381 183.467 137.297 183.467C138.186 183.467 138.887 183.802 139.402 184.472C139.922 185.142 140.182 186.074 140.182 187.268V187.384ZM138.917 187.24C138.917 186.406 138.739 185.748 138.384 185.265C138.028 184.782 137.541 184.54 136.921 184.54C136.155 184.54 135.581 184.88 135.198 185.559V189.093C135.576 189.767 136.155 190.104 136.935 190.104C137.541 190.104 138.021 189.865 138.377 189.387C138.737 188.904 138.917 188.188 138.917 187.24ZM141.46 187.233C141.46 186.509 141.601 185.857 141.884 185.278C142.171 184.7 142.567 184.253 143.073 183.938C143.584 183.624 144.165 183.467 144.816 183.467C145.824 183.467 146.637 183.815 147.257 184.513C147.881 185.21 148.193 186.137 148.193 187.295V187.384C148.193 188.104 148.054 188.751 147.776 189.325C147.503 189.895 147.109 190.339 146.594 190.658C146.083 190.977 145.495 191.137 144.83 191.137C143.827 191.137 143.014 190.788 142.39 190.091C141.77 189.394 141.46 188.471 141.46 187.322V187.233ZM142.731 187.384C142.731 188.204 142.921 188.863 143.299 189.359C143.682 189.856 144.192 190.104 144.83 190.104C145.473 190.104 145.983 189.854 146.361 189.353C146.74 188.847 146.929 188.14 146.929 187.233C146.929 186.422 146.735 185.766 146.348 185.265C145.965 184.759 145.454 184.506 144.816 184.506C144.192 184.506 143.688 184.754 143.306 185.251C142.923 185.748 142.731 186.459 142.731 187.384ZM153.354 184.738C153.163 184.706 152.956 184.69 152.732 184.69C151.903 184.69 151.34 185.044 151.044 185.75V191H149.779V183.604H151.01L151.03 184.458C151.445 183.797 152.033 183.467 152.794 183.467C153.04 183.467 153.227 183.499 153.354 183.562V184.738ZM156.581 181.812V183.604H157.962V184.581H156.581V189.168C156.581 189.464 156.643 189.688 156.766 189.838C156.889 189.984 157.098 190.057 157.395 190.057C157.54 190.057 157.741 190.029 157.996 189.975V191C157.663 191.091 157.34 191.137 157.025 191.137C156.46 191.137 156.034 190.966 155.747 190.624C155.46 190.282 155.316 189.797 155.316 189.168V184.581H153.97V183.604H155.316V181.812H156.581ZM167.484 191C167.411 190.854 167.352 190.594 167.307 190.221C166.719 190.831 166.017 191.137 165.201 191.137C164.472 191.137 163.873 190.932 163.403 190.521C162.938 190.107 162.706 189.583 162.706 188.949C162.706 188.179 162.998 187.582 163.581 187.158C164.169 186.73 164.994 186.516 166.056 186.516H167.286V185.935C167.286 185.493 167.154 185.142 166.89 184.882C166.625 184.618 166.236 184.485 165.721 184.485C165.27 184.485 164.891 184.599 164.586 184.827C164.281 185.055 164.128 185.331 164.128 185.654H162.856C162.856 185.285 162.986 184.93 163.246 184.588C163.51 184.242 163.866 183.968 164.312 183.768C164.764 183.567 165.258 183.467 165.796 183.467C166.648 183.467 167.316 183.681 167.799 184.109C168.282 184.533 168.533 185.119 168.551 185.866V189.271C168.551 189.95 168.637 190.49 168.811 190.891V191H167.484ZM165.386 190.036C165.782 190.036 166.158 189.934 166.514 189.729C166.869 189.523 167.127 189.257 167.286 188.929V187.411H166.295C164.745 187.411 163.971 187.865 163.971 188.771C163.971 189.168 164.103 189.478 164.367 189.701C164.632 189.924 164.971 190.036 165.386 190.036ZM171.729 183.604L171.771 184.533C172.336 183.822 173.074 183.467 173.985 183.467C175.549 183.467 176.337 184.349 176.351 186.112V191H175.086V186.105C175.081 185.572 174.958 185.178 174.717 184.923C174.48 184.668 174.108 184.54 173.603 184.54C173.192 184.54 172.832 184.649 172.522 184.868C172.213 185.087 171.971 185.374 171.798 185.729V191H170.533V183.604H171.729ZM177.95 187.24C177.95 186.105 178.219 185.194 178.757 184.506C179.295 183.813 179.999 183.467 180.869 183.467C181.735 183.467 182.421 183.763 182.927 184.355V180.5H184.191V191H183.029L182.968 190.207C182.462 190.827 181.758 191.137 180.855 191.137C179.999 191.137 179.299 190.786 178.757 190.084C178.219 189.382 177.95 188.466 177.95 187.336V187.24ZM179.215 187.384C179.215 188.222 179.388 188.879 179.734 189.353C180.081 189.826 180.559 190.063 181.17 190.063C181.972 190.063 182.558 189.703 182.927 188.983V185.586C182.549 184.889 181.967 184.54 181.184 184.54C180.564 184.54 180.081 184.779 179.734 185.258C179.388 185.736 179.215 186.445 179.215 187.384ZM48.8057 207.974H46.4678V212H45.1484V202.047H48.4434C49.5645 202.047 50.4258 202.302 51.0273 202.812C51.6335 203.323 51.9365 204.066 51.9365 205.041C51.9365 205.661 51.7679 206.201 51.4307 206.661C51.098 207.121 50.6331 207.465 50.0361 207.693L52.374 211.918V212H50.9658L48.8057 207.974ZM46.4678 206.9H48.4844C49.1361 206.9 49.6533 206.732 50.0361 206.395C50.4235 206.057 50.6172 205.606 50.6172 205.041C50.6172 204.426 50.4326 203.954 50.0635 203.626C49.6989 203.298 49.1702 203.132 48.4775 203.127H46.4678V206.9ZM56.6533 212.137C55.6507 212.137 54.835 211.809 54.2061 211.152C53.5771 210.492 53.2627 209.61 53.2627 208.507V208.274C53.2627 207.541 53.4017 206.887 53.6797 206.312C53.9622 205.734 54.3542 205.283 54.8555 204.959C55.3613 204.631 55.9082 204.467 56.4961 204.467C57.4577 204.467 58.2051 204.784 58.7383 205.417C59.2715 206.05 59.5381 206.957 59.5381 208.138V208.664H54.5273C54.5456 209.393 54.7575 209.983 55.1631 210.435C55.5732 210.881 56.0928 211.104 56.7217 211.104C57.1683 211.104 57.5465 211.013 57.8564 210.831C58.1663 210.649 58.4375 210.407 58.6699 210.106L59.4424 210.708C58.8226 211.66 57.8929 212.137 56.6533 212.137ZM56.4961 205.506C55.9857 205.506 55.5573 205.693 55.2109 206.066C54.8646 206.436 54.6504 206.955 54.5684 207.625H58.2734V207.529C58.237 206.887 58.0638 206.39 57.7539 206.039C57.444 205.684 57.0247 205.506 56.4961 205.506ZM63.9746 211.104C64.4258 211.104 64.82 210.968 65.1572 210.694C65.4945 210.421 65.6813 210.079 65.7178 209.669H66.9141C66.8913 210.093 66.7454 210.496 66.4766 210.879C66.2077 211.262 65.8477 211.567 65.3965 211.795C64.9499 212.023 64.4759 212.137 63.9746 212.137C62.9674 212.137 62.1654 211.802 61.5684 211.132C60.9759 210.457 60.6797 209.537 60.6797 208.37V208.158C60.6797 207.438 60.8118 206.798 61.0762 206.237C61.3405 205.677 61.7188 205.242 62.2109 204.932C62.7077 204.622 63.2933 204.467 63.9678 204.467C64.7972 204.467 65.4854 204.715 66.0322 205.212C66.5837 205.709 66.8776 206.354 66.9141 207.146H65.7178C65.6813 206.668 65.499 206.276 65.1709 205.971C64.8473 205.661 64.4463 205.506 63.9678 205.506C63.3252 205.506 62.8262 205.738 62.4707 206.203C62.1198 206.663 61.9443 207.331 61.9443 208.206V208.445C61.9443 209.298 62.1198 209.954 62.4707 210.414C62.8216 210.874 63.3229 211.104 63.9746 211.104ZM68.001 208.233C68.001 207.509 68.1423 206.857 68.4248 206.278C68.7119 205.7 69.1084 205.253 69.6143 204.938C70.1247 204.624 70.7057 204.467 71.3574 204.467C72.3646 204.467 73.1781 204.815 73.7979 205.513C74.4222 206.21 74.7344 207.137 74.7344 208.295V208.384C74.7344 209.104 74.5954 209.751 74.3174 210.325C74.0439 210.895 73.6497 211.339 73.1348 211.658C72.6243 211.977 72.0365 212.137 71.3711 212.137C70.3685 212.137 69.555 211.788 68.9307 211.091C68.3109 210.394 68.001 209.471 68.001 208.322V208.233ZM69.2725 208.384C69.2725 209.204 69.4616 209.863 69.8398 210.359C70.2227 210.856 70.7331 211.104 71.3711 211.104C72.0137 211.104 72.5241 210.854 72.9023 210.353C73.2806 209.847 73.4697 209.14 73.4697 208.233C73.4697 207.422 73.276 206.766 72.8887 206.265C72.5059 205.759 71.9954 205.506 71.3574 205.506C70.7331 205.506 70.2295 205.754 69.8467 206.251C69.4639 206.748 69.2725 207.459 69.2725 208.384ZM77.5098 204.604L77.5439 205.424C78.0863 204.786 78.8177 204.467 79.7383 204.467C80.7728 204.467 81.4769 204.863 81.8506 205.656C82.0967 205.301 82.4157 205.014 82.8076 204.795C83.2041 204.576 83.6712 204.467 84.209 204.467C85.8314 204.467 86.6562 205.326 86.6836 207.044V212H85.4189V207.119C85.4189 206.59 85.2982 206.196 85.0566 205.937C84.8151 205.672 84.4095 205.54 83.8398 205.54C83.3704 205.54 82.9808 205.681 82.6709 205.964C82.361 206.242 82.181 206.618 82.1309 207.092V212H80.8594V207.153C80.8594 206.078 80.333 205.54 79.2803 205.54C78.4508 205.54 77.8835 205.893 77.5781 206.6V212H76.3135V204.604H77.5098ZM89.7871 204.604L89.8213 205.424C90.3636 204.786 91.0951 204.467 92.0156 204.467C93.0501 204.467 93.7542 204.863 94.1279 205.656C94.374 205.301 94.693 205.014 95.085 204.795C95.4814 204.576 95.9486 204.467 96.4863 204.467C98.1087 204.467 98.9336 205.326 98.9609 207.044V212H97.6963V207.119C97.6963 206.59 97.5755 206.196 97.334 205.937C97.0924 205.672 96.6868 205.54 96.1172 205.54C95.6478 205.54 95.2581 205.681 94.9482 205.964C94.6383 206.242 94.4583 206.618 94.4082 207.092V212H93.1367V207.153C93.1367 206.078 92.6104 205.54 91.5576 205.54C90.7282 205.54 90.1608 205.893 89.8555 206.6V212H88.5908V204.604H89.7871ZM103.944 212.137C102.942 212.137 102.126 211.809 101.497 211.152C100.868 210.492 100.554 209.61 100.554 208.507V208.274C100.554 207.541 100.693 206.887 100.971 206.312C101.253 205.734 101.645 205.283 102.146 204.959C102.652 204.631 103.199 204.467 103.787 204.467C104.749 204.467 105.496 204.784 106.029 205.417C106.562 206.05 106.829 206.957 106.829 208.138V208.664H101.818C101.837 209.393 102.049 209.983 102.454 210.435C102.864 210.881 103.384 211.104 104.013 211.104C104.459 211.104 104.838 211.013 105.147 210.831C105.457 210.649 105.729 210.407 105.961 210.106L106.733 210.708C106.114 211.66 105.184 212.137 103.944 212.137ZM103.787 205.506C103.277 205.506 102.848 205.693 102.502 206.066C102.156 206.436 101.941 206.955 101.859 207.625H105.564V207.529C105.528 206.887 105.355 206.39 105.045 206.039C104.735 205.684 104.316 205.506 103.787 205.506ZM109.495 204.604L109.536 205.533C110.101 204.822 110.84 204.467 111.751 204.467C113.314 204.467 114.103 205.349 114.116 207.112V212H112.852V207.105C112.847 206.572 112.724 206.178 112.482 205.923C112.245 205.668 111.874 205.54 111.368 205.54C110.958 205.54 110.598 205.649 110.288 205.868C109.978 206.087 109.737 206.374 109.563 206.729V212H108.299V204.604H109.495ZM115.716 208.24C115.716 207.105 115.985 206.194 116.522 205.506C117.06 204.813 117.764 204.467 118.635 204.467C119.501 204.467 120.187 204.763 120.692 205.355V201.5H121.957V212H120.795L120.733 211.207C120.228 211.827 119.523 212.137 118.621 212.137C117.764 212.137 117.065 211.786 116.522 211.084C115.985 210.382 115.716 209.466 115.716 208.336V208.24ZM116.98 208.384C116.98 209.222 117.154 209.879 117.5 210.353C117.846 210.826 118.325 211.063 118.936 211.063C119.738 211.063 120.323 210.703 120.692 209.983V206.586C120.314 205.889 119.733 205.54 118.949 205.54C118.329 205.54 117.846 205.779 117.5 206.258C117.154 206.736 116.98 207.445 116.98 208.384ZM128.492 212C128.419 211.854 128.36 211.594 128.314 211.221C127.727 211.831 127.025 212.137 126.209 212.137C125.48 212.137 124.881 211.932 124.411 211.521C123.946 211.107 123.714 210.583 123.714 209.949C123.714 209.179 124.006 208.582 124.589 208.158C125.177 207.73 126.002 207.516 127.063 207.516H128.294V206.935C128.294 206.493 128.162 206.142 127.897 205.882C127.633 205.618 127.243 205.485 126.729 205.485C126.277 205.485 125.899 205.599 125.594 205.827C125.288 206.055 125.136 206.331 125.136 206.654H123.864C123.864 206.285 123.994 205.93 124.254 205.588C124.518 205.242 124.874 204.968 125.32 204.768C125.771 204.567 126.266 204.467 126.804 204.467C127.656 204.467 128.324 204.681 128.807 205.109C129.29 205.533 129.54 206.119 129.559 206.866V210.271C129.559 210.95 129.645 211.49 129.818 211.891V212H128.492ZM126.394 211.036C126.79 211.036 127.166 210.934 127.521 210.729C127.877 210.523 128.134 210.257 128.294 209.929V208.411H127.303C125.753 208.411 124.979 208.865 124.979 209.771C124.979 210.168 125.111 210.478 125.375 210.701C125.639 210.924 125.979 211.036 126.394 211.036ZM133.257 202.812V204.604H134.638V205.581H133.257V210.168C133.257 210.464 133.318 210.688 133.441 210.838C133.564 210.984 133.774 211.057 134.07 211.057C134.216 211.057 134.417 211.029 134.672 210.975V212C134.339 212.091 134.016 212.137 133.701 212.137C133.136 212.137 132.71 211.966 132.423 211.624C132.136 211.282 131.992 210.797 131.992 210.168V205.581H130.646V204.604H131.992V202.812H133.257ZM137.495 212H136.23V204.604H137.495V212ZM136.128 202.642C136.128 202.437 136.189 202.263 136.312 202.122C136.44 201.981 136.627 201.91 136.873 201.91C137.119 201.91 137.306 201.981 137.434 202.122C137.561 202.263 137.625 202.437 137.625 202.642C137.625 202.847 137.561 203.018 137.434 203.154C137.306 203.291 137.119 203.359 136.873 203.359C136.627 203.359 136.44 203.291 136.312 203.154C136.189 203.018 136.128 202.847 136.128 202.642ZM139.19 208.233C139.19 207.509 139.332 206.857 139.614 206.278C139.901 205.7 140.298 205.253 140.804 204.938C141.314 204.624 141.895 204.467 142.547 204.467C143.554 204.467 144.368 204.815 144.987 205.513C145.612 206.21 145.924 207.137 145.924 208.295V208.384C145.924 209.104 145.785 209.751 145.507 210.325C145.233 210.895 144.839 211.339 144.324 211.658C143.814 211.977 143.226 212.137 142.561 212.137C141.558 212.137 140.744 211.788 140.12 211.091C139.5 210.394 139.19 209.471 139.19 208.322V208.233ZM140.462 208.384C140.462 209.204 140.651 209.863 141.029 210.359C141.412 210.856 141.923 211.104 142.561 211.104C143.203 211.104 143.714 210.854 144.092 210.353C144.47 209.847 144.659 209.14 144.659 208.233C144.659 207.422 144.465 206.766 144.078 206.265C143.695 205.759 143.185 205.506 142.547 205.506C141.923 205.506 141.419 205.754 141.036 206.251C140.653 206.748 140.462 207.459 140.462 208.384ZM148.706 204.604L148.747 205.533C149.312 204.822 150.05 204.467 150.962 204.467C152.525 204.467 153.313 205.349 153.327 207.112V212H152.062V207.105C152.058 206.572 151.935 206.178 151.693 205.923C151.456 205.668 151.085 205.54 150.579 205.54C150.169 205.54 149.809 205.649 149.499 205.868C149.189 206.087 148.948 206.374 148.774 206.729V212H147.51V204.604H148.706ZM32.085 227.723C32.085 227.326 32.2103 227 32.4609 226.745C32.7161 226.49 33.0534 226.362 33.4727 226.362C33.8874 226.362 34.2246 226.488 34.4844 226.738C34.7441 226.984 34.874 227.319 34.874 227.743V227.996C34.874 228.393 34.7487 228.716 34.498 228.967C34.2474 229.217 33.9079 229.343 33.4795 229.343C33.0557 229.343 32.7161 229.217 32.4609 228.967C32.2103 228.712 32.085 228.383 32.085 227.982V227.723ZM45.1553 233V223.047H48.4092C49.4893 223.047 50.3005 223.27 50.8428 223.717C51.3896 224.163 51.6631 224.824 51.6631 225.699C51.6631 226.164 51.5309 226.576 51.2666 226.937C51.0023 227.292 50.6423 227.568 50.1865 227.764C50.7243 227.914 51.1481 228.201 51.458 228.625C51.7725 229.044 51.9297 229.546 51.9297 230.129C51.9297 231.022 51.6403 231.724 51.0615 232.234C50.4827 232.745 49.6647 233 48.6074 233H45.1553ZM46.4678 228.345V231.927H48.6348C49.2454 231.927 49.7262 231.77 50.0771 231.455C50.4326 231.136 50.6104 230.699 50.6104 230.143C50.6104 228.944 49.9587 228.345 48.6553 228.345H46.4678ZM46.4678 227.292H48.4502C49.0244 227.292 49.4824 227.148 49.8242 226.861C50.1706 226.574 50.3438 226.185 50.3438 225.692C50.3438 225.146 50.1842 224.749 49.8652 224.503C49.5462 224.252 49.0609 224.127 48.4092 224.127H46.4678V227.292ZM53.3447 229.233C53.3447 228.509 53.486 227.857 53.7686 227.278C54.0557 226.7 54.4521 226.253 54.958 225.938C55.4684 225.624 56.0495 225.467 56.7012 225.467C57.7083 225.467 58.5218 225.815 59.1416 226.513C59.766 227.21 60.0781 228.137 60.0781 229.295V229.384C60.0781 230.104 59.9391 230.751 59.6611 231.325C59.3877 231.895 58.9935 232.339 58.4785 232.658C57.9681 232.977 57.3802 233.137 56.7148 233.137C55.7122 233.137 54.8988 232.788 54.2744 232.091C53.6546 231.394 53.3447 230.471 53.3447 229.322V229.233ZM54.6162 229.384C54.6162 230.204 54.8053 230.863 55.1836 231.359C55.5664 231.856 56.0768 232.104 56.7148 232.104C57.3574 232.104 57.8678 231.854 58.2461 231.353C58.6243 230.847 58.8135 230.14 58.8135 229.233C58.8135 228.422 58.6198 227.766 58.2324 227.265C57.8496 226.759 57.3392 226.506 56.7012 226.506C56.0768 226.506 55.5732 226.754 55.1904 227.251C54.8076 227.748 54.6162 228.459 54.6162 229.384ZM66.2305 233C66.1576 232.854 66.0983 232.594 66.0527 232.221C65.4648 232.831 64.763 233.137 63.9473 233.137C63.2181 233.137 62.6188 232.932 62.1494 232.521C61.6846 232.107 61.4521 231.583 61.4521 230.949C61.4521 230.179 61.7438 229.582 62.3271 229.158C62.915 228.73 63.7399 228.516 64.8018 228.516H66.0322V227.935C66.0322 227.493 65.9001 227.142 65.6357 226.882C65.3714 226.618 64.9818 226.485 64.4668 226.485C64.0156 226.485 63.6374 226.599 63.332 226.827C63.0267 227.055 62.874 227.331 62.874 227.654H61.6025C61.6025 227.285 61.7324 226.93 61.9922 226.588C62.2565 226.242 62.612 225.968 63.0586 225.768C63.5098 225.567 64.0042 225.467 64.542 225.467C65.3942 225.467 66.0618 225.681 66.5449 226.109C67.028 226.533 67.2786 227.119 67.2969 227.866V231.271C67.2969 231.95 67.3835 232.49 67.5566 232.891V233H66.2305ZM64.1318 232.036C64.5283 232.036 64.9043 231.934 65.2598 231.729C65.6152 231.523 65.8727 231.257 66.0322 230.929V229.411H65.041C63.4915 229.411 62.7168 229.865 62.7168 230.771C62.7168 231.168 62.849 231.478 63.1133 231.701C63.3776 231.924 63.7171 232.036 64.1318 232.036ZM72.8545 226.738C72.6631 226.706 72.4557 226.69 72.2324 226.69C71.403 226.69 70.8402 227.044 70.5439 227.75V233H69.2793V225.604H70.5098L70.5303 226.458C70.945 225.797 71.5329 225.467 72.2939 225.467C72.54 225.467 72.7269 225.499 72.8545 225.562V226.738ZM73.5791 229.24C73.5791 228.105 73.848 227.194 74.3857 226.506C74.9235 225.813 75.6276 225.467 76.498 225.467C77.3639 225.467 78.0498 225.763 78.5557 226.355V222.5H79.8203V233H78.6582L78.5967 232.207C78.0908 232.827 77.3867 233.137 76.4844 233.137C75.6276 233.137 74.9281 232.786 74.3857 232.084C73.848 231.382 73.5791 230.466 73.5791 229.336V229.24ZM74.8438 229.384C74.8438 230.222 75.0169 230.879 75.3633 231.353C75.7096 231.826 76.1882 232.063 76.7988 232.063C77.6009 232.063 78.1865 231.703 78.5557 230.983V227.586C78.1774 226.889 77.5964 226.54 76.8125 226.54C76.1927 226.54 75.7096 226.779 75.3633 227.258C75.0169 227.736 74.8438 228.445 74.8438 229.384ZM84.9268 229.233C84.9268 228.509 85.068 227.857 85.3506 227.278C85.6377 226.7 86.0342 226.253 86.54 225.938C87.0505 225.624 87.6315 225.467 88.2832 225.467C89.2904 225.467 90.1038 225.815 90.7236 226.513C91.348 227.21 91.6602 228.137 91.6602 229.295V229.384C91.6602 230.104 91.5212 230.751 91.2432 231.325C90.9697 231.895 90.5755 232.339 90.0605 232.658C89.5501 232.977 88.9622 233.137 88.2969 233.137C87.2943 233.137 86.4808 232.788 85.8564 232.091C85.2367 231.394 84.9268 230.471 84.9268 229.322V229.233ZM86.1982 229.384C86.1982 230.204 86.3874 230.863 86.7656 231.359C87.1484 231.856 87.6589 232.104 88.2969 232.104C88.9395 232.104 89.4499 231.854 89.8281 231.353C90.2064 230.847 90.3955 230.14 90.3955 229.233C90.3955 228.422 90.2018 227.766 89.8145 227.265C89.4316 226.759 88.9212 226.506 88.2832 226.506C87.6589 226.506 87.1553 226.754 86.7725 227.251C86.3896 227.748 86.1982 228.459 86.1982 229.384ZM93.8682 233V226.581H92.6992V225.604H93.8682V224.845C93.8682 224.052 94.0801 223.439 94.5039 223.006C94.9277 222.573 95.527 222.356 96.3018 222.356C96.5934 222.356 96.8828 222.395 97.1699 222.473L97.1016 223.498C96.8874 223.457 96.6595 223.437 96.418 223.437C96.0078 223.437 95.6911 223.557 95.4678 223.799C95.2445 224.036 95.1328 224.378 95.1328 224.824V225.604H96.7119V226.581H95.1328V233H93.8682ZM101.784 233V223.047H104.594C105.46 223.047 106.225 223.238 106.891 223.621C107.556 224.004 108.069 224.549 108.429 225.255C108.793 225.961 108.978 226.772 108.982 227.688V228.324C108.982 229.263 108.8 230.086 108.436 230.792C108.076 231.498 107.558 232.041 106.884 232.419C106.214 232.797 105.432 232.991 104.539 233H101.784ZM103.097 224.127V231.927H104.478C105.489 231.927 106.275 231.612 106.836 230.983C107.401 230.354 107.684 229.459 107.684 228.297V227.716C107.684 226.586 107.417 225.708 106.884 225.084C106.355 224.455 105.603 224.136 104.628 224.127H103.097ZM112.147 233H110.883V225.604H112.147V233ZM110.78 223.642C110.78 223.437 110.842 223.263 110.965 223.122C111.092 222.981 111.279 222.91 111.525 222.91C111.771 222.91 111.958 222.981 112.086 223.122C112.214 223.263 112.277 223.437 112.277 223.642C112.277 223.847 112.214 224.018 112.086 224.154C111.958 224.291 111.771 224.359 111.525 224.359C111.279 224.359 111.092 224.291 110.965 224.154C110.842 224.018 110.78 223.847 110.78 223.642ZM117.753 226.738C117.562 226.706 117.354 226.69 117.131 226.69C116.301 226.69 115.739 227.044 115.442 227.75V233H114.178V225.604H115.408L115.429 226.458C115.843 225.797 116.431 225.467 117.192 225.467C117.438 225.467 117.625 225.499 117.753 225.562V226.738ZM121.854 233.137C120.852 233.137 120.036 232.809 119.407 232.152C118.778 231.492 118.464 230.61 118.464 229.507V229.274C118.464 228.541 118.603 227.887 118.881 227.312C119.163 226.734 119.555 226.283 120.057 225.959C120.562 225.631 121.109 225.467 121.697 225.467C122.659 225.467 123.406 225.784 123.939 226.417C124.473 227.05 124.739 227.957 124.739 229.138V229.664H119.729C119.747 230.393 119.959 230.983 120.364 231.435C120.774 231.881 121.294 232.104 121.923 232.104C122.369 232.104 122.748 232.013 123.058 231.831C123.368 231.649 123.639 231.407 123.871 231.106L124.644 231.708C124.024 232.66 123.094 233.137 121.854 233.137ZM121.697 226.506C121.187 226.506 120.758 226.693 120.412 227.066C120.066 227.436 119.852 227.955 119.77 228.625H123.475V228.529C123.438 227.887 123.265 227.39 122.955 227.039C122.645 226.684 122.226 226.506 121.697 226.506ZM129.176 232.104C129.627 232.104 130.021 231.968 130.358 231.694C130.696 231.421 130.882 231.079 130.919 230.669H132.115C132.092 231.093 131.947 231.496 131.678 231.879C131.409 232.262 131.049 232.567 130.598 232.795C130.151 233.023 129.677 233.137 129.176 233.137C128.169 233.137 127.367 232.802 126.77 232.132C126.177 231.457 125.881 230.537 125.881 229.37V229.158C125.881 228.438 126.013 227.798 126.277 227.237C126.542 226.677 126.92 226.242 127.412 225.932C127.909 225.622 128.494 225.467 129.169 225.467C129.998 225.467 130.687 225.715 131.233 226.212C131.785 226.709 132.079 227.354 132.115 228.146H130.919C130.882 227.668 130.7 227.276 130.372 226.971C130.049 226.661 129.647 226.506 129.169 226.506C128.526 226.506 128.027 226.738 127.672 227.203C127.321 227.663 127.146 228.331 127.146 229.206V229.445C127.146 230.298 127.321 230.954 127.672 231.414C128.023 231.874 128.524 232.104 129.176 232.104ZM135.253 223.812V225.604H136.634V226.581H135.253V231.168C135.253 231.464 135.314 231.688 135.438 231.838C135.561 231.984 135.77 232.057 136.066 232.057C136.212 232.057 136.413 232.029 136.668 231.975V233C136.335 233.091 136.012 233.137 135.697 233.137C135.132 233.137 134.706 232.966 134.419 232.624C134.132 232.282 133.988 231.797 133.988 231.168V226.581H132.642V225.604H133.988V223.812H135.253ZM137.646 229.233C137.646 228.509 137.787 227.857 138.069 227.278C138.356 226.7 138.753 226.253 139.259 225.938C139.769 225.624 140.35 225.467 141.002 225.467C142.009 225.467 142.823 225.815 143.442 226.513C144.067 227.21 144.379 228.137 144.379 229.295V229.384C144.379 230.104 144.24 230.751 143.962 231.325C143.688 231.895 143.294 232.339 142.779 232.658C142.269 232.977 141.681 233.137 141.016 233.137C140.013 233.137 139.2 232.788 138.575 232.091C137.955 231.394 137.646 230.471 137.646 229.322V229.233ZM138.917 229.384C138.917 230.204 139.106 230.863 139.484 231.359C139.867 231.856 140.378 232.104 141.016 232.104C141.658 232.104 142.169 231.854 142.547 231.353C142.925 230.847 143.114 230.14 143.114 229.233C143.114 228.422 142.921 227.766 142.533 227.265C142.15 226.759 141.64 226.506 141.002 226.506C140.378 226.506 139.874 226.754 139.491 227.251C139.108 227.748 138.917 228.459 138.917 229.384ZM149.54 226.738C149.349 226.706 149.141 226.69 148.918 226.69C148.089 226.69 147.526 227.044 147.229 227.75V233H145.965V225.604H147.195L147.216 226.458C147.631 225.797 148.218 225.467 148.979 225.467C149.226 225.467 149.412 225.499 149.54 225.562V226.738ZM155.016 231.038C155.016 230.696 154.886 230.432 154.626 230.245C154.371 230.054 153.922 229.89 153.279 229.753C152.641 229.616 152.133 229.452 151.755 229.261C151.381 229.069 151.103 228.841 150.921 228.577C150.743 228.313 150.654 227.998 150.654 227.634C150.654 227.028 150.91 226.515 151.42 226.096C151.935 225.676 152.591 225.467 153.389 225.467C154.227 225.467 154.906 225.683 155.426 226.116C155.95 226.549 156.212 227.103 156.212 227.777H154.94C154.94 227.431 154.792 227.132 154.496 226.882C154.204 226.631 153.835 226.506 153.389 226.506C152.928 226.506 152.568 226.606 152.309 226.807C152.049 227.007 151.919 227.269 151.919 227.593C151.919 227.898 152.04 228.128 152.281 228.283C152.523 228.438 152.958 228.586 153.587 228.728C154.22 228.869 154.733 229.037 155.125 229.233C155.517 229.429 155.806 229.666 155.993 229.944C156.185 230.218 156.28 230.553 156.28 230.949C156.28 231.61 156.016 232.141 155.487 232.542C154.959 232.938 154.273 233.137 153.43 233.137C152.837 233.137 152.313 233.032 151.857 232.822C151.402 232.613 151.044 232.321 150.784 231.947C150.529 231.569 150.401 231.161 150.401 230.724H151.666C151.689 231.147 151.857 231.485 152.172 231.735C152.491 231.981 152.91 232.104 153.43 232.104C153.908 232.104 154.291 232.009 154.578 231.817C154.87 231.621 155.016 231.362 155.016 231.038ZM45.1553 254V244.047H47.9648C48.8307 244.047 49.5964 244.238 50.2617 244.621C50.9271 245.004 51.4398 245.549 51.7998 246.255C52.1644 246.961 52.349 247.772 52.3535 248.688V249.324C52.3535 250.263 52.1712 251.086 51.8066 251.792C51.4466 252.498 50.9294 253.041 50.2549 253.419C49.585 253.797 48.8034 253.991 47.9102 254H45.1553ZM46.4678 245.127V252.927H47.8486C48.8604 252.927 49.6465 252.612 50.207 251.983C50.7721 251.354 51.0547 250.459 51.0547 249.297V248.716C51.0547 247.586 50.7881 246.708 50.2549 246.084C49.7262 245.455 48.9743 245.136 47.999 245.127H46.4678ZM57.2139 254.137C56.2113 254.137 55.3955 253.809 54.7666 253.152C54.1377 252.492 53.8232 251.61 53.8232 250.507V250.274C53.8232 249.541 53.9622 248.887 54.2402 248.312C54.5228 247.734 54.9147 247.283 55.416 246.959C55.9219 246.631 56.4688 246.467 57.0566 246.467C58.0182 246.467 58.7656 246.784 59.2988 247.417C59.832 248.05 60.0986 248.957 60.0986 250.138V250.664H55.0879C55.1061 251.393 55.318 251.983 55.7236 252.435C56.1338 252.881 56.6533 253.104 57.2822 253.104C57.7288 253.104 58.1071 253.013 58.417 252.831C58.7269 252.649 58.998 252.407 59.2305 252.106L60.0029 252.708C59.3831 253.66 58.4535 254.137 57.2139 254.137ZM57.0566 247.506C56.5462 247.506 56.1178 247.693 55.7715 248.066C55.4251 248.436 55.2109 248.955 55.1289 249.625H58.834V249.529C58.7975 248.887 58.6243 248.39 58.3145 248.039C58.0046 247.684 57.5853 247.506 57.0566 247.506ZM62.9424 254H61.6777V243.5H62.9424V254ZM66.3467 254H65.082V246.604H66.3467V254ZM64.9795 244.642C64.9795 244.437 65.041 244.263 65.1641 244.122C65.2917 243.981 65.4785 243.91 65.7246 243.91C65.9707 243.91 66.1576 243.981 66.2852 244.122C66.4128 244.263 66.4766 244.437 66.4766 244.642C66.4766 244.847 66.4128 245.018 66.2852 245.154C66.1576 245.291 65.9707 245.359 65.7246 245.359C65.4785 245.359 65.2917 245.291 65.1641 245.154C65.041 245.018 64.9795 244.847 64.9795 244.642ZM74.6387 250.384C74.6387 251.514 74.3789 252.423 73.8594 253.111C73.3398 253.795 72.6426 254.137 71.7676 254.137C70.8333 254.137 70.111 253.806 69.6006 253.146L69.5391 254H68.377V243.5H69.6416V247.417C70.152 246.784 70.8561 246.467 71.7539 246.467C72.6517 246.467 73.3558 246.806 73.8662 247.485C74.3812 248.164 74.6387 249.094 74.6387 250.274V250.384ZM73.374 250.24C73.374 249.379 73.2077 248.714 72.875 248.244C72.5423 247.775 72.0638 247.54 71.4395 247.54C70.6055 247.54 70.0062 247.927 69.6416 248.702V251.901C70.029 252.676 70.6328 253.063 71.4531 253.063C72.0592 253.063 72.5309 252.829 72.8682 252.359C73.2054 251.89 73.374 251.184 73.374 250.24ZM79.3076 254.137C78.305 254.137 77.4893 253.809 76.8604 253.152C76.2314 252.492 75.917 251.61 75.917 250.507V250.274C75.917 249.541 76.056 248.887 76.334 248.312C76.6165 247.734 77.0085 247.283 77.5098 246.959C78.0156 246.631 78.5625 246.467 79.1504 246.467C80.112 246.467 80.8594 246.784 81.3926 247.417C81.9258 248.05 82.1924 248.957 82.1924 250.138V250.664H77.1816C77.1999 251.393 77.4118 251.983 77.8174 252.435C78.2275 252.881 78.7471 253.104 79.376 253.104C79.8226 253.104 80.2008 253.013 80.5107 252.831C80.8206 252.649 81.0918 252.407 81.3242 252.106L82.0967 252.708C81.4769 253.66 80.5472 254.137 79.3076 254.137ZM79.1504 247.506C78.64 247.506 78.2116 247.693 77.8652 248.066C77.5189 248.436 77.3047 248.955 77.2227 249.625H80.9277V249.529C80.8913 248.887 80.7181 248.39 80.4082 248.039C80.0983 247.684 79.679 247.506 79.1504 247.506ZM87.2373 247.738C87.0459 247.706 86.8385 247.69 86.6152 247.69C85.7858 247.69 85.223 248.044 84.9268 248.75V254H83.6621V246.604H84.8926L84.9131 247.458C85.3278 246.797 85.9157 246.467 86.6768 246.467C86.9229 246.467 87.1097 246.499 87.2373 246.562V247.738ZM92.6992 254C92.6263 253.854 92.5671 253.594 92.5215 253.221C91.9336 253.831 91.2318 254.137 90.416 254.137C89.6868 254.137 89.0876 253.932 88.6182 253.521C88.1533 253.107 87.9209 252.583 87.9209 251.949C87.9209 251.179 88.2126 250.582 88.7959 250.158C89.3838 249.73 90.2087 249.516 91.2705 249.516H92.501V248.935C92.501 248.493 92.3688 248.142 92.1045 247.882C91.8402 247.618 91.4505 247.485 90.9355 247.485C90.4844 247.485 90.1061 247.599 89.8008 247.827C89.4954 248.055 89.3428 248.331 89.3428 248.654H88.0713C88.0713 248.285 88.2012 247.93 88.4609 247.588C88.7253 247.242 89.0807 246.968 89.5273 246.768C89.9785 246.567 90.473 246.467 91.0107 246.467C91.863 246.467 92.5306 246.681 93.0137 247.109C93.4967 247.533 93.7474 248.119 93.7656 248.866V252.271C93.7656 252.95 93.8522 253.49 94.0254 253.891V254H92.6992ZM90.6006 253.036C90.9971 253.036 91.373 252.934 91.7285 252.729C92.084 252.523 92.3415 252.257 92.501 251.929V250.411H91.5098C89.9603 250.411 89.1855 250.865 89.1855 251.771C89.1855 252.168 89.3177 252.478 89.582 252.701C89.8464 252.924 90.1859 253.036 90.6006 253.036ZM97.4639 244.812V246.604H98.8447V247.581H97.4639V252.168C97.4639 252.464 97.5254 252.688 97.6484 252.838C97.7715 252.984 97.9811 253.057 98.2773 253.057C98.4232 253.057 98.6237 253.029 98.8789 252.975V254C98.5462 254.091 98.2227 254.137 97.9082 254.137C97.3431 254.137 96.917 253.966 96.6299 253.624C96.3428 253.282 96.1992 252.797 96.1992 252.168V247.581H94.8525V246.604H96.1992V244.812H97.4639ZM101.702 254H100.438V246.604H101.702V254ZM100.335 244.642C100.335 244.437 100.396 244.263 100.52 244.122C100.647 243.981 100.834 243.91 101.08 243.91C101.326 243.91 101.513 243.981 101.641 244.122C101.768 244.263 101.832 244.437 101.832 244.642C101.832 244.847 101.768 245.018 101.641 245.154C101.513 245.291 101.326 245.359 101.08 245.359C100.834 245.359 100.647 245.291 100.52 245.154C100.396 245.018 100.335 244.847 100.335 244.642ZM103.397 250.233C103.397 249.509 103.539 248.857 103.821 248.278C104.108 247.7 104.505 247.253 105.011 246.938C105.521 246.624 106.102 246.467 106.754 246.467C107.761 246.467 108.575 246.815 109.194 247.513C109.819 248.21 110.131 249.137 110.131 250.295V250.384C110.131 251.104 109.992 251.751 109.714 252.325C109.44 252.895 109.046 253.339 108.531 253.658C108.021 253.977 107.433 254.137 106.768 254.137C105.765 254.137 104.951 253.788 104.327 253.091C103.707 252.394 103.397 251.471 103.397 250.322V250.233ZM104.669 250.384C104.669 251.204 104.858 251.863 105.236 252.359C105.619 252.856 106.13 253.104 106.768 253.104C107.41 253.104 107.921 252.854 108.299 252.353C108.677 251.847 108.866 251.14 108.866 250.233C108.866 249.422 108.673 248.766 108.285 248.265C107.902 247.759 107.392 247.506 106.754 247.506C106.13 247.506 105.626 247.754 105.243 248.251C104.86 248.748 104.669 249.459 104.669 250.384ZM112.913 246.604L112.954 247.533C113.519 246.822 114.257 246.467 115.169 246.467C116.732 246.467 117.521 247.349 117.534 249.112V254H116.27V249.105C116.265 248.572 116.142 248.178 115.9 247.923C115.663 247.668 115.292 247.54 114.786 247.54C114.376 247.54 114.016 247.649 113.706 247.868C113.396 248.087 113.155 248.374 112.981 248.729V254H111.717V246.604H112.913Z" fill="#616263"/>
<path d="M21.0215 21.7578L23.6875 28.8418L26.3472 21.7578H28.4229V31H26.8232V27.9531L26.9819 23.8779L24.2524 31H23.1035L20.3804 23.8843L20.5391 27.9531V31H18.9395V21.7578H21.0215ZM37.4111 29.8003C37.0768 30.2362 36.6134 30.5662 36.021 30.7905C35.4285 31.0148 34.7557 31.127 34.0024 31.127C33.228 31.127 32.5425 30.9513 31.9458 30.6001C31.3491 30.2489 30.8879 29.7474 30.562 29.0957C30.2404 28.4398 30.0732 27.6759 30.0605 26.8042V26.0806C30.0605 24.6841 30.3949 23.5944 31.0635 22.8115C31.7321 22.0244 32.6652 21.6309 33.8628 21.6309C34.8911 21.6309 35.7078 21.8848 36.313 22.3926C36.9181 22.9004 37.2821 23.6325 37.4048 24.5889H35.8306C35.6528 23.4759 35.0075 22.9194 33.8945 22.9194C33.1751 22.9194 32.6271 23.1797 32.2505 23.7002C31.8781 24.2165 31.6855 24.9761 31.6729 25.979V26.6899C31.6729 27.6886 31.8823 28.4652 32.3013 29.0195C32.7244 29.5697 33.3105 29.8447 34.0596 29.8447C34.8805 29.8447 35.4645 29.6585 35.8115 29.2861V27.4771H33.9072V26.2583H37.4111V29.8003ZM46.5137 31H44.9141V26.8931H40.7817V31H39.1758V21.7578H40.7817V25.6045H44.9141V21.7578H46.5137V31ZM50.0239 29.7178H54.2197V31H48.418V21.7578H50.0239V29.7178ZM60.3833 31H58.7837V21.7578H60.3833V31ZM69.689 31H68.083L63.9634 24.4429V31H62.3574V21.7578H63.9634L68.0957 28.3403V21.7578H69.689V31ZM74.8433 28.9878L77.1919 21.7578H78.9565L75.6304 31H74.0752L70.7617 21.7578H72.52L74.8433 28.9878ZM85.4058 26.874H81.6099V29.7178H86.0469V31H80.0039V21.7578H86.0024V23.0527H81.6099V25.6045H85.4058V26.874ZM92.1851 28.6196C92.1851 28.2134 92.0412 27.9002 91.7534 27.6802C91.4699 27.4601 90.9557 27.238 90.2109 27.0137C89.4661 26.7894 88.8737 26.5397 88.4336 26.2646C87.5915 25.7357 87.1704 25.0459 87.1704 24.1953C87.1704 23.4505 87.473 22.8369 88.0781 22.3545C88.6875 21.8721 89.4767 21.6309 90.4458 21.6309C91.089 21.6309 91.6624 21.7493 92.166 21.9863C92.6696 22.2233 93.0653 22.5618 93.353 23.002C93.6408 23.4378 93.7847 23.9224 93.7847 24.4556H92.1851C92.1851 23.9731 92.0327 23.5965 91.728 23.3257C91.4276 23.0506 90.9959 22.9131 90.4331 22.9131C89.9084 22.9131 89.5 23.0252 89.208 23.2495C88.9202 23.4738 88.7764 23.7869 88.7764 24.189C88.7764 24.5275 88.9329 24.811 89.2461 25.0396C89.5592 25.2638 90.0755 25.4839 90.7949 25.6997C91.5143 25.9113 92.092 26.1546 92.5278 26.4297C92.9637 26.7005 93.2832 27.0137 93.4863 27.3691C93.6895 27.7204 93.791 28.133 93.791 28.6069C93.791 29.3771 93.4948 29.9907 92.9023 30.4478C92.3141 30.9006 91.5143 31.127 90.5029 31.127C89.8343 31.127 89.2186 31.0042 88.6558 30.7588C88.0972 30.5091 87.6613 30.1663 87.3481 29.7305C87.0392 29.2946 86.8848 28.7868 86.8848 28.207H88.4907C88.4907 28.7318 88.6642 29.138 89.0112 29.4258C89.3582 29.7135 89.8555 29.8574 90.5029 29.8574C91.0615 29.8574 91.4805 29.7453 91.7598 29.521C92.0433 29.2925 92.1851 28.992 92.1851 28.6196ZM101.878 23.0527H98.9961V31H97.4028V23.0527H94.5464V21.7578H101.878V23.0527ZM105.179 21.7578L107.845 28.8418L110.504 21.7578H112.58V31H110.98V27.9531L111.139 23.8779L108.41 31H107.261L104.538 23.8843L104.696 27.9531V31H103.097V21.7578H105.179ZM119.886 26.874H116.09V29.7178H120.527V31H114.484V21.7578H120.483V23.0527H116.09V25.6045H119.886V26.874ZM129.167 31H127.561L123.441 24.4429V31H121.835V21.7578H123.441L127.573 28.3403V21.7578H129.167V31ZM137.552 23.0527H134.67V31H133.077V23.0527H130.22V21.7578H137.552V23.0527ZM148.679 27.9912C148.586 28.9772 148.222 29.7474 147.587 30.3018C146.953 30.8519 146.108 31.127 145.055 31.127C144.318 31.127 143.669 30.9535 143.106 30.6064C142.547 30.2552 142.116 29.758 141.811 29.1147C141.506 28.4715 141.348 27.7246 141.335 26.874V26.0107C141.335 25.139 141.489 24.3709 141.798 23.7065C142.107 23.0422 142.549 22.5301 143.125 22.1704C143.705 21.8107 144.373 21.6309 145.131 21.6309C146.151 21.6309 146.972 21.908 147.594 22.4624C148.216 23.0168 148.578 23.7996 148.679 24.811H147.08C147.003 24.1466 146.809 23.6685 146.496 23.3765C146.187 23.0802 145.732 22.9321 145.131 22.9321C144.433 22.9321 143.895 23.1882 143.519 23.7002C143.146 24.208 142.956 24.9549 142.947 25.9409V26.7598C142.947 27.7585 143.125 28.5202 143.48 29.0449C143.84 29.5697 144.365 29.832 145.055 29.832C145.685 29.832 146.159 29.6903 146.477 29.4067C146.794 29.1232 146.995 28.6514 147.08 27.9912H148.679ZM157.496 26.6201C157.496 27.5257 157.34 28.3213 157.026 29.0068C156.713 29.6882 156.265 30.2129 155.681 30.5811C155.101 30.945 154.432 31.127 153.675 31.127C152.926 31.127 152.257 30.945 151.669 30.5811C151.085 30.2129 150.632 29.6903 150.311 29.0132C149.993 28.3361 149.832 27.5553 149.828 26.6709V26.1504C149.828 25.249 149.987 24.4535 150.304 23.7637C150.626 23.0739 151.076 22.547 151.656 22.1831C152.24 21.8149 152.909 21.6309 153.662 21.6309C154.415 21.6309 155.082 21.8128 155.662 22.1768C156.246 22.5365 156.696 23.057 157.014 23.7383C157.331 24.4154 157.492 25.2046 157.496 26.106V26.6201ZM155.89 26.1377C155.89 25.1136 155.695 24.3286 155.306 23.7827C154.921 23.2368 154.373 22.9639 153.662 22.9639C152.968 22.9639 152.424 23.2368 152.031 23.7827C151.641 24.3244 151.443 25.0924 151.434 26.0869V26.6201C151.434 27.6357 151.631 28.4207 152.024 28.9751C152.422 29.5295 152.972 29.8066 153.675 29.8066C154.386 29.8066 154.932 29.5358 155.312 28.9941C155.698 28.4525 155.89 27.6611 155.89 26.6201V26.1377ZM161.178 21.7578L163.844 28.8418L166.503 21.7578H168.579V31H166.979V27.9531L167.138 23.8779L164.409 31H163.26L160.537 23.8843L160.695 27.9531V31H159.096V21.7578H161.178ZM172.565 21.7578L175.231 28.8418L177.891 21.7578H179.967V31H178.367V27.9531L178.526 23.8779L175.796 31H174.647L171.924 23.8843L172.083 27.9531V31H170.483V21.7578H172.565ZM183.566 31H181.966V21.7578H183.566V31ZM192.027 23.0527H189.146V31H187.552V23.0527H184.696V21.7578H192.027V23.0527ZM198.648 26.874H194.852V29.7178H199.289V31H193.246V21.7578H199.245V23.0527H194.852V25.6045H198.648V26.874ZM205.999 26.874H202.203V29.7178H206.64V31H200.597V21.7578H206.595V23.0527H202.203V25.6045H205.999V26.874Z" fill="white"/>
</svg>
