<svg width="96" height="40" viewBox="0 0 96 40" fill="none" xmlns="http://www.w3.org/2000/svg">
<path d="M15.847 35.2945C15.7596 35.4692 15.5849 35.7313 15.1481 36.1681C14.7113 36.6923 14.4492 36.9544 14.2744 36.9544C14.1871 36.9544 14.0997 36.867 14.0997 36.6923C14.0997 36.2555 14.2744 35.906 14.5365 35.4692C14.7986 34.9451 15.1481 34.683 15.4975 34.683C15.6723 34.683 15.7596 34.7703 15.9343 34.8577L15.847 35.2945ZM16.7206 33.8093H15.6723C14.9733 33.8093 14.3618 34.1588 13.6629 34.9451C13.0514 35.644 12.7019 36.3429 12.6145 37.0418C12.6145 37.3039 12.6145 37.5659 12.7893 37.828C12.964 38.0901 13.1387 38.1775 13.4008 38.1775C13.7503 38.1775 14.1871 37.9154 14.6239 37.5659C14.9734 37.2165 15.2354 36.7797 15.4975 36.3429H15.5849L14.9734 38.0901H16.3712L17.5942 33.8093C17.4195 33.8093 17.1574 33.8967 16.7206 33.8093ZM25.8064 35.2945C25.719 35.4692 25.5443 35.7313 25.1075 36.2555C24.6707 36.6923 24.4086 36.9544 24.2338 36.9544C24.1465 36.9544 24.1465 36.867 24.1465 36.6923C24.1465 36.3429 24.3212 35.906 24.5833 35.4692C24.8454 34.9451 25.1948 34.7703 25.4569 34.7703C25.6316 34.7703 25.719 34.7703 25.8937 34.8577L25.8064 35.2945ZM26.5926 33.8093H25.6316C24.9327 33.8093 24.3212 34.1588 23.6223 34.8577C23.0108 35.5566 22.6613 36.1681 22.5739 36.9544C22.5739 37.2165 22.5739 37.4786 22.7487 37.7407C22.9234 37.9154 23.0981 38.0901 23.4476 38.0901C24.1465 38.0901 24.758 37.4786 25.3696 36.3429H25.5443C25.4569 36.6923 25.3696 36.9544 25.2822 37.3039C25.1075 37.7407 25.0201 38.0901 24.8454 38.3522C24.5833 38.7017 24.3212 38.789 24.0591 38.789C23.5349 38.789 23.0108 38.6143 22.3118 38.2648L22.3992 39.4879C22.7487 39.5753 23.1855 39.5753 23.7097 39.5753C25.1948 39.5753 26.1558 38.9638 26.5053 37.7407L27.641 33.8093C27.3789 33.8093 27.0295 33.8967 26.5926 33.8093ZM29.3009 35.8187C29.3883 35.5566 29.4756 35.3819 29.6503 35.1198C29.8251 34.8577 30.0872 34.7703 30.2619 34.7703C30.4366 34.7703 30.524 34.8577 30.524 35.1198C30.4366 35.5566 29.9998 35.8187 29.3009 35.8187ZM29.7377 37.3039C29.3009 37.3039 29.0388 37.1291 29.0388 36.6923C29.6503 36.6923 30.1745 36.5176 30.6987 36.1681C31.3102 35.8187 31.6597 35.2945 31.7471 34.7703C31.7471 34.5082 31.6597 34.2461 31.485 34.0714C31.3102 33.8967 31.0482 33.8093 30.7861 33.8093C29.9998 33.8093 29.3009 34.0714 28.6894 34.683C28.0778 35.2945 27.7284 35.9934 27.641 36.7797C27.641 37.2165 27.7284 37.5659 28.0778 37.828C28.3399 38.0901 28.7767 38.1775 29.2135 38.1775C29.8251 38.1775 30.524 38.0028 31.3976 37.7407L31.6597 36.6923C30.8734 37.1291 30.2619 37.3039 29.7377 37.3039ZM36.1152 33.9841L35.8531 34.8577C35.5037 34.7703 35.2416 34.683 34.9795 34.683C34.63 34.683 34.368 34.7703 34.368 35.0324C34.368 35.1198 34.4553 35.2945 34.63 35.4692C34.9795 35.7313 35.1542 35.906 35.1542 35.9934C35.3289 36.2555 35.4163 36.5176 35.4163 36.7797C35.329 37.3039 35.1542 37.6533 34.7174 37.828C34.368 38.0028 33.9311 38.0901 33.407 38.0901C32.9701 38.0901 32.5333 38.0028 31.9218 37.828L32.1839 36.867C32.7081 37.1291 33.1449 37.2165 33.407 37.2165C33.4943 37.2165 33.6691 37.2165 33.7564 37.1291C33.8438 37.0418 33.9311 36.9544 33.9311 36.867C33.9311 36.6923 33.8438 36.5176 33.6691 36.3429L33.1449 35.8187C32.9701 35.5566 32.8828 35.2945 32.8828 35.1198C32.9701 34.683 33.1449 34.3335 33.5817 34.0714C33.9311 33.8967 34.368 33.8093 34.8048 33.8093C35.0669 33.8093 35.4163 33.8967 36.1152 33.9841ZM43.3664 32.2368L43.1043 33.1104C42.7548 32.9357 42.4927 32.8483 42.2306 32.8483C41.9685 32.8483 41.7938 32.9357 41.6191 33.1978C41.5317 33.2852 41.4444 33.5472 41.357 33.8967H42.4054L42.1433 34.683H41.0949L39.8718 39.0511H38.3867L39.8718 33.9841C40.0466 33.4599 40.396 32.9357 40.8328 32.6736C41.2696 32.3242 41.7938 32.1494 42.318 32.1494C42.7548 32.0621 43.0169 32.1494 43.3664 32.2368ZM45.1136 36.605C44.8515 37.0418 44.5021 37.3039 44.1526 37.3039C43.9779 37.3039 43.8032 37.2165 43.7158 37.0418C43.6284 36.867 43.6284 36.6923 43.6284 36.5176C43.6284 36.0808 43.8032 35.7313 43.9779 35.3819C44.24 34.9451 44.5021 34.683 44.9389 34.683C45.1136 34.683 45.2883 34.7703 45.3757 34.9451C45.4631 35.1198 45.4631 35.2945 45.4631 35.4692C45.3757 35.906 45.2883 36.2555 45.1136 36.605ZM46.5114 34.1588C46.2493 33.8967 45.8125 33.8093 45.3757 33.8093C44.5894 33.8093 43.8905 34.0714 43.279 34.683C42.6674 35.2945 42.318 35.9934 42.2306 36.7797C42.2306 37.2165 42.318 37.5659 42.6674 37.828C42.9295 38.0901 43.3664 38.1775 43.8032 38.1775C44.5894 38.1775 45.2883 37.9154 45.8999 37.3039C46.5114 36.6923 46.8609 35.9934 46.9482 35.2071C46.9482 34.7703 46.7735 34.4209 46.5114 34.1588ZM51.4911 33.8967L51.0543 35.2071C50.9669 35.1198 50.7049 35.1198 50.6175 35.1198C50.3554 35.1198 50.0059 35.2945 49.5691 35.8187C49.1323 36.2555 48.8702 36.605 48.7829 36.867L48.4334 38.1775H47.0356L48.2587 33.9841H49.6565L49.045 35.8187H49.1323C49.3944 35.3819 49.6565 34.9451 50.0059 34.5956C50.4428 34.1588 50.8796 33.8967 51.229 33.8967C51.3164 33.8093 51.4038 33.8093 51.4911 33.8967ZM57.0824 33.9841L56.8203 34.7703H56.1214C56.034 35.1198 55.8593 35.4692 55.7719 35.8187C55.6846 36.2555 55.5972 36.605 55.5098 36.867C55.5098 37.1291 55.5972 37.3039 55.7719 37.3039C55.8593 37.3039 56.034 37.2165 56.2087 37.1291L55.9466 38.0028C55.5098 38.0901 55.1604 38.1775 54.8983 38.1775C54.6362 38.1775 54.3741 38.0901 54.1994 38.0028C54.0247 37.828 53.9373 37.6533 53.9373 37.3039C53.9373 36.9544 54.112 36.5176 54.1994 35.9934C54.3741 35.5566 55.073 33.2852 55.073 33.2852L56.5582 33.1104L56.2961 33.9841H57.0824ZM63.8093 35.8187C63.8967 35.5566 63.984 35.3819 64.1588 35.1198C64.3335 34.8577 64.5956 34.7703 64.7703 34.7703C64.945 34.7703 65.0324 34.8577 65.0324 35.1198C64.945 35.5566 64.5956 35.8187 63.8093 35.8187ZM64.3335 37.3039C63.8967 37.3039 63.6346 37.1291 63.6346 36.6923C64.2461 36.6923 64.7703 36.5176 65.2945 36.1681C65.906 35.8187 66.2555 35.2945 66.3428 34.7703C66.3428 34.5082 66.2555 34.2461 66.0808 34.0714C65.906 33.8967 65.6439 33.8093 65.3819 33.8093C64.5956 33.8093 63.8967 34.0714 63.2851 34.683C62.6736 35.2945 62.3241 35.9934 62.2368 36.7797C62.2368 37.2165 62.3241 37.5659 62.6736 37.828C62.9357 38.0901 63.3725 38.1775 63.8093 38.1775C64.4209 38.1775 65.1198 38.0028 65.9934 37.7407L66.2555 36.6923C65.4692 37.1291 64.8577 37.3039 64.3335 37.3039ZM77.7001 35.8187C77.7874 35.5566 77.8748 35.3819 78.0495 35.1198C78.2242 34.8577 78.4863 34.7703 78.661 34.7703C78.8358 34.7703 78.9231 34.8577 78.9231 35.1198C78.8358 35.5566 78.4863 35.8187 77.7001 35.8187ZM78.2242 37.3039C77.7874 37.3039 77.5253 37.1291 77.5253 36.6923C78.1369 36.6923 78.661 36.5176 79.1852 36.1681C79.7968 35.8187 80.1462 35.2945 80.2336 34.7703C80.2336 34.5082 80.1462 34.2461 79.9715 34.0714C79.7968 33.8967 79.5347 33.8093 79.2726 33.8093C78.4863 33.8093 77.7874 34.0714 77.1759 34.683C76.5643 35.2945 76.2149 35.9934 76.1275 36.7797C76.1275 37.2165 76.2149 37.5659 76.5643 37.828C76.8264 38.0901 77.2632 38.1775 77.7001 38.1775C78.3116 38.1775 79.0105 38.0028 79.8841 37.7407L80.0589 36.6923C79.3599 37.1291 78.661 37.3039 78.2242 37.3039ZM83.8155 33.8967L83.5534 34.683H82.8545C82.7671 35.0324 82.5924 35.4692 82.505 35.8187C82.4177 36.2555 82.3303 36.605 82.2429 36.867C82.2429 37.1291 82.3303 37.3039 82.505 37.3039C82.5924 37.3039 82.7671 37.2165 82.9418 37.1291L82.6797 38.0028C82.2429 38.0901 81.8935 38.1775 81.6314 38.1775C81.3693 38.1775 81.1072 38.0901 80.9325 38.0028C80.7578 37.828 80.6704 37.6533 80.6704 37.3039C80.6704 36.9544 80.8451 36.5176 80.9325 35.9934C81.1072 35.5566 81.8061 33.2852 81.8061 33.2852L83.2913 33.1104L83.0292 33.8967H83.8155ZM86.8732 33.8967L86.6111 34.683H85.9122C85.8248 35.0324 85.6501 35.4692 85.5627 35.8187C85.4754 36.2555 85.388 36.605 85.3006 36.867C85.3006 37.1291 85.388 37.3039 85.5627 37.3039C85.6501 37.3039 85.8248 37.2165 85.9995 37.1291L85.7374 38.0028C85.3006 38.0901 84.9512 38.1775 84.6891 38.1775C84.427 38.1775 84.1649 38.0901 83.9902 38.0028C83.8155 37.828 83.7281 37.6533 83.7281 37.3039C83.7281 36.9544 83.8155 36.5176 83.9902 35.9934C84.0776 35.5566 84.8638 33.2852 84.8638 33.2852L86.349 33.1104L86.1743 33.8967H86.8732ZM88.3583 35.8187C88.4457 35.5566 88.5331 35.3819 88.7078 35.1198C88.8825 34.8577 89.1446 34.7703 89.3193 34.7703C89.4941 34.7703 89.5814 34.8577 89.5814 35.1198C89.5814 35.5566 89.1446 35.8187 88.3583 35.8187ZM88.8825 37.3039C88.3583 37.3039 88.1836 37.1291 88.1836 36.6923C88.7952 36.6923 89.3193 36.5176 89.8435 36.1681C90.4551 35.8187 90.8045 35.2945 90.8919 34.7703C90.8919 34.5082 90.8045 34.2461 90.6298 34.0714C90.4551 33.8967 90.193 33.8093 89.9309 33.8093C89.1446 33.8093 88.4457 34.0714 87.8342 34.683C87.2226 35.2945 86.8732 35.9934 86.7858 36.7797C86.6984 37.2165 86.8732 37.5659 87.2226 37.828C87.4847 38.0901 87.9215 38.1775 88.3583 38.1775C88.9699 38.1775 89.6688 38.0028 90.5424 37.7407L90.8045 36.6923C90.0182 37.1291 89.4067 37.3039 88.8825 37.3039ZM0.645803 35.8187C0.471077 37.4786 1.51943 38.4396 3.44142 38.4396C4.48978 38.4396 5.53814 38.2648 6.49913 38.0901C6.49913 38.0028 6.76122 37.3039 6.84858 37.0418C6.76122 37.0418 6.67386 37.1291 6.67386 37.1291C5.88759 37.3039 5.01396 37.5659 4.31505 37.5659C3.17933 37.5659 2.48043 36.7797 2.56779 35.644C2.74252 33.8967 4.14033 32.0621 5.88759 32.0621C6.58649 32.0621 7.2854 32.2368 7.9843 32.4989C8.15903 32.3242 8.33375 31.5379 8.42112 31.3632C7.72221 31.1884 6.93595 31.1011 6.23704 31.1011C2.82988 31.1011 0.820529 33.8093 0.645803 35.8187ZM72.1088 35.1198C72.8951 35.1198 73.7687 35.2945 73.6813 36.2555C73.594 37.1291 72.8077 37.3912 72.1088 37.3912C71.8467 37.3912 71.672 37.3912 71.4099 37.3039L72.1088 35.1198ZM73.0698 32.1494C73.2445 32.0621 73.4193 32.0621 73.594 32.0621C74.0308 32.0621 74.555 32.1494 74.555 32.6736C74.4676 33.6346 73.5066 34.0714 73.1572 34.0714H72.633L73.0698 32.1494ZM69.4879 38.1775H72.8951C73.6814 38.1775 75.3412 37.6533 75.4286 36.1681C75.516 35.2945 74.7297 34.7703 73.9434 34.5082C74.9044 34.2461 76.0401 33.5472 76.1275 32.4989C76.2149 31.1011 74.7297 31.1884 73.6813 31.1884H71.4973L69.4879 38.1775ZM95.6095 33.9841L95.0853 35.2945C94.9979 35.2071 94.7358 35.2071 94.6485 35.2071C94.3864 35.2071 94.0369 35.3819 93.6001 35.906C93.1633 36.3429 92.9012 36.6923 92.8139 36.9544L92.4644 38.2648H91.0666L92.2897 34.0714H93.6875L93.076 35.906H93.1633C93.4254 35.4692 93.6875 35.0324 94.0369 34.683C94.4738 34.2461 94.9106 33.9841 95.26 33.9841C95.4348 33.8093 95.5221 33.8967 95.6095 33.9841ZM21.4382 38.0901H20.0404C20.0404 38.0901 20.7393 35.7313 20.8267 35.2945C20.8267 35.2945 20.8267 35.1198 20.7393 35.2071C20.652 35.2071 20.3025 35.5566 19.953 35.9934C19.6036 36.4302 19.3415 36.6923 19.3415 36.867L18.9047 38.0901H17.5069L18.73 33.8093H20.1278L19.5162 35.644H19.6036C19.8657 35.2071 20.1278 34.7703 20.4772 34.4209C20.914 33.9841 21.3509 33.722 21.7003 33.722C21.9624 33.722 22.1371 33.8093 22.2245 33.9841C22.3118 34.0714 22.4866 34.3335 22.3118 34.8577L21.4382 38.0901ZM9.99365 38.0901C9.99365 38.0901 10.6926 35.7313 10.7799 35.2945C10.7799 35.2945 10.8673 35.1198 10.6926 35.2071C10.6052 35.2945 10.2557 35.5566 9.90629 35.9934C9.55684 36.4302 9.29475 36.6923 9.29475 36.867L8.9453 38.1775H7.54749L9.29475 32.2368H10.6926C10.3431 33.3725 9.99365 34.5956 9.55684 35.7313H9.6442C9.90629 35.2945 10.1684 34.8577 10.5178 34.5082C10.9546 34.0714 11.3915 33.8093 11.7409 33.8093C12.003 33.8093 12.1777 33.8967 12.2651 34.0714C12.3525 34.1588 12.5272 34.4209 12.3525 34.9451L11.4788 38.0901H9.99365ZM59.5285 38.0901C59.5285 38.0901 60.2274 35.7313 60.3148 35.2945C60.3148 35.2945 60.4022 35.1198 60.2274 35.2071C60.1401 35.2945 59.7906 35.5566 59.4412 35.9934C59.0917 36.4302 58.8296 36.6923 58.8296 36.867L58.4802 38.1775H57.0824L58.8296 32.2368H60.2274C59.878 33.3725 59.5285 34.5956 59.0917 35.7313C59.3538 35.2945 59.6159 34.8577 59.9653 34.5082C60.4022 34.0714 60.839 33.8093 61.1884 33.8093C61.4505 33.8093 61.6252 33.8967 61.7126 34.0714C61.8 34.1588 61.9747 34.4209 61.8 34.9451L60.9263 38.0901H59.5285Z" fill="#666666"/>
<path d="M11.1295 27.5194H0.558594L5.88774 18.3462H16.4587L11.1295 27.5194ZM21.7878 27.5194H32.3588L27.0296 18.3462H16.4587L21.7878 27.5194ZM21.7878 9.17312L16.4587 0L11.1295 9.17312L16.4587 18.3462L21.7878 9.17312Z" fill="#666666"/>
<path d="M37.0793 23.5883H41.3601V22.1031H37.0793V20.1811H41.8843V18.6086H35.332V27.5196H41.9716V25.9471H37.0793V23.5883ZM36.9919 10.5712L38.8266 17.2108H40.5738L42.4958 10.5712V17.2108H44.1557V8.29973H41.6222L39.7002 14.5025L37.8656 8.29973H35.332V17.2108H36.9919V10.5712ZM76.0432 8.29973H77.7905V17.2108H76.0432V8.29973ZM77.5284 18.6086H79.2757V27.5196H77.5284V18.6086ZM93.6906 8.29973H95.4378V17.2108H93.6906V8.29973ZM44.8546 8.29973H46.6019V17.2108H44.8546V8.29973ZM91.2444 11.7942H87.6625V8.29973H85.9153V17.2108H87.6625V13.2794H91.2444V17.2108H92.9917V8.29973H91.2444V11.7942ZM49.3101 17.2108H51.1448V9.87226H53.2415V8.29973H47.126V9.87226H49.3101V17.2108ZM65.5597 27.5196H67.3943V20.1811H69.5784V18.6086H63.4629V20.1811H65.5597V27.5196ZM64.3366 17.3855C66.608 17.3855 67.9185 16.3371 67.9185 14.3278V8.21236H66.1712V14.5025C66.1712 15.2888 65.5597 15.9003 64.4239 15.9003C63.1135 15.9003 62.6767 15.114 62.6767 14.5025V8.29973H60.9294V14.4151C60.8421 16.5119 62.2399 17.3855 64.3366 17.3855ZM50.8827 23.5883H55.0761V22.1031H50.8827V20.1811H55.6003V18.6086H49.048V27.5196H55.775V25.9471H50.8827V23.5883ZM70.3646 17.2108H72.8982C74.5581 17.2108 75.6064 16.2498 75.6064 14.852C75.6064 13.7162 74.8201 12.7552 73.8592 12.4932C74.6454 12.3184 75.257 11.5322 75.257 10.4838C75.257 9.17336 74.296 8.29973 72.4613 8.29973H68.4426V17.2108H70.3646ZM72.4613 15.813H70.3646V13.2794H72.4613C73.2476 13.2794 73.8592 13.7162 73.8592 14.5899C73.7718 15.2888 73.1602 15.813 72.4613 15.813ZM72.5487 9.69754C73.0729 9.69754 73.5971 10.1344 73.5971 10.7459C73.5971 11.2701 73.2476 11.8816 72.4613 11.8816H70.3646V9.69754H72.5487ZM75.3443 23.2388C76.1306 22.9767 76.9169 22.3652 76.9169 21.0547C76.9169 19.4822 75.8685 18.6086 74.0339 18.6086H70.0152V27.5196H71.8498V24.0251H73.335C74.296 24.0251 74.7328 24.4619 74.9075 25.1608C75.0822 25.8597 74.9949 26.9081 75.1696 27.5196H77.0042C76.8295 26.8207 76.7421 25.9471 76.6548 25.1608C76.6548 23.9377 76.0432 23.5009 75.3443 23.2388ZM71.8498 22.6273V20.1811H73.9465C74.6454 20.1811 75.1696 20.7053 75.1696 21.4042C75.1696 21.9284 74.7328 22.6273 74.0339 22.6273H71.8498ZM44.3304 18.6086H42.5832V27.5196H48.5239V25.9471H44.3304V18.6086ZM56.2992 13.4541C57.7843 13.7162 58.5706 13.9783 58.5706 14.852C58.5706 15.4635 57.9591 15.9877 56.8234 15.9877C55.6876 15.9877 54.9887 15.2888 54.9887 14.5025H53.2415C53.2415 16.075 54.2025 17.4729 56.8234 17.4729C59.2695 17.4729 60.4052 16.1624 60.4052 14.6772C60.4052 13.2794 59.5316 12.4058 57.8717 12.0563C56.2992 11.7069 55.2508 11.7069 55.2508 10.6585C55.2508 9.95962 55.8624 9.61017 56.8234 9.61017C57.8717 9.61017 58.3959 10.1344 58.3959 11.008H60.1431C60.1431 9.61017 59.0948 8.125 56.736 8.125C55.0761 8.125 53.4162 9.08599 53.4162 10.8333C53.4162 12.2311 54.4645 13.1047 56.2992 13.4541ZM81.285 13.4541C82.6828 13.7162 83.5565 13.9783 83.5565 14.852C83.5565 15.4635 82.9449 15.9877 81.8092 15.9877C80.5861 15.9877 79.9746 15.2888 79.9746 14.5025H78.2273C78.2273 16.075 79.1883 17.4729 81.8092 17.4729C84.2554 17.4729 85.3911 16.1624 85.3911 14.6772C85.3911 13.2794 84.5174 12.4058 82.8575 12.0563C81.285 11.7069 80.2367 11.7069 80.2367 10.6585C80.2367 9.95962 80.8482 9.61017 81.8092 9.61017C82.8575 9.61017 83.3817 10.1344 83.3817 11.008H85.129C85.129 9.61017 84.0806 8.125 81.7218 8.125C80.0619 8.125 78.402 9.08599 78.402 10.8333C78.402 12.2311 79.5378 13.1047 81.285 13.4541Z" fill="#666666"/>
<path d="M59.7911 26.1215C58.3059 26.1215 57.5196 24.7237 57.5196 22.9764C57.5196 21.3165 58.3059 19.8313 59.7911 19.8313C60.9268 19.8313 61.451 20.5302 61.7131 21.3165H63.5477C63.2856 19.5692 61.8878 18.2588 59.7037 18.2588C56.9955 18.2588 55.5977 20.3555 55.5977 22.889C55.5977 25.4226 56.9955 27.5193 59.7037 27.5193C61.8004 27.5193 63.2856 26.2962 63.5477 24.3742H61.7131C61.451 25.5099 60.9268 26.1215 59.7911 26.1215ZM83.8159 26.1215C82.3308 26.1215 81.5445 24.7237 81.5445 22.9764C81.5445 21.3165 82.3308 19.8313 83.8159 19.8313C84.9517 19.8313 85.4758 20.5302 85.7379 21.3165H87.5725C87.3105 19.5692 85.9126 18.2588 83.7286 18.2588C81.0203 18.2588 79.6225 20.3555 79.6225 22.889C79.6225 25.4226 81.0203 27.5193 83.7286 27.5193C85.8253 27.5193 87.3105 26.2962 87.5725 24.3742H85.7379C85.4758 25.5099 84.9517 26.1215 83.8159 26.1215Z" fill="#666666"/>
</svg>
