<svg width="226" height="305" viewBox="0 0 226 305" fill="none" xmlns="http://www.w3.org/2000/svg">
<rect width="226" height="305" fill="#F9F8F8"/>
<rect width="226" height="54" fill="#A9D1F4"/>
<path d="M27.5454 27.5659V31H25.9395V21.7578H29.4751C30.5076 21.7578 31.3265 22.0265 31.9316 22.564C32.541 23.1014 32.8457 23.8123 32.8457 24.6968C32.8457 25.6024 32.5474 26.307 31.9507 26.8105C31.3582 27.3141 30.5267 27.5659 29.4561 27.5659H27.5454ZM27.5454 26.2773H29.4751C30.0464 26.2773 30.4823 26.144 30.7827 25.8774C31.0832 25.6066 31.2334 25.2173 31.2334 24.7095C31.2334 24.2101 31.0811 23.8123 30.7764 23.5161C30.4717 23.2157 30.0527 23.0612 29.5195 23.0527H27.5454V26.2773ZM37.6509 27.439H35.8608V31H34.2549V21.7578H37.5049C38.5713 21.7578 39.3944 21.9969 39.9741 22.4751C40.5539 22.9533 40.8438 23.6452 40.8438 24.5508C40.8438 25.1686 40.6935 25.687 40.3931 26.106C40.0968 26.5207 39.6821 26.8402 39.1489 27.0645L41.2246 30.9175V31H39.5044L37.6509 27.439ZM35.8608 26.1504H37.5112C38.0529 26.1504 38.4761 26.015 38.7808 25.7441C39.0854 25.4691 39.2378 25.0946 39.2378 24.6206C39.2378 24.1255 39.096 23.7425 38.8125 23.4717C38.5332 23.2008 38.1143 23.0612 37.5557 23.0527H35.8608V26.1504ZM49.7432 26.6201C49.7432 27.5257 49.5866 28.3213 49.2734 29.0068C48.9603 29.6882 48.5117 30.2129 47.9277 30.5811C47.348 30.945 46.6794 31.127 45.9219 31.127C45.1729 31.127 44.5042 30.945 43.916 30.5811C43.332 30.2129 42.8792 29.6903 42.5576 29.0132C42.2402 28.3361 42.0794 27.5553 42.0752 26.6709V26.1504C42.0752 25.249 42.2339 24.4535 42.5513 23.7637C42.8729 23.0739 43.3236 22.547 43.9033 22.1831C44.4873 21.8149 45.1559 21.6309 45.9092 21.6309C46.6624 21.6309 47.3289 21.8128 47.9087 22.1768C48.4927 22.5365 48.9434 23.057 49.2607 23.7383C49.5781 24.4154 49.7389 25.2046 49.7432 26.106V26.6201ZM48.1372 26.1377C48.1372 25.1136 47.9425 24.3286 47.5532 23.7827C47.1681 23.2368 46.6201 22.9639 45.9092 22.9639C45.2152 22.9639 44.6714 23.2368 44.2778 23.7827C43.8885 24.3244 43.6896 25.0924 43.6812 26.0869V26.6201C43.6812 27.6357 43.8779 28.4207 44.2715 28.9751C44.6693 29.5295 45.2194 29.8066 45.9219 29.8066C46.6328 29.8066 47.1787 29.5358 47.5596 28.9941C47.9447 28.4525 48.1372 27.6611 48.1372 26.6201V26.1377ZM53.4248 21.7578L56.0908 28.8418L58.7505 21.7578H60.8262V31H59.2266V27.9531L59.3853 23.8779L56.6558 31H55.5068L52.7837 23.8843L52.9424 27.9531V31H51.3428V21.7578H53.4248ZM70.1064 26.6201C70.1064 27.5257 69.9499 28.3213 69.6367 29.0068C69.3236 29.6882 68.875 30.2129 68.291 30.5811C67.7113 30.945 67.0426 31.127 66.2852 31.127C65.5361 31.127 64.8675 30.945 64.2793 30.5811C63.6953 30.2129 63.2425 29.6903 62.9209 29.0132C62.6035 28.3361 62.4427 27.5553 62.4385 26.6709V26.1504C62.4385 25.249 62.5972 24.4535 62.9146 23.7637C63.2362 23.0739 63.6868 22.547 64.2666 22.1831C64.8506 21.8149 65.5192 21.6309 66.2725 21.6309C67.0257 21.6309 67.6922 21.8128 68.272 22.1768C68.856 22.5365 69.3066 23.057 69.624 23.7383C69.9414 24.4154 70.1022 25.2046 70.1064 26.106V26.6201ZM68.5005 26.1377C68.5005 25.1136 68.3058 24.3286 67.9165 23.7827C67.5314 23.2368 66.9834 22.9639 66.2725 22.9639C65.5785 22.9639 65.0347 23.2368 64.6411 23.7827C64.2518 24.3244 64.0529 25.0924 64.0444 26.0869V26.6201C64.0444 27.6357 64.2412 28.4207 64.6348 28.9751C65.0326 29.5295 65.5827 29.8066 66.2852 29.8066C66.9961 29.8066 67.542 29.5358 67.9229 28.9941C68.3079 28.4525 68.5005 27.6611 68.5005 26.6201V26.1377ZM77.8379 23.0527H74.9561V31H73.3628V23.0527H70.5063V21.7578H77.8379V23.0527ZM84.4585 26.874H80.6626V29.7178H85.0996V31H79.0566V21.7578H85.0552V23.0527H80.6626V25.6045H84.4585V26.874ZM89.8032 27.439H88.0132V31H86.4072V21.7578H89.6572C90.7236 21.7578 91.5467 21.9969 92.1265 22.4751C92.7062 22.9533 92.9961 23.6452 92.9961 24.5508C92.9961 25.1686 92.8459 25.687 92.5454 26.106C92.2492 26.5207 91.8345 26.8402 91.3013 27.0645L93.377 30.9175V31H91.6567L89.8032 27.439ZM88.0132 26.1504H89.6636C90.2052 26.1504 90.6284 26.015 90.9331 25.7441C91.2378 25.4691 91.3901 25.0946 91.3901 24.6206C91.3901 24.1255 91.2484 23.7425 90.9648 23.4717C90.6855 23.2008 90.2666 23.0612 89.708 23.0527H88.0132V26.1504ZM98.0425 31.7935H96.8301L100.467 21.7578H101.68L98.0425 31.7935ZM111.538 26.874H107.742V29.7178H112.179V31H106.136V21.7578H112.134V23.0527H107.742V25.6045H111.538V26.874ZM120.818 31H119.212L115.092 24.4429V31H113.486V21.7578H115.092L119.225 28.3403V21.7578H120.818V31ZM129.203 23.0527H126.321V31H124.728V23.0527H121.872V21.7578H129.203V23.0527ZM133.818 27.439H132.028V31H130.422V21.7578H133.672C134.738 21.7578 135.561 21.9969 136.141 22.4751C136.721 22.9533 137.011 23.6452 137.011 24.5508C137.011 25.1686 136.861 25.687 136.56 26.106C136.264 26.5207 135.849 26.8402 135.316 27.0645L137.392 30.9175V31H135.671L133.818 27.439ZM132.028 26.1504H133.678C134.22 26.1504 134.643 26.015 134.948 25.7441C135.252 25.4691 135.405 25.0946 135.405 24.6206C135.405 24.1255 135.263 23.7425 134.979 23.4717C134.7 23.2008 134.281 23.0612 133.723 23.0527H132.028V26.1504ZM143.936 26.874H140.14V29.7178H144.577V31H138.534V21.7578H144.533V23.0527H140.14V25.6045H143.936V26.874ZM147.491 27.5659V31H145.885V21.7578H149.42C150.453 21.7578 151.272 22.0265 151.877 22.564C152.486 23.1014 152.791 23.8123 152.791 24.6968C152.791 25.6024 152.493 26.307 151.896 26.8105C151.304 27.3141 150.472 27.5659 149.401 27.5659H147.491ZM147.491 26.2773H149.42C149.992 26.2773 150.428 26.144 150.728 25.8774C151.028 25.6066 151.179 25.2173 151.179 24.7095C151.179 24.2101 151.026 23.8123 150.722 23.5161C150.417 23.2157 149.998 23.0612 149.465 23.0527H147.491V26.2773ZM157.596 27.439H155.806V31H154.2V21.7578H157.45C158.517 21.7578 159.34 21.9969 159.919 22.4751C160.499 22.9533 160.789 23.6452 160.789 24.5508C160.789 25.1686 160.639 25.687 160.338 26.106C160.042 26.5207 159.627 26.8402 159.094 27.0645L161.17 30.9175V31H159.45L157.596 27.439ZM155.806 26.1504H157.457C157.998 26.1504 158.421 26.015 158.726 25.7441C159.031 25.4691 159.183 25.0946 159.183 24.6206C159.183 24.1255 159.041 23.7425 158.758 23.4717C158.479 23.2008 158.06 23.0612 157.501 23.0527H155.806V26.1504ZM167.714 26.874H163.918V29.7178H168.355V31H162.312V21.7578H168.311V23.0527H163.918V25.6045H167.714V26.874ZM176.995 31H175.389L171.269 24.4429V31H169.663V21.7578H171.269L175.401 28.3403V21.7578H176.995V31ZM184.294 26.874H180.499V29.7178H184.936V31H178.893V21.7578H184.891V23.0527H180.499V25.6045H184.294V26.874ZM193.003 21.7578V27.9341C193.003 28.9159 192.688 29.6945 192.058 30.27C191.431 30.8413 190.596 31.127 189.55 31.127C188.492 31.127 187.652 30.8455 187.03 30.2827C186.408 29.7157 186.097 28.9307 186.097 27.9277V21.7578H187.697V27.9404C187.697 28.5583 187.853 29.0301 188.167 29.356C188.48 29.6818 188.941 29.8447 189.55 29.8447C190.786 29.8447 191.404 29.193 191.404 27.8896V21.7578H193.003ZM198.12 27.439H196.33V31H194.724V21.7578H197.974C199.04 21.7578 199.863 21.9969 200.443 22.4751C201.023 22.9533 201.312 23.6452 201.312 24.5508C201.312 25.1686 201.162 25.687 200.862 26.106C200.566 26.5207 200.151 26.8402 199.618 27.0645L201.693 30.9175V31H199.973L198.12 27.439ZM196.33 26.1504H197.98C198.522 26.1504 198.945 26.015 199.25 25.7441C199.554 25.4691 199.707 25.0946 199.707 24.6206C199.707 24.1255 199.565 23.7425 199.281 23.4717C199.002 23.2008 198.583 23.0612 198.024 23.0527H196.33V26.1504Z" fill="white"/>
<path d="M31.9551 86.2832C31.9551 87.2585 31.7865 88.1152 31.4492 88.8535C31.112 89.5872 30.6289 90.1523 30 90.5488C29.3757 90.9408 28.6556 91.1367 27.8398 91.1367C27.0332 91.1367 26.3132 90.9408 25.6797 90.5488C25.0508 90.1523 24.5632 89.5895 24.2168 88.8604C23.875 88.1312 23.7018 87.2904 23.6973 86.3379V85.7773C23.6973 84.8066 23.8682 83.9499 24.21 83.207C24.5563 82.4642 25.0417 81.8968 25.666 81.5049C26.2949 81.1084 27.015 80.9102 27.8262 80.9102C28.6374 80.9102 29.3551 81.1061 29.9795 81.498C30.6084 81.8854 31.0938 82.446 31.4355 83.1797C31.7773 83.9089 31.9505 84.7588 31.9551 85.7295V86.2832ZM30.2256 85.7637C30.2256 84.6608 30.016 83.8154 29.5967 83.2275C29.182 82.6396 28.5918 82.3457 27.8262 82.3457C27.0788 82.3457 26.4932 82.6396 26.0693 83.2275C25.6501 83.8109 25.4359 84.638 25.4268 85.709V86.2832C25.4268 87.377 25.6387 88.2223 26.0625 88.8193C26.4909 89.4163 27.0833 89.7148 27.8398 89.7148C28.6055 89.7148 29.1934 89.4232 29.6035 88.8398C30.0182 88.2565 30.2256 87.4043 30.2256 86.2832V85.7637ZM37.335 87.165H35.4072V91H33.6777V81.0469H37.1777C38.3262 81.0469 39.2126 81.3044 39.8369 81.8193C40.4613 82.3343 40.7734 83.0794 40.7734 84.0547C40.7734 84.7201 40.6117 85.2783 40.2881 85.7295C39.9691 86.1761 39.5225 86.5202 38.9482 86.7617L41.1836 90.9111V91H39.3311L37.335 87.165ZM35.4072 85.7773H37.1846C37.7679 85.7773 38.2236 85.6315 38.5518 85.3398C38.8799 85.0436 39.0439 84.6403 39.0439 84.1299C39.0439 83.5967 38.8913 83.1842 38.5859 82.8926C38.2852 82.6009 37.834 82.4505 37.2324 82.4414H35.4072V85.7773ZM44.2393 91H42.5166V81.0469H44.2393V91ZM53.9941 89.708C53.6341 90.1774 53.1351 90.5329 52.4971 90.7744C51.859 91.016 51.1344 91.1367 50.3232 91.1367C49.4893 91.1367 48.751 90.9476 48.1084 90.5693C47.4658 90.1911 46.9691 89.651 46.6182 88.9492C46.2718 88.2428 46.0918 87.4202 46.0781 86.4814V85.7021C46.0781 84.1982 46.4382 83.0247 47.1582 82.1816C47.8783 81.334 48.8831 80.9102 50.1729 80.9102C51.2803 80.9102 52.1598 81.1836 52.8115 81.7305C53.4632 82.2773 53.8551 83.0658 53.9873 84.0957H52.292C52.1006 82.8971 51.4056 82.2979 50.207 82.2979C49.4323 82.2979 48.8421 82.5781 48.4365 83.1387C48.0355 83.6947 47.8281 84.5127 47.8145 85.5928V86.3584C47.8145 87.4339 48.04 88.2702 48.4912 88.8672C48.9469 89.4596 49.5781 89.7559 50.3848 89.7559C51.2689 89.7559 51.8978 89.5553 52.2715 89.1543V87.2061H50.2207V85.8936H53.9941V89.708ZM57.7197 91H55.9971V81.0469H57.7197V91ZM67.7412 91H66.0117L61.5752 83.9385V91H59.8457V81.0469H61.5752L66.0254 88.1357V81.0469H67.7412V91ZM75.4795 88.6826H71.624L70.8174 91H69.0195L72.7793 81.0469H74.3311L78.0977 91H76.293L75.4795 88.6826ZM72.1094 87.2881H74.9941L73.5518 83.1592L72.1094 87.2881ZM85.6035 82.4414H82.5V91H80.7842V82.4414H77.708V81.0469H85.6035V82.4414ZM88.7412 91H87.0186V81.0469H88.7412V91ZM98.8105 86.2832C98.8105 87.2585 98.6419 88.1152 98.3047 88.8535C97.9674 89.5872 97.4844 90.1523 96.8555 90.5488C96.2311 90.9408 95.5111 91.1367 94.6953 91.1367C93.8887 91.1367 93.1686 90.9408 92.5352 90.5488C91.9062 90.1523 91.4186 89.5895 91.0723 88.8604C90.7305 88.1312 90.5573 87.2904 90.5527 86.3379V85.7773C90.5527 84.8066 90.7236 83.9499 91.0654 83.207C91.4118 82.4642 91.8971 81.8968 92.5215 81.5049C93.1504 81.1084 93.8704 80.9102 94.6816 80.9102C95.4928 80.9102 96.2106 81.1061 96.835 81.498C97.4639 81.8854 97.9492 82.446 98.291 83.1797C98.6328 83.9089 98.806 84.7588 98.8105 85.7295V86.2832ZM97.0811 85.7637C97.0811 84.6608 96.8714 83.8154 96.4521 83.2275C96.0374 82.6396 95.4473 82.3457 94.6816 82.3457C93.9342 82.3457 93.3486 82.6396 92.9248 83.2275C92.5055 83.8109 92.2913 84.638 92.2822 85.709V86.2832C92.2822 87.377 92.4941 88.2223 92.918 88.8193C93.3464 89.4163 93.9388 89.7148 94.6953 89.7148C95.4609 89.7148 96.0488 89.4232 96.459 88.8398C96.8737 88.2565 97.0811 87.4043 97.0811 86.2832V85.7637ZM108.429 91H106.699L102.263 83.9385V91H100.533V81.0469H102.263L106.713 88.1357V81.0469H108.429V91ZM32.085 122.723C32.085 122.326 32.2103 122 32.4609 121.745C32.7161 121.49 33.0534 121.362 33.4727 121.362C33.8874 121.362 34.2246 121.488 34.4844 121.738C34.7441 121.984 34.874 122.319 34.874 122.743V122.996C34.874 123.393 34.7487 123.716 34.498 123.967C34.2474 124.217 33.9079 124.343 33.4795 124.343C33.0557 124.343 32.7161 124.217 32.4609 123.967C32.2103 123.712 32.085 123.383 32.085 122.982V122.723ZM46.4746 126.927H51.1914V128H45.1553V118.047H46.4746V126.927ZM55.5596 128.137C54.557 128.137 53.7412 127.809 53.1123 127.152C52.4834 126.492 52.1689 125.61 52.1689 124.507V124.274C52.1689 123.541 52.3079 122.887 52.5859 122.312C52.8685 121.734 53.2604 121.283 53.7617 120.959C54.2676 120.631 54.8145 120.467 55.4023 120.467C56.3639 120.467 57.1113 120.784 57.6445 121.417C58.1777 122.05 58.4443 122.957 58.4443 124.138V124.664H53.4336C53.4518 125.393 53.6637 125.983 54.0693 126.435C54.4795 126.881 54.999 127.104 55.6279 127.104C56.0745 127.104 56.4528 127.013 56.7627 126.831C57.0726 126.649 57.3438 126.407 57.5762 126.106L58.3486 126.708C57.7288 127.66 56.7992 128.137 55.5596 128.137ZM55.4023 121.506C54.8919 121.506 54.4635 121.693 54.1172 122.066C53.7708 122.436 53.5566 122.955 53.4746 123.625H57.1797V123.529C57.1432 122.887 56.9701 122.39 56.6602 122.039C56.3503 121.684 55.931 121.506 55.4023 121.506ZM61.6299 118.812V120.604H63.0107V121.581H61.6299V126.168C61.6299 126.464 61.6914 126.688 61.8145 126.838C61.9375 126.984 62.1471 127.057 62.4434 127.057C62.5892 127.057 62.7897 127.029 63.0449 126.975V128C62.7122 128.091 62.3887 128.137 62.0742 128.137C61.5091 128.137 61.083 127.966 60.7959 127.624C60.5088 127.282 60.3652 126.797 60.3652 126.168V121.581H59.0186V120.604H60.3652V118.812H61.6299ZM66.21 118.812V120.604H67.5908V121.581H66.21V126.168C66.21 126.464 66.2715 126.688 66.3945 126.838C66.5176 126.984 66.7272 127.057 67.0234 127.057C67.1693 127.057 67.3698 127.029 67.625 126.975V128C67.2923 128.091 66.9688 128.137 66.6543 128.137C66.0892 128.137 65.6631 127.966 65.376 127.624C65.0889 127.282 64.9453 126.797 64.9453 126.168V121.581H63.5986V120.604H64.9453V118.812H66.21ZM72.1436 128.137C71.141 128.137 70.3252 127.809 69.6963 127.152C69.0674 126.492 68.7529 125.61 68.7529 124.507V124.274C68.7529 123.541 68.8919 122.887 69.1699 122.312C69.4525 121.734 69.8444 121.283 70.3457 120.959C70.8516 120.631 71.3984 120.467 71.9863 120.467C72.9479 120.467 73.6953 120.784 74.2285 121.417C74.7617 122.05 75.0283 122.957 75.0283 124.138V124.664H70.0176C70.0358 125.393 70.2477 125.983 70.6533 126.435C71.0635 126.881 71.583 127.104 72.2119 127.104C72.6585 127.104 73.0368 127.013 73.3467 126.831C73.6566 126.649 73.9277 126.407 74.1602 126.106L74.9326 126.708C74.3128 127.66 73.3831 128.137 72.1436 128.137ZM71.9863 121.506C71.4759 121.506 71.0475 121.693 70.7012 122.066C70.3548 122.436 70.1406 122.955 70.0586 123.625H73.7637V123.529C73.7272 122.887 73.554 122.39 73.2441 122.039C72.9342 121.684 72.515 121.506 71.9863 121.506ZM80.0732 121.738C79.8818 121.706 79.6745 121.69 79.4512 121.69C78.6217 121.69 78.0589 122.044 77.7627 122.75V128H76.498V120.604H77.7285L77.749 121.458C78.1637 120.797 78.7516 120.467 79.5127 120.467C79.7588 120.467 79.9456 120.499 80.0732 120.562V121.738ZM84.3799 124.233C84.3799 123.509 84.5212 122.857 84.8037 122.278C85.0908 121.7 85.4873 121.253 85.9932 120.938C86.5036 120.624 87.0846 120.467 87.7363 120.467C88.7435 120.467 89.557 120.815 90.1768 121.513C90.8011 122.21 91.1133 123.137 91.1133 124.295V124.384C91.1133 125.104 90.9743 125.751 90.6963 126.325C90.4229 126.895 90.0286 127.339 89.5137 127.658C89.0033 127.977 88.4154 128.137 87.75 128.137C86.7474 128.137 85.9339 127.788 85.3096 127.091C84.6898 126.394 84.3799 125.471 84.3799 124.322V124.233ZM85.6514 124.384C85.6514 125.204 85.8405 125.863 86.2188 126.359C86.6016 126.856 87.112 127.104 87.75 127.104C88.3926 127.104 88.903 126.854 89.2812 126.353C89.6595 125.847 89.8486 125.14 89.8486 124.233C89.8486 123.422 89.6549 122.766 89.2676 122.265C88.8848 121.759 88.3743 121.506 87.7363 121.506C87.112 121.506 86.6084 121.754 86.2256 122.251C85.8428 122.748 85.6514 123.459 85.6514 124.384ZM93.3213 128V121.581H92.1523V120.604H93.3213V119.845C93.3213 119.052 93.5332 118.439 93.957 118.006C94.3809 117.573 94.9801 117.356 95.7549 117.356C96.0465 117.356 96.3359 117.395 96.623 117.473L96.5547 118.498C96.3405 118.457 96.1126 118.437 95.8711 118.437C95.4609 118.437 95.1442 118.557 94.9209 118.799C94.6976 119.036 94.5859 119.378 94.5859 119.824V120.604H96.165V121.581H94.5859V128H93.3213ZM102.646 128H101.333V118.047H102.646V128ZM106.05 120.604L106.091 121.533C106.656 120.822 107.394 120.467 108.306 120.467C109.869 120.467 110.657 121.349 110.671 123.112V128H109.406V123.105C109.402 122.572 109.279 122.178 109.037 121.923C108.8 121.668 108.429 121.54 107.923 121.54C107.513 121.54 107.153 121.649 106.843 121.868C106.533 122.087 106.291 122.374 106.118 122.729V128H104.854V120.604H106.05ZM114.294 118.812V120.604H115.675V121.581H114.294V126.168C114.294 126.464 114.355 126.688 114.479 126.838C114.602 126.984 114.811 127.057 115.107 127.057C115.253 127.057 115.454 127.029 115.709 126.975V128C115.376 128.091 115.053 128.137 114.738 128.137C114.173 128.137 113.747 127.966 113.46 127.624C113.173 127.282 113.029 126.797 113.029 126.168V121.581H111.683V120.604H113.029V118.812H114.294ZM120.228 128.137C119.225 128.137 118.409 127.809 117.78 127.152C117.151 126.492 116.837 125.61 116.837 124.507V124.274C116.837 123.541 116.976 122.887 117.254 122.312C117.536 121.734 117.928 121.283 118.43 120.959C118.936 120.631 119.482 120.467 120.07 120.467C121.032 120.467 121.779 120.784 122.312 121.417C122.846 122.05 123.112 122.957 123.112 124.138V124.664H118.102C118.12 125.393 118.332 125.983 118.737 126.435C119.147 126.881 119.667 127.104 120.296 127.104C120.743 127.104 121.121 127.013 121.431 126.831C121.741 126.649 122.012 126.407 122.244 126.106L123.017 126.708C122.397 127.66 121.467 128.137 120.228 128.137ZM120.07 121.506C119.56 121.506 119.132 121.693 118.785 122.066C118.439 122.436 118.225 122.955 118.143 123.625H121.848V123.529C121.811 122.887 121.638 122.39 121.328 122.039C121.018 121.684 120.599 121.506 120.07 121.506ZM125.778 120.604L125.819 121.533C126.384 120.822 127.123 120.467 128.034 120.467C129.597 120.467 130.386 121.349 130.399 123.112V128H129.135V123.105C129.13 122.572 129.007 122.178 128.766 121.923C128.529 121.668 128.157 121.54 127.651 121.54C127.241 121.54 126.881 121.649 126.571 121.868C126.261 122.087 126.02 122.374 125.847 122.729V128H124.582V120.604H125.778ZM134.022 118.812V120.604H135.403V121.581H134.022V126.168C134.022 126.464 134.084 126.688 134.207 126.838C134.33 126.984 134.54 127.057 134.836 127.057C134.982 127.057 135.182 127.029 135.438 126.975V128C135.105 128.091 134.781 128.137 134.467 128.137C133.902 128.137 133.476 127.966 133.188 127.624C132.901 127.282 132.758 126.797 132.758 126.168V121.581H131.411V120.604H132.758V118.812H134.022ZM138.261 128H136.996V120.604H138.261V128ZM136.894 118.642C136.894 118.437 136.955 118.263 137.078 118.122C137.206 117.981 137.393 117.91 137.639 117.91C137.885 117.91 138.072 117.981 138.199 118.122C138.327 118.263 138.391 118.437 138.391 118.642C138.391 118.847 138.327 119.018 138.199 119.154C138.072 119.291 137.885 119.359 137.639 119.359C137.393 119.359 137.206 119.291 137.078 119.154C136.955 119.018 136.894 118.847 136.894 118.642ZM139.956 124.233C139.956 123.509 140.097 122.857 140.38 122.278C140.667 121.7 141.063 121.253 141.569 120.938C142.08 120.624 142.661 120.467 143.312 120.467C144.32 120.467 145.133 120.815 145.753 121.513C146.377 122.21 146.689 123.137 146.689 124.295V124.384C146.689 125.104 146.55 125.751 146.272 126.325C145.999 126.895 145.605 127.339 145.09 127.658C144.579 127.977 143.992 128.137 143.326 128.137C142.324 128.137 141.51 127.788 140.886 127.091C140.266 126.394 139.956 125.471 139.956 124.322V124.233ZM141.228 124.384C141.228 125.204 141.417 125.863 141.795 126.359C142.178 126.856 142.688 127.104 143.326 127.104C143.969 127.104 144.479 126.854 144.857 126.353C145.236 125.847 145.425 125.14 145.425 124.233C145.425 123.422 145.231 122.766 144.844 122.265C144.461 121.759 143.951 121.506 143.312 121.506C142.688 121.506 142.185 121.754 141.802 122.251C141.419 122.748 141.228 123.459 141.228 124.384ZM149.472 120.604L149.513 121.533C150.078 120.822 150.816 120.467 151.728 120.467C153.291 120.467 154.079 121.349 154.093 123.112V128H152.828V123.105C152.824 122.572 152.701 122.178 152.459 121.923C152.222 121.668 151.851 121.54 151.345 121.54C150.935 121.54 150.575 121.649 150.265 121.868C149.955 122.087 149.713 122.374 149.54 122.729V128H148.275V120.604H149.472ZM32.085 143.723C32.085 143.326 32.2103 143 32.4609 142.745C32.7161 142.49 33.0534 142.362 33.4727 142.362C33.8874 142.362 34.2246 142.488 34.4844 142.738C34.7441 142.984 34.874 143.319 34.874 143.743V143.996C34.874 144.393 34.7487 144.716 34.498 144.967C34.2474 145.217 33.9079 145.343 33.4795 145.343C33.0557 145.343 32.7161 145.217 32.4609 144.967C32.2103 144.712 32.085 144.383 32.085 143.982V143.723ZM52.8047 149H51.4854L46.4746 141.33V149H45.1553V139.047H46.4746L51.499 146.751V139.047H52.8047V149ZM55.1357 149V139.047H57.9453C58.8112 139.047 59.5768 139.238 60.2422 139.621C60.9076 140.004 61.4202 140.549 61.7803 141.255C62.1449 141.961 62.3294 142.772 62.334 143.688V144.324C62.334 145.263 62.1517 146.086 61.7871 146.792C61.4271 147.498 60.9098 148.041 60.2354 148.419C59.5654 148.797 58.7839 148.991 57.8906 149H55.1357ZM56.4482 140.127V147.927H57.8291C58.8408 147.927 59.627 147.612 60.1875 146.983C60.7526 146.354 61.0352 145.459 61.0352 144.297V143.716C61.0352 142.586 60.7686 141.708 60.2354 141.084C59.7067 140.455 58.9548 140.136 57.9795 140.127H56.4482ZM69.6689 146.402H65.499L64.5625 149H63.209L67.0098 139.047H68.1582L71.9658 149H70.6191L69.6689 146.402ZM65.8955 145.322H69.2793L67.584 140.667L65.8955 145.322ZM79.7109 144.563C78.5853 144.24 77.765 143.843 77.25 143.374C76.7396 142.9 76.4844 142.317 76.4844 141.624C76.4844 140.84 76.7965 140.193 77.4209 139.683C78.0498 139.168 78.8656 138.91 79.8682 138.91C80.5518 138.91 81.1602 139.042 81.6934 139.307C82.2311 139.571 82.6458 139.936 82.9375 140.4C83.2337 140.865 83.3818 141.373 83.3818 141.925H82.0625C82.0625 141.323 81.8711 140.852 81.4883 140.51C81.1055 140.163 80.5654 139.99 79.8682 139.99C79.221 139.99 78.7152 140.134 78.3506 140.421C77.9906 140.703 77.8105 141.098 77.8105 141.604C77.8105 142.009 77.9814 142.353 78.3232 142.636C78.6696 142.914 79.2552 143.169 80.0801 143.401C80.9095 143.634 81.5566 143.891 82.0215 144.174C82.4909 144.452 82.8372 144.778 83.0605 145.151C83.2884 145.525 83.4023 145.965 83.4023 146.471C83.4023 147.277 83.0879 147.924 82.459 148.412C81.8301 148.895 80.9893 149.137 79.9365 149.137C79.2529 149.137 78.6149 149.007 78.0225 148.747C77.43 148.483 76.972 148.123 76.6484 147.667C76.3294 147.211 76.1699 146.694 76.1699 146.115H77.4893C77.4893 146.717 77.7103 147.193 78.1523 147.544C78.599 147.89 79.1937 148.063 79.9365 148.063C80.6292 148.063 81.1602 147.922 81.5293 147.64C81.8984 147.357 82.083 146.972 82.083 146.484C82.083 145.997 81.9121 145.621 81.5703 145.356C81.2285 145.088 80.6087 144.823 79.7109 144.563ZM86.2666 149H85.002V141.604H86.2666V149ZM84.8994 139.642C84.8994 139.437 84.9609 139.263 85.084 139.122C85.2116 138.981 85.3984 138.91 85.6445 138.91C85.8906 138.91 86.0775 138.981 86.2051 139.122C86.3327 139.263 86.3965 139.437 86.3965 139.642C86.3965 139.847 86.3327 140.018 86.2051 140.154C86.0775 140.291 85.8906 140.359 85.6445 140.359C85.3984 140.359 85.2116 140.291 85.084 140.154C84.9609 140.018 84.8994 139.847 84.8994 139.642ZM87.9961 145.24C87.9961 144.087 88.2627 143.171 88.7959 142.492C89.3291 141.809 90.0355 141.467 90.915 141.467C91.8174 141.467 92.5215 141.786 93.0273 142.424L93.0889 141.604H94.2441V148.822C94.2441 149.779 93.9593 150.534 93.3896 151.085C92.8245 151.636 92.0635 151.912 91.1064 151.912C90.5732 151.912 90.0514 151.798 89.541 151.57C89.0306 151.342 88.641 151.03 88.3721 150.634L89.0283 149.875C89.5706 150.545 90.2337 150.88 91.0176 150.88C91.6328 150.88 92.1113 150.707 92.4531 150.36C92.7995 150.014 92.9727 149.526 92.9727 148.897V148.262C92.4668 148.845 91.7764 149.137 90.9014 149.137C90.0355 149.137 89.3337 148.788 88.7959 148.091C88.2627 147.394 87.9961 146.443 87.9961 145.24ZM89.2676 145.384C89.2676 146.218 89.4385 146.874 89.7803 147.353C90.1221 147.826 90.6006 148.063 91.2158 148.063C92.0133 148.063 92.599 147.701 92.9727 146.977V143.6C92.5853 142.893 92.0042 142.54 91.2295 142.54C90.6143 142.54 90.1335 142.779 89.7871 143.258C89.4408 143.736 89.2676 144.445 89.2676 145.384ZM97.3545 141.604L97.3955 142.533C97.9606 141.822 98.6989 141.467 99.6104 141.467C101.174 141.467 101.962 142.349 101.976 144.112V149H100.711V144.105C100.706 143.572 100.583 143.178 100.342 142.923C100.105 142.668 99.7334 142.54 99.2275 142.54C98.8174 142.54 98.4574 142.649 98.1475 142.868C97.8376 143.087 97.596 143.374 97.4229 143.729V149H96.1582V141.604H97.3545ZM108.449 149C108.376 148.854 108.317 148.594 108.271 148.221C107.684 148.831 106.982 149.137 106.166 149.137C105.437 149.137 104.838 148.932 104.368 148.521C103.903 148.107 103.671 147.583 103.671 146.949C103.671 146.179 103.963 145.582 104.546 145.158C105.134 144.73 105.959 144.516 107.021 144.516H108.251V143.935C108.251 143.493 108.119 143.142 107.854 142.882C107.59 142.618 107.201 142.485 106.686 142.485C106.234 142.485 105.856 142.599 105.551 142.827C105.245 143.055 105.093 143.331 105.093 143.654H103.821C103.821 143.285 103.951 142.93 104.211 142.588C104.475 142.242 104.831 141.968 105.277 141.768C105.729 141.567 106.223 141.467 106.761 141.467C107.613 141.467 108.281 141.681 108.764 142.109C109.247 142.533 109.497 143.119 109.516 143.866V147.271C109.516 147.95 109.602 148.49 109.775 148.891V149H108.449ZM106.351 148.036C106.747 148.036 107.123 147.934 107.479 147.729C107.834 147.523 108.091 147.257 108.251 146.929V145.411H107.26C105.71 145.411 104.936 145.865 104.936 146.771C104.936 147.168 105.068 147.478 105.332 147.701C105.596 147.924 105.936 148.036 106.351 148.036ZM113.214 139.812V141.604H114.595V142.581H113.214V147.168C113.214 147.464 113.275 147.688 113.398 147.838C113.521 147.984 113.731 148.057 114.027 148.057C114.173 148.057 114.374 148.029 114.629 147.975V149C114.296 149.091 113.973 149.137 113.658 149.137C113.093 149.137 112.667 148.966 112.38 148.624C112.093 148.282 111.949 147.797 111.949 147.168V142.581H110.603V141.604H111.949V139.812H113.214ZM120.645 148.269C120.152 148.847 119.43 149.137 118.478 149.137C117.689 149.137 117.088 148.909 116.673 148.453C116.263 147.993 116.055 147.314 116.051 146.416V141.604H117.315V146.382C117.315 147.503 117.771 148.063 118.683 148.063C119.649 148.063 120.291 147.703 120.61 146.983V141.604H121.875V149H120.672L120.645 148.269ZM127.378 142.738C127.187 142.706 126.979 142.69 126.756 142.69C125.926 142.69 125.364 143.044 125.067 143.75V149H123.803V141.604H125.033L125.054 142.458C125.468 141.797 126.056 141.467 126.817 141.467C127.063 141.467 127.25 141.499 127.378 141.562V142.738ZM131.479 149.137C130.477 149.137 129.661 148.809 129.032 148.152C128.403 147.492 128.089 146.61 128.089 145.507V145.274C128.089 144.541 128.228 143.887 128.506 143.312C128.788 142.734 129.18 142.283 129.682 141.959C130.188 141.631 130.734 141.467 131.322 141.467C132.284 141.467 133.031 141.784 133.564 142.417C134.098 143.05 134.364 143.957 134.364 145.138V145.664H129.354C129.372 146.393 129.584 146.983 129.989 147.435C130.399 147.881 130.919 148.104 131.548 148.104C131.994 148.104 132.373 148.013 132.683 147.831C132.993 147.649 133.264 147.407 133.496 147.106L134.269 147.708C133.649 148.66 132.719 149.137 131.479 149.137ZM131.322 142.506C130.812 142.506 130.383 142.693 130.037 143.066C129.691 143.436 129.477 143.955 129.395 144.625H133.1V144.529C133.063 143.887 132.89 143.39 132.58 143.039C132.27 142.684 131.851 142.506 131.322 142.506ZM32.085 164.723C32.085 164.326 32.2103 164 32.4609 163.745C32.7161 163.49 33.0534 163.362 33.4727 163.362C33.8874 163.362 34.2246 163.488 34.4844 163.738C34.7441 163.984 34.874 164.319 34.874 164.743V164.996C34.874 165.393 34.7487 165.716 34.498 165.967C34.2474 166.217 33.9079 166.343 33.4795 166.343C33.0557 166.343 32.7161 166.217 32.4609 165.967C32.2103 165.712 32.085 165.383 32.085 164.982V164.723ZM46.5635 170H45.251V160.047H46.5635V170ZM48.4639 166.24C48.4639 165.105 48.7327 164.194 49.2705 163.506C49.8083 162.813 50.5124 162.467 51.3828 162.467C52.2487 162.467 52.9346 162.763 53.4404 163.355V159.5H54.7051V170H53.543L53.4814 169.207C52.9756 169.827 52.2715 170.137 51.3691 170.137C50.5124 170.137 49.8128 169.786 49.2705 169.084C48.7327 168.382 48.4639 167.466 48.4639 166.336V166.24ZM49.7285 166.384C49.7285 167.222 49.9017 167.879 50.248 168.353C50.5944 168.826 51.0729 169.063 51.6836 169.063C52.4857 169.063 53.0713 168.703 53.4404 167.983V164.586C53.0622 163.889 52.4811 163.54 51.6973 163.54C51.0775 163.54 50.5944 163.779 50.248 164.258C49.9017 164.736 49.7285 165.445 49.7285 166.384ZM59.7432 170.137C58.7406 170.137 57.9248 169.809 57.2959 169.152C56.667 168.492 56.3525 167.61 56.3525 166.507V166.274C56.3525 165.541 56.4915 164.887 56.7695 164.312C57.0521 163.734 57.444 163.283 57.9453 162.959C58.4512 162.631 58.998 162.467 59.5859 162.467C60.5475 162.467 61.2949 162.784 61.8281 163.417C62.3613 164.05 62.6279 164.957 62.6279 166.138V166.664H57.6172C57.6354 167.393 57.8473 167.983 58.2529 168.435C58.6631 168.881 59.1826 169.104 59.8115 169.104C60.2581 169.104 60.6364 169.013 60.9463 168.831C61.2562 168.649 61.5273 168.407 61.7598 168.106L62.5322 168.708C61.9124 169.66 60.9827 170.137 59.7432 170.137ZM59.5859 163.506C59.0755 163.506 58.6471 163.693 58.3008 164.066C57.9544 164.436 57.7402 164.955 57.6582 165.625H61.3633V165.529C61.3268 164.887 61.1536 164.39 60.8438 164.039C60.5339 163.684 60.1146 163.506 59.5859 163.506ZM68.6641 170C68.5911 169.854 68.5319 169.594 68.4863 169.221C67.8984 169.831 67.1966 170.137 66.3809 170.137C65.6517 170.137 65.0524 169.932 64.583 169.521C64.1182 169.107 63.8857 168.583 63.8857 167.949C63.8857 167.179 64.1774 166.582 64.7607 166.158C65.3486 165.73 66.1735 165.516 67.2354 165.516H68.4658V164.935C68.4658 164.493 68.3337 164.142 68.0693 163.882C67.805 163.618 67.4154 163.485 66.9004 163.485C66.4492 163.485 66.071 163.599 65.7656 163.827C65.4603 164.055 65.3076 164.331 65.3076 164.654H64.0361C64.0361 164.285 64.166 163.93 64.4258 163.588C64.6901 163.242 65.0456 162.968 65.4922 162.768C65.9434 162.567 66.4378 162.467 66.9756 162.467C67.8278 162.467 68.4954 162.681 68.9785 163.109C69.4616 163.533 69.7122 164.119 69.7305 164.866V168.271C69.7305 168.95 69.8171 169.49 69.9902 169.891V170H68.6641ZM66.5654 169.036C66.9619 169.036 67.3379 168.934 67.6934 168.729C68.0488 168.523 68.3063 168.257 68.4658 167.929V166.411H67.4746C65.9251 166.411 65.1504 166.865 65.1504 167.771C65.1504 168.168 65.2826 168.478 65.5469 168.701C65.8112 168.924 66.1507 169.036 66.5654 169.036ZM71.6719 171.982L70.9541 171.49C71.3825 170.893 71.6058 170.278 71.624 169.645V168.503H72.8613V169.494C72.8613 169.954 72.7474 170.415 72.5195 170.875C72.2962 171.335 72.0137 171.704 71.6719 171.982ZM79.4443 166.104V170H78.1318V160.047H81.8027C82.8919 160.047 83.7441 160.325 84.3594 160.881C84.9792 161.437 85.2891 162.173 85.2891 163.089C85.2891 164.055 84.986 164.8 84.3799 165.324C83.7783 165.844 82.9147 166.104 81.7891 166.104H79.4443ZM79.4443 165.03H81.8027C82.5046 165.03 83.0423 164.866 83.416 164.538C83.7897 164.205 83.9766 163.727 83.9766 163.103C83.9766 162.51 83.7897 162.036 83.416 161.681C83.0423 161.325 82.5296 161.141 81.8779 161.127H79.4443V165.03ZM90.3408 163.738C90.1494 163.706 89.9421 163.69 89.7188 163.69C88.8893 163.69 88.3265 164.044 88.0303 164.75V170H86.7656V162.604H87.9961L88.0166 163.458C88.4313 162.797 89.0192 162.467 89.7803 162.467C90.0264 162.467 90.2132 162.499 90.3408 162.562V163.738ZM91.0381 166.233C91.0381 165.509 91.1794 164.857 91.4619 164.278C91.749 163.7 92.1455 163.253 92.6514 162.938C93.1618 162.624 93.7428 162.467 94.3945 162.467C95.4017 162.467 96.2152 162.815 96.835 163.513C97.4593 164.21 97.7715 165.137 97.7715 166.295V166.384C97.7715 167.104 97.6325 167.751 97.3545 168.325C97.0811 168.895 96.6868 169.339 96.1719 169.658C95.6615 169.977 95.0736 170.137 94.4082 170.137C93.4056 170.137 92.5921 169.788 91.9678 169.091C91.348 168.394 91.0381 167.471 91.0381 166.322V166.233ZM92.3096 166.384C92.3096 167.204 92.4987 167.863 92.877 168.359C93.2598 168.856 93.7702 169.104 94.4082 169.104C95.0508 169.104 95.5612 168.854 95.9395 168.353C96.3177 167.847 96.5068 167.14 96.5068 166.233C96.5068 165.422 96.3132 164.766 95.9258 164.265C95.543 163.759 95.0326 163.506 94.3945 163.506C93.7702 163.506 93.2666 163.754 92.8838 164.251C92.501 164.748 92.3096 165.459 92.3096 166.384ZM100.663 162.604V170.854C100.663 172.276 100.018 172.987 98.7285 172.987C98.4505 172.987 98.193 172.946 97.9561 172.864V171.853C98.1019 171.889 98.2933 171.907 98.5303 171.907C98.8128 171.907 99.027 171.83 99.1729 171.675C99.3232 171.524 99.3984 171.26 99.3984 170.882V162.604H100.663ZM99.2686 160.642C99.2686 160.441 99.3301 160.27 99.4531 160.129C99.5807 159.983 99.7653 159.91 100.007 159.91C100.253 159.91 100.44 159.981 100.567 160.122C100.695 160.263 100.759 160.437 100.759 160.642C100.759 160.847 100.695 161.018 100.567 161.154C100.44 161.291 100.253 161.359 100.007 161.359C99.7607 161.359 99.5762 161.291 99.4531 161.154C99.3301 161.018 99.2686 160.847 99.2686 160.642ZM105.776 170.137C104.774 170.137 103.958 169.809 103.329 169.152C102.7 168.492 102.386 167.61 102.386 166.507V166.274C102.386 165.541 102.525 164.887 102.803 164.312C103.085 163.734 103.477 163.283 103.979 162.959C104.484 162.631 105.031 162.467 105.619 162.467C106.581 162.467 107.328 162.784 107.861 163.417C108.395 164.05 108.661 164.957 108.661 166.138V166.664H103.65C103.669 167.393 103.881 167.983 104.286 168.435C104.696 168.881 105.216 169.104 105.845 169.104C106.291 169.104 106.67 169.013 106.979 168.831C107.289 168.649 107.561 168.407 107.793 168.106L108.565 168.708C107.946 169.66 107.016 170.137 105.776 170.137ZM105.619 163.506C105.109 163.506 104.68 163.693 104.334 164.066C103.988 164.436 103.773 164.955 103.691 165.625H107.396V165.529C107.36 164.887 107.187 164.39 106.877 164.039C106.567 163.684 106.148 163.506 105.619 163.506ZM113.098 169.104C113.549 169.104 113.943 168.968 114.28 168.694C114.618 168.421 114.804 168.079 114.841 167.669H116.037C116.014 168.093 115.868 168.496 115.6 168.879C115.331 169.262 114.971 169.567 114.52 169.795C114.073 170.023 113.599 170.137 113.098 170.137C112.09 170.137 111.288 169.802 110.691 169.132C110.099 168.457 109.803 167.537 109.803 166.37V166.158C109.803 165.438 109.935 164.798 110.199 164.237C110.464 163.677 110.842 163.242 111.334 162.932C111.831 162.622 112.416 162.467 113.091 162.467C113.92 162.467 114.608 162.715 115.155 163.212C115.707 163.709 116.001 164.354 116.037 165.146H114.841C114.804 164.668 114.622 164.276 114.294 163.971C113.97 163.661 113.569 163.506 113.091 163.506C112.448 163.506 111.949 163.738 111.594 164.203C111.243 164.663 111.067 165.331 111.067 166.206V166.445C111.067 167.298 111.243 167.954 111.594 168.414C111.945 168.874 112.446 169.104 113.098 169.104ZM119.175 160.812V162.604H120.556V163.581H119.175V168.168C119.175 168.464 119.236 168.688 119.359 168.838C119.482 168.984 119.692 169.057 119.988 169.057C120.134 169.057 120.335 169.029 120.59 168.975V170C120.257 170.091 119.934 170.137 119.619 170.137C119.054 170.137 118.628 169.966 118.341 169.624C118.054 169.282 117.91 168.797 117.91 168.168V163.581H116.563V162.604H117.91V160.812H119.175ZM130.078 170C130.005 169.854 129.946 169.594 129.9 169.221C129.312 169.831 128.611 170.137 127.795 170.137C127.066 170.137 126.466 169.932 125.997 169.521C125.532 169.107 125.3 168.583 125.3 167.949C125.3 167.179 125.591 166.582 126.175 166.158C126.763 165.73 127.588 165.516 128.649 165.516H129.88V164.935C129.88 164.493 129.748 164.142 129.483 163.882C129.219 163.618 128.829 163.485 128.314 163.485C127.863 163.485 127.485 163.599 127.18 163.827C126.874 164.055 126.722 164.331 126.722 164.654H125.45C125.45 164.285 125.58 163.93 125.84 163.588C126.104 163.242 126.46 162.968 126.906 162.768C127.357 162.567 127.852 162.467 128.39 162.467C129.242 162.467 129.91 162.681 130.393 163.109C130.876 163.533 131.126 164.119 131.145 164.866V168.271C131.145 168.95 131.231 169.49 131.404 169.891V170H130.078ZM127.979 169.036C128.376 169.036 128.752 168.934 129.107 168.729C129.463 168.523 129.72 168.257 129.88 167.929V166.411H128.889C127.339 166.411 126.564 166.865 126.564 167.771C126.564 168.168 126.697 168.478 126.961 168.701C127.225 168.924 127.565 169.036 127.979 169.036ZM134.323 162.604L134.364 163.533C134.929 162.822 135.668 162.467 136.579 162.467C138.142 162.467 138.931 163.349 138.944 165.112V170H137.68V165.105C137.675 164.572 137.552 164.178 137.311 163.923C137.074 163.668 136.702 163.54 136.196 163.54C135.786 163.54 135.426 163.649 135.116 163.868C134.806 164.087 134.565 164.374 134.392 164.729V170H133.127V162.604H134.323ZM140.544 166.24C140.544 165.105 140.813 164.194 141.351 163.506C141.888 162.813 142.592 162.467 143.463 162.467C144.329 162.467 145.015 162.763 145.521 163.355V159.5H146.785V170H145.623L145.562 169.207C145.056 169.827 144.352 170.137 143.449 170.137C142.592 170.137 141.893 169.786 141.351 169.084C140.813 168.382 140.544 167.466 140.544 166.336V166.24ZM141.809 166.384C141.809 167.222 141.982 167.879 142.328 168.353C142.674 168.826 143.153 169.063 143.764 169.063C144.566 169.063 145.151 168.703 145.521 167.983V164.586C145.142 163.889 144.561 163.54 143.777 163.54C143.158 163.54 142.674 163.779 142.328 164.258C141.982 164.736 141.809 165.445 141.809 166.384ZM149.007 170.854H147.92L152.076 160.047H153.156L149.007 170.854ZM154.188 166.233C154.188 165.509 154.33 164.857 154.612 164.278C154.899 163.7 155.296 163.253 155.802 162.938C156.312 162.624 156.893 162.467 157.545 162.467C158.552 162.467 159.366 162.815 159.985 163.513C160.61 164.21 160.922 165.137 160.922 166.295V166.384C160.922 167.104 160.783 167.751 160.505 168.325C160.231 168.895 159.837 169.339 159.322 169.658C158.812 169.977 158.224 170.137 157.559 170.137C156.556 170.137 155.743 169.788 155.118 169.091C154.498 168.394 154.188 167.471 154.188 166.322V166.233ZM155.46 166.384C155.46 167.204 155.649 167.863 156.027 168.359C156.41 168.856 156.921 169.104 157.559 169.104C158.201 169.104 158.712 168.854 159.09 168.353C159.468 167.847 159.657 167.14 159.657 166.233C159.657 165.422 159.464 164.766 159.076 164.265C158.693 163.759 158.183 163.506 157.545 163.506C156.921 163.506 156.417 163.754 156.034 164.251C155.651 164.748 155.46 165.459 155.46 166.384ZM166.083 163.738C165.892 163.706 165.684 163.69 165.461 163.69C164.632 163.69 164.069 164.044 163.772 164.75V170H162.508V162.604H163.738L163.759 163.458C164.174 162.797 164.761 162.467 165.522 162.467C165.769 162.467 165.955 162.499 166.083 162.562V163.738ZM52.4766 187.842C52.3535 188.895 51.9639 189.708 51.3076 190.282C50.6559 190.852 49.7878 191.137 48.7031 191.137C47.5273 191.137 46.584 190.715 45.873 189.872C45.1667 189.029 44.8135 187.901 44.8135 186.488V185.531C44.8135 184.606 44.9775 183.793 45.3057 183.091C45.6383 182.389 46.1077 181.851 46.7139 181.478C47.32 181.099 48.0218 180.91 48.8193 180.91C49.8766 180.91 50.7243 181.206 51.3623 181.799C52.0003 182.387 52.3717 183.202 52.4766 184.246H51.1572C51.0433 183.453 50.7949 182.879 50.4121 182.523C50.0339 182.168 49.5029 181.99 48.8193 181.99C47.9808 181.99 47.3223 182.3 46.8438 182.92C46.3698 183.54 46.1328 184.422 46.1328 185.565V186.529C46.1328 187.609 46.3584 188.468 46.8096 189.106C47.2607 189.744 47.8919 190.063 48.7031 190.063C49.4323 190.063 49.9906 189.899 50.3779 189.571C50.7699 189.239 51.0296 188.662 51.1572 187.842H52.4766ZM53.7412 187.233C53.7412 186.509 53.8825 185.857 54.165 185.278C54.4521 184.7 54.8486 184.253 55.3545 183.938C55.8649 183.624 56.446 183.467 57.0977 183.467C58.1048 183.467 58.9183 183.815 59.5381 184.513C60.1624 185.21 60.4746 186.137 60.4746 187.295V187.384C60.4746 188.104 60.3356 188.751 60.0576 189.325C59.7842 189.895 59.39 190.339 58.875 190.658C58.3646 190.977 57.7767 191.137 57.1113 191.137C56.1087 191.137 55.2952 190.788 54.6709 190.091C54.0511 189.394 53.7412 188.471 53.7412 187.322V187.233ZM55.0127 187.384C55.0127 188.204 55.2018 188.863 55.5801 189.359C55.9629 189.856 56.4733 190.104 57.1113 190.104C57.7539 190.104 58.2643 189.854 58.6426 189.353C59.0208 188.847 59.21 188.14 59.21 187.233C59.21 186.422 59.0163 185.766 58.6289 185.265C58.2461 184.759 57.7357 184.506 57.0977 184.506C56.4733 184.506 55.9697 184.754 55.5869 185.251C55.2041 185.748 55.0127 186.459 55.0127 187.384ZM63.25 183.604L63.2842 184.424C63.8265 183.786 64.5579 183.467 65.4785 183.467C66.513 183.467 67.2171 183.863 67.5908 184.656C67.8369 184.301 68.1559 184.014 68.5479 183.795C68.9443 183.576 69.4115 183.467 69.9492 183.467C71.5716 183.467 72.3965 184.326 72.4238 186.044V191H71.1592V186.119C71.1592 185.59 71.0384 185.196 70.7969 184.937C70.5553 184.672 70.1497 184.54 69.5801 184.54C69.1107 184.54 68.721 184.681 68.4111 184.964C68.1012 185.242 67.9212 185.618 67.8711 186.092V191H66.5996V186.153C66.5996 185.078 66.0732 184.54 65.0205 184.54C64.1911 184.54 63.6237 184.893 63.3184 185.6V191H62.0537V183.604H63.25ZM80.5859 187.384C80.5859 188.509 80.3285 189.416 79.8135 190.104C79.2985 190.793 78.6012 191.137 77.7217 191.137C76.8239 191.137 76.1175 190.852 75.6025 190.282V193.844H74.3379V183.604H75.4932L75.5547 184.424C76.0697 183.786 76.7852 183.467 77.7012 183.467C78.5898 183.467 79.2917 183.802 79.8066 184.472C80.3262 185.142 80.5859 186.074 80.5859 187.268V187.384ZM79.3213 187.24C79.3213 186.406 79.1436 185.748 78.7881 185.265C78.4326 184.782 77.945 184.54 77.3252 184.54C76.5596 184.54 75.9854 184.88 75.6025 185.559V189.093C75.9808 189.767 76.5596 190.104 77.3389 190.104C77.945 190.104 78.4258 189.865 78.7812 189.387C79.1413 188.904 79.3213 188.188 79.3213 187.24ZM86.7656 191C86.6927 190.854 86.6335 190.594 86.5879 190.221C86 190.831 85.2982 191.137 84.4824 191.137C83.7533 191.137 83.154 190.932 82.6846 190.521C82.2197 190.107 81.9873 189.583 81.9873 188.949C81.9873 188.179 82.279 187.582 82.8623 187.158C83.4502 186.73 84.2751 186.516 85.3369 186.516H86.5674V185.935C86.5674 185.493 86.4352 185.142 86.1709 184.882C85.9066 184.618 85.5169 184.485 85.002 184.485C84.5508 184.485 84.1725 184.599 83.8672 184.827C83.5618 185.055 83.4092 185.331 83.4092 185.654H82.1377C82.1377 185.285 82.2676 184.93 82.5273 184.588C82.7917 184.242 83.1471 183.968 83.5938 183.768C84.0449 183.567 84.5394 183.467 85.0771 183.467C85.9294 183.467 86.597 183.681 87.0801 184.109C87.5632 184.533 87.8138 185.119 87.832 185.866V189.271C87.832 189.95 87.9186 190.49 88.0918 190.891V191H86.7656ZM84.667 190.036C85.0635 190.036 85.4395 189.934 85.7949 189.729C86.1504 189.523 86.4079 189.257 86.5674 188.929V187.411H85.5762C84.0267 187.411 83.252 187.865 83.252 188.771C83.252 189.168 83.3841 189.478 83.6484 189.701C83.9128 189.924 84.2523 190.036 84.667 190.036ZM91.0107 183.604L91.0518 184.533C91.6169 183.822 92.3551 183.467 93.2666 183.467C94.8298 183.467 95.6182 184.349 95.6318 186.112V191H94.3672V186.105C94.3626 185.572 94.2396 185.178 93.998 184.923C93.7611 184.668 93.3896 184.54 92.8838 184.54C92.4736 184.54 92.1136 184.649 91.8037 184.868C91.4938 185.087 91.2523 185.374 91.0791 185.729V191H89.8145V183.604H91.0107ZM99.959 189.147L101.682 183.604H103.035L100.062 192.142C99.6012 193.372 98.8698 193.987 97.8672 193.987L97.6279 193.967L97.1562 193.878V192.853L97.498 192.88C97.9264 192.88 98.2591 192.793 98.4961 192.62C98.7376 192.447 98.9359 192.13 99.0908 191.67L99.3711 190.918L96.7324 183.604H98.1133L99.959 189.147ZM109.153 187.104V191H107.841V181.047H111.512C112.601 181.047 113.453 181.325 114.068 181.881C114.688 182.437 114.998 183.173 114.998 184.089C114.998 185.055 114.695 185.8 114.089 186.324C113.487 186.844 112.624 187.104 111.498 187.104H109.153ZM109.153 186.03H111.512C112.214 186.03 112.751 185.866 113.125 185.538C113.499 185.205 113.686 184.727 113.686 184.103C113.686 183.51 113.499 183.036 113.125 182.681C112.751 182.325 112.239 182.141 111.587 182.127H109.153V186.03ZM120.05 184.738C119.858 184.706 119.651 184.69 119.428 184.69C118.598 184.69 118.035 185.044 117.739 185.75V191H116.475V183.604H117.705L117.726 184.458C118.14 183.797 118.728 183.467 119.489 183.467C119.735 183.467 119.922 183.499 120.05 183.562V184.738ZM124.151 191.137C123.149 191.137 122.333 190.809 121.704 190.152C121.075 189.492 120.761 188.61 120.761 187.507V187.274C120.761 186.541 120.9 185.887 121.178 185.312C121.46 184.734 121.852 184.283 122.354 183.959C122.859 183.631 123.406 183.467 123.994 183.467C124.956 183.467 125.703 183.784 126.236 184.417C126.77 185.05 127.036 185.957 127.036 187.138V187.664H122.025C122.044 188.393 122.256 188.983 122.661 189.435C123.071 189.881 123.591 190.104 124.22 190.104C124.666 190.104 125.045 190.013 125.354 189.831C125.664 189.649 125.936 189.407 126.168 189.106L126.94 189.708C126.321 190.66 125.391 191.137 124.151 191.137ZM123.994 184.506C123.484 184.506 123.055 184.693 122.709 185.066C122.363 185.436 122.148 185.955 122.066 186.625H125.771V186.529C125.735 185.887 125.562 185.39 125.252 185.039C124.942 184.684 124.523 184.506 123.994 184.506ZM132.812 189.038C132.812 188.696 132.683 188.432 132.423 188.245C132.168 188.054 131.719 187.89 131.076 187.753C130.438 187.616 129.93 187.452 129.552 187.261C129.178 187.069 128.9 186.841 128.718 186.577C128.54 186.313 128.451 185.998 128.451 185.634C128.451 185.028 128.706 184.515 129.217 184.096C129.732 183.676 130.388 183.467 131.186 183.467C132.024 183.467 132.703 183.683 133.223 184.116C133.747 184.549 134.009 185.103 134.009 185.777H132.737C132.737 185.431 132.589 185.132 132.293 184.882C132.001 184.631 131.632 184.506 131.186 184.506C130.725 184.506 130.365 184.606 130.105 184.807C129.846 185.007 129.716 185.269 129.716 185.593C129.716 185.898 129.837 186.128 130.078 186.283C130.32 186.438 130.755 186.586 131.384 186.728C132.017 186.869 132.53 187.037 132.922 187.233C133.314 187.429 133.603 187.666 133.79 187.944C133.981 188.218 134.077 188.553 134.077 188.949C134.077 189.61 133.813 190.141 133.284 190.542C132.756 190.938 132.07 191.137 131.227 191.137C130.634 191.137 130.11 191.032 129.654 190.822C129.199 190.613 128.841 190.321 128.581 189.947C128.326 189.569 128.198 189.161 128.198 188.724H129.463C129.486 189.147 129.654 189.485 129.969 189.735C130.288 189.981 130.707 190.104 131.227 190.104C131.705 190.104 132.088 190.009 132.375 189.817C132.667 189.621 132.812 189.362 132.812 189.038ZM138.794 191.137C137.791 191.137 136.976 190.809 136.347 190.152C135.718 189.492 135.403 188.61 135.403 187.507V187.274C135.403 186.541 135.542 185.887 135.82 185.312C136.103 184.734 136.495 184.283 136.996 183.959C137.502 183.631 138.049 183.467 138.637 183.467C139.598 183.467 140.346 183.784 140.879 184.417C141.412 185.05 141.679 185.957 141.679 187.138V187.664H136.668C136.686 188.393 136.898 188.983 137.304 189.435C137.714 189.881 138.233 190.104 138.862 190.104C139.309 190.104 139.687 190.013 139.997 189.831C140.307 189.649 140.578 189.407 140.811 189.106L141.583 189.708C140.963 190.66 140.034 191.137 138.794 191.137ZM138.637 184.506C138.126 184.506 137.698 184.693 137.352 185.066C137.005 185.436 136.791 185.955 136.709 186.625H140.414V186.529C140.378 185.887 140.204 185.39 139.895 185.039C139.585 184.684 139.165 184.506 138.637 184.506ZM144.345 183.604L144.386 184.533C144.951 183.822 145.689 183.467 146.601 183.467C148.164 183.467 148.952 184.349 148.966 186.112V191H147.701V186.105C147.697 185.572 147.574 185.178 147.332 184.923C147.095 184.668 146.724 184.54 146.218 184.54C145.808 184.54 145.448 184.649 145.138 184.868C144.828 185.087 144.586 185.374 144.413 185.729V191H143.148V183.604H144.345ZM152.589 181.812V183.604H153.97V184.581H152.589V189.168C152.589 189.464 152.65 189.688 152.773 189.838C152.896 189.984 153.106 190.057 153.402 190.057C153.548 190.057 153.749 190.029 154.004 189.975V191C153.671 191.091 153.348 191.137 153.033 191.137C152.468 191.137 152.042 190.966 151.755 190.624C151.468 190.282 151.324 189.797 151.324 189.168V184.581H149.978V183.604H151.324V181.812H152.589ZM160.02 191C159.947 190.854 159.887 190.594 159.842 190.221C159.254 190.831 158.552 191.137 157.736 191.137C157.007 191.137 156.408 190.932 155.938 190.521C155.474 190.107 155.241 189.583 155.241 188.949C155.241 188.179 155.533 187.582 156.116 187.158C156.704 186.73 157.529 186.516 158.591 186.516H159.821V185.935C159.821 185.493 159.689 185.142 159.425 184.882C159.16 184.618 158.771 184.485 158.256 184.485C157.805 184.485 157.426 184.599 157.121 184.827C156.816 185.055 156.663 185.331 156.663 185.654H155.392C155.392 185.285 155.521 184.93 155.781 184.588C156.046 184.242 156.401 183.968 156.848 183.768C157.299 183.567 157.793 183.467 158.331 183.467C159.183 183.467 159.851 183.681 160.334 184.109C160.817 184.533 161.068 185.119 161.086 185.866V189.271C161.086 189.95 161.173 190.49 161.346 190.891V191H160.02ZM157.921 190.036C158.317 190.036 158.693 189.934 159.049 189.729C159.404 189.523 159.662 189.257 159.821 188.929V187.411H158.83C157.281 187.411 156.506 187.865 156.506 188.771C156.506 189.168 156.638 189.478 156.902 189.701C157.167 189.924 157.506 190.036 157.921 190.036ZM164.784 181.812V183.604H166.165V184.581H164.784V189.168C164.784 189.464 164.846 189.688 164.969 189.838C165.092 189.984 165.301 190.057 165.598 190.057C165.743 190.057 165.944 190.029 166.199 189.975V191C165.867 191.091 165.543 191.137 165.229 191.137C164.663 191.137 164.237 190.966 163.95 190.624C163.663 190.282 163.52 189.797 163.52 189.168V184.581H162.173V183.604H163.52V181.812H164.784ZM169.022 191H167.758V183.604H169.022V191ZM167.655 181.642C167.655 181.437 167.717 181.263 167.84 181.122C167.967 180.981 168.154 180.91 168.4 180.91C168.646 180.91 168.833 180.981 168.961 181.122C169.089 181.263 169.152 181.437 169.152 181.642C169.152 181.847 169.089 182.018 168.961 182.154C168.833 182.291 168.646 182.359 168.4 182.359C168.154 182.359 167.967 182.291 167.84 182.154C167.717 182.018 167.655 181.847 167.655 181.642ZM170.718 187.233C170.718 186.509 170.859 185.857 171.142 185.278C171.429 184.7 171.825 184.253 172.331 183.938C172.841 183.624 173.423 183.467 174.074 183.467C175.081 183.467 175.895 183.815 176.515 184.513C177.139 185.21 177.451 186.137 177.451 187.295V187.384C177.451 188.104 177.312 188.751 177.034 189.325C176.761 189.895 176.367 190.339 175.852 190.658C175.341 190.977 174.753 191.137 174.088 191.137C173.085 191.137 172.272 190.788 171.647 190.091C171.028 189.394 170.718 188.471 170.718 187.322V187.233ZM171.989 187.384C171.989 188.204 172.178 188.863 172.557 189.359C172.939 189.856 173.45 190.104 174.088 190.104C174.73 190.104 175.241 189.854 175.619 189.353C175.997 188.847 176.187 188.14 176.187 187.233C176.187 186.422 175.993 185.766 175.605 185.265C175.223 184.759 174.712 184.506 174.074 184.506C173.45 184.506 172.946 184.754 172.563 185.251C172.181 185.748 171.989 186.459 171.989 187.384ZM180.233 183.604L180.274 184.533C180.84 183.822 181.578 183.467 182.489 183.467C184.052 183.467 184.841 184.349 184.854 186.112V191H183.59V186.105C183.585 185.572 183.462 185.178 183.221 184.923C182.984 184.668 182.612 184.54 182.106 184.54C181.696 184.54 181.336 184.649 181.026 184.868C180.716 185.087 180.475 185.374 180.302 185.729V191H179.037V183.604H180.233ZM32.085 206.723C32.085 206.326 32.2103 206 32.4609 205.745C32.7161 205.49 33.0534 205.362 33.4727 205.362C33.8874 205.362 34.2246 205.488 34.4844 205.738C34.7441 205.984 34.874 206.319 34.874 206.743V206.996C34.874 207.393 34.7487 207.716 34.498 207.967C34.2474 208.217 33.9079 208.343 33.4795 208.343C33.0557 208.343 32.7161 208.217 32.4609 207.967C32.2103 207.712 32.085 207.383 32.085 206.982V206.723ZM46.4678 208.104V212H45.1553V202.047H48.8262C49.9154 202.047 50.7676 202.325 51.3828 202.881C52.0026 203.437 52.3125 204.173 52.3125 205.089C52.3125 206.055 52.0094 206.8 51.4033 207.324C50.8018 207.844 49.9382 208.104 48.8125 208.104H46.4678ZM46.4678 207.03H48.8262C49.528 207.03 50.0658 206.866 50.4395 206.538C50.8132 206.205 51 205.727 51 205.103C51 204.51 50.8132 204.036 50.4395 203.681C50.0658 203.325 49.5531 203.141 48.9014 203.127H46.4678V207.03ZM57.3643 205.738C57.1729 205.706 56.9655 205.69 56.7422 205.69C55.9128 205.69 55.3499 206.044 55.0537 206.75V212H53.7891V204.604H55.0195L55.04 205.458C55.4548 204.797 56.0426 204.467 56.8037 204.467C57.0498 204.467 57.2367 204.499 57.3643 204.562V205.738ZM58.0615 208.233C58.0615 207.509 58.2028 206.857 58.4854 206.278C58.7725 205.7 59.1689 205.253 59.6748 204.938C60.1852 204.624 60.7663 204.467 61.418 204.467C62.4251 204.467 63.2386 204.815 63.8584 205.513C64.4827 206.21 64.7949 207.137 64.7949 208.295V208.384C64.7949 209.104 64.6559 209.751 64.3779 210.325C64.1045 210.895 63.7103 211.339 63.1953 211.658C62.6849 211.977 62.097 212.137 61.4316 212.137C60.429 212.137 59.6156 211.788 58.9912 211.091C58.3714 210.394 58.0615 209.471 58.0615 208.322V208.233ZM59.333 208.384C59.333 209.204 59.5221 209.863 59.9004 210.359C60.2832 210.856 60.7936 211.104 61.4316 211.104C62.0742 211.104 62.5846 210.854 62.9629 210.353C63.3411 209.847 63.5303 209.14 63.5303 208.233C63.5303 207.422 63.3366 206.766 62.9492 206.265C62.5664 205.759 62.056 205.506 61.418 205.506C60.7936 205.506 60.29 205.754 59.9072 206.251C59.5244 206.748 59.333 207.459 59.333 208.384ZM67.5703 204.604L67.6045 205.424C68.1468 204.786 68.8783 204.467 69.7988 204.467C70.8333 204.467 71.5374 204.863 71.9111 205.656C72.1572 205.301 72.4762 205.014 72.8682 204.795C73.2646 204.576 73.7318 204.467 74.2695 204.467C75.8919 204.467 76.7168 205.326 76.7441 207.044V212H75.4795V207.119C75.4795 206.59 75.3587 206.196 75.1172 205.937C74.8757 205.672 74.4701 205.54 73.9004 205.54C73.431 205.54 73.0413 205.681 72.7314 205.964C72.4215 206.242 72.2415 206.618 72.1914 207.092V212H70.9199V207.153C70.9199 206.078 70.3936 205.54 69.3408 205.54C68.5114 205.54 67.944 205.893 67.6387 206.6V212H66.374V204.604H67.5703ZM78.3232 208.233C78.3232 207.509 78.4645 206.857 78.7471 206.278C79.0342 205.7 79.4307 205.253 79.9365 204.938C80.4469 204.624 81.028 204.467 81.6797 204.467C82.6868 204.467 83.5003 204.815 84.1201 205.513C84.7445 206.21 85.0566 207.137 85.0566 208.295V208.384C85.0566 209.104 84.9176 209.751 84.6396 210.325C84.3662 210.895 83.972 211.339 83.457 211.658C82.9466 211.977 82.3587 212.137 81.6934 212.137C80.6908 212.137 79.8773 211.788 79.2529 211.091C78.6331 210.394 78.3232 209.471 78.3232 208.322V208.233ZM79.5947 208.384C79.5947 209.204 79.7839 209.863 80.1621 210.359C80.5449 210.856 81.0553 211.104 81.6934 211.104C82.3359 211.104 82.8464 210.854 83.2246 210.353C83.6029 209.847 83.792 209.14 83.792 208.233C83.792 207.422 83.5983 206.766 83.2109 206.265C82.8281 205.759 82.3177 205.506 81.6797 205.506C81.0553 205.506 80.5518 205.754 80.1689 206.251C79.7861 206.748 79.5947 207.459 79.5947 208.384ZM88.3584 202.812V204.604H89.7393V205.581H88.3584V210.168C88.3584 210.464 88.4199 210.688 88.543 210.838C88.666 210.984 88.8757 211.057 89.1719 211.057C89.3177 211.057 89.5182 211.029 89.7734 210.975V212C89.4408 212.091 89.1172 212.137 88.8027 212.137C88.2376 212.137 87.8115 211.966 87.5244 211.624C87.2373 211.282 87.0938 210.797 87.0938 210.168V205.581H85.7471V204.604H87.0938V202.812H88.3584ZM94.292 212.137C93.2894 212.137 92.4736 211.809 91.8447 211.152C91.2158 210.492 90.9014 209.61 90.9014 208.507V208.274C90.9014 207.541 91.0404 206.887 91.3184 206.312C91.6009 205.734 91.9928 205.283 92.4941 204.959C93 204.631 93.5469 204.467 94.1348 204.467C95.0964 204.467 95.8438 204.784 96.377 205.417C96.9102 206.05 97.1768 206.957 97.1768 208.138V208.664H92.166C92.1842 209.393 92.3962 209.983 92.8018 210.435C93.2119 210.881 93.7314 211.104 94.3604 211.104C94.807 211.104 95.1852 211.013 95.4951 210.831C95.805 210.649 96.0762 210.407 96.3086 210.106L97.0811 210.708C96.4613 211.66 95.5316 212.137 94.292 212.137ZM94.1348 205.506C93.6243 205.506 93.196 205.693 92.8496 206.066C92.5033 206.436 92.2891 206.955 92.207 207.625H95.9121V207.529C95.8757 206.887 95.7025 206.39 95.3926 206.039C95.0827 205.684 94.6634 205.506 94.1348 205.506ZM102.222 205.738C102.03 205.706 101.823 205.69 101.6 205.69C100.77 205.69 100.207 206.044 99.9111 206.75V212H98.6465V204.604H99.877L99.8975 205.458C100.312 204.797 100.9 204.467 101.661 204.467C101.907 204.467 102.094 204.499 102.222 204.562V205.738ZM108.374 208.104V212H107.062V202.047H110.732C111.822 202.047 112.674 202.325 113.289 202.881C113.909 203.437 114.219 204.173 114.219 205.089C114.219 206.055 113.916 206.8 113.31 207.324C112.708 207.844 111.844 208.104 110.719 208.104H108.374ZM108.374 207.03H110.732C111.434 207.03 111.972 206.866 112.346 206.538C112.719 206.205 112.906 205.727 112.906 205.103C112.906 204.51 112.719 204.036 112.346 203.681C111.972 203.325 111.459 203.141 110.808 203.127H108.374V207.03ZM119.271 205.738C119.079 205.706 118.872 205.69 118.648 205.69C117.819 205.69 117.256 206.044 116.96 206.75V212H115.695V204.604H116.926L116.946 205.458C117.361 204.797 117.949 204.467 118.71 204.467C118.956 204.467 119.143 204.499 119.271 204.562V205.738ZM123.372 212.137C122.369 212.137 121.554 211.809 120.925 211.152C120.296 210.492 119.981 209.61 119.981 208.507V208.274C119.981 207.541 120.12 206.887 120.398 206.312C120.681 205.734 121.073 205.283 121.574 204.959C122.08 204.631 122.627 204.467 123.215 204.467C124.176 204.467 124.924 204.784 125.457 205.417C125.99 206.05 126.257 206.957 126.257 208.138V208.664H121.246C121.264 209.393 121.476 209.983 121.882 210.435C122.292 210.881 122.812 211.104 123.44 211.104C123.887 211.104 124.265 211.013 124.575 210.831C124.885 210.649 125.156 210.407 125.389 210.106L126.161 210.708C125.541 211.66 124.612 212.137 123.372 212.137ZM123.215 205.506C122.704 205.506 122.276 205.693 121.93 206.066C121.583 206.436 121.369 206.955 121.287 207.625H124.992V207.529C124.956 206.887 124.783 206.39 124.473 206.039C124.163 205.684 123.743 205.506 123.215 205.506ZM132.033 210.038C132.033 209.696 131.903 209.432 131.644 209.245C131.388 209.054 130.939 208.89 130.297 208.753C129.659 208.616 129.151 208.452 128.772 208.261C128.399 208.069 128.121 207.841 127.938 207.577C127.761 207.313 127.672 206.998 127.672 206.634C127.672 206.028 127.927 205.515 128.438 205.096C128.952 204.676 129.609 204.467 130.406 204.467C131.245 204.467 131.924 204.683 132.443 205.116C132.967 205.549 133.229 206.103 133.229 206.777H131.958C131.958 206.431 131.81 206.132 131.514 205.882C131.222 205.631 130.853 205.506 130.406 205.506C129.946 205.506 129.586 205.606 129.326 205.807C129.066 206.007 128.937 206.269 128.937 206.593C128.937 206.898 129.057 207.128 129.299 207.283C129.54 207.438 129.976 207.586 130.604 207.728C131.238 207.869 131.751 208.037 132.143 208.233C132.535 208.429 132.824 208.666 133.011 208.944C133.202 209.218 133.298 209.553 133.298 209.949C133.298 210.61 133.034 211.141 132.505 211.542C131.976 211.938 131.29 212.137 130.447 212.137C129.855 212.137 129.331 212.032 128.875 211.822C128.419 211.613 128.062 211.321 127.802 210.947C127.547 210.569 127.419 210.161 127.419 209.724H128.684C128.706 210.147 128.875 210.485 129.189 210.735C129.508 210.981 129.928 211.104 130.447 211.104C130.926 211.104 131.309 211.009 131.596 210.817C131.887 210.621 132.033 210.362 132.033 210.038ZM138.015 212.137C137.012 212.137 136.196 211.809 135.567 211.152C134.938 210.492 134.624 209.61 134.624 208.507V208.274C134.624 207.541 134.763 206.887 135.041 206.312C135.324 205.734 135.715 205.283 136.217 204.959C136.723 204.631 137.27 204.467 137.857 204.467C138.819 204.467 139.566 204.784 140.1 205.417C140.633 206.05 140.899 206.957 140.899 208.138V208.664H135.889C135.907 209.393 136.119 209.983 136.524 210.435C136.935 210.881 137.454 211.104 138.083 211.104C138.53 211.104 138.908 211.013 139.218 210.831C139.528 210.649 139.799 210.407 140.031 210.106L140.804 210.708C140.184 211.66 139.254 212.137 138.015 212.137ZM137.857 205.506C137.347 205.506 136.919 205.693 136.572 206.066C136.226 206.436 136.012 206.955 135.93 207.625H139.635V207.529C139.598 206.887 139.425 206.39 139.115 206.039C138.805 205.684 138.386 205.506 137.857 205.506ZM143.565 204.604L143.606 205.533C144.172 204.822 144.91 204.467 145.821 204.467C147.384 204.467 148.173 205.349 148.187 207.112V212H146.922V207.105C146.917 206.572 146.794 206.178 146.553 205.923C146.316 205.668 145.944 205.54 145.438 205.54C145.028 205.54 144.668 205.649 144.358 205.868C144.049 206.087 143.807 206.374 143.634 206.729V212H142.369V204.604H143.565ZM151.81 202.812V204.604H153.19V205.581H151.81V210.168C151.81 210.464 151.871 210.688 151.994 210.838C152.117 210.984 152.327 211.057 152.623 211.057C152.769 211.057 152.969 211.029 153.225 210.975V212C152.892 212.091 152.568 212.137 152.254 212.137C151.689 212.137 151.263 211.966 150.976 211.624C150.688 211.282 150.545 210.797 150.545 210.168V205.581H149.198V204.604H150.545V202.812H151.81ZM159.24 212C159.167 211.854 159.108 211.594 159.062 211.221C158.475 211.831 157.773 212.137 156.957 212.137C156.228 212.137 155.629 211.932 155.159 211.521C154.694 211.107 154.462 210.583 154.462 209.949C154.462 209.179 154.754 208.582 155.337 208.158C155.925 207.73 156.75 207.516 157.812 207.516H159.042V206.935C159.042 206.493 158.91 206.142 158.646 205.882C158.381 205.618 157.992 205.485 157.477 205.485C157.025 205.485 156.647 205.599 156.342 205.827C156.036 206.055 155.884 206.331 155.884 206.654H154.612C154.612 206.285 154.742 205.93 155.002 205.588C155.266 205.242 155.622 204.968 156.068 204.768C156.52 204.567 157.014 204.467 157.552 204.467C158.404 204.467 159.072 204.681 159.555 205.109C160.038 205.533 160.288 206.119 160.307 206.866V210.271C160.307 210.95 160.393 211.49 160.566 211.891V212H159.24ZM157.142 211.036C157.538 211.036 157.914 210.934 158.27 210.729C158.625 210.523 158.882 210.257 159.042 209.929V208.411H158.051C156.501 208.411 155.727 208.865 155.727 209.771C155.727 210.168 155.859 210.478 156.123 210.701C156.387 210.924 156.727 211.036 157.142 211.036ZM164.005 202.812V204.604H165.386V205.581H164.005V210.168C164.005 210.464 164.066 210.688 164.189 210.838C164.312 210.984 164.522 211.057 164.818 211.057C164.964 211.057 165.165 211.029 165.42 210.975V212C165.087 212.091 164.764 212.137 164.449 212.137C163.884 212.137 163.458 211.966 163.171 211.624C162.884 211.282 162.74 210.797 162.74 210.168V205.581H161.394V204.604H162.74V202.812H164.005ZM168.243 212H166.979V204.604H168.243V212ZM166.876 202.642C166.876 202.437 166.938 202.263 167.061 202.122C167.188 201.981 167.375 201.91 167.621 201.91C167.867 201.91 168.054 201.981 168.182 202.122C168.309 202.263 168.373 202.437 168.373 202.642C168.373 202.847 168.309 203.018 168.182 203.154C168.054 203.291 167.867 203.359 167.621 203.359C167.375 203.359 167.188 203.291 167.061 203.154C166.938 203.018 166.876 202.847 166.876 202.642ZM169.938 208.233C169.938 207.509 170.08 206.857 170.362 206.278C170.649 205.7 171.046 205.253 171.552 204.938C172.062 204.624 172.643 204.467 173.295 204.467C174.302 204.467 175.116 204.815 175.735 205.513C176.36 206.21 176.672 207.137 176.672 208.295V208.384C176.672 209.104 176.533 209.751 176.255 210.325C175.981 210.895 175.587 211.339 175.072 211.658C174.562 211.977 173.974 212.137 173.309 212.137C172.306 212.137 171.493 211.788 170.868 211.091C170.248 210.394 169.938 209.471 169.938 208.322V208.233ZM171.21 208.384C171.21 209.204 171.399 209.863 171.777 210.359C172.16 210.856 172.671 211.104 173.309 211.104C173.951 211.104 174.462 210.854 174.84 210.353C175.218 209.847 175.407 209.14 175.407 208.233C175.407 207.422 175.214 206.766 174.826 206.265C174.443 205.759 173.933 205.506 173.295 205.506C172.671 205.506 172.167 205.754 171.784 206.251C171.401 206.748 171.21 207.459 171.21 208.384ZM179.454 204.604L179.495 205.533C180.06 204.822 180.799 204.467 181.71 204.467C183.273 204.467 184.062 205.349 184.075 207.112V212H182.811V207.105C182.806 206.572 182.683 206.178 182.441 205.923C182.204 205.668 181.833 205.54 181.327 205.54C180.917 205.54 180.557 205.649 180.247 205.868C179.937 206.087 179.696 206.374 179.522 206.729V212H178.258V204.604H179.454ZM32.085 227.723C32.085 227.326 32.2103 227 32.4609 226.745C32.7161 226.49 33.0534 226.362 33.4727 226.362C33.8874 226.362 34.2246 226.488 34.4844 226.738C34.7441 226.984 34.874 227.319 34.874 227.743V227.996C34.874 228.393 34.7487 228.716 34.498 228.967C34.2474 229.217 33.9079 229.343 33.4795 229.343C33.0557 229.343 32.7161 229.217 32.4609 228.967C32.2103 228.712 32.085 228.383 32.085 227.982V227.723ZM45.1553 233V223.047H48.4092C49.4893 223.047 50.3005 223.27 50.8428 223.717C51.3896 224.163 51.6631 224.824 51.6631 225.699C51.6631 226.164 51.5309 226.576 51.2666 226.937C51.0023 227.292 50.6423 227.568 50.1865 227.764C50.7243 227.914 51.1481 228.201 51.458 228.625C51.7725 229.044 51.9297 229.546 51.9297 230.129C51.9297 231.022 51.6403 231.724 51.0615 232.234C50.4827 232.745 49.6647 233 48.6074 233H45.1553ZM46.4678 228.345V231.927H48.6348C49.2454 231.927 49.7262 231.77 50.0771 231.455C50.4326 231.136 50.6104 230.699 50.6104 230.143C50.6104 228.944 49.9587 228.345 48.6553 228.345H46.4678ZM46.4678 227.292H48.4502C49.0244 227.292 49.4824 227.148 49.8242 226.861C50.1706 226.574 50.3438 226.185 50.3438 225.692C50.3438 225.146 50.1842 224.749 49.8652 224.503C49.5462 224.252 49.0609 224.127 48.4092 224.127H46.4678V227.292ZM58.2461 232.269C57.7539 232.847 57.0316 233.137 56.0791 233.137C55.2907 233.137 54.6891 232.909 54.2744 232.453C53.8643 231.993 53.6569 231.314 53.6523 230.416V225.604H54.917V230.382C54.917 231.503 55.3727 232.063 56.2842 232.063C57.2503 232.063 57.8929 231.703 58.2119 230.983V225.604H59.4766V233H58.2734L58.2461 232.269ZM65.7109 231.038C65.7109 230.696 65.5811 230.432 65.3213 230.245C65.0661 230.054 64.6172 229.89 63.9746 229.753C63.3366 229.616 62.8285 229.452 62.4502 229.261C62.0765 229.069 61.7985 228.841 61.6162 228.577C61.4385 228.313 61.3496 227.998 61.3496 227.634C61.3496 227.028 61.6048 226.515 62.1152 226.096C62.6302 225.676 63.2865 225.467 64.084 225.467C64.9225 225.467 65.6016 225.683 66.1211 226.116C66.6452 226.549 66.9072 227.103 66.9072 227.777H65.6357C65.6357 227.431 65.4876 227.132 65.1914 226.882C64.8997 226.631 64.5306 226.506 64.084 226.506C63.6237 226.506 63.2637 226.606 63.0039 226.807C62.7441 227.007 62.6143 227.269 62.6143 227.593C62.6143 227.898 62.735 228.128 62.9766 228.283C63.2181 228.438 63.6533 228.586 64.2822 228.728C64.9157 228.869 65.4284 229.037 65.8203 229.233C66.2122 229.429 66.5016 229.666 66.6885 229.944C66.8799 230.218 66.9756 230.553 66.9756 230.949C66.9756 231.61 66.7113 232.141 66.1826 232.542C65.654 232.938 64.9681 233.137 64.125 233.137C63.5326 233.137 63.0085 233.032 62.5527 232.822C62.097 232.613 61.7393 232.321 61.4795 231.947C61.2243 231.569 61.0967 231.161 61.0967 230.724H62.3613C62.3841 231.147 62.5527 231.485 62.8672 231.735C63.1862 231.981 63.6055 232.104 64.125 232.104C64.6035 232.104 64.9863 232.009 65.2734 231.817C65.5651 231.621 65.7109 231.362 65.7109 231.038ZM69.9971 233H68.7324V225.604H69.9971V233ZM68.6299 223.642C68.6299 223.437 68.6914 223.263 68.8145 223.122C68.9421 222.981 69.1289 222.91 69.375 222.91C69.6211 222.91 69.8079 222.981 69.9355 223.122C70.0632 223.263 70.127 223.437 70.127 223.642C70.127 223.847 70.0632 224.018 69.9355 224.154C69.8079 224.291 69.6211 224.359 69.375 224.359C69.1289 224.359 68.9421 224.291 68.8145 224.154C68.6914 224.018 68.6299 223.847 68.6299 223.642ZM73.2236 225.604L73.2646 226.533C73.8298 225.822 74.568 225.467 75.4795 225.467C77.0426 225.467 77.8311 226.349 77.8447 228.112V233H76.5801V228.105C76.5755 227.572 76.4525 227.178 76.2109 226.923C75.974 226.668 75.6025 226.54 75.0967 226.54C74.6865 226.54 74.3265 226.649 74.0166 226.868C73.7067 227.087 73.4652 227.374 73.292 227.729V233H72.0273V225.604H73.2236ZM82.8213 233.137C81.8187 233.137 81.0029 232.809 80.374 232.152C79.7451 231.492 79.4307 230.61 79.4307 229.507V229.274C79.4307 228.541 79.5697 227.887 79.8477 227.312C80.1302 226.734 80.5221 226.283 81.0234 225.959C81.5293 225.631 82.0762 225.467 82.6641 225.467C83.6257 225.467 84.373 225.784 84.9062 226.417C85.4395 227.05 85.7061 227.957 85.7061 229.138V229.664H80.6953C80.7135 230.393 80.9255 230.983 81.3311 231.435C81.7412 231.881 82.2607 232.104 82.8896 232.104C83.3363 232.104 83.7145 232.013 84.0244 231.831C84.3343 231.649 84.6055 231.407 84.8379 231.106L85.6104 231.708C84.9906 232.66 84.0609 233.137 82.8213 233.137ZM82.6641 226.506C82.1536 226.506 81.7253 226.693 81.3789 227.066C81.0326 227.436 80.8184 227.955 80.7363 228.625H84.4414V228.529C84.4049 227.887 84.2318 227.39 83.9219 227.039C83.612 226.684 83.1927 226.506 82.6641 226.506ZM91.4824 231.038C91.4824 230.696 91.3525 230.432 91.0928 230.245C90.8376 230.054 90.3887 229.89 89.7461 229.753C89.1081 229.616 88.5999 229.452 88.2217 229.261C87.848 229.069 87.57 228.841 87.3877 228.577C87.21 228.313 87.1211 227.998 87.1211 227.634C87.1211 227.028 87.3763 226.515 87.8867 226.096C88.4017 225.676 89.0579 225.467 89.8555 225.467C90.694 225.467 91.373 225.683 91.8926 226.116C92.4167 226.549 92.6787 227.103 92.6787 227.777H91.4072C91.4072 227.431 91.2591 227.132 90.9629 226.882C90.6712 226.631 90.3021 226.506 89.8555 226.506C89.3952 226.506 89.0352 226.606 88.7754 226.807C88.5156 227.007 88.3857 227.269 88.3857 227.593C88.3857 227.898 88.5065 228.128 88.748 228.283C88.9896 228.438 89.4248 228.586 90.0537 228.728C90.6872 228.869 91.1999 229.037 91.5918 229.233C91.9837 229.429 92.2731 229.666 92.46 229.944C92.6514 230.218 92.7471 230.553 92.7471 230.949C92.7471 231.61 92.4827 232.141 91.9541 232.542C91.4255 232.938 90.7396 233.137 89.8965 233.137C89.304 233.137 88.7799 233.032 88.3242 232.822C87.8685 232.613 87.5107 232.321 87.251 231.947C86.9958 231.569 86.8682 231.161 86.8682 230.724H88.1328C88.1556 231.147 88.3242 231.485 88.6387 231.735C88.9577 231.981 89.377 232.104 89.8965 232.104C90.375 232.104 90.7578 232.009 91.0449 231.817C91.3366 231.621 91.4824 231.362 91.4824 231.038ZM98.7012 231.038C98.7012 230.696 98.5713 230.432 98.3115 230.245C98.0563 230.054 97.6074 229.89 96.9648 229.753C96.3268 229.616 95.8187 229.452 95.4404 229.261C95.0667 229.069 94.7887 228.841 94.6064 228.577C94.4287 228.313 94.3398 227.998 94.3398 227.634C94.3398 227.028 94.5951 226.515 95.1055 226.096C95.6204 225.676 96.2767 225.467 97.0742 225.467C97.9128 225.467 98.5918 225.683 99.1113 226.116C99.6354 226.549 99.8975 227.103 99.8975 227.777H98.626C98.626 227.431 98.4779 227.132 98.1816 226.882C97.89 226.631 97.5208 226.506 97.0742 226.506C96.6139 226.506 96.2539 226.606 95.9941 226.807C95.7344 227.007 95.6045 227.269 95.6045 227.593C95.6045 227.898 95.7253 228.128 95.9668 228.283C96.2083 228.438 96.6436 228.586 97.2725 228.728C97.9059 228.869 98.4186 229.037 98.8105 229.233C99.2025 229.429 99.4919 229.666 99.6787 229.944C99.8701 230.218 99.9658 230.553 99.9658 230.949C99.9658 231.61 99.7015 232.141 99.1729 232.542C98.6442 232.938 97.9583 233.137 97.1152 233.137C96.5228 233.137 95.9987 233.032 95.543 232.822C95.0872 232.613 94.7295 232.321 94.4697 231.947C94.2145 231.569 94.0869 231.161 94.0869 230.724H95.3516C95.3743 231.147 95.543 231.485 95.8574 231.735C96.1764 231.981 96.5957 232.104 97.1152 232.104C97.5938 232.104 97.9766 232.009 98.2637 231.817C98.5553 231.621 98.7012 231.362 98.7012 231.038ZM106.597 229.104V233H105.284V223.047H108.955C110.044 223.047 110.896 223.325 111.512 223.881C112.132 224.437 112.441 225.173 112.441 226.089C112.441 227.055 112.138 227.8 111.532 228.324C110.931 228.844 110.067 229.104 108.941 229.104H106.597ZM106.597 228.03H108.955C109.657 228.03 110.195 227.866 110.568 227.538C110.942 227.205 111.129 226.727 111.129 226.103C111.129 225.51 110.942 225.036 110.568 224.681C110.195 224.325 109.682 224.141 109.03 224.127H106.597V228.03ZM115.292 233H114.027V222.5H115.292V233ZM121.889 233C121.816 232.854 121.757 232.594 121.711 232.221C121.123 232.831 120.421 233.137 119.605 233.137C118.876 233.137 118.277 232.932 117.808 232.521C117.343 232.107 117.11 231.583 117.11 230.949C117.11 230.179 117.402 229.582 117.985 229.158C118.573 228.73 119.398 228.516 120.46 228.516H121.69V227.935C121.69 227.493 121.558 227.142 121.294 226.882C121.03 226.618 120.64 226.485 120.125 226.485C119.674 226.485 119.296 226.599 118.99 226.827C118.685 227.055 118.532 227.331 118.532 227.654H117.261C117.261 227.285 117.391 226.93 117.65 226.588C117.915 226.242 118.27 225.968 118.717 225.768C119.168 225.567 119.662 225.467 120.2 225.467C121.052 225.467 121.72 225.681 122.203 226.109C122.686 226.533 122.937 227.119 122.955 227.866V231.271C122.955 231.95 123.042 232.49 123.215 232.891V233H121.889ZM119.79 232.036C120.187 232.036 120.562 231.934 120.918 231.729C121.273 231.523 121.531 231.257 121.69 230.929V229.411H120.699C119.15 229.411 118.375 229.865 118.375 230.771C118.375 231.168 118.507 231.478 118.771 231.701C119.036 231.924 119.375 232.036 119.79 232.036ZM126.134 225.604L126.175 226.533C126.74 225.822 127.478 225.467 128.39 225.467C129.953 225.467 130.741 226.349 130.755 228.112V233H129.49V228.105C129.486 227.572 129.363 227.178 129.121 226.923C128.884 226.668 128.513 226.54 128.007 226.54C127.597 226.54 127.237 226.649 126.927 226.868C126.617 227.087 126.375 227.374 126.202 227.729V233H124.938V225.604H126.134ZM32.085 248.723C32.085 248.326 32.2103 248 32.4609 247.745C32.7161 247.49 33.0534 247.362 33.4727 247.362C33.8874 247.362 34.2246 247.488 34.4844 247.738C34.7441 247.984 34.874 248.319 34.874 248.743V248.996C34.874 249.393 34.7487 249.716 34.498 249.967C34.2474 250.217 33.9079 250.343 33.4795 250.343C33.0557 250.343 32.7161 250.217 32.4609 249.967C32.2103 249.712 32.085 249.383 32.085 248.982V248.723ZM45.1553 254V244.047H48.4092C49.4893 244.047 50.3005 244.27 50.8428 244.717C51.3896 245.163 51.6631 245.824 51.6631 246.699C51.6631 247.164 51.5309 247.576 51.2666 247.937C51.0023 248.292 50.6423 248.568 50.1865 248.764C50.7243 248.914 51.1481 249.201 51.458 249.625C51.7725 250.044 51.9297 250.546 51.9297 251.129C51.9297 252.022 51.6403 252.724 51.0615 253.234C50.4827 253.745 49.6647 254 48.6074 254H45.1553ZM46.4678 249.345V252.927H48.6348C49.2454 252.927 49.7262 252.77 50.0771 252.455C50.4326 252.136 50.6104 251.699 50.6104 251.143C50.6104 249.944 49.9587 249.345 48.6553 249.345H46.4678ZM46.4678 248.292H48.4502C49.0244 248.292 49.4824 248.148 49.8242 247.861C50.1706 247.574 50.3438 247.185 50.3438 246.692C50.3438 246.146 50.1842 245.749 49.8652 245.503C49.5462 245.252 49.0609 245.127 48.4092 245.127H46.4678V248.292ZM58.2461 253.269C57.7539 253.847 57.0316 254.137 56.0791 254.137C55.2907 254.137 54.6891 253.909 54.2744 253.453C53.8643 252.993 53.6569 252.314 53.6523 251.416V246.604H54.917V251.382C54.917 252.503 55.3727 253.063 56.2842 253.063C57.2503 253.063 57.8929 252.703 58.2119 251.983V246.604H59.4766V254H58.2734L58.2461 253.269ZM61.0967 250.24C61.0967 249.105 61.3656 248.194 61.9033 247.506C62.4411 246.813 63.1452 246.467 64.0156 246.467C64.8815 246.467 65.5674 246.763 66.0732 247.355V243.5H67.3379V254H66.1758L66.1143 253.207C65.6084 253.827 64.9043 254.137 64.002 254.137C63.1452 254.137 62.4456 253.786 61.9033 253.084C61.3656 252.382 61.0967 251.466 61.0967 250.336V250.24ZM62.3613 250.384C62.3613 251.222 62.5345 251.879 62.8809 252.353C63.2272 252.826 63.7057 253.063 64.3164 253.063C65.1185 253.063 65.7041 252.703 66.0732 251.983V248.586C65.695 247.889 65.1139 247.54 64.3301 247.54C63.7103 247.54 63.2272 247.779 62.8809 248.258C62.5345 248.736 62.3613 249.445 62.3613 250.384ZM69.0059 250.24C69.0059 249.087 69.2725 248.171 69.8057 247.492C70.3389 246.809 71.0452 246.467 71.9248 246.467C72.8271 246.467 73.5312 246.786 74.0371 247.424L74.0986 246.604H75.2539V253.822C75.2539 254.779 74.9691 255.534 74.3994 256.085C73.8343 256.636 73.0732 256.912 72.1162 256.912C71.583 256.912 71.0612 256.798 70.5508 256.57C70.0404 256.342 69.6507 256.03 69.3818 255.634L70.0381 254.875C70.5804 255.545 71.2435 255.88 72.0273 255.88C72.6426 255.88 73.1211 255.707 73.4629 255.36C73.8092 255.014 73.9824 254.526 73.9824 253.897V253.262C73.4766 253.845 72.7861 254.137 71.9111 254.137C71.0452 254.137 70.3434 253.788 69.8057 253.091C69.2725 252.394 69.0059 251.443 69.0059 250.24ZM70.2773 250.384C70.2773 251.218 70.4482 251.874 70.79 252.353C71.1318 252.826 71.6104 253.063 72.2256 253.063C73.0231 253.063 73.6087 252.701 73.9824 251.977V248.6C73.5951 247.893 73.014 247.54 72.2393 247.54C71.624 247.54 71.1432 247.779 70.7969 248.258C70.4505 248.736 70.2773 249.445 70.2773 250.384ZM80.2373 254.137C79.2347 254.137 78.4189 253.809 77.79 253.152C77.1611 252.492 76.8467 251.61 76.8467 250.507V250.274C76.8467 249.541 76.9857 248.887 77.2637 248.312C77.5462 247.734 77.9382 247.283 78.4395 246.959C78.9453 246.631 79.4922 246.467 80.0801 246.467C81.0417 246.467 81.7891 246.784 82.3223 247.417C82.8555 248.05 83.1221 248.957 83.1221 250.138V250.664H78.1113C78.1296 251.393 78.3415 251.983 78.7471 252.435C79.1572 252.881 79.6768 253.104 80.3057 253.104C80.7523 253.104 81.1305 253.013 81.4404 252.831C81.7503 252.649 82.0215 252.407 82.2539 252.106L83.0264 252.708C82.4066 253.66 81.4769 254.137 80.2373 254.137ZM80.0801 247.506C79.5697 247.506 79.1413 247.693 78.7949 248.066C78.4486 248.436 78.2344 248.955 78.1523 249.625H81.8574V249.529C81.821 248.887 81.6478 248.39 81.3379 248.039C81.028 247.684 80.6087 247.506 80.0801 247.506ZM86.3076 244.812V246.604H87.6885V247.581H86.3076V252.168C86.3076 252.464 86.3691 252.688 86.4922 252.838C86.6152 252.984 86.8249 253.057 87.1211 253.057C87.2669 253.057 87.4674 253.029 87.7227 252.975V254C87.39 254.091 87.0664 254.137 86.752 254.137C86.1868 254.137 85.7607 253.966 85.4736 253.624C85.1865 253.282 85.043 252.797 85.043 252.168V247.581H83.6963V246.604H85.043V244.812H86.3076ZM97.2109 254C97.138 253.854 97.0788 253.594 97.0332 253.221C96.4453 253.831 95.7435 254.137 94.9277 254.137C94.1986 254.137 93.5993 253.932 93.1299 253.521C92.665 253.107 92.4326 252.583 92.4326 251.949C92.4326 251.179 92.7243 250.582 93.3076 250.158C93.8955 249.73 94.7204 249.516 95.7822 249.516H97.0127V248.935C97.0127 248.493 96.8805 248.142 96.6162 247.882C96.3519 247.618 95.9622 247.485 95.4473 247.485C94.9961 247.485 94.6178 247.599 94.3125 247.827C94.0072 248.055 93.8545 248.331 93.8545 248.654H92.583C92.583 248.285 92.7129 247.93 92.9727 247.588C93.237 247.242 93.5924 246.968 94.0391 246.768C94.4902 246.567 94.9847 246.467 95.5225 246.467C96.3747 246.467 97.0423 246.681 97.5254 247.109C98.0085 247.533 98.2591 248.119 98.2773 248.866V252.271C98.2773 252.95 98.3639 253.49 98.5371 253.891V254H97.2109ZM95.1123 253.036C95.5088 253.036 95.8848 252.934 96.2402 252.729C96.5957 252.523 96.8532 252.257 97.0127 251.929V250.411H96.0215C94.472 250.411 93.6973 250.865 93.6973 251.771C93.6973 252.168 93.8294 252.478 94.0938 252.701C94.3581 252.924 94.6976 253.036 95.1123 253.036ZM101.456 246.604L101.497 247.533C102.062 246.822 102.8 246.467 103.712 246.467C105.275 246.467 106.063 247.349 106.077 249.112V254H104.812V249.105C104.808 248.572 104.685 248.178 104.443 247.923C104.206 247.668 103.835 247.54 103.329 247.54C102.919 247.54 102.559 247.649 102.249 247.868C101.939 248.087 101.698 248.374 101.524 248.729V254H100.26V246.604H101.456ZM107.677 250.24C107.677 249.105 107.946 248.194 108.483 247.506C109.021 246.813 109.725 246.467 110.596 246.467C111.462 246.467 112.147 246.763 112.653 247.355V243.5H113.918V254H112.756L112.694 253.207C112.188 253.827 111.484 254.137 110.582 254.137C109.725 254.137 109.026 253.786 108.483 253.084C107.946 252.382 107.677 251.466 107.677 250.336V250.24ZM108.941 250.384C108.941 251.222 109.115 251.879 109.461 252.353C109.807 252.826 110.286 253.063 110.896 253.063C111.699 253.063 112.284 252.703 112.653 251.983V248.586C112.275 247.889 111.694 247.54 110.91 247.54C110.29 247.54 109.807 247.779 109.461 248.258C109.115 248.736 108.941 249.445 108.941 250.384ZM120.87 250.104V254H119.558V244.047H123.229C124.318 244.047 125.17 244.325 125.785 244.881C126.405 245.437 126.715 246.173 126.715 247.089C126.715 248.055 126.412 248.8 125.806 249.324C125.204 249.844 124.34 250.104 123.215 250.104H120.87ZM120.87 249.03H123.229C123.93 249.03 124.468 248.866 124.842 248.538C125.215 248.205 125.402 247.727 125.402 247.103C125.402 246.51 125.215 246.036 124.842 245.681C124.468 245.325 123.955 245.141 123.304 245.127H120.87V249.03ZM131.767 247.738C131.575 247.706 131.368 247.69 131.145 247.69C130.315 247.69 129.752 248.044 129.456 248.75V254H128.191V246.604H129.422L129.442 247.458C129.857 246.797 130.445 246.467 131.206 246.467C131.452 246.467 131.639 246.499 131.767 246.562V247.738ZM132.464 250.233C132.464 249.509 132.605 248.857 132.888 248.278C133.175 247.7 133.571 247.253 134.077 246.938C134.588 246.624 135.169 246.467 135.82 246.467C136.827 246.467 137.641 246.815 138.261 247.513C138.885 248.21 139.197 249.137 139.197 250.295V250.384C139.197 251.104 139.058 251.751 138.78 252.325C138.507 252.895 138.113 253.339 137.598 253.658C137.087 253.977 136.499 254.137 135.834 254.137C134.831 254.137 134.018 253.788 133.394 253.091C132.774 252.394 132.464 251.471 132.464 250.322V250.233ZM133.735 250.384C133.735 251.204 133.924 251.863 134.303 252.359C134.686 252.856 135.196 253.104 135.834 253.104C136.477 253.104 136.987 252.854 137.365 252.353C137.743 251.847 137.933 251.14 137.933 250.233C137.933 249.422 137.739 248.766 137.352 248.265C136.969 247.759 136.458 247.506 135.82 247.506C135.196 247.506 134.692 247.754 134.31 248.251C133.927 248.748 133.735 249.459 133.735 250.384ZM142.089 246.604V254.854C142.089 256.276 141.444 256.987 140.154 256.987C139.876 256.987 139.619 256.946 139.382 256.864V255.853C139.528 255.889 139.719 255.907 139.956 255.907C140.239 255.907 140.453 255.83 140.599 255.675C140.749 255.524 140.824 255.26 140.824 254.882V246.604H142.089ZM140.694 244.642C140.694 244.441 140.756 244.27 140.879 244.129C141.007 243.983 141.191 243.91 141.433 243.91C141.679 243.91 141.866 243.981 141.993 244.122C142.121 244.263 142.185 244.437 142.185 244.642C142.185 244.847 142.121 245.018 141.993 245.154C141.866 245.291 141.679 245.359 141.433 245.359C141.187 245.359 141.002 245.291 140.879 245.154C140.756 245.018 140.694 244.847 140.694 244.642ZM147.202 254.137C146.2 254.137 145.384 253.809 144.755 253.152C144.126 252.492 143.812 251.61 143.812 250.507V250.274C143.812 249.541 143.951 248.887 144.229 248.312C144.511 247.734 144.903 247.283 145.404 246.959C145.91 246.631 146.457 246.467 147.045 246.467C148.007 246.467 148.754 246.784 149.287 247.417C149.82 248.05 150.087 248.957 150.087 250.138V250.664H145.076C145.094 251.393 145.306 251.983 145.712 252.435C146.122 252.881 146.642 253.104 147.271 253.104C147.717 253.104 148.095 253.013 148.405 252.831C148.715 252.649 148.986 252.407 149.219 252.106L149.991 252.708C149.371 253.66 148.442 254.137 147.202 254.137ZM147.045 247.506C146.535 247.506 146.106 247.693 145.76 248.066C145.413 248.436 145.199 248.955 145.117 249.625H148.822V249.529C148.786 248.887 148.613 248.39 148.303 248.039C147.993 247.684 147.574 247.506 147.045 247.506ZM154.523 253.104C154.975 253.104 155.369 252.968 155.706 252.694C156.043 252.421 156.23 252.079 156.267 251.669H157.463C157.44 252.093 157.294 252.496 157.025 252.879C156.757 253.262 156.396 253.567 155.945 253.795C155.499 254.023 155.025 254.137 154.523 254.137C153.516 254.137 152.714 253.802 152.117 253.132C151.525 252.457 151.229 251.537 151.229 250.37V250.158C151.229 249.438 151.361 248.798 151.625 248.237C151.889 247.677 152.268 247.242 152.76 246.932C153.257 246.622 153.842 246.467 154.517 246.467C155.346 246.467 156.034 246.715 156.581 247.212C157.132 247.709 157.426 248.354 157.463 249.146H156.267C156.23 248.668 156.048 248.276 155.72 247.971C155.396 247.661 154.995 247.506 154.517 247.506C153.874 247.506 153.375 247.738 153.02 248.203C152.669 248.663 152.493 249.331 152.493 250.206V250.445C152.493 251.298 152.669 251.954 153.02 252.414C153.37 252.874 153.872 253.104 154.523 253.104ZM160.601 244.812V246.604H161.981V247.581H160.601V252.168C160.601 252.464 160.662 252.688 160.785 252.838C160.908 252.984 161.118 253.057 161.414 253.057C161.56 253.057 161.76 253.029 162.016 252.975V254C161.683 254.091 161.359 254.137 161.045 254.137C160.48 254.137 160.054 253.966 159.767 253.624C159.479 253.282 159.336 252.797 159.336 252.168V247.581H157.989V246.604H159.336V244.812H160.601ZM164.839 254H163.574V246.604H164.839V254ZM163.472 244.642C163.472 244.437 163.533 244.263 163.656 244.122C163.784 243.981 163.971 243.91 164.217 243.91C164.463 243.91 164.65 243.981 164.777 244.122C164.905 244.263 164.969 244.437 164.969 244.642C164.969 244.847 164.905 245.018 164.777 245.154C164.65 245.291 164.463 245.359 164.217 245.359C163.971 245.359 163.784 245.291 163.656 245.154C163.533 245.018 163.472 244.847 163.472 244.642ZM166.534 250.233C166.534 249.509 166.675 248.857 166.958 248.278C167.245 247.7 167.642 247.253 168.147 246.938C168.658 246.624 169.239 246.467 169.891 246.467C170.898 246.467 171.711 246.815 172.331 247.513C172.955 248.21 173.268 249.137 173.268 250.295V250.384C173.268 251.104 173.129 251.751 172.851 252.325C172.577 252.895 172.183 253.339 171.668 253.658C171.158 253.977 170.57 254.137 169.904 254.137C168.902 254.137 168.088 253.788 167.464 253.091C166.844 252.394 166.534 251.471 166.534 250.322V250.233ZM167.806 250.384C167.806 251.204 167.995 251.863 168.373 252.359C168.756 252.856 169.266 253.104 169.904 253.104C170.547 253.104 171.057 252.854 171.436 252.353C171.814 251.847 172.003 251.14 172.003 250.233C172.003 249.422 171.809 248.766 171.422 248.265C171.039 247.759 170.529 247.506 169.891 247.506C169.266 247.506 168.763 247.754 168.38 248.251C167.997 248.748 167.806 249.459 167.806 250.384ZM176.05 246.604L176.091 247.533C176.656 246.822 177.394 246.467 178.306 246.467C179.869 246.467 180.657 247.349 180.671 249.112V254H179.406V249.105C179.402 248.572 179.279 248.178 179.037 247.923C178.8 247.668 178.429 247.54 177.923 247.54C177.513 247.54 177.153 247.649 176.843 247.868C176.533 248.087 176.291 248.374 176.118 248.729V254H174.854V246.604H176.05ZM186.885 252.038C186.885 251.696 186.755 251.432 186.495 251.245C186.24 251.054 185.791 250.89 185.148 250.753C184.51 250.616 184.002 250.452 183.624 250.261C183.25 250.069 182.972 249.841 182.79 249.577C182.612 249.313 182.523 248.998 182.523 248.634C182.523 248.028 182.779 247.515 183.289 247.096C183.804 246.676 184.46 246.467 185.258 246.467C186.096 246.467 186.775 246.683 187.295 247.116C187.819 247.549 188.081 248.103 188.081 248.777H186.81C186.81 248.431 186.661 248.132 186.365 247.882C186.074 247.631 185.704 247.506 185.258 247.506C184.798 247.506 184.438 247.606 184.178 247.807C183.918 248.007 183.788 248.269 183.788 248.593C183.788 248.898 183.909 249.128 184.15 249.283C184.392 249.438 184.827 249.586 185.456 249.728C186.09 249.869 186.602 250.037 186.994 250.233C187.386 250.429 187.675 250.666 187.862 250.944C188.054 251.218 188.149 251.553 188.149 251.949C188.149 252.61 187.885 253.141 187.356 253.542C186.828 253.938 186.142 254.137 185.299 254.137C184.706 254.137 184.182 254.032 183.727 253.822C183.271 253.613 182.913 253.321 182.653 252.947C182.398 252.569 182.271 252.161 182.271 251.724H183.535C183.558 252.147 183.727 252.485 184.041 252.735C184.36 252.981 184.779 253.104 185.299 253.104C185.777 253.104 186.16 253.009 186.447 252.817C186.739 252.621 186.885 252.362 186.885 252.038ZM32.085 269.723C32.085 269.326 32.2103 269 32.4609 268.745C32.7161 268.49 33.0534 268.362 33.4727 268.362C33.8874 268.362 34.2246 268.488 34.4844 268.738C34.7441 268.984 34.874 269.319 34.874 269.743V269.996C34.874 270.393 34.7487 270.716 34.498 270.967C34.2474 271.217 33.9079 271.343 33.4795 271.343C33.0557 271.343 32.7161 271.217 32.4609 270.967C32.2103 270.712 32.085 270.383 32.085 269.982V269.723ZM46.5635 275H45.251V265.047H46.5635V275ZM49.9678 267.604L50.0088 268.533C50.5739 267.822 51.3122 267.467 52.2236 267.467C53.7868 267.467 54.5752 268.349 54.5889 270.112V275H53.3242V270.105C53.3197 269.572 53.1966 269.178 52.9551 268.923C52.7181 268.668 52.3467 268.54 51.8408 268.54C51.4307 268.54 51.0706 268.649 50.7607 268.868C50.4508 269.087 50.2093 269.374 50.0361 269.729V275H48.7715V267.604H49.9678ZM58.9365 273.284L60.7686 267.604H62.0605L59.4082 275H58.4443L55.7646 267.604H57.0566L58.9365 273.284ZM66.251 275.137C65.2484 275.137 64.4326 274.809 63.8037 274.152C63.1748 273.492 62.8604 272.61 62.8604 271.507V271.274C62.8604 270.541 62.9993 269.887 63.2773 269.312C63.5599 268.734 63.9518 268.283 64.4531 267.959C64.959 267.631 65.5059 267.467 66.0938 267.467C67.0553 267.467 67.8027 267.784 68.3359 268.417C68.8691 269.05 69.1357 269.957 69.1357 271.138V271.664H64.125C64.1432 272.393 64.3551 272.983 64.7607 273.435C65.1709 273.881 65.6904 274.104 66.3193 274.104C66.766 274.104 67.1442 274.013 67.4541 273.831C67.764 273.649 68.0352 273.407 68.2676 273.106L69.04 273.708C68.4202 274.66 67.4906 275.137 66.251 275.137ZM66.0938 268.506C65.5833 268.506 65.1549 268.693 64.8086 269.066C64.4622 269.436 64.248 269.955 64.166 270.625H67.8711V270.529C67.8346 269.887 67.6615 269.39 67.3516 269.039C67.0417 268.684 66.6224 268.506 66.0938 268.506ZM74.9121 273.038C74.9121 272.696 74.7822 272.432 74.5225 272.245C74.2673 272.054 73.8184 271.89 73.1758 271.753C72.5378 271.616 72.0296 271.452 71.6514 271.261C71.2777 271.069 70.9997 270.841 70.8174 270.577C70.6396 270.313 70.5508 269.998 70.5508 269.634C70.5508 269.028 70.806 268.515 71.3164 268.096C71.8314 267.676 72.4876 267.467 73.2852 267.467C74.1237 267.467 74.8027 267.683 75.3223 268.116C75.8464 268.549 76.1084 269.103 76.1084 269.777H74.8369C74.8369 269.431 74.6888 269.132 74.3926 268.882C74.1009 268.631 73.7318 268.506 73.2852 268.506C72.8249 268.506 72.4648 268.606 72.2051 268.807C71.9453 269.007 71.8154 269.269 71.8154 269.593C71.8154 269.898 71.9362 270.128 72.1777 270.283C72.4193 270.438 72.8545 270.586 73.4834 270.728C74.1169 270.869 74.6296 271.037 75.0215 271.233C75.4134 271.429 75.7028 271.666 75.8896 271.944C76.0811 272.218 76.1768 272.553 76.1768 272.949C76.1768 273.61 75.9124 274.141 75.3838 274.542C74.8551 274.938 74.1693 275.137 73.3262 275.137C72.7337 275.137 72.2096 275.032 71.7539 274.822C71.2982 274.613 70.9404 274.321 70.6807 273.947C70.4255 273.569 70.2979 273.161 70.2979 272.724H71.5625C71.5853 273.147 71.7539 273.485 72.0684 273.735C72.3874 273.981 72.8066 274.104 73.3262 274.104C73.8047 274.104 74.1875 274.009 74.4746 273.817C74.7663 273.621 74.9121 273.362 74.9121 273.038ZM79.54 265.812V267.604H80.9209V268.581H79.54V273.168C79.54 273.464 79.6016 273.688 79.7246 273.838C79.8477 273.984 80.0573 274.057 80.3535 274.057C80.4993 274.057 80.6999 274.029 80.9551 273.975V275C80.6224 275.091 80.2988 275.137 79.9844 275.137C79.4193 275.137 78.9932 274.966 78.7061 274.624C78.4189 274.282 78.2754 273.797 78.2754 273.168V268.581H76.9287V267.604H78.2754V265.812H79.54ZM83.5938 267.604L83.6279 268.424C84.1702 267.786 84.9017 267.467 85.8223 267.467C86.8568 267.467 87.5609 267.863 87.9346 268.656C88.1807 268.301 88.4997 268.014 88.8916 267.795C89.2881 267.576 89.7552 267.467 90.293 267.467C91.9154 267.467 92.7402 268.326 92.7676 270.044V275H91.5029V270.119C91.5029 269.59 91.3822 269.196 91.1406 268.937C90.8991 268.672 90.4935 268.54 89.9238 268.54C89.4544 268.54 89.0648 268.681 88.7549 268.964C88.445 269.242 88.265 269.618 88.2148 270.092V275H86.9434V270.153C86.9434 269.078 86.417 268.54 85.3643 268.54C84.5348 268.54 83.9674 268.893 83.6621 269.6V275H82.3975V267.604H83.5938ZM97.751 275.137C96.7484 275.137 95.9326 274.809 95.3037 274.152C94.6748 273.492 94.3604 272.61 94.3604 271.507V271.274C94.3604 270.541 94.4993 269.887 94.7773 269.312C95.0599 268.734 95.4518 268.283 95.9531 267.959C96.459 267.631 97.0059 267.467 97.5938 267.467C98.5553 267.467 99.3027 267.784 99.8359 268.417C100.369 269.05 100.636 269.957 100.636 271.138V271.664H95.625C95.6432 272.393 95.8551 272.983 96.2607 273.435C96.6709 273.881 97.1904 274.104 97.8193 274.104C98.266 274.104 98.6442 274.013 98.9541 273.831C99.264 273.649 99.5352 273.407 99.7676 273.106L100.54 273.708C99.9202 274.66 98.9906 275.137 97.751 275.137ZM97.5938 268.506C97.0833 268.506 96.6549 268.693 96.3086 269.066C95.9622 269.436 95.748 269.955 95.666 270.625H99.3711V270.529C99.3346 269.887 99.1615 269.39 98.8516 269.039C98.5417 268.684 98.1224 268.506 97.5938 268.506ZM103.302 267.604L103.343 268.533C103.908 267.822 104.646 267.467 105.558 267.467C107.121 267.467 107.909 268.349 107.923 270.112V275H106.658V270.105C106.654 269.572 106.531 269.178 106.289 268.923C106.052 268.668 105.681 268.54 105.175 268.54C104.765 268.54 104.405 268.649 104.095 268.868C103.785 269.087 103.543 269.374 103.37 269.729V275H102.105V267.604H103.302ZM111.546 265.812V267.604H112.927V268.581H111.546V273.168C111.546 273.464 111.607 273.688 111.73 273.838C111.854 273.984 112.063 274.057 112.359 274.057C112.505 274.057 112.706 274.029 112.961 273.975V275C112.628 275.091 112.305 275.137 111.99 275.137C111.425 275.137 110.999 274.966 110.712 274.624C110.425 274.282 110.281 273.797 110.281 273.168V268.581H108.935V267.604H110.281V265.812H111.546ZM121.731 270.974H119.394V275H118.074V265.047H121.369C122.49 265.047 123.352 265.302 123.953 265.812C124.559 266.323 124.862 267.066 124.862 268.041C124.862 268.661 124.694 269.201 124.356 269.661C124.024 270.121 123.559 270.465 122.962 270.693L125.3 274.918V275H123.892L121.731 270.974ZM119.394 269.9H121.41C122.062 269.9 122.579 269.732 122.962 269.395C123.349 269.057 123.543 268.606 123.543 268.041C123.543 267.426 123.358 266.954 122.989 266.626C122.625 266.298 122.096 266.132 121.403 266.127H119.394V269.9ZM129.579 275.137C128.576 275.137 127.761 274.809 127.132 274.152C126.503 273.492 126.188 272.61 126.188 271.507V271.274C126.188 270.541 126.327 269.887 126.605 269.312C126.888 268.734 127.28 268.283 127.781 267.959C128.287 267.631 128.834 267.467 129.422 267.467C130.383 267.467 131.131 267.784 131.664 268.417C132.197 269.05 132.464 269.957 132.464 271.138V271.664H127.453C127.471 272.393 127.683 272.983 128.089 273.435C128.499 273.881 129.019 274.104 129.647 274.104C130.094 274.104 130.472 274.013 130.782 273.831C131.092 273.649 131.363 273.407 131.596 273.106L132.368 273.708C131.748 274.66 130.819 275.137 129.579 275.137ZM129.422 268.506C128.911 268.506 128.483 268.693 128.137 269.066C127.79 269.436 127.576 269.955 127.494 270.625H131.199V270.529C131.163 269.887 130.99 269.39 130.68 269.039C130.37 268.684 129.951 268.506 129.422 268.506ZM133.626 271.24C133.626 270.078 133.893 269.16 134.426 268.485C134.959 267.806 135.674 267.467 136.572 267.467C137.447 267.467 138.138 267.761 138.644 268.349L138.698 267.604H139.86V277.844H138.596V274.316C138.085 274.863 137.406 275.137 136.559 275.137C135.665 275.137 134.952 274.79 134.419 274.098C133.89 273.4 133.626 272.478 133.626 271.329V271.24ZM134.891 271.384C134.891 272.231 135.068 272.897 135.424 273.38C135.784 273.863 136.267 274.104 136.873 274.104C137.625 274.104 138.199 273.772 138.596 273.106V269.483C138.195 268.832 137.625 268.506 136.887 268.506C136.276 268.506 135.791 268.75 135.431 269.237C135.071 269.72 134.891 270.436 134.891 271.384ZM146.457 274.269C145.965 274.847 145.243 275.137 144.29 275.137C143.502 275.137 142.9 274.909 142.485 274.453C142.075 273.993 141.868 273.314 141.863 272.416V267.604H143.128V272.382C143.128 273.503 143.584 274.063 144.495 274.063C145.461 274.063 146.104 273.703 146.423 272.983V267.604H147.688V275H146.484L146.457 274.269ZM150.989 275H149.725V267.604H150.989V275ZM149.622 265.642C149.622 265.437 149.684 265.263 149.807 265.122C149.934 264.981 150.121 264.91 150.367 264.91C150.613 264.91 150.8 264.981 150.928 265.122C151.055 265.263 151.119 265.437 151.119 265.642C151.119 265.847 151.055 266.018 150.928 266.154C150.8 266.291 150.613 266.359 150.367 266.359C150.121 266.359 149.934 266.291 149.807 266.154C149.684 266.018 149.622 265.847 149.622 265.642ZM156.595 268.738C156.403 268.706 156.196 268.69 155.973 268.69C155.143 268.69 154.58 269.044 154.284 269.75V275H153.02V267.604H154.25L154.271 268.458C154.685 267.797 155.273 267.467 156.034 267.467C156.28 267.467 156.467 267.499 156.595 267.562V268.738ZM160.696 275.137C159.694 275.137 158.878 274.809 158.249 274.152C157.62 273.492 157.306 272.61 157.306 271.507V271.274C157.306 270.541 157.445 269.887 157.723 269.312C158.005 268.734 158.397 268.283 158.898 267.959C159.404 267.631 159.951 267.467 160.539 267.467C161.501 267.467 162.248 267.784 162.781 268.417C163.314 269.05 163.581 269.957 163.581 271.138V271.664H158.57C158.589 272.393 158.8 272.983 159.206 273.435C159.616 273.881 160.136 274.104 160.765 274.104C161.211 274.104 161.59 274.013 161.899 273.831C162.209 273.649 162.48 273.407 162.713 273.106L163.485 273.708C162.866 274.66 161.936 275.137 160.696 275.137ZM160.539 268.506C160.029 268.506 159.6 268.693 159.254 269.066C158.908 269.436 158.693 269.955 158.611 270.625H162.316V270.529C162.28 269.887 162.107 269.39 161.797 269.039C161.487 268.684 161.068 268.506 160.539 268.506ZM166.24 267.604L166.274 268.424C166.817 267.786 167.548 267.467 168.469 267.467C169.503 267.467 170.207 267.863 170.581 268.656C170.827 268.301 171.146 268.014 171.538 267.795C171.935 267.576 172.402 267.467 172.939 267.467C174.562 267.467 175.387 268.326 175.414 270.044V275H174.149V270.119C174.149 269.59 174.029 269.196 173.787 268.937C173.546 268.672 173.14 268.54 172.57 268.54C172.101 268.54 171.711 268.681 171.401 268.964C171.091 269.242 170.911 269.618 170.861 270.092V275H169.59V270.153C169.59 269.078 169.063 268.54 168.011 268.54C167.181 268.54 166.614 268.893 166.309 269.6V275H165.044V267.604H166.24ZM180.397 275.137C179.395 275.137 178.579 274.809 177.95 274.152C177.321 273.492 177.007 272.61 177.007 271.507V271.274C177.007 270.541 177.146 269.887 177.424 269.312C177.706 268.734 178.098 268.283 178.6 267.959C179.105 267.631 179.652 267.467 180.24 267.467C181.202 267.467 181.949 267.784 182.482 268.417C183.016 269.05 183.282 269.957 183.282 271.138V271.664H178.271C178.29 272.393 178.502 272.983 178.907 273.435C179.317 273.881 179.837 274.104 180.466 274.104C180.912 274.104 181.291 274.013 181.601 273.831C181.91 273.649 182.182 273.407 182.414 273.106L183.187 273.708C182.567 274.66 181.637 275.137 180.397 275.137ZM180.24 268.506C179.73 268.506 179.301 268.693 178.955 269.066C178.609 269.436 178.395 269.955 178.312 270.625H182.018V270.529C181.981 269.887 181.808 269.39 181.498 269.039C181.188 268.684 180.769 268.506 180.24 268.506ZM185.948 267.604L185.989 268.533C186.554 267.822 187.293 267.467 188.204 267.467C189.767 267.467 190.556 268.349 190.569 270.112V275H189.305V270.105C189.3 269.572 189.177 269.178 188.936 268.923C188.699 268.668 188.327 268.54 187.821 268.54C187.411 268.54 187.051 268.649 186.741 268.868C186.431 269.087 186.19 269.374 186.017 269.729V275H184.752V267.604H185.948ZM194.192 265.812V267.604H195.573V268.581H194.192V273.168C194.192 273.464 194.254 273.688 194.377 273.838C194.5 273.984 194.71 274.057 195.006 274.057C195.152 274.057 195.352 274.029 195.607 273.975V275C195.275 275.091 194.951 275.137 194.637 275.137C194.072 275.137 193.646 274.966 193.358 274.624C193.071 274.282 192.928 273.797 192.928 273.168V268.581H191.581V267.604H192.928V265.812H194.192ZM201.363 273.038C201.363 272.696 201.233 272.432 200.974 272.245C200.718 272.054 200.27 271.89 199.627 271.753C198.989 271.616 198.481 271.452 198.103 271.261C197.729 271.069 197.451 270.841 197.269 270.577C197.091 270.313 197.002 269.998 197.002 269.634C197.002 269.028 197.257 268.515 197.768 268.096C198.283 267.676 198.939 267.467 199.736 267.467C200.575 267.467 201.254 267.683 201.773 268.116C202.298 268.549 202.56 269.103 202.56 269.777H201.288C201.288 269.431 201.14 269.132 200.844 268.882C200.552 268.631 200.183 268.506 199.736 268.506C199.276 268.506 198.916 268.606 198.656 268.807C198.396 269.007 198.267 269.269 198.267 269.593C198.267 269.898 198.387 270.128 198.629 270.283C198.87 270.438 199.306 270.586 199.935 270.728C200.568 270.869 201.081 271.037 201.473 271.233C201.865 271.429 202.154 271.666 202.341 271.944C202.532 272.218 202.628 272.553 202.628 272.949C202.628 273.61 202.364 274.141 201.835 274.542C201.306 274.938 200.62 275.137 199.777 275.137C199.185 275.137 198.661 275.032 198.205 274.822C197.749 274.613 197.392 274.321 197.132 273.947C196.877 273.569 196.749 273.161 196.749 272.724H198.014C198.036 273.147 198.205 273.485 198.52 273.735C198.839 273.981 199.258 274.104 199.777 274.104C200.256 274.104 200.639 274.009 200.926 273.817C201.217 273.621 201.363 273.362 201.363 273.038Z" fill="#616263"/>
</svg>
