<svg xmlns="http://www.w3.org/2000/svg" width="66" height="65" fill="none" viewBox="0 0 66 65"><g clip-path="url(#clip0)"><path fill="#FDD069" d="M41.8887 34.6567H43.9194V36.5729H41.8887V34.6567Z"/><path fill="#FDD069" d="M21.584 34.6567H23.6147V36.5729H21.584V34.6567Z"/><path fill="#FDD069" d="M33.7091 22.4167H31.7929V25.5192H25.7012V37.5881H37.8842V45.8242H27.6179V40.6911H25.7012V47.7409H31.7929V50.8438H33.7091V47.7409H39.8009V35.6719H27.6179V27.4359H37.8842V32.569H39.8009V25.5192H33.7091V22.4167Z"/><path fill="#FDD069" d="M10.3601 54.9048H8.44336V60.939H16.5084V59.0228H10.3601V54.9048Z"/><path fill="#FDD069" d="M22.5996 59.0227H24.6304V60.9389H22.5996V59.0227Z"/><path fill="#FDD069" d="M55.0879 59.0227H57.1181V60.9389H55.0879V59.0227Z"/><path fill="#FDD069" d="M51.9853 36.6299C51.9853 26.0248 43.3575 17.397 32.7524 17.397C22.1474 17.397 13.5195 26.0248 13.5195 36.6299C13.5195 47.2349 22.1474 55.8628 32.7524 55.8628C38.2159 55.8628 43.4408 53.5265 47.0872 49.4526L45.6595 48.1742C42.3761 51.8424 37.6719 53.9466 32.7524 53.9466C23.2042 53.9466 15.4362 46.1781 15.4362 36.6299C15.4362 27.0816 23.2042 19.3137 32.7524 19.3137C42.3007 19.3137 50.0686 27.0816 50.0686 36.6299C50.0686 40.0546 49.0709 43.3653 47.1834 46.2044L48.7793 47.2657C50.8765 44.1112 51.9853 40.4335 51.9853 36.6299Z"/><path fill="#FDD069" d="M45.9492 34.6567H47.98V36.5729H45.9492V34.6567Z"/><path fill="#FDD069" d="M17.5234 34.6567H19.5542V36.5729H17.5234V34.6567Z"/><path fill="#FDD069" d="M21.584 30.5957H23.6147V32.5119H21.584V30.5957Z"/><path fill="#FDD069" d="M21.584 38.7178H23.6147V40.634H21.584V38.7178Z"/><path fill="#FDD069" d="M41.8887 38.7178H43.9194V40.634H41.8887V38.7178Z"/><path fill="#FDD069" d="M41.8887 30.5957H43.9194V32.5119H41.8887V30.5957Z"/><path fill="#FDD069" d="M6.29791 17.283H20.5687V15.3668H9.03782L19.0036 9.83046L18.0728 8.15527L4.38171 15.7611V63.0838H0.263672V65H24.6297V63.0838H6.29791V17.283Z"/><path fill="#FDD069" d="M18.5371 59.0227H20.5679V60.9389H18.5371V59.0227Z"/><path fill="#FDD069" d="M55.0879 54.9619H57.1181V56.8781H55.0879V54.9619Z"/><path fill="#FDD069" d="M61.1223 63.0838V15.761L53.0002 11.2532V3.74512L50.4086 1.15299H42.9615V5.67123L32.7522 0L21.1191 6.46271L22.05 8.13789L32.7522 2.19193L44.8782 8.92738V7.1307H51.0835V12.3814L56.4632 15.3668H44.9352V17.283H59.2056V63.0838H27.6761V65H65.2403V63.0838H61.1223ZM44.8782 5.214V3.06969H49.6147L51.0835 4.53907V5.2145H44.8782V5.214Z"/></g><defs><clipPath id="clip0"><rect width="65" height="65" fill="#fff" transform="translate(0.263672)"/></clipPath></defs></svg>