<svg xmlns="http://www.w3.org/2000/svg" width="66" height="65" fill="none" viewBox="0 0 66 65"><g clip-path="url(#clip0)"><path fill="#FDD069" d="M43.7134 5.07812C40.7558 5.07812 38.3496 7.48427 38.3496 10.4419V15.534C38.3496 18.1689 40.4932 20.3125 43.1281 20.3125C44.0626 20.3125 45.3395 19.9375 46.1204 18.8852C46.6211 18.2104 47.0945 16.9974 46.5055 15.0516C46.2466 14.1939 46.24 13.3505 46.4869 12.6118L47.3275 10.0899C48.1493 7.62074 46.315 5.07812 43.7134 5.07812ZM44.9186 9.28764L44.0785 11.808C43.6645 13.0467 43.6632 14.422 44.0751 15.7864C44.2961 16.5167 44.2985 17.0799 44.0816 17.3721C43.8384 17.6998 43.2982 17.7736 43.1281 17.7736C41.8933 17.7736 40.8887 16.7689 40.8887 15.5341V10.4419C40.8887 8.88431 42.1558 7.61719 43.7134 7.61719C44.5817 7.61719 45.1921 8.46612 44.9186 9.28764Z"/><path fill="#FDD069" d="M49.8761 21.4242C50.657 22.4765 51.9339 22.8516 52.8684 22.8516C55.5033 22.8516 57.6469 20.708 57.6469 18.073V12.981C57.6469 10.0233 55.2407 7.61719 52.2831 7.61719C49.6811 7.61719 47.8474 10.1598 48.669 12.6296L49.5098 15.1519C49.7564 15.8896 49.7499 16.7329 49.4913 17.5897C48.902 19.5364 49.3754 20.7495 49.8761 21.4242ZM52.2831 10.1562C53.8407 10.1562 55.1078 11.4234 55.1078 12.981V18.073C55.1078 19.3079 54.1033 20.3125 52.8684 20.3125C52.6983 20.3125 52.1581 20.2387 51.915 19.9111C51.698 19.6188 51.7004 19.0557 51.9217 18.3243C52.3331 16.9609 52.3319 15.5855 51.9184 14.3479L51.0781 11.8271C50.8041 11.0042 51.4155 10.1562 52.2831 10.1562Z"/><path fill="#FDD069" d="M48.7598 2.53906C49.4609 2.53906 50.0293 1.97067 50.0293 1.26953C50.0293 0.568388 49.4609 0 48.7598 0C48.0586 0 47.4902 0.568388 47.4902 1.26953C47.4902 1.97067 48.0586 2.53906 48.7598 2.53906Z"/><path fill="#FDD069" d="M61.4565 0H54.4741C53.773 0 53.2045 0.568369 53.2045 1.26953C53.2045 1.97069 53.773 2.53906 54.4741 2.53906H61.4565C62.1565 2.53906 62.726 3.10857 62.726 3.80859V24.1211C62.726 24.8211 62.1565 25.3906 61.4565 25.3906H48.7612C48.0601 25.3906 47.4916 25.959 47.4916 26.6602V28.6734L44.5807 25.7625C44.3426 25.5244 44.0197 25.3906 43.683 25.3906H36.0658C35.3658 25.3906 34.7963 24.8211 34.7963 24.1211V3.80859C34.7963 3.10857 35.3658 2.53906 36.0658 2.53906H43.0483C43.7493 2.53906 44.3178 1.97069 44.3178 1.26953C44.3178 0.568369 43.7493 0 43.0483 0H36.0658C33.9658 0 32.2573 1.70854 32.2573 3.80859V12.2147C28.9929 11.5494 25.634 11.5018 22.2489 12.0784C11.2039 13.9546 2.43317 22.9243 0.640086 33.8066C-2.10972 50.4695 10.6503 64.9994 26.9242 65C26.9246 65 26.9251 65.0001 26.9255 65.0001C26.9261 65.0001 26.9266 65 26.9273 65C40.6341 64.999 51.8432 54.5302 53.3884 41.624C53.9535 36.9034 53.2929 32.2099 51.4761 27.9297H61.4565C63.5565 27.9297 65.2651 26.2212 65.2651 24.1211V3.80859C65.2651 1.70854 63.5565 0 61.4565 0V0ZM14.9458 17.3707C14.9948 18.9494 15.2124 20.1718 15.6048 21.0727C16.3928 22.8844 18.3172 23.8744 19.8635 24.6699C20.4254 24.959 21.2398 25.3779 21.5399 25.6566C21.1519 26.3528 20.4736 27.0726 19.8165 27.77C18.6318 29.0271 17.4069 30.3271 17.6575 31.8753C17.9388 33.6102 19.331 34.3049 20.3475 34.8121C21.2313 35.253 21.5978 35.4732 21.6642 35.8827C21.6701 35.9195 21.79 36.8188 19.9705 39.8326C19.6792 40.3149 19.3829 40.7773 19.1087 41.1913C17.6311 38.2778 14.6621 32.9508 11.6665 30.663C10.1609 29.5136 8.00058 28.5265 5.23554 27.72C7.35235 23.4183 10.7852 19.7643 14.9458 17.3707ZM25.7523 55.2303C25.3335 56.2416 25.2439 57.8828 25.2856 59.4792C22.9438 56.3013 20.5658 52.7946 20.1257 51.3402C19.6175 49.6611 19.7605 47.1677 19.9376 45.5425C22.0518 46.5039 25.1127 47.96 26.1829 48.7315C26.6987 49.1032 27.2171 49.4001 27.7186 49.6872C29.1303 50.4955 29.6636 50.8791 29.6636 51.7081C29.6636 52.046 29.5204 52.205 28.447 52.7603C27.4992 53.2504 26.3194 53.8606 25.7523 55.2303ZM3.14538 34.2197C3.3772 32.8123 3.74371 31.4229 4.23362 30.0739C6.81179 30.8029 8.83567 31.6965 10.1256 32.6813C13.3444 35.1396 16.8181 42.2317 17.5944 43.8744C17.3921 45.1826 16.8592 49.3123 17.6956 52.0757C18.3827 54.3469 22.0044 59.3605 24.2309 62.3102C10.5272 60.7763 0.856414 48.0904 3.14538 34.2197ZM28.0436 62.4357C27.7947 60.1459 27.6782 57.216 28.0981 56.2016C28.2959 55.724 28.8026 55.4348 29.6135 55.0155C30.6446 54.4822 32.2028 53.6763 32.2028 51.7081C32.2028 49.3289 30.4161 48.3058 28.9803 47.4838C28.5356 47.2291 28.0757 46.9657 27.6675 46.6716C26.3067 45.6909 22.8418 44.0681 20.8425 43.1639C21.2231 42.6069 21.6809 41.9118 22.1338 41.1624C24.2257 37.7019 24.2979 36.2592 24.1705 35.4758C23.8891 33.7419 22.4975 33.0475 21.4812 32.5404C20.597 32.0992 20.2302 31.8788 20.1643 31.4737C20.1532 31.1152 21.1362 30.0719 21.6643 29.5115C22.4409 28.6872 23.3213 27.7531 23.8602 26.7015C24.109 26.2166 24.5464 24.9605 23.2369 23.7741C22.6651 23.256 21.8684 22.8461 21.025 22.4123C19.7757 21.7695 18.3598 21.0411 17.9329 20.0596C17.7334 19.6017 17.4284 18.5001 17.4803 16.1073C19.1525 15.3961 20.8961 14.8837 22.6746 14.5816C25.9243 14.0282 29.1427 14.1075 32.2571 14.8121V24.1211C32.2571 26.2212 33.9657 27.9284 36.0657 27.9284H37.8016C36.936 30.0555 37.3092 31.508 37.8676 32.4108C38.3622 33.2109 38.139 34.059 37.7338 35.3763C37.2917 36.814 36.7414 38.6034 37.8676 40.4253C38.9865 42.2359 40.8633 42.6556 42.519 43.0261C43.873 43.329 45.1519 43.615 46.0026 44.5958C46.3995 45.0539 47.199 46.3194 48.2021 49.6898C44.2764 56.9686 36.6684 62.0508 28.0436 62.4357ZM50.8674 41.3221C50.6657 43.007 50.2817 44.6564 49.7225 46.2541C49.1364 44.745 48.5403 43.6472 47.9212 42.9326C46.5221 41.3198 44.69 40.9099 43.0734 40.5483C41.5303 40.2031 40.5576 39.948 40.0275 39.0904C39.5323 38.2892 39.7555 37.4406 40.1609 36.1227C40.6029 34.6855 41.153 32.8969 40.0274 31.0756C39.6246 30.4243 39.845 29.2962 40.6265 27.9297H43.1572L47.8635 32.636C48.2267 32.9992 48.7726 33.1076 49.247 32.9111C49.7213 32.7146 50.0307 32.2517 50.0307 31.7382V31.3935C50.9831 34.5704 51.2727 37.9375 50.8674 41.3221Z"/></g><defs><clipPath id="clip0"><rect width="65" height="65" fill="#fff" transform="translate(0.263672)"/></clipPath></defs></svg>