<svg xmlns="http://www.w3.org/2000/svg" width="17" height="17" fill="none" viewBox="0 0 17 17"><path fill="#64666B" d="M8.5 16.5859C12.9657 16.5859 16.5859 12.9657 16.5859 8.5C16.5859 4.03426 12.9657 0.414062 8.5 0.414062C4.03426 0.414062 0.414062 4.03426 0.414062 8.5C0.414062 12.9657 4.03426 16.5859 8.5 16.5859Z"/><path fill="#fff" d="M4.92156 12.0812C4.9883 12.148 5.06754 12.2009 5.15474 12.237C5.24195 12.2731 5.33541 12.2917 5.4298 12.2917C5.5242 12.2917 5.61766 12.2731 5.70487 12.237C5.79207 12.2009 5.87131 12.148 5.93805 12.0812L8.50292 9.51635L11.0678 12.0812C11.2026 12.216 11.3854 12.2917 11.5761 12.2917C11.7667 12.2917 11.9496 12.2159 12.0844 12.0811C12.2192 11.9463 12.2949 11.7635 12.2949 11.5728C12.2948 11.3822 12.2191 11.1993 12.0843 11.0645L9.51941 8.49986L12.0843 5.93518C12.2191 5.80038 12.2948 5.61755 12.2949 5.4269C12.2949 5.23626 12.2192 5.05341 12.0844 4.91859C11.9496 4.78377 11.7667 4.70802 11.5761 4.70801C11.3854 4.70799 11.2026 4.78371 11.0678 4.9185L8.50292 7.48336L5.93805 4.9185C5.8713 4.85176 5.79205 4.79882 5.70483 4.7627C5.61762 4.72658 5.52414 4.708 5.42974 4.70801C5.33534 4.70802 5.24187 4.72662 5.15466 4.76275C5.06745 4.79888 4.98821 4.85184 4.92147 4.91859C4.85472 4.98535 4.80178 5.0646 4.76566 5.15181C4.72955 5.23903 4.71096 5.3325 4.71097 5.4269C4.71098 5.5213 4.72958 5.61477 4.76571 5.70198C4.80185 5.78919 4.8548 5.86843 4.92156 5.93518L7.48642 8.49986L4.92156 11.0645C4.85478 11.1313 4.80182 11.2105 4.76568 11.2977C4.72954 11.385 4.71094 11.4785 4.71094 11.5729C4.71094 11.6673 4.72954 11.7608 4.76568 11.848C4.80182 11.9352 4.85478 12.0145 4.92156 12.0812V12.0812Z"/></svg>