<svg xmlns="http://www.w3.org/2000/svg" width="67" height="65" fill="none" viewBox="0 0 67 65"><path fill="#FDD069" d="M65.2122 31.5479H49.6029V29.3815H53.8143C54.3497 29.3815 54.7838 28.9552 54.7838 28.4294C54.7838 27.9035 54.3497 27.4772 53.8143 27.4772H49.6029V25.3108H52.5268C53.6161 25.3108 54.6402 24.8942 55.4103 24.1377L61.7863 17.8756C62.2017 18.0789 62.6623 18.1871 63.14 18.1871C63.9526 18.1871 64.7164 17.8763 65.2909 17.3121C65.8655 16.7478 66.1819 15.9976 66.1819 15.1996C66.1819 14.4016 65.8655 13.6514 65.2909 13.0871C64.7165 12.5228 63.9526 12.212 63.14 12.212C62.3275 12.212 61.5637 12.5228 60.9891 13.087C60.4146 13.6513 60.0981 14.4014 60.0981 15.1995C60.0981 15.6687 60.2083 16.121 60.4152 16.529L54.0393 22.7911C53.6353 23.1879 53.0981 23.4065 52.5266 23.4065H49.6027V21.3057C49.6027 18.536 47.3085 16.2829 44.4887 16.2829H42.3496V7.85383C43.5528 7.45532 44.422 6.33725 44.422 5.02277C44.422 3.37543 43.0573 2.03531 41.3802 2.03531C39.703 2.03531 38.3384 3.37556 38.3384 5.02277C38.3384 6.33725 39.2075 7.4552 40.4107 7.85383V16.2828H38.205V12.1465C38.205 11.6207 37.7709 11.1943 37.2355 11.1943C36.7001 11.1943 36.2661 11.6207 36.2661 12.1465V16.2828H34.0602V0.952149C34.0602 0.426309 33.6262 0 33.0908 0C32.5554 0 32.1213 0.426309 32.1213 0.952149V16.2828H29.9156V12.1465C29.9156 11.6207 29.4815 11.1943 28.9461 11.1943C28.4107 11.1943 27.9767 11.6207 27.9767 12.1465V16.2828H25.771V13.4112C25.771 12.3414 25.3467 11.3355 24.5765 10.5791L18.1983 4.31488C18.7618 3.19757 18.5729 1.80439 17.6268 0.875088C16.4407 -0.289707 14.511 -0.28958 13.325 0.875088C12.1391 2.03988 12.1391 3.93517 13.325 5.10009C13.9181 5.68242 14.697 5.97365 15.4759 5.97365C15.9397 5.97365 16.4027 5.8679 16.8274 5.66135L23.2055 11.9257C23.6096 12.3225 23.832 12.8501 23.832 13.4112V16.2828H21.693C21.2606 16.2828 20.8306 16.3361 20.4149 16.4411C19.8964 16.5721 19.5843 17.0912 19.7176 17.6005C19.851 18.1099 20.3797 18.4165 20.8982 18.2853C21.1561 18.2202 21.4234 18.1871 21.6929 18.1871H44.4887C46.2395 18.1871 47.6638 19.5861 47.6638 21.3055V43.6944C47.6638 43.9588 47.6302 44.2212 47.564 44.4742C47.4308 44.9836 47.7431 45.5025 48.2615 45.6334C48.3424 45.6539 48.4236 45.6636 48.5036 45.6636C48.9355 45.6636 49.3294 45.3781 49.4418 44.9483C49.5486 44.5405 49.6027 44.1185 49.6027 43.6942V41.5934H58.1849C58.5907 42.7751 59.7291 43.6287 61.0675 43.6287C62.7448 43.6287 64.1092 42.2886 64.1092 40.6413C64.1092 38.9939 62.7446 37.6538 61.0675 37.6538C59.7291 37.6538 58.5908 38.5074 58.1849 39.6891H49.6027V37.5226H53.8142C54.3496 37.5226 54.7837 37.0963 54.7837 36.5705C54.7837 36.0447 54.3496 35.6184 53.8142 35.6184H49.6027V33.4522H65.2122C65.7476 33.4522 66.1817 33.0258 66.1817 32.5C66.1817 31.9742 65.7476 31.5479 65.2122 31.5479ZM62.3601 14.4337C62.5684 14.229 62.8453 14.1164 63.1399 14.1164C63.4345 14.1164 63.7114 14.229 63.9197 14.4337C64.1281 14.6383 64.2428 14.9103 64.2428 15.1996C64.2428 15.4889 64.1281 15.7609 63.9197 15.9655C63.7114 16.1701 63.4345 16.2828 63.1399 16.2828C62.8453 16.2828 62.5684 16.1701 62.3601 15.9655C62.1517 15.7609 62.037 15.4889 62.037 15.1996C62.037 14.9103 62.1517 14.6382 62.3601 14.4337ZM16.2556 3.75362C15.8257 4.17574 15.126 4.17587 14.6958 3.7535C14.2658 3.33112 14.2658 2.64393 14.6958 2.22168C14.9109 2.01043 15.1932 1.90493 15.4758 1.90493C15.7582 1.90493 16.0407 2.01056 16.2556 2.22168C16.6857 2.64405 16.6857 3.33125 16.2556 3.75362ZM41.3802 6.10594C40.7721 6.10594 40.2773 5.61996 40.2773 5.02277C40.2773 4.42559 40.772 3.93961 41.3802 3.93961C41.9883 3.93961 42.483 4.42559 42.483 5.02277C42.483 5.61996 41.9882 6.10594 41.3802 6.10594ZM61.0676 39.5582C61.6758 39.5582 62.1704 40.0442 62.1704 40.6414C62.1704 41.2387 61.6756 41.7245 61.0676 41.7245C60.4595 41.7245 59.9647 41.2386 59.9647 40.6414C59.9646 40.0441 60.4594 39.5582 61.0676 39.5582Z"/><path fill="#FDD069" d="M52.8568 59.8999C51.9107 58.9706 50.4921 58.7851 49.3544 59.3385L42.9763 53.0741C42.5722 52.6774 42.3498 52.1498 42.3498 51.5886V48.7171H44.4888C44.9212 48.7171 45.3511 48.6638 45.7667 48.5588C46.2851 48.4277 46.5973 47.9086 46.4639 47.3993C46.3305 46.8901 45.8022 46.5835 45.2834 46.7145C45.0256 46.7796 44.7583 46.8127 44.4888 46.8127H21.693C19.9422 46.8127 18.5179 45.4136 18.5179 43.6942V21.3055C18.5179 21.0408 18.5515 20.7782 18.6178 20.5252C18.7513 20.016 18.4391 19.4969 17.9207 19.3658C17.4021 19.2346 16.8735 19.5412 16.7401 20.0504C16.6331 20.4584 16.5789 20.8807 16.5789 21.3055V23.4063H7.99662C7.59087 22.2246 6.45247 21.371 5.1141 21.371C3.4368 21.371 2.07232 22.7111 2.07232 24.3584C2.07232 26.0058 3.43693 27.3459 5.1141 27.3459C6.45247 27.3459 7.59074 26.4923 7.99662 25.3106H16.5788V27.477H12.3673C11.8319 27.477 11.3979 27.9034 11.3979 28.4292C11.3979 28.955 11.8319 29.3813 12.3673 29.3813H16.5788V31.5477H0.96946C0.43406 31.5477 0 31.974 0 32.4998C0 33.0257 0.43406 33.452 0.96946 33.452H16.5788V35.6183H12.3673C11.8319 35.6183 11.3979 36.0446 11.3979 36.5704C11.3979 37.0963 11.8319 37.5226 12.3673 37.5226H16.5788V39.6891H13.6549C12.5656 39.6891 11.5415 40.1056 10.7713 40.8621L4.3954 47.1242C3.97996 46.9209 3.5194 46.8128 3.04165 46.8128C2.22911 46.8128 1.46531 47.1236 0.89074 47.6877C0.316432 48.252 0 49.0023 0 49.8002C0 50.5981 0.316432 51.3484 0.890999 51.9127C1.46544 52.477 2.22937 52.7877 3.04191 52.7877C3.85444 52.7877 4.61825 52.4769 5.19282 51.9127C5.76738 51.3484 6.08382 50.5983 6.08382 49.8002C6.08382 49.331 5.97368 48.8787 5.76674 48.4707L12.1427 42.2086C12.5466 41.8118 13.0838 41.5932 13.6553 41.5932H16.5792V43.694C16.5792 46.4637 18.8735 48.7168 21.6933 48.7168H23.8323V57.1458C22.6291 57.5443 21.76 58.6623 21.76 59.9768C21.76 61.6241 23.1246 62.9643 24.8018 62.9643C26.4789 62.9643 27.8435 61.624 27.8435 59.9768C27.8435 58.6623 26.9744 57.5444 25.7712 57.1458V48.7168H27.9769V52.8531C27.9769 53.3789 28.411 53.8052 28.9464 53.8052C29.4818 53.8052 29.9159 53.3789 29.9159 52.8531V48.7168H32.1214V64.0477C32.1214 64.5735 32.5555 64.9998 33.0909 64.9998C33.6263 64.9998 34.0604 64.5735 34.0604 64.0477V48.7171H36.2661V52.8533C36.2661 53.3792 36.7001 53.8055 37.2355 53.8055C37.7709 53.8055 38.205 53.3792 38.205 52.8533V48.7171H40.4107V51.5886C40.4107 52.6585 40.835 53.6643 41.6052 54.4207L47.9834 60.6849C47.4199 61.8023 47.6088 63.1954 48.555 64.1247C49.1479 64.7072 49.9269 64.9983 50.7059 64.9983C51.4848 64.9983 52.2639 64.7072 52.8568 64.1247C54.0428 62.9599 54.0428 61.0647 52.8568 59.8999ZM5.1141 25.4416C4.50592 25.4416 4.01124 24.9556 4.01124 24.3584C4.01124 23.7611 4.50605 23.2753 5.1141 23.2753C5.72214 23.2753 6.21695 23.7613 6.21695 24.3584C6.21708 24.9558 5.72227 25.4416 5.1141 25.4416ZM3.82161 50.5661C3.61324 50.7708 3.33636 50.8834 3.04178 50.8834C2.74719 50.8834 2.47031 50.7708 2.26194 50.5661C2.05358 50.3615 1.93892 50.0896 1.93892 49.8002C1.93892 49.5109 2.05358 49.239 2.26194 49.0343C2.47031 48.8297 2.74719 48.7171 3.04178 48.7171C3.33636 48.7171 3.61324 48.8297 3.82161 49.0343C4.02998 49.239 4.14464 49.5109 4.14464 49.8002C4.14464 50.0896 4.02998 50.3616 3.82161 50.5661ZM25.9044 59.9771C25.9044 60.5742 25.4097 61.0602 24.8015 61.0602C24.1933 61.0602 23.6986 60.5742 23.6986 59.9771C23.6986 59.3799 24.1935 58.8939 24.8015 58.8939C25.4096 58.8939 25.9044 59.3799 25.9044 59.9771ZM51.4858 62.7783C51.0558 63.2007 50.3561 63.2005 49.926 62.7783C49.496 62.3559 49.496 61.6687 49.926 61.2465C50.1411 61.0353 50.4236 60.9297 50.706 60.9297C50.9884 60.9297 51.2709 61.0353 51.4858 61.2465C51.9158 61.6687 51.9158 62.3559 51.4858 62.7783Z"/><path fill="#FDD069" d="M43.3867 29.9559C43.3867 27.9196 41.8702 26.1947 39.7941 25.6342C39.8555 25.3852 39.8896 25.1292 39.8896 24.8675C39.8896 22.9396 38.1473 21.3711 36.006 21.3711C34.846 21.3711 33.804 21.8318 33.0918 22.56C32.3795 21.8318 31.3374 21.3711 30.1776 21.3711C28.0361 21.3711 26.2939 22.9396 26.2939 24.8675C26.2939 25.1292 26.328 25.3852 26.3894 25.6342C24.3134 26.1946 22.7969 27.9195 22.7969 29.9559C22.7969 30.9511 23.1554 31.89 23.8179 32.6655C23.1702 33.489 22.7969 34.4888 22.7969 35.5532C22.7966 37.1721 23.6774 38.6837 25.1281 39.6214C25.1281 39.6221 25.1281 39.6229 25.1281 39.6237C25.1281 41.8321 27.1318 43.6289 29.5947 43.6289C31.0101 43.6289 32.2729 43.0349 33.0918 42.1109C33.9106 43.0349 35.1734 43.6289 36.5888 43.6289C38.9591 43.6289 40.903 41.9645 41.046 39.8708C42.4856 39.0505 43.3867 37.6135 43.3867 36.0619C43.3867 34.9206 42.8912 33.8318 42.0385 33.0089C42.8911 32.186 43.3867 31.0971 43.3867 29.9559ZM39.9555 33.8508C40.8897 34.335 41.4474 35.1616 41.4474 36.0619C41.4474 36.7331 41.1298 37.3733 40.5933 37.852C40.0836 36.9251 39.1828 36.1873 38.0447 35.8361C37.5341 35.6786 36.9898 35.9575 36.8292 36.4591C36.6687 36.9608 36.9528 37.4953 37.4635 37.6528C38.4518 37.9579 39.116 38.75 39.116 39.6238C39.116 40.7822 37.9821 41.7247 36.5883 41.7247C35.1946 41.7247 34.0607 40.7822 34.0607 39.6238V33.5177C34.0607 32.3593 35.1946 31.4169 36.5883 31.4169C37.1237 31.4169 37.5577 30.9906 37.5577 30.4647C37.5577 29.9389 37.1237 29.5126 36.5883 29.5126C35.6506 29.5126 34.7799 29.7736 34.0607 30.2181V29.0019C34.0607 28.476 33.6266 28.0497 33.0912 28.0497C32.5558 28.0497 32.1218 28.476 32.1218 29.0019V34.2878C31.7955 34.0867 31.4377 33.9203 31.0507 33.8008C30.5396 33.6431 29.9957 33.9222 29.8353 34.4237C29.6747 34.9254 29.9587 35.4598 30.4694 35.6175C31.4578 35.9226 32.1218 36.7147 32.1218 37.5883V39.6237C32.1218 40.7821 30.9879 41.7246 29.5942 41.7246C28.2004 41.7246 27.0665 40.7821 27.0665 39.6237C27.0665 39.1271 27.2808 38.6445 27.6699 38.2646C28.0497 37.8939 28.0515 37.291 27.674 36.918C27.2966 36.545 26.6829 36.5433 26.3031 36.914C26.0708 37.1408 25.8708 37.3886 25.7046 37.6521C25.0924 37.0833 24.735 36.3351 24.735 35.5529C24.735 34.1422 25.8623 32.9029 27.4764 32.5392C27.9982 32.4216 28.3242 31.9107 28.2045 31.3982C28.0848 30.8856 27.5646 30.5655 27.0429 30.6831C26.3931 30.8295 25.7948 31.0739 25.2643 31.3947C24.9204 30.9704 24.7352 30.4735 24.7352 29.9557C24.7355 28.5235 26.1179 27.3576 27.8219 27.3465C27.8306 27.3468 27.8392 27.3479 27.8478 27.3479C28.0691 27.3479 28.2915 27.2739 28.4736 27.1225C28.8453 26.8134 28.9199 26.2891 28.6704 25.8947C28.663 25.883 28.6563 25.8711 28.6485 25.8598C28.6445 25.8541 28.6397 25.8486 28.6356 25.8429C28.6206 25.8222 28.6052 25.8019 28.5886 25.7823C28.588 25.7817 28.5877 25.7811 28.5871 25.7806C28.4254 25.5928 28.2324 25.282 28.2324 24.8674C28.2324 23.9895 29.105 23.2753 30.1772 23.2753C31.2494 23.2753 32.1219 23.9895 32.1219 24.8674C32.1219 25.3932 32.556 25.8195 33.0914 25.8195C33.6268 25.8195 34.0608 25.3932 34.0608 24.8674C34.0608 23.9895 34.9334 23.2753 36.0056 23.2753C37.0778 23.2753 37.9503 23.9895 37.9503 24.8674C37.9503 25.102 37.8878 25.3021 37.8049 25.4666C37.2535 25.5178 36.7201 25.6487 36.2138 25.8584C35.7204 26.0626 35.4892 26.6211 35.6972 27.1057C35.9051 27.5901 36.4738 27.8175 36.9672 27.6131C37.3862 27.4396 37.8371 27.3503 38.3073 27.3468C38.3166 27.347 38.3258 27.3479 38.3351 27.3479C38.3438 27.3479 38.3523 27.3468 38.361 27.3465C40.065 27.3574 41.4474 28.5235 41.4474 29.9557C41.4474 30.8559 40.8897 31.6824 39.9555 32.1667C39.6376 32.3315 39.4385 32.6556 39.4385 33.0088C39.4385 33.3619 39.6376 33.6861 39.9555 33.8508Z"/></svg>