<svg width="20" height="20" viewBox="0 0 20 20" fill="none" xmlns="http://www.w3.org/2000/svg">
  <path d="M9.98707 0.00212522C7.31507 0.0458688 4.76762 1.13939 2.8954 3.04629C1.95863 3.97894 1.21952 5.09089 0.722252 6.31567C0.22498 7.54045 -0.0202443 8.85292 0.00123763 10.1746C-0.000299436 11.4661 0.253041 12.7452 0.746739 13.9386C1.24044 15.132 1.96479 16.2163 2.87828 17.1292C3.79177 18.0422 4.87645 18.7659 6.07014 19.2589C7.26384 19.7519 8.54308 20.0044 9.83457 20.0021H10.0129C12.6857 19.9746 15.2385 18.888 17.111 16.9806C18.9836 15.0732 20.023 12.5008 20.0012 9.82796C20.0043 8.52081 19.746 7.22623 19.2415 6.02037C18.7369 4.81451 17.9964 3.7217 17.0633 2.80621C16.1303 1.89073 15.0236 1.17105 13.8084 0.689494C12.5932 0.207941 11.2939 -0.0257635 9.98707 0.00212522V0.00212522ZM8.75124 13.7871C8.74523 13.6237 8.77186 13.4608 8.82957 13.3078C8.88728 13.1548 8.97492 13.0149 9.08735 12.8962C9.19978 12.7774 9.33475 12.6823 9.48437 12.6164C9.63399 12.5505 9.79526 12.515 9.95874 12.5121H9.98124C10.3101 12.5128 10.6259 12.6407 10.8625 12.869C11.0991 13.0974 11.2381 13.4085 11.2504 13.7371C11.2565 13.9006 11.23 14.0636 11.1723 14.2166C11.1146 14.3696 11.027 14.5096 10.9146 14.6283C10.8021 14.7471 10.6671 14.8422 10.5174 14.9081C10.3677 14.974 10.2064 15.0094 10.0429 15.0121H10.0204C9.69169 15.0111 9.3761 14.883 9.13958 14.6548C8.90306 14.4265 8.76392 14.1156 8.75124 13.7871V13.7871ZM9.16791 10.4188V5.41879C9.16791 5.19778 9.2557 4.98582 9.41198 4.82954C9.56826 4.67326 9.78022 4.58546 10.0012 4.58546C10.2223 4.58546 10.4342 4.67326 10.5905 4.82954C10.7468 4.98582 10.8346 5.19778 10.8346 5.41879V10.4188C10.8346 10.6398 10.7468 10.8518 10.5905 11.008C10.4342 11.1643 10.2223 11.2521 10.0012 11.2521C9.78022 11.2521 9.56826 11.1643 9.41198 11.008C9.2557 10.8518 9.16791 10.6398 9.16791 10.4188Z" fill="white" />
</svg>
  